<?xml version="1.0" encoding="UTF-8" standalone="no"?>
<svg
   xmlns:dc="http://purl.org/dc/elements/1.1/"
   xmlns:cc="http://creativecommons.org/ns#"
   xmlns:rdf="http://www.w3.org/1999/02/22-rdf-syntax-ns#"
   xmlns:svg="http://www.w3.org/2000/svg"
   xmlns="http://www.w3.org/2000/svg"
   viewBox="0 0 2498 650"
   height="650"
   width="2498"
   id="svg2"
   version="1.1">
  <metadata
     id="metadata8">
    <rdf:RDF>
      <cc:Work
         rdf:about="">
        <dc:format>image/svg+xml</dc:format>
        <dc:type
           rdf:resource="http://purl.org/dc/dcmitype/StillImage" />
        <dc:title></dc:title>
      </cc:Work>
    </rdf:RDF>
  </metadata>
  <defs
     id="defs6" />
  <path
     id="path817"
     d="M 1667.7985,646.40213 C 1667.085,644.80596 1636.5075,580.05 1599.8486,502.5 l -66.6527,-141 13.1476,-0.5 13.1477,-0.5 32.6853,-71.5 c 17.977,-39.325 32.7165,-71.84628 32.7544,-72.2695 0.038,-0.42323 -9.7098,-0.64823 -21.6618,-0.5 l -21.7309,0.2695 -18.0191,38.67475 c -9.9105,21.27112 -18.2441,38.88547 -18.5191,39.143 -0.275,0.25754 -8.6668,-17.1461 -18.6485,-38.67475 l -18.1486,-39.143 -21.9098,-0.26862 -21.9098,-0.26862 -50.8355,-107.50418 C 1385.5882,49.331287 1362.9277,0.73894041 1363.1911,0.47559114 c 0.2633,-0.26334928 138.3867,-0.36559107 306.9408,-0.227204 L 1976.594,0.5 1925.797,107.9184 c -27.9384,59.08012 -50.797,107.56762 -50.797,107.75 0,0.18238 20.2604,0.3316 45.0231,0.3316 h 45.023 l -0.273,17.75 -0.2731,17.75 -19.75,0.27114 -19.75,0.27114 V 306.52114 361 H 1905.5 1886 V 306.5 252 l -14.25,0.0236 -14.25,0.0236 -16,34.06576 c -8.8,18.73616 -16.32,34.26627 -16.7111,34.51135 -0.3911,0.24508 -4.6563,-2.00061 -9.4783,-4.99042 l -8.7673,-5.43601 -6.2046,5.80412 c -7.8236,7.31858 -14.7891,10.15106 -25.3387,10.30378 -9.4077,0.13619 -14.2112,-1.26345 -21.8562,-6.36859 C 1742.9311,313.1174 1736,300.40764 1736,288.5 c 0,-11.90764 6.9311,-24.6174 17.1438,-31.43722 7.645,-5.10514 12.4485,-6.50478 21.8562,-6.36859 10.5431,0.15263 17.516,2.98604 25.3245,10.29056 l 6.1905,5.79089 15.7387,-9.63782 c 8.6562,-5.3008 15.7403,-9.90147 15.7424,-10.22371 0.011,-1.62051 -8.1825,-10.74744 -13.9322,-15.51987 -12.5067,-10.38109 -29.5732,-16.86164 -47.5639,-18.06113 -38.0682,-2.53811 -73.2825,23.95769 -80.9083,60.8768 -7.2415,35.05804 13.4001,71.31519 48.0389,84.38098 18.4697,6.96678 39.2611,6.94946 57.8522,-0.0482 3.5845,-1.34918 6.5172,-2.23872 6.5172,-1.97674 0,0.86582 -137.2308,290.91498 -138.0763,291.83618 -0.4667,0.5085 -1.394,-0.36416 -2.1252,-2 z M 1675.5,288.5 v -72 h -19.5 -19.5 l -0.2588,71 c -0.1423,39.05 -0.04,71.57225 0.227,72.27167 0.3748,0.98136 4.8857,1.20965 19.7587,1 L 1675.5,360.5 Z m -1477,73.84405 C 172.18911,356.73269 151.3066,338.20587 142.31824,312.5 c -2.60003,-7.43584 -2.79691,-9.09306 -2.79184,-23.5 0.006,-17.58724 1.03248,-22.32367 7.59444,-35.04882 9.44859,-18.32296 25.44954,-31.26944 46.37916,-37.52567 7.59264,-2.26958 10.95467,-2.70078 21.5,-2.7575 14.70959,-0.0791 23.77108,2.0297 35.94341,8.36486 7.2441,3.77023 17.14857,11.05233 17.92805,13.18131 C 269.26648,236.29311 244.12367,262 242.67339,262 c -0.4705,0 -2.69129,-1.5714 -4.93508,-3.492 -8.75572,-7.49457 -22.84741,-9.68109 -34.4508,-5.34551 -8.06384,3.01303 -17.13653,12.12694 -20.17983,20.27151 -5.84878,15.65269 -2.56624,32.36361 8.46274,43.08255 11.39051,11.0703 28.11546,13.22064 40.16962,5.16462 4.75032,-3.17473 4.76056,-3.19383 5.05768,-9.43117 L 237.09543,306 H 226.54772 216 V 289.5 273 h 28.5 28.5 v 32.78759 32.78759 l -4.75,4.56335 c -14.46375,13.89539 -32.31502,20.92522 -52.75,20.77294 -5.5,-0.041 -13.15,-0.74633 -17,-1.56742 z m 357,-0.004 C 529.06192,356.68704 507.56116,337.61096 499.32485,312.5 c -3.77567,-11.51132 -4.43892,-30.6574 -1.46887,-42.40234 5.50091,-21.75313 19.408,-38.79164 39.64402,-48.57054 12.66832,-6.12186 20.50269,-7.8895 35,-7.89692 13.71415,-0.007 21.02029,1.54387 32.24414,6.8445 9.14039,4.31669 14.9308,8.29548 21.20824,14.57292 4.91634,4.91634 11.04762,13.0468 11.04762,14.64984 0,0.46041 -7.32941,5.21696 -16.28758,10.5701 l -16.28758,9.73299 -6.51132,-6.35318 C 589.11879,255.06623 582.85927,252.64265 571,253.22692 c -6.75637,0.33286 -9.5949,0.98049 -13.8375,3.15711 -7.0914,3.63816 -13.71601,10.42956 -16.99167,17.41947 -2.27275,4.84982 -2.66962,7.03418 -2.67018,14.6965 -5.6e-4,7.8071 0.38102,9.82633 2.87887,15.23431 3.48818,7.55208 10.41309,14.34964 18.40241,18.06398 4.76121,2.21355 7.14398,2.66203 14.2391,2.68006 7.64591,0.0194 9.21077,-0.31791 15.23708,-3.28465 4.51199,-2.22125 8.25041,-5.0466 11.3914,-8.60921 l 4.67534,-5.30289 16.75099,10.05488 16.75098,10.05488 -3.12893,4.55432 c -10.27503,14.95583 -27.33051,26.39296 -45.3953,30.44135 -8.89836,1.99416 -24.35755,1.97273 -33.80259,-0.0469 z m 145.50835,0.0406 c -17.14832,-3.74688 -31.9531,-15.09475 -38.85828,-29.78488 -4.85161,-10.32137 -5.11951,-13.78253 -5.13529,-66.34588 L 657,217 h 20 20 v 47.78811 c 0,47.57172 0.0102,47.80828 2.25,52.24193 2.69158,5.32792 7.04276,8.43809 13.84632,9.8972 8.08421,1.73375 17.67619,-0.69831 22.11554,-5.60743 C 739.89571,316.14032 740,314.90347 740,264.53212 V 217 h 20 20 v 50.2899 c 0,55.44552 -0.0924,56.4479 -6.28119,68.11565 -6.8718,12.9555 -22.04206,23.7104 -38.21881,27.0951 -8.70312,1.82097 -25.88223,1.76126 -34.49165,-0.11989 z m 383.27185,-0.24059 c -21.8556,-5.55756 -37.5873,-20.93913 -41.8135,-40.8829 -1.1291,-5.32791 -1.4356,-17.06932 -1.4493,-55.50727 L 1041,217 h 19.9639 19.9639 l 0.2861,48.82434 0.2861,48.82433 2.8227,4.26404 c 3.7727,5.69923 9.9171,8.46797 18.6801,8.41754 9.6014,-0.0553 15.5271,-3.42859 19.3766,-11.03059 1.4272,-2.8185 1.6206,-8.93332 1.6206,-51.25 V 217 h 20.5728 20.5728 l -0.3718,50.75 c -0.3578,48.83967 -0.4533,50.99467 -2.5365,57.25 -2.3779,7.14025 -7.8728,16.88835 -12.0544,21.3849 -4.481,4.81841 -15.4676,11.38669 -23.7999,14.22867 -10.6223,3.62304 -30.9586,4.36041 -42.1028,1.5266 z m 952.7669,0.72196 c -21.5185,-3.5677 -41.8328,-16.57608 -53.3743,-34.17859 -9.2234,-14.06695 -12.0733,-23.55986 -12.0638,-40.18354 0.01,-13.3977 1.6176,-21.03793 6.5119,-30.90244 10.4409,-21.04368 27.6257,-34.94748 51.7224,-41.84729 10.2059,-2.92232 31.1246,-3.0948 41.6567,-0.34348 28.2848,7.3889 50.8344,29.03115 57.5315,55.21645 2.3804,9.30731 2.5824,23.76822 0.4732,33.87676 -0.8034,3.85 -3.5626,11.25806 -6.1316,16.46234 -3.9062,7.91304 -6.1611,10.959 -13.772,18.60308 -9.6247,9.66659 -17.5548,14.82831 -29.545,19.23081 -12.8488,4.71777 -29.5527,6.29689 -43.009,4.0659 z m 27.705,-39.05324 c 27.16,-10.10547 32.8717,-46.83161 10.0845,-64.8438 -10.448,-8.25869 -24.9589,-10.59967 -37.1212,-5.98861 -7.8509,2.97651 -16.7445,11.29718 -20.6981,19.36484 -7.0902,14.46798 -4.4378,29.98972 7.2336,42.33051 10.7238,11.33878 25.5774,14.68977 40.5012,9.13706 z M 0.26265759,360.25 C 0.47203795,359.8375 14.561096,327.43547 31.571675,288.24549 L 62.5,216.99099 l 9.836383,0.2545 9.836383,0.25451 30.386174,69.87585 c 16.71239,38.43172 30.65672,70.72827 30.98738,71.7701 0.57892,1.824 -0.1851,1.88424 -20.60079,1.62415 l -21.202,-0.2701 -3.032751,-7.76772 -3.032755,-7.76772 -23.550058,0.26772 -23.550058,0.26772 -3.038954,7.74662 -3.038954,7.74662 -21.309017,0.003 C 9.4710237,360.99848 0.05327722,360.6625 0.26265759,360.25 Z M 78.185459,296.05938 c -3.127003,-7.66735 -5.954522,-13.62985 -6.283377,-13.25 C 71.220147,283.59704 61,308.54846 61,309.42567 61,309.74155 66.145956,310 72.435459,310 H 83.870918 Z M 297,289 v -72 h 37.2899 c 40.79138,0 43.38437,0.28279 54.62585,5.95747 19.03694,9.60982 30.60675,32.04067 27.35673,53.03758 -1.93307,12.4887 -10.05125,26.13107 -19.65321,33.02668 l -4.50037,3.23192 11.94055,23.86518 C 410.62675,349.24467 416,360.2126 416,360.492 416,360.7714 406.1528,361 394.11732,361 H 372.23465 L 363.38523,341.5 354.5358,322 H 345.2679 336 V 341.5 361 H 316.5 297 Z m 72.02763,-5.25 c 4.72592,-3.19953 8.24318,-10.18625 7.69739,-15.29017 -0.63312,-5.92054 -3.52176,-11.24961 -7.60007,-14.02089 C 365.72089,252.12582 364.7739,252 350.76787,252 H 336 v 17 17 h 14.85212 c 13.75081,0 15.09855,-0.16684 18.17551,-2.25 z M 437,289 v -72 h 19.5 19.5 v 72 72 H 456.5 437 Z m 371,0 v -72 h 20 20 v 54 54 h 32.5 32.5 v 18 18 H 860.5 808 Z m 135,17.5 V 252 H 923.5 904 V 234.5 217 h 59 59 v 17.5 17.5 h -20 -20 V 306.5 361 H 962.5 943 Z M 1192,289 v -72 h 37.7899 c 41.6387,0 44.3754,0.30587 55.423,6.19415 17.4226,9.28614 27.2735,26.09974 27.1301,46.30585 -0.1131,15.94459 -6.7769,28.91176 -20.6094,40.10397 l -3.7665,3.04752 12.0165,23.52873 c 6.609,12.9408 12.0164,23.82782 12.0164,24.19338 0,0.36557 -9.9465,0.54355 -22.1034,0.39553 l -22.1033,-0.26913 -8.6467,-19.22462 -8.6466,-19.22463 -9.25,-0.0254 L 1232,322 v 19.5 19.5 h -20 -20 z m 74.9981,-7.62956 c 7.4561,-7.99861 7.4587,-16.73949 0.01,-24.73297 L 1263.1486,252.5 1247.5743,252.17961 1232,251.85921 V 269 286.14079 l 15.5743,-0.3204 15.5743,-0.32039 z M 1337,289 v -72 h 54 54 v 17.5 17.5 h -34.5 -34.5 v 9.5 9.5 h 28 28 v 17.5 17.5 h -28 -28 v 10 10 h 34.5 34.5 v 17.5 17.5 h -54 -54 z m 813,-0.57423 v -72.57422 l 37.75,0.41032 c 30.8749,0.33559 38.7277,0.70256 43.1186,2.01499 20.5032,6.12843 35.3291,22.73293 38.1468,42.72314 2.5139,17.83478 -3.1035,32.63509 -17.2947,45.5665 l -6.4889,5.91281 11.8841,23.75235 C 2263.6522,349.29545 2269,360.2126 2269,360.492 c 0,0.2794 -9.8364,0.508 -21.8587,0.508 h -21.8587 l -9.0425,-19.75 -9.0425,-19.75 -9.0988,-0.28753 L 2189,320.92495 V 340.96247 361 h -19.5 -19.5 z m 70.0869,-4.70534 c 6.878,-4.63506 9.7703,-14.33985 6.5621,-22.01817 -0.7431,-1.77843 -3.0088,-4.68898 -5.0348,-6.46788 L 2217.9304,252 H 2203.4652 2189 v 17 17 h 13.8521 c 12.7625,0 14.1182,-0.17932 17.2348,-2.27957 z M 2289,288.5 V 216 h 19.5 19.5 v 72.5 72.5 h -19.5 -19.5 z m 59,71.58856 c 0,-0.68787 47.7746,-104.51256 65.2666,-141.83856 0.9677,-2.06498 1.7295,-2.25 9.2635,-2.25 h 8.2091 l 32.769,70.75 c 18.0229,38.9125 32.9865,71.54661 33.2523,72.52024 0.4531,1.65942 -0.8506,1.75333 -20.8252,1.5 l -21.3085,-0.27024 -3.5634,-8.23293 -3.5634,-8.23294 h -25 -25 l -3.5634,8.23294 -3.5634,8.23293 -21.1866,0.26989 C 2356.2641,360.9345 2348,360.66874 2348,360.08856 Z M 2429.331,297.25 c -3.0009,-8.1125 -5.8272,-15.12671 -6.2807,-15.58713 -1.1383,-1.15571 -1.2972,-0.81953 -7.4126,15.69103 L 2410.2128,312 h 12.2872 12.2872 z"
     style="fill:#ffffff;fill-opacity:1" />
</svg>
