<?xml version="1.0" encoding="UTF-8" standalone="no"?>
<svg
   xmlns:dc="http://purl.org/dc/elements/1.1/"
   xmlns:cc="http://creativecommons.org/ns#"
   xmlns:rdf="http://www.w3.org/1999/02/22-rdf-syntax-ns#"
   xmlns:svg="http://www.w3.org/2000/svg"
   xmlns="http://www.w3.org/2000/svg"
   viewBox="0 0 1323 472"
   height="472"
   width="1323"
   id="svg2"
   version="1.1">
  <metadata
     id="metadata8">
    <rdf:RDF>
      <cc:Work
         rdf:about="">
        <dc:format>image/svg+xml</dc:format>
        <dc:type
           rdf:resource="http://purl.org/dc/dcmitype/StillImage" />
        <dc:title></dc:title>
      </cc:Work>
    </rdf:RDF>
  </metadata>
  <defs
     id="defs6" />
  <path
     id="path817"
     d="m 407.80418,464.65907 c -14.86847,-3.60551 -30.22952,-12.47171 -47.82112,-27.60173 -5.33834,-4.59136 -5.64587,-4.71378 -9.5,-3.78192 -6.07911,1.46983 -21.39685,1.22706 -28.64541,-0.45399 -24.43612,-5.66712 -43.82915,-22.54933 -52.97297,-46.11454 -8.55528,-22.04844 -7.556,-49.26275 2.54542,-69.32148 10.11508,-20.08586 28.12215,-34.51495 50.21174,-40.23472 10.62806,-2.75198 28.89662,-2.75241 39.6548,-9.3e-4 15.0583,3.85127 30.23273,13.44533 39.29202,24.84246 6.15197,7.73955 12.90338,21.99806 15.01691,31.71467 2.11454,9.72123 2.3488,26.37696 0.50634,36 -1.92161,10.03646 -6.46949,21.29764 -11.99794,29.70856 -4.96805,7.55833 -14.19881,17.00958 -19.84397,20.31797 -1.7875,1.04758 -3.25,2.19795 -3.25,2.55639 0,1.15825 15.41576,15.41903 20.30161,18.78058 13.02859,8.96391 25.60158,12.60463 41.02371,11.8791 l 10.82532,-0.50927 -2.6481,2.76402 c -8.58824,8.96419 -27.4751,13.14637 -42.69836,9.45483 z M 353.88534,416.147 c 13.05449,-3.0096 26.16411,-13.91204 32.39407,-26.94011 5.20132,-10.87698 7.13411,-21.74641 6.39748,-35.97747 -0.70877,-13.69274 -2.41264,-20.60511 -7.89343,-32.02253 -11.62616,-24.21929 -37.02382,-35.26734 -61.70355,-26.84121 -8.18922,2.79596 -13.14377,6.08556 -19.66341,13.05562 -10.62965,11.36403 -15.66526,25.27821 -15.66526,43.28559 0,12.9936 2.08814,21.58656 8.26219,34 7.76827,15.61875 18.26764,25.86927 31.30418,30.56226 5.848,2.1052 19.31395,2.55014 26.56773,0.87785 z m 244.64544,17.00879 c -19.81832,-3.09346 -36.23844,-14.43239 -44.06489,-30.42909 -3.92543,-8.02329 -5.44095,-15.07443 -5.45402,-25.37547 -0.0207,-16.32936 4.8062,-28.94542 15.02998,-39.28372 19.42295,-19.64051 54.06594,-19.74717 71.91139,-0.2214 7.64278,8.36241 12.99318,21.95637 13.03198,33.11078 l 0.0148,4.25 H 610.5 572 l 0.0148,2.75 c 0.0263,4.89864 2.97009,15.45154 5.71929,20.50273 3.6207,6.65242 11.99839,14.09715 19.01927,16.90126 4.80628,1.91959 7.62852,2.29934 17.24666,2.32059 13.0153,0.0288 20.36582,-1.97608 29.47765,-8.03999 2.73771,-1.82194 5.08275,-3.20753 5.21119,-3.07908 0.12845,0.12844 -2.06189,5.00742 -4.86741,10.84218 -3.43618,7.14635 -5.86138,10.95511 -7.43096,11.67026 -8.22256,3.74645 -27.02102,5.77276 -37.85969,4.08095 z m 27.45945,-73.6989 c -0.0165,-2.94967 -4.57339,-11.59634 -7.61375,-14.44695 -4.52839,-4.24577 -9.98802,-6.05268 -18.37648,-6.08185 -8.58212,-0.0299 -12.8408,1.4441 -18.48119,6.39643 -3.51637,3.08741 -8.4856,11.63263 -8.50904,14.63237 -0.008,0.9688 5.95169,1.25 26.49023,1.25 24.57515,0 26.49929,-0.12711 26.49023,-1.75 z m 57.24159,73.78047 C 669.3362,431.65296 659,429.88007 659,429.08106 c 0,-0.44209 0.88414,-1.27698 1.96475,-1.8553 3.97393,-2.12679 4.16333,-5.82405 3.84305,-75.01887 l -0.3078,-66.5 -2.24297,-4.19637 c -1.23363,-2.30801 -3.03363,-4.65682 -4,-5.21959 -0.96636,-0.56277 -1.53203,-1.04287 -1.25703,-1.06688 0.275,-0.024 4.92986,-0.27435 10.34413,-0.55631 5.41426,-0.28197 11.34006,-1.13771 13.16843,-1.90165 1.82838,-0.76395 3.58602,-1.12729 3.90588,-0.80743 C 684.7383,272.27852 685,304.61983 685,343.82824 v 71.28802 l 3.75,0.79532 c 2.0625,0.43742 8.25,0.77681 13.75,0.75419 8.80705,-0.0362 10.67537,-0.36793 15.66136,-2.78069 6.7722,-3.27711 12.12025,-8.91624 15.70347,-16.55818 2.43923,-5.20213 2.63517,-6.62382 2.63517,-19.12001 0,-12.49619 -0.19594,-13.91788 -2.63517,-19.12001 -5.7525,-12.26836 -14.63815,-18.17639 -27.36483,-18.19476 -5.03414,-0.007 -8.37738,0.6006 -11.90454,2.16446 -2.69749,1.19601 -5.06686,2.01224 -5.26527,1.81384 -0.1984,-0.19841 2.14607,-4.66496 5.20995,-9.92568 5.51501,-9.46938 5.62112,-9.57705 10.61973,-10.7762 6.778,-1.62602 17.99665,-0.72614 25.18529,2.02019 7.98425,3.05028 18.57505,13.05687 22.6324,21.38395 4.89003,10.03602 6.28145,17.36022 5.80385,30.55049 -0.50401,13.91974 -2.76195,21.43808 -9.38756,31.25807 -10.21138,15.13457 -26.52846,23.23823 -48.79517,24.23347 -5.55427,0.24826 -13.36936,0.0784 -17.36686,-0.37735 z m 139.30391,-0.081 c -24.07513,-3.75852 -42.4806,-19.28324 -48.00454,-40.49106 -1.95476,-7.50486 -1.97643,-23.32887 -0.0421,-30.75526 8.48774,-32.58662 44.88024,-48.41549 74.73209,-32.50462 13.56087,7.22787 23.68316,25.14161 23.76146,42.05143 l 0.0174,3.75004 h -38.5 -38.5 v 3.2899 c 0,4.92357 2.72549,14.43507 5.70494,19.90931 3.07944,5.65795 10.35577,12.78293 15.90302,15.57224 13.71295,6.89525 35.61583,5.13715 49.26175,-3.95414 2.40334,-1.60117 4.55618,-2.72475 4.78409,-2.49685 0.92599,0.926 -8.77903,19.71368 -10.88389,21.06982 -6.05179,3.89909 -26.69501,6.36069 -38.23418,4.55923 z m 26.92169,-75.19947 C 846.79182,345.60725 837.92097,338.97651 824,338.92809 c -8.58212,-0.0299 -12.8408,1.4441 -18.48119,6.39643 -3.51637,3.08741 -8.4856,11.63263 -8.50904,14.63237 -0.008,0.96889 5.96758,1.25 26.56969,1.25 h 26.57945 z m 79.58426,74.78757 c -10.47918,-1.99102 -22.47912,-8.1709 -29.73138,-15.31144 -6.7925,-6.68785 -10.28505,-12.25782 -13.33342,-21.2643 -1.89326,-5.59368 -2.12629,-8.00686 -1.73448,-17.96183 0.9146,-23.23777 10.39733,-38.81766 29.2576,-48.06949 13.30501,-6.52673 29.81118,-8.50483 46.5,-5.57257 l 6.5,1.14206 0.28174,11.75 c 0.15495,6.4625 0.0161,11.75 -0.30864,11.75 -0.32471,0 -2.25149,-1.32948 -4.28174,-2.9544 -6.33327,-5.06888 -12.51403,-7.21432 -21.03639,-7.3021 -10.43595,-0.10749 -16.78257,2.14951 -23.62227,8.40061 -6.45184,5.89662 -10.18475,12.98765 -11.34679,21.55435 -2.65034,19.53863 6.22558,36.44932 23.65358,45.06557 13.51935,6.68384 30.05546,5.51127 44.41051,-3.14914 3.1625,-1.90794 5.75,-3.26931 5.75,-3.02528 0,0.24404 -2.44791,5.32469 -5.4398,11.29035 l -5.4398,10.84665 -6.47298,1.62596 c -9.36091,2.35138 -24.63252,2.88989 -33.60574,1.185 z M 460.28869,431.3958 c -11.10964,-3.60047 -18.27704,-11.3114 -22.48386,-24.18891 -1.92897,-5.90479 -2.1775,-9.52184 -2.71412,-39.5 -0.62636,-34.99178 -0.69569,-35.47091 -5.70185,-39.40876 -3.36363,-2.64584 -2.59839,-2.89136 10.61114,-3.40458 5.775,-0.22438 11.4866,-0.74137 12.69245,-1.14889 l 2.19245,-0.74093 0.30755,36.35158 0.30755,36.35158 2.62445,5.5 c 4.74958,9.95356 10.86587,13.93976 21.44741,13.97804 12.25746,0.0443 22.63229,-6.16148 28.16347,-16.84628 L 511,392.03215 v -27.5115 c 0,-29.87284 -0.34961,-32.0838 -5.74431,-36.32727 -3.22138,-2.53395 -2.38906,-2.78957 10.74431,-3.29983 5.775,-0.22438 11.5125,-0.74815 12.75,-1.16394 l 2.25,-0.75598 v 48.14875 c 0,52.05398 0.0538,52.62184 5.37882,56.81053 1.44165,1.134 2.62118,2.34726 2.62118,2.69612 0,0.34886 -6.1875,0.5091 -13.75,0.35608 l -13.75,-0.27822 -0.29089,-6.5394 -0.29089,-6.53941 -4.34409,4.16237 c -4.72819,4.53041 -12.77228,8.76205 -19.68591,10.3559 -6.78557,1.56433 -20.66515,1.17269 -26.59953,-0.75055 z M 1030,391.20689 v -39 h 63.5 63.5 v 39 39 h -63.5 -63.5 z m 67.4133,30.48952 c 0.4423,-1.76229 1.3992,-2.44291 3.7629,-2.6764 3.7049,-0.36598 4.843,-2.35487 1.8848,-3.29377 -2.6431,-0.83888 -5.061,-3.27102 -5.061,-5.09078 0,-1.09157 1.5333,-1.42857 6.5,-1.42857 6.2667,0 6.5,-0.0897 6.5,-2.5 0,-2.11111 -0.4667,-2.5 -3,-2.5 -2.3047,0 -3,-0.45064 -3,-1.94424 0,-3.30294 4.307,-7.38909 7.7885,-7.38909 3.8733,0 5.8971,1.62535 6.7267,5.40243 0.354,1.61199 1.0067,2.9309 1.4503,2.9309 1.2607,0 4.0345,-6.50868 4.0345,-9.46687 0,-9.55377 -10.9535,-14.02487 -18.3814,-7.50308 -3.5789,3.14225 -6.6186,10.09938 -6.6186,15.14809 0,2.21627 -0.459,2.82186 -2.1389,2.82186 -1.9998,0 -2.1047,-0.37712 -1.6128,-5.80168 0.2893,-3.19093 1.9268,-9.29993 3.6389,-13.57556 4.5552,-11.37604 4.1382,-15.09407 -2.6174,-23.33844 l -3.7067,-4.52352 -2.8879,3.3696 c -7.6858,8.96785 -8.2597,12.76133 -3.6663,24.23298 1.655,4.13297 3.2941,10.24197 3.6425,13.57556 0.5985,5.72586 0.515,6.06106 -1.5089,6.06106 -1.4957,0 -2.1425,-0.62107 -2.1425,-2.05718 0,-5.33893 -2.4819,-11.42472 -6.1587,-15.10149 -3.2632,-3.2632 -4.4809,-3.83798 -8.0913,-3.81909 -8.7495,0.0458 -13.4853,8.78764 -9.2243,17.02742 1.9318,3.73568 3.1416,3.74162 3.9591,0.0194 0.8296,-3.77708 2.8534,-5.40243 6.7267,-5.40243 3.4815,0 7.7885,4.08615 7.7885,7.38909 0,1.4936 -0.6953,1.94424 -3,1.94424 -2.5178,0 -3,0.39419 -3,2.45228 0,2.30971 0.3634,2.46959 6.25,2.75 7.2606,0.34586 8.2222,2.0142 3.0417,5.27705 -3.8763,2.44141 -3.7107,3.9143 0.4869,4.33042 2.1916,0.21725 3.3236,0.96375 3.7913,2.5 0.3666,1.20464 1.3615,2.98139 2.2107,3.94835 1.4114,1.60704 1.6942,1.6222 3.2918,0.1764 0.9612,-0.86993 2.0146,-2.64517 2.3409,-3.94498 z M 1194,391.19949 v -39.0074 l 63.75,0.2574 63.75,0.2574 0.2617,38.75 0.2618,38.75 H 1258.0117 1194 Z m 66.8243,32.01757 c 1.348,-3.20962 2.1895,-3.99182 4.3033,-4 1.4451,-0.006 3.1877,-0.68517 3.8724,-1.51017 1.0219,-1.23136 0.9462,-1.5 -0.423,-1.5 -2.1321,0 -6.8809,-4.69924 -6.0718,-6.00838 0.337,-0.54539 3.2863,-0.99162 6.5538,-0.99162 5.6704,0 5.941,-0.11387 5.941,-2.5 0,-2.11111 -0.4667,-2.5 -3,-2.5 -3.5041,0 -3.7488,-1.25975 -1.0914,-5.61771 3.5998,-5.90354 11.4417,-4.8807 12.7505,1.66309 0.7486,3.74309 1.8811,3.74436 3.8152,0.004 4.134,-7.99427 -0.1961,-17.05369 -8.1474,-17.04592 -7.5548,0.007 -13.2866,6.44415 -14.912,16.74626 -0.6896,4.3711 -2.7929,5.73669 -3.6699,2.38281 -0.7894,-3.01842 0.8725,-11.23125 3.6615,-18.095 4.3247,-10.64325 3.7844,-13.55692 -4.6526,-25.08568 l -1.7461,-2.38596 -2.9761,3.46691 c -1.6369,1.90681 -3.9531,5.42946 -5.147,7.82811 -2.4515,4.92511 -2.206,6.85506 2.4976,19.63881 1.4165,3.85 2.585,9.1375 2.5966,11.75 0.018,4.09036 -0.2566,4.75 -1.9789,4.75 -1.6405,0 -2.0039,-0.67399 -2.022,-3.75 -0.051,-8.69859 -6.9803,-17.25 -13.978,-17.25 -9.8352,0 -14.1461,11.6251 -7.1804,19.36302 1.6161,1.79521 1.6995,1.74175 2.1804,-1.39625 0.3009,-1.96347 1.5495,-4.0441 3.1352,-5.22442 2.3493,-1.74865 2.9461,-1.81384 5.5,-0.60077 1.5757,0.74839 3.6543,2.9352 4.6192,4.85957 l 1.7545,3.49885 -3.2545,0.5 c -2.4236,0.37237 -3.336,1.07436 -3.574,2.75 -0.3035,2.13743 0.01,2.25 6.25,2.25 5.173,0 6.5696,0.31888 6.5696,1.5 0,1.9939 -3.5842,5.5 -5.6224,5.5 -1.3288,0 -1.3972,0.27149 -0.3776,1.5 0.6847,0.825 2.5398,1.5 4.1224,1.5 2.0909,0 2.8776,0.48598 2.8776,1.77749 0,2.14087 2.7097,6.22251 4.131,6.22251 0.5596,0 1.7716,-1.79542 2.6933,-3.98983 z M 587,315.25235 c 0,-5.13629 0.0249,-5.17607 8.75,-13.9778 8.23115,-8.30345 22.84016,-19.06766 25.87831,-19.06766 1.08126,0 1.37169,2.3906 1.37169,11.29088 v 11.29087 l -6.75,1.78906 c -6.95108,1.84236 -20.26302,7.80657 -26,11.64891 l -3.25,2.17668 z m 443,-39.04546 v -39 h 63.5 63.5 v 39 39 h -63.5 -63.5 z m 67.5247,29.88758 c 0.3509,-1.59777 1.077,-2.63374 1.6135,-2.30216 0.5365,0.33158 2.0749,0.32693 3.4186,-0.0103 2.741,-0.68793 3.3643,-3.57509 0.7719,-3.57509 -2.0718,0 -5.3287,-2.84515 -5.3287,-4.65499 0,-0.98873 1.7218,-1.34501 6.5,-1.34501 6.2667,0 6.5,-0.0897 6.5,-2.5 0,-2.11111 -0.4667,-2.5 -3,-2.5 -2.3704,0 -3,-0.4359 -3,-2.07692 0,-2.57801 5.195,-7.92308 7.7006,-7.92308 3.0003,0 6.0898,2.76943 6.8254,6.1183 0.6809,3.10016 0.6942,3.10592 2.6546,1.14551 2.7854,-2.78537 3.444,-9.15521 1.3628,-13.17984 -3.4857,-6.74067 -12.029,-7.36165 -17.8396,-1.29668 -2.9499,3.079 -5.7038,10.00193 -5.7038,14.33844 0,2.26982 -0.4498,2.87427 -2.1389,2.87427 -1.9998,0 -2.1047,-0.37712 -1.6128,-5.80168 0.2893,-3.19093 1.9268,-9.29993 3.6389,-13.57556 4.5317,-11.31742 4.0996,-15.27184 -2.5567,-23.39487 -3.4119,-4.16388 -3.6292,-4.26758 -5.4629,-2.60808 -1.0503,0.95053 -3.2502,3.75207 -4.8886,6.22565 -3.8354,5.79038 -3.8291,9.88031 0.03,19.51792 1.655,4.13297 3.2941,10.24197 3.6425,13.57556 0.5985,5.72586 0.515,6.06106 -1.5089,6.06106 -1.5739,0 -2.1425,-0.61528 -2.1425,-2.3185 0,-4.55414 -3.0008,-12.30807 -5.8018,-14.99158 -3.9792,-3.81236 -8.5743,-4.97745 -12.7499,-3.23277 -6.3264,2.64336 -8.5423,11.99692 -4.0729,17.19284 l 2.3753,2.76151 0.7038,-3.20451 c 0.7527,-3.42703 3.8184,-6.20699 6.8449,-6.20699 2.5056,0 7.7006,5.34507 7.7006,7.92308 0,1.64102 -0.6296,2.07692 -3,2.07692 -2.5333,0 -3,0.38889 -3,2.5 0,2.41026 0.2333,2.5 6.5,2.5 4.3003,0 6.5,0.39638 6.5,1.17126 0,1.63164 -3.043,4.82874 -4.596,4.82874 -1.9623,0 -2.8367,2.11183 -1.2821,3.09649 0.7579,0.48009 2.3603,0.87978 3.5607,0.8882 1.3858,0.01 2.4329,0.8367 2.8683,2.26531 0.3771,1.2375 1.3805,3.04114 2.2297,4.0081 1.4229,1.62014 1.6838,1.63162 3.325,0.1463 0.9796,-0.88648 2.0682,-2.91905 2.4191,-4.51682 z M 1194,276.19949 v -39.0074 l 63.75,0.2574 63.75,0.2574 0.2617,38.75 0.2618,38.75 H 1258.0117 1194 Z m 68,29.45164 c 0,-0.92439 1.0358,-1.44424 2.8776,-1.44424 1.5826,0 3.4223,-0.65646 4.0882,-1.4588 0.9979,-1.20243 0.7517,-1.57399 -1.4009,-2.11426 -2.4065,-0.60399 -5.5649,-3.8104 -5.5649,-5.64945 0,-0.42762 2.925,-0.77749 6.5,-0.77749 6.2667,0 6.5,-0.0897 6.5,-2.5 0,-2.11111 -0.4667,-2.5 -3,-2.5 -1.7353,0 -2.9984,-0.52695 -2.9963,-1.25 0.01,-2.55385 4.0182,-7.71739 6.4726,-8.3334 3.4316,-0.86127 7.4356,1.89304 8.1828,5.62878 0.325,1.62504 0.9731,2.95462 1.4402,2.95462 1.5553,0 3.9007,-5.84918 3.9007,-9.72783 0,-4.69394 -2.2195,-8.04812 -6.5126,-9.84187 -8.0752,-3.37403 -16.1953,3.77088 -18.0057,15.84317 -0.7204,4.80428 -2.81,6.40319 -3.7367,2.85934 -0.7857,-3.00457 0.8952,-11.39246 3.6761,-18.34358 3.8872,-9.7164 3.5277,-14.25965 -1.6711,-21.12036 -2.3375,-3.08472 -4.5328,-5.62215 -4.8784,-5.63873 -0.3456,-0.0166 -2.5634,2.47806 -4.9285,5.54363 -5.4478,7.06133 -5.7596,11.64436 -1.492,21.92623 1.7442,4.20222 3.0806,9.49802 3.3437,13.25 0.4092,5.83603 0.298,6.25 -1.6783,6.25 -1.7773,0 -2.1181,-0.60094 -2.1263,-3.75 -0.01,-2.0625 -1.119,-6.13281 -2.4749,-9.04513 -2.0174,-4.33352 -3.2415,-5.63592 -6.7402,-7.1717 -5.1207,-2.24773 -8.7961,-1.73944 -12.2263,1.69081 -3.4988,3.49872 -4.203,8.28536 -1.9019,12.92807 2.2744,4.58911 4.3531,5.51133 4.3531,1.93128 0,-2.80923 3.1261,-6.58333 5.4529,-6.58333 2.6308,0 6.3096,2.18351 7.3466,4.36046 2.4548,5.1534 2.3401,5.63954 -1.3309,5.63954 -3.0332,0 -3.4686,0.31383 -3.4686,2.5 0,2.41026 0.2333,2.5 6.5,2.5 4.5415,0 6.4954,0.37663 6.4847,1.25 -0.026,2.10151 -1.3918,3.57408 -4.3637,4.70401 -2.36,0.89727 -2.6309,1.32914 -1.6072,2.56256 0.6771,0.81589 2.526,1.48343 4.1086,1.48343 2.0909,0 2.8776,0.48598 2.8776,1.77749 0,0.97763 0.75,2.84825 1.6666,4.15694 l 1.6667,2.37945 2.3333,-2.7127 C 1260.95,308.31608 1262,306.44546 1262,305.65113 Z M 194.3264,241.16219 C 183.2558,238.97406 178,232.46828 178,220.95289 c 0,-14.86904 10.71966,-24.85869 26.83821,-25.01051 14.37545,-0.13541 23.17027,7.39619 23.15621,19.83023 -0.008,7.42408 -1.72161,12.183 -6.09328,16.92571 -6.39745,6.9404 -17.71186,10.41328 -27.57474,8.46387 z m 12.75747,-12.73893 c 3.72429,-3.32766 6.0908,-11.09109 4.78956,-15.71236 -1.73693,-6.1686 -7.42523,-8.21761 -12.25855,-4.41571 -3.83962,3.02024 -5.61488,7.10122 -5.61488,12.90749 0,9.12067 6.7736,12.8588 13.08387,7.22058 z m 174.67047,12.18498 c -15.39522,-4.7342 -18.47929,-25.7474 -5.59197,-38.10067 8.72303,-8.36155 24.03204,-9.45894 32.17809,-2.30662 4.94379,4.34071 7.14823,13.9602 4.68429,20.44084 l -0.97525,2.5651 h -15.02475 c -10.0653,0 -15.02475,0.35548 -15.02475,1.07692 0,0.59231 1.31538,2.39231 2.92308,4 2.5158,2.5158 3.6826,2.92308 8.37427,2.92308 2.99816,0 7.36435,-0.675 9.70265,-1.5 2.3383,-0.825 4.39158,-1.5 4.56286,-1.5 0.47587,0 -0.75434,7.22093 -1.64157,9.63545 -0.61954,1.68603 -2.13166,2.37002 -7.1849,3.25 -8.11324,1.41286 -11.08918,1.32803 -16.98205,-0.4841 z M 401,211.9294 c 0,-4.10224 -2.71015,-6.72251 -6.95311,-6.72251 -3.14853,0 -4.40234,0.64081 -6.96531,3.55987 -1.71909,1.95793 -2.86415,3.98293 -2.54458,4.5 0.31957,0.51707 4.15448,0.94013 8.52202,0.94013 7.59683,0 7.94098,-0.0987 7.94098,-2.27749 z M 68.5,239.80438 c -5.31018,-2.34397 -7,-5.15314 -7,-11.63681 0,-5.07909 0.37583,-6.22163 2.92008,-8.87727 4.23347,-4.41878 10.1295,-6.31877 20.0504,-6.4612 8.05628,-0.11566 8.5132,-0.23982 8.52113,-2.31551 0.0189,-4.9463 -7.30435,-6.6322 -16.58268,-3.81752 -2.69991,0.81904 -5.07151,1.49404 -5.27022,1.5 -0.37686,0.0113 0.62115,-6.30083 1.43978,-9.10618 0.47902,-1.64153 8.87174,-3.883 14.53907,-3.883 6.43822,0 12.95162,2.19956 16.54277,5.58644 l 3.6172,3.41146 -0.53092,8.75105 c -0.29201,4.81308 -1.22917,11.67605 -2.08257,15.25105 -0.85341,3.575 -1.81051,7.7375 -2.1269,9.25 -0.5562,2.65895 -0.79046,2.75 -7.07525,2.75 h -6.5 l 0.66008,-2.75 0.66008,-2.75 -2.39103,2.18339 c -4.75121,4.33861 -13.26519,5.6181 -19.39102,2.9141 z m 17.54589,-9.87929 C 88.51438,227.97986 91,223.9259 91,221.84509 91,220.12636 90.47032,219.99104 85.87351,220.53546 79.18208,221.32797 76,223.43178 76,227.06328 c 0,1.54565 0.3,3.11028 0.66666,3.47694 1.11587,1.11587 7.73334,0.68187 9.37923,-0.61513 z m 38.1522,9.60899 c -1.81605,-0.89501 -3.95355,-2.88741 -4.75,-4.42757 -1.85552,-3.58818 -1.83275,-11.87808 0.0519,-18.89962 2.1096,-7.85957 2.06376,-8 -2.61129,-8 h -4.11129 l 0.66461,-3.75 c 1.26535,-7.13967 1.35764,-7.25 6.06408,-7.25 h 4.37134 l 0.65001,-4.33456 c 0.35751,-2.384 0.94758,-4.76953 1.31127,-5.30116 0.3637,-0.53164 4.14877,-1.9136 8.41127,-3.07103 8.35428,-2.26852 8.37114,-2.25938 6.84147,3.70675 -2.49791,9.74255 -2.76869,9 3.28193,9 h 5.41151 l -1.16072,5.25 -1.16072,5.25 -5.48173,0.5 -5.48174,0.5 -1.95086,8.8198 c -2.31974,10.48752 -1.76847,12.14775 4.06585,12.24487 2.13675,0.0356 3.79948,0.37712 3.69494,0.75899 -0.10455,0.38187 -0.48703,2.67455 -0.84998,5.09484 -0.50259,3.35151 -1.17243,4.53803 -2.80992,4.97736 -4.0441,1.08499 -11.1478,0.5597 -14.45194,-1.06867 z m 171.12739,0.21368 c -8.4168,-3.66112 -9.56665,-16.29606 -1.99428,-21.91381 4.71951,-3.50129 9.2323,-4.75976 18.6688,-5.20614 7.44184,-0.35201 8.46183,-0.6211 8.19337,-2.16149 -0.87206,-5.00372 -7.6785,-6.53264 -16.78444,-3.77025 -2.69991,0.81904 -4.99314,1.49404 -5.09606,1.5 -0.46932,0.0271 1.05745,-7.66948 1.81588,-9.1541 0.86953,-1.70208 8.58446,-3.83508 13.87125,-3.83508 6.42432,0 13.28723,2.23631 16.8319,5.48476 3.2101,2.94184 3.56286,3.78524 3.61278,8.6377 C 334.47508,212.287 333.375,220.44309 332,227.454 l -2.5,12.74711 -6.25,0.003 c -6.10935,0.003 -6.25,-0.0573 -6.25,-2.67142 v -2.67432 l -2.25,2.1077 c -4.58268,4.29285 -13.13494,5.51763 -19.42452,2.7818 z m 17.72991,-9.57051 C 315.20723,229.02562 318,224.19674 318,221.62772 c 0,-1.44562 -0.72837,-1.58296 -5.25,-0.98988 -2.8875,0.37874 -6.2625,1.34709 -7.5,2.15189 -2.43958,1.58656 -2.97823,5.28893 -1.05,7.21716 1.4714,1.4714 6.25251,1.56338 8.85539,0.17036 z m 108.35732,10.08686 c -5.18141,-1.2387 -5.37152,-1.61102 -3.6197,-7.08911 1.2125,-3.7916 1.98849,-4.8822 3.15524,-4.43447 5.03604,1.93251 11.2397,2.55943 14.54199,1.46958 5.67913,-1.87428 4.18797,-4.81844 -4.30293,-8.49573 -8.26004,-3.57732 -11.3145,-10.49328 -7.71155,-17.46061 3.23679,-6.25927 14.19313,-9.77716 25.04929,-8.04288 7.88323,1.25935 9.69171,1.93024 9.08219,3.36921 -0.26251,0.61973 -1.03716,2.84569 -1.72146,4.94656 -1.03895,3.18973 -1.58573,3.71527 -3.31497,3.18622 C 444.66893,205.29533 437,206.03389 437,209.21244 c 0,1.46233 1.89281,2.86566 7.37249,5.46599 8.37194,3.97284 10.265,6.73897 9.33862,13.64563 -1.11777,8.33356 -8.68358,12.88441 -21.21111,12.75851 -4.4,-0.0442 -9.38928,-0.41253 -11.08729,-0.81846 z M 4,239.83954 c 0,-0.62197 6.75383,-33.02532 8.10431,-38.88265 l 1.09517,-4.75 h 6.97971 6.97972 l -0.70384,3.20456 -0.70384,3.20456 2.37438,-1.73272 c 6.55108,-4.78069 15.23447,-6.09292 20.90712,-3.15947 6.8658,3.55044 8.04744,12.77339 4.00156,31.23307 l -2.46571,11.25 h -7.78429 c -4.28136,0 -7.77658,-0.3375 -7.76715,-0.75 0.009,-0.4125 0.89673,-4.125 1.97178,-8.25 3.15049,-12.08843 3.61657,-18.67346 1.48813,-21.02536 -2.30465,-2.54661 -5.52785,-2.50912 -8.84851,0.10291 -3.84895,3.02758 -4.76077,5.17093 -7.62453,17.92245 l -2.58269,11.5 -7.71066,0.29206 C 7.4698,240.15959 4,240.08785 4,239.83954 Z m 149.93452,-21.13036 4.56548,-21.49771 7.85699,-0.002 c 5.86621,-0.002 7.73985,0.31443 7.39469,1.24771 -0.25426,0.6875 -2.43113,10.3625 -4.83749,21.5 l -4.3752,20.25 h -7.58497 -7.58497 l 4.56547,-21.49771 z m 77.43184,19.74771 c 0.27562,-0.9625 2.40467,-10.8625 4.7312,-22 l 4.23007,-20.25 h 6.94748 6.94747 l -0.6997,3.75 -0.69969,3.75 2.3384,-2.13303 c 6.1746,-5.63228 15.52411,-7.07533 21.64859,-3.34134 6.86227,4.18382 7.69363,12.73106 3.13432,32.22437 l -2.28044,9.75 h -7.80064 c -5.78715,0 -7.69742,-0.32265 -7.40071,-1.25 C 264.06774,233.94034 267,218.71947 267,215.40453 c 0,-6.90315 -4.98857,-9.35427 -10.39032,-5.10525 -3.46348,2.72437 -4.92881,6.40651 -7.67947,19.29725 l -2.26406,10.61036 h -7.90046 c -7.04849,0 -7.84642,-0.18872 -7.39933,-1.75 z m 107.86766,0.5 c 0.2464,-0.6875 3.0999,-13.7375 6.3411,-29 l 5.8931,-27.75 h 7.78494 c 7.56148,0 7.76994,0.0646 7.26227,2.25 -1.35415,5.82925 -9.75333,44.90675 -10.74683,50 l -1.12161,5.75 h -7.93048 c -5.91666,0 -7.81672,-0.31742 -7.48249,-1.25 z m -178.66955,-51.5 c 0.33142,-1.5125 0.77587,-3.3125 0.98767,-4 0.2636,-0.85563 2.76723,-1.25 7.93553,-1.25 h 7.55043 l -0.60257,2.75 c -0.33142,1.5125 -0.77587,3.3125 -0.98767,4 -0.2636,0.85563 -2.76723,1.25 -7.93553,1.25 H 159.9619 Z M 18.5,156.70474 c -18.99903,-6.71787 -14.84176,-37.99899 5.79205,-43.58197 6.39033,-1.72907 16.83536,-0.67341 20.72233,2.09436 5.54003,3.94485 8.45343,13.91074 6.35533,21.73976 -0.59232,2.21023 -0.87605,2.25 -16.05373,2.25 H 19.86522 l 0.65429,2.25 c 1.97089,6.77766 9.30078,8.07194 23.34434,4.12205 1.98159,-0.55734 2.27871,-0.35818 1.83732,1.23154 -0.28959,1.04303 -0.80479,3.54961 -1.14487,5.5702 -0.58351,3.46686 -0.90098,3.7344 -5.63654,4.75 -6.82808,1.46436 -15.59068,1.28158 -20.41976,-0.42594 z M 39,127.74585 c 0,-1.35358 -0.98486,-3.37858 -2.18856,-4.5 -4.09299,-3.8132 -10.25108,-1.95705 -13.34283,4.02174 l -1.51997,2.9393 h 8.52568 c 8.3914,0 8.52568,-0.0388 8.52568,-2.46104 z m 368.45863,28.58138 c -7.99603,-3.6321 -12.07996,-11.33161 -11.19383,-21.10398 1.2158,-13.40801 10.0448,-21.79989 23.98849,-22.8008 8.13312,-0.58381 14.7295,1.54717 17.69926,5.7178 2.94629,4.13768 4.44962,10.89909 3.63344,16.34178 l -0.70854,4.72486 h -15.43872 c -16.79309,0 -17.39803,0.23943 -13.41109,5.30801 2.78525,3.54087 8.85213,4.35081 16.98431,2.26744 3.45749,-0.88577 6.35994,-1.4901 6.4499,-1.34297 0.0899,0.14714 -0.23156,2.59903 -0.71446,5.44866 l -0.87802,5.18115 -4.9839,1.06885 c -7.63138,1.63664 -16.80285,1.28958 -21.42684,-0.8108 z M 429,128.34175 c 0,-1.02583 -0.93266,-3.05083 -2.07258,-4.5 -3.60897,-4.58807 -10.17953,-2.91558 -13.45881,3.42584 l -1.51997,2.9393 h 8.52568 c 7.65353,0 8.52568,-0.1908 8.52568,-1.86514 z m 22.25631,28.86701 c -6.98438,-1.47372 -7.17547,-1.74005 -5.50308,-7.67033 l 1.45755,-5.16846 4.02034,1.41846 c 7.88323,2.78137 16.99971,1.06833 15.47398,-2.90765 -0.34092,-0.88843 -3.49768,-2.92019 -7.01501,-4.51503 C 452.2902,135.01048 450,132.29794 450,126.88868 c 0,-5.12217 2.41019,-8.97215 7.40993,-11.83641 3.53272,-2.02384 5.38463,-2.33424 13.59007,-2.27787 5.225,0.0359 10.71668,0.57884 12.20373,1.20654 l 2.70373,1.14126 -1.58161,4.64177 c -1.52149,4.46532 -1.70029,4.61604 -4.70373,3.96495 -7.02832,-1.52363 -10.44414,-1.68765 -12.47796,-0.59918 -4.02277,2.15292 -2.61702,4.57614 4.37977,7.54982 8.50015,3.61261 10.81833,6.49608 10.22668,12.72049 -0.57239,6.02177 -2.73394,9.245 -8.01523,11.95206 -4.78209,2.45118 -15.47555,3.3344 -22.47907,1.85665 z M 65.44309,153.84998 c -3.205,-3.205 -3.44227,-3.8822 -3.43122,-9.79309 0.006,-3.4925 0.67618,-8.825 1.48813,-11.85 2.1096,-7.85957 2.06376,-8 -2.61129,-8 h -4.11129 l 0.6646,-3.75 c 1.26441,-7.13428 1.36077,-7.25 6.03747,-7.25 4.24545,0 4.35927,-0.0861 4.98173,-3.77046 0.35035,-2.07375 0.98672,-4.3363 1.41414,-5.02788 0.82186,-1.32979 14.95399,-5.70565 15.77506,-4.88457 0.26457,0.26456 0.0466,2.21395 -0.48442,4.33197 -2.55252,10.18146 -2.80254,9.35094 2.81495,9.35094 4.83282,0 5.01535,0.10203 4.91937,2.75 -0.24344,6.71596 -1.08144,7.71344 -6.93094,8.25 l -5.45094,0.5 -1.67762,7 c -3.08297,12.86393 -1.94016,16.26987 4.99382,14.88307 l 2.99836,-0.59967 -1.187,5.3583 -1.18701,5.3583 -7.78641,0.29309 c -7.69865,0.28978 -7.82521,0.25428 -11.22949,-3.15 z m 47.72358,2.51061 c 0.18333,-0.46546 7.93076,-13.74046 17.2165,-29.5 l 16.88318,-28.6537 h 9.86682 c 5.42676,0 9.86683,0.26 9.86683,0.57778 0,0.31778 1.76691,11.45528 3.92646,24.75 2.15955,13.29472 4.23863,26.32962 4.62018,28.96645 l 0.69371,4.79423 -7.87017,-0.29423 -7.87018,-0.29423 -0.89386,-6.28141 -0.89386,-6.2814 -11.07346,0.2814 -11.07345,0.28141 -3.53268,6.24302 -3.53269,6.24302 -8.33333,0.007 c -4.58334,0.004 -8.18334,-0.37385 -8,-0.83932 z m 44.48263,-24.9037 c -0.26701,-0.9625 -0.76548,-4.45 -1.10772,-7.75 -0.89139,-8.59523 -1.6345,-11.82057 -2.49954,-10.84884 -0.4156,0.46686 -3.10079,5.23634 -5.96709,10.59884 l -5.21145,9.75 h 7.63564 c 6.79031,0 7.58189,-0.19374 7.15016,-1.75 z M 181,155.2915 c 0,-1.05347 1.8,-10.71135 4,-21.46197 2.2,-10.75062 4,-19.7887 4,-20.08461 0,-0.29592 3.20107,-0.53803 7.1135,-0.53803 h 7.1135 l -0.43214,2.94436 -0.43214,2.94435 3.29726,-2.89503 c 3.55598,-3.12219 8.81894,-4.59226 12.83345,-3.58469 2.87068,0.7205 3.05818,2.14849 1.12803,8.59101 l -1.34818,4.5 -4.96567,-0.3293 c -4.14518,-0.27489 -5.46651,0.0921 -7.99679,2.22122 -3.16739,2.66518 -4.49954,6.37956 -7.83936,21.85808 l -1.67222,7.75 h -7.39962 c -6.624,0 -7.39962,-0.20077 -7.39962,-1.91539 z m 49.38391,0.002 c -2.26385,-1.02805 -5.40867,-3.56385 -6.9885,-5.63511 -2.43577,-3.19347 -2.92889,-4.88439 -3.24396,-11.12376 -0.32209,-6.37829 -0.0187,-8.0791 2.2791,-12.77558 3.1105,-6.35765 8.89796,-10.71207 16.73678,-12.59257 5.36994,-1.28823 15.45015,-0.81619 20.06872,0.93978 l 2.671,1.01552 -1.83956,5.29242 c -1.1928,3.43172 -2.31909,5.16107 -3.20352,4.91881 -9.07168,-2.48483 -14.0433,-1.70637 -18.11397,2.8363 -3.2209,3.59436 -3.72684,9.61683 -1.13962,13.56542 2.22226,3.39161 7.9003,4.97712 12.8901,3.59937 2.13788,-0.5903 4.07105,-0.88928 4.29593,-0.6644 0.22488,0.22488 0.0915,2.71638 -0.29637,5.53666 -0.57763,4.19984 -1.15088,5.29721 -3.16775,6.06402 -4.31395,1.64017 -16.42961,1.07518 -20.94838,-0.97688 z M 260,155.8739 c 0,-1.34316 10.66509,-52.66027 11.62108,-55.91701 0.42963,-1.46363 1.72999,-1.75 7.94631,-1.75 8.50268,0 8.28927,-0.34289 5.91261,9.5 -2.26189,9.36757 -2.14442,9.82457 1.91045,7.43213 8.10959,-4.78477 17.98879,-2.96432 22.07553,4.06787 2.66369,4.5835 2.39771,13.87443 -0.78726,27.5 l -2.3375,10 -7.67061,0.29206 C 294.13764,157.17155 291,156.89082 291,156.31266 c 0,-0.5381 1.12442,-5.61953 2.49871,-11.29206 2.82783,-11.67223 3.08272,-15.6363 1.1733,-18.24758 -2.72445,-3.72592 -10.19745,-1.32371 -13.04484,4.19329 -0.77795,1.50732 -2.3783,7.24058 -3.55634,12.74058 -1.17804,5.5 -2.38122,10.7875 -2.67375,11.75 -0.44433,1.462 -1.75507,1.75 -7.96447,1.75 -5.52621,0 -7.43261,-0.3419 -7.43261,-1.33299 z m 57,0.84019 c 0,-1.26698 9.15914,-41.95568 9.60773,-42.68152 0.28067,-0.45412 3.63375,-0.82568 7.45129,-0.82568 5.25798,0 6.94098,0.33694 6.94098,1.38959 0,1.41765 -7.63408,37.6797 -8.60215,40.86041 -0.44495,1.46193 -1.75613,1.75 -7.96524,1.75 -4.08793,0 -7.43261,-0.22176 -7.43261,-0.4928 z m 36.60504,-2.21955 C 352.63541,149.75585 347,115.46487 347,114.30344 c 0,-0.69793 2.72641,-1.09655 7.5,-1.09655 4.125,0 7.52535,0.1125 7.55634,0.25 0.031,0.1375 0.81849,6.91522 1.75,15.0616 l 1.69366,14.8116 7.47337,-15.0616 7.47336,-15.0616 h 7.77664 c 4.27715,0 7.77595,0.3375 7.77513,0.75 -8.3e-4,0.4125 -5.56412,10.2 -12.36286,21.75 l -12.36136,21 -8.54942,0.28765 -8.54941,0.28766 z m -25.23533,-50.53765 c 0.33164,-1.2375 0.60913,-3.0375 0.61664,-4 0.0118,-1.5099 1.04266,-1.75 7.51365,-1.75 7.26569,0 7.5,0.0755 7.5,2.41821 0,5.13122 -0.70418,5.58179 -8.72362,5.58179 -7.29977,0 -7.49279,-0.0629 -6.90667,-2.25 z m 99.65033,-15.457939 c 0.011,-0.435635 1.08617,-4.944318 2.38921,-10.019288 l 2.36917,-9.22723 -4.22707,2.47723 c -5.69712,3.33873 -13.81568,3.43412 -18.65347,0.21915 -10.55073,-7.01152 -10.44165,-27.5973 0.19717,-37.20883 5.02654,-4.54118 7.62948,-5.5331 14.51971,-5.5331 6.1464,0 10.22528,1.70989 13.24915,5.55412 l 2.0405,2.59408 0.85816,-3.3241 0.85816,-3.3241 7.18964,-0.29381 c 3.95429,-0.16159 7.17157,-0.16159 7.14949,0 -0.0221,0.1616 -2.85878,13.34381 -6.30378,29.29381 l -6.26363,29.000004 -7.69623,0.292064 c -4.23292,0.160636 -7.6872,-0.06436 -7.67618,-0.5 z m 1.56,-27.177738 c 6.29941,-3.84138 8.4875,-14.1377 3.96541,-18.65978 -4.34194,-4.34194 -10.34791,-2.55979 -13.53069,4.01497 -2.80473,5.7938 -2.64226,10.99389 0.43979,14.07594 2.94154,2.94155 5.02189,3.07123 9.12549,0.56887 z m -317.13471,11.92677 c -1.13007,-0.45768 -3.45444,-2.42638 -5.16526,-4.3749 l -3.11058,-3.54276 -0.86911,3.68828 -0.8691,3.68828 -7.09814,0.29144 -7.09814,0.29144 4.3506,-20.79144 c 2.39283,-11.43529 5.10153,-24.50394 6.01935,-29.04144 l 1.66874,-8.25 h 7.75481 7.7548 l -1.86598,8.25 c -2.5017,11.06073 -2.49701,11.08312 1.72223,8.21987 2.86877,-1.94681 4.9086,-2.46987 9.63196,-2.46987 7.61599,0 11.79095,2.43185 14.78183,8.61019 1.8488,3.81911 2.12286,5.74638 1.73662,12.21229 -0.30487,5.10373 -1.16488,9.05021 -2.56538,11.7722 -2.30332,4.47673 -8.03585,10.00287 -11.90077,11.47231 -2.98378,1.13443 -12.05242,1.11865 -14.87848,-0.0259 z m 6.88136,-11.14408 C 122.77209,60.534073 126,54.261043 126,49.135183 c 0,-10.99274 -11.47841,-11.88301 -16.17972,-1.25491 -2.48156,5.60998 -1.81382,10.39994 1.85176,13.28328 2.96536,2.33255 4.25215,2.49063 7.65465,0.94035 z m 94.13194,10.22332 c -6.83898,-3.10652 -11.43616,-10.40739 -11.45305,-18.18884 -0.0104,-4.80313 3.07028,-12.9483 6.28007,-16.60405 4.95217,-5.64022 11.68142,-8.30598 20.99647,-8.31768 14.24765,-0.0179 21.44176,5.29766 23.22014,17.15677 1.63064,10.87383 -5.54526,22.6157 -15.9979,26.17728 -6.60324,2.24995 -17.84038,2.14098 -23.04573,-0.22348 z m 17.17633,-10.03942 c 6.3326,-3.86142 8.40772,-17.19869 3.31725,-21.3207 -4.71796,-3.82037 -10.86911,-1.35689 -14.03846,5.62228 -2.84641,6.26801 -2.5093,11.1758 1.00933,14.69443 3.41609,3.41609 5.41692,3.62293 9.71188,1.00399 z M 269.5,72.714493 c -6.90994,-3.67145 -8.25504,-9.05576 -5.52647,-22.12205 1.11456,-5.33728 2.02647,-9.85746 2.02647,-10.04485 0,-0.18739 -1.8,-0.34071 -4,-0.34071 -3.51102,0 -3.98781,-0.27505 -3.90032,-2.25 0.2608,-5.88682 1.28879,-7.22851 5.93798,-7.75 4.43566,-0.49753 4.46286,-0.52456 5.50779,-5.47217 l 1.05012,-4.97218 7.65247,-1.99423 c 4.20887,-1.09682 7.86608,-1.78063 8.12714,-1.51957 0.26106,0.26106 -0.15953,3.17094 -0.93464,6.4664 -0.77512,3.29547 -1.41633,6.32925 -1.42492,6.74175 -0.009,0.4125 2.23438,0.75 4.98438,0.75 5.41084,0 5.48216,0.11233 4.12684,6.5 -0.59468,2.80275 -0.99401,3.03288 -6.07333,3.5 l -5.4368,0.5 -1.8088,7 c -0.99484,3.85 -1.6961,8.8 -1.55836,11 l 0.25045,4 h 4.32726 4.32725 l -0.65952,4.5 c -0.36274,2.475 -1.0658,4.9208 -1.56237,5.43512 -1.67745,1.7374 -12.20606,1.78686 -15.43262,0.0725 z m 91.66827,-0.58787 c -2.47456,-1.26227 -5.4757,-3.94004 -7,-6.24574 -2.34251,-3.54338 -2.66827,-5.03095 -2.66827,-12.18469 0,-7.32507 0.30585,-8.64314 3.02644,-13.0425 3.8665,-6.25239 10.25803,-10.25498 18.60227,-11.64938 11.58392,-1.93577 20.32433,2.74389 22.88477,12.25263 1.09767,4.07644 0.78487,11.84917 -0.56473,14.03287 -0.31173,0.50439 -7.29023,0.91707 -15.50777,0.91707 -8.21754,0 -14.94098,0.20383 -14.94098,0.45295 0,1.86038 2.64924,5.52184 4.65732,6.43678 3.36004,1.53093 10.09652,1.38965 15.81617,-0.33171 l 4.79135,-1.44199 -0.60584,5.11541 c -0.33322,2.81348 -1.05618,5.56575 -1.60659,6.11616 -0.55041,0.55041 -5.84987,1.17647 -11.77658,1.39125 -9.59956,0.34788 -11.24867,0.14931 -15.10756,-1.81911 z M 384,44.929393 c 0,-3.9575 -2.72385,-6.72251 -6.62245,-6.72251 -4.55553,0 -7.00265,1.37436 -8.8672,4.97999 -0.83069,1.60638 -1.51035,3.16804 -1.51035,3.47035 0,0.30232 3.825,0.54966 8.5,0.54966 8.17855,0 8.5,-0.0861 8.5,-2.27749 z m 82.18982,27.25186 c -6.83979,-4.17011 -7.74254,-13.40546 -3.19877,-32.72437 l 2.17558,-9.25 h 7.77776 7.77776 l -2.35914,9.75 c -3.791,15.66767 -2.90766,22.25 2.98591,22.25 5.90658,0 9.50869,-6.00164 12.53746,-20.88924 1.16249,-5.71408 2.11362,-10.55158 2.11362,-10.75 0,-0.19842 3.63032,-0.36076 8.06739,-0.36076 7.2218,0 8.01092,0.18343 7.52863,1.75 -0.67689,2.19868 -8.5865,39.48221 -8.59198,40.5 -0.002,0.4125 -3.21029,0.75 -7.12904,0.75 h -7.125 l 0.63714,-3.18572 0.63715,-3.18572 -2.27579,2.13799 c -5.61931,5.27907 -15.70096,6.77917 -21.55868,3.20782 z M 526.5,72.861533 c -13.51448,-6.20458 -15.27527,-25.91101 -3.33763,-37.35397 8.72303,-8.36155 24.03204,-9.45894 32.17809,-2.30661 4.94379,4.34071 7.14823,13.96019 4.68429,20.44083 l -0.97525,2.5651 h -14.93113 c -14.49812,0 -14.91578,0.0587 -14.40181,2.02413 0.29113,1.11327 1.7115,2.9637 3.15638,4.11207 2.28626,1.81708 3.55575,2.01944 9.78582,1.55989 3.93731,-0.29043 8.13835,-1.05232 9.33564,-1.69309 1.19729,-0.64077 2.32621,-1.01572 2.5087,-0.83323 0.64091,0.64091 -1.53219,10.25933 -2.54723,11.27437 -1.65949,1.65949 -21.93458,1.82716 -25.45587,0.21051 z M 548,44.929393 c 0,-6.6479 -8.20458,-9.2452 -13.25399,-4.19579 -1.3897,1.3897 -2.75893,3.4147 -3.04275,4.5 -0.48347,1.84881 0.0142,1.97328 7.89036,1.97328 8.08113,0 8.40638,-0.0881 8.40638,-2.27749 z M 4.38716,71.553923 c 0.62189,-1.96847 8.98413,-40.95795 10.85175,-50.59704 l 1.1141,-5.75 15.07349,0.006 c 8.29042,0.003 16.68191,0.45239 18.64775,0.99848 5.23848,1.45521 8.12937,5.03216 8.65852,10.71331 0.56615,6.07833 -2.36649,10.83132 -8.63881,14.00113 -4.34298,2.19479 -4.363,2.22872 -1.87325,3.17532 1.38415,0.52626 3.5197,2.22793 4.74565,3.78151 1.84944,2.34367 2.16121,3.77239 1.83087,8.39007 -0.49918,6.97769 -3.2064,10.97263 -9.55421,14.09878 -4.34651,2.14055 -6.27692,2.36484 -23.09121,2.68286 -17.46908,0.33041 -18.32022,0.25854 -17.76465,-1.5 z m 33.24757,-12.70877 c 4.9179,-5.7174 1.66377,-10.63827 -7.03499,-10.63827 h -5.40026 l -1.18706,5.25 c -0.65288,2.8875 -1.42069,6.09298 -1.70625,7.12328 -0.47837,1.72596 0.011,1.83952 6.22204,1.44403 5.83719,-0.37168 7.05845,-0.79802 9.10652,-3.17904 z m 2.77315,-22.98595 C 42.21788,34.673243 43,33.279653 43,31.240533 c 0,-3.81044 -3.19976,-6.03365 -8.68396,-6.03365 -4.60539,0 -4.31803,-0.44071 -6.76696,10.37808 l -0.65148,2.87808 5.45909,-0.45271 c 3.00249,-0.24899 6.62553,-1.217 8.05119,-2.15113 z m 21.63009,35.59768 c 0.0209,-0.9625 1.96394,-10.525 4.31789,-21.25 l 4.27991,-19.5 7.8061,-0.29429 c 6.06185,-0.22854 7.69707,-0.005 7.31814,1 -0.26838,0.71186 -2.42343,10.40679 -4.789,21.54429 l -4.30104,20.25 h -7.33499 c -6.3335,0 -7.3298,-0.23893 -7.29701,-1.75 z M 146,71.890043 c 0,-1.11426 7.60495,-36.66569 11.10923,-51.93316 l 1.09025,-4.75 h 7.40026 c 5.72735,0 7.40026,0.32113 7.40026,1.42054 0,1.08696 -8.20995,39.78868 -11.52512,54.32946 -0.47585,2.08711 -1.05457,2.25 -7.99393,2.25 -5.52063,0 -7.48095,-0.34507 -7.48095,-1.31684 z m 28,0.83862 c 0,-0.26302 2.025,-9.74742 4.5,-21.07646 2.475,-11.32903 4.5,-20.78883 4.5,-21.02178 0,-0.23294 3.375,-0.42354 7.5,-0.42354 4.23965,0 7.5,0.42672 7.5,0.98161 0,1.04806 -7.7717,37.32708 -8.62631,40.26839 -0.42539,1.4641 -1.72277,1.75 -7.94108,1.75 -4.08793,0 -7.43261,-0.2152 -7.43261,-0.47822 z m 119,-0.23038 c 0,-0.436 1.53401,-7.99243 3.40891,-16.79206 1.87489,-8.79964 4.37691,-20.72434 5.56004,-26.49934 1.18313,-5.775 2.37945,-11.2875 2.65849,-12.25 0.42448,-1.46419 1.72121,-1.75 7.93995,-1.75 8.51258,0 8.16192,-0.59778 5.91501,10.08369 -0.83469,3.96794 -1.33544,7.39661 -1.11278,7.61926 0.22265,0.22266 1.91807,-0.51774 3.7676,-1.64532 2.26999,-1.38392 5.08499,-2.05137 8.66244,-2.05389 14.13446,-0.01 17.44638,9.01826 12.19606,33.24626 l -2.32957,10.75 h -7.83308 c -4.30819,0 -7.83307,-0.19633 -7.83307,-0.43629 0,-0.23996 1.12442,-5.07746 2.49871,-10.75 3.00363,-12.39787 3.16188,-16.9059 0.67255,-19.15872 -2.46079,-2.22698 -5.35646,-2.08374 -8.54272,0.42257 -3.82487,3.00864 -4.73171,5.12686 -7.67286,17.92244 l -2.64335,11.5 -7.65617,0.29207 C 296.44527,73.159583 293,72.934253 293,72.498283 Z m 76.75,-53.34402 c -3.7125,-2.7408 -6.75,-5.4252 -6.75,-5.96533 0,-0.56652 3.49072,-0.96554 8.25,-0.94305 l 8.25,0.039 3.28107,4.46017 c 5.26822,7.16145 5.23021,7.46699 -0.92408,7.42716 -4.8314,-0.0313 -6.01925,-0.5236 -12.10699,-5.01795 z m -296.56037,0.30262 0.31037,-3.75 7.77974,-0.2926 7.77975,-0.2926 -0.61327,2.7926 c -0.3373,1.53593 -0.78656,3.3551 -0.99836,4.0426 -0.26072,0.8463 -2.67549,1.25 -7.47684,1.25 h -7.09175 z m 112.18537,0.625 c 0.34375,-1.71875 0.625,-3.51875 0.625,-4 0,-0.48125 3.375,-0.875 7.5,-0.875 8.05662,0 8.34579,0.24204 6.86971,5.75 -0.55742,2.08002 -1.17021,2.25 -8.11134,2.25 H 184.75 Z"
     style="fill:#ffffff;fill-opacity:1" />
</svg>
