<?xml version="1.0" encoding="UTF-8" standalone="no"?>
<svg
   xmlns:dc="http://purl.org/dc/elements/1.1/"
   xmlns:cc="http://creativecommons.org/ns#"
   xmlns:rdf="http://www.w3.org/1999/02/22-rdf-syntax-ns#"
   xmlns:svg="http://www.w3.org/2000/svg"
   xmlns="http://www.w3.org/2000/svg"
   xmlns:sodipodi="http://sodipodi.sourceforge.net/DTD/sodipodi-0.dtd"
   xmlns:inkscape="http://www.inkscape.org/namespaces/inkscape"
   id="svg8"
   version="1.1"
   viewBox="0 0 100 100"
   height="100mm"
   width="100mm"
   sodipodi:docname="bayer.svg"
   inkscape:version="0.92.3 (2405546, 2018-03-11)">
  <sodipodi:namedview
     pagecolor="#ffffff"
     bordercolor="#666666"
     borderopacity="1"
     objecttolerance="10"
     gridtolerance="10"
     guidetolerance="10"
     inkscape:pageopacity="0"
     inkscape:pageshadow="2"
     inkscape:window-width="1028"
     inkscape:window-height="932"
     id="namedview21"
     showgrid="false"
     inkscape:zoom="0.62441667"
     inkscape:cx="190.57787"
     inkscape:cy="188.97638"
     inkscape:window-x="3268"
     inkscape:window-y="346"
     inkscape:window-maximized="0"
     inkscape:current-layer="svg8" />
  <defs
     id="defs2" />
  <metadata
     id="metadata5">
    <rdf:RDF>
      <cc:Work
         rdf:about="">
        <dc:format>image/svg+xml</dc:format>
        <dc:type
           rdf:resource="http://purl.org/dc/dcmitype/StillImage" />
        <dc:title />
      </cc:Work>
    </rdf:RDF>
  </metadata>
  <path
     inkscape:connector-curvature="0"
     d="m 47.03158,14.855263 h 5.761842 c 0.635526,0 1.153947,-0.517105 1.153947,-1.152631 0,-0.634211 -0.518421,-1.152632 -1.153947,-1.152632 H 47.03158 Z m 0,5.598685 h 5.932895 c 0.726316,0 1.313158,-0.589474 1.313158,-1.319737 0,-0.727632 -0.586842,-1.317105 -1.313158,-1.317105 H 47.03158 Z m 9.264474,-4.243421 c 0.782895,0.763158 1.268421,1.827631 1.268421,3.007894 0,2.314474 -1.877632,4.196053 -4.193421,4.200001 H 43.736843 V 9.5828949 l 9.476316,0.00132 c 2.223684,0.00395 4.025,1.8092101 4.025,4.0342101 0.0013,0.986842 -0.353947,1.89079 -0.942105,2.592106 z"
     id="path4141"
     style="fill:#ffffff;stroke-width:1.31578946;fill-opacity:1" />
  <path
     inkscape:connector-curvature="0"
     d="m 58.511843,39.893422 h -3.535526 l -1.113158,-2.305263 h -7.739474 l -1.114474,2.305263 h -3.535526 l 6.914474,-13.830264 h 3.206579 z m -8.518421,-10.292106 -2.428947,5.023685 h 4.857894 z"
     id="path4143"
     style="fill:#ffffff;stroke-width:1.31578946;fill-opacity:1" />
  <polygon
     points="34.424,32.572 37.995,37.359 41.565,32.572 44.577,32.572 39.247,39.416 39.247,43.084 36.743,43.084 36.743,39.416 31.413,32.572 "
     id="polygon4145"
     style="fill:#ffffff;fill-opacity:1"
     transform="scale(1.3157895)" />
  <polygon
     points="48.494,40.831 55.502,40.831 55.502,43.084 45.991,43.084 45.991,32.572 55.502,32.572 55.502,34.825 48.494,34.825 48.494,36.577 55.251,36.576 55.251,38.828 48.494,38.828 "
     id="polygon4147"
     style="fill:#ffffff;fill-opacity:1"
     transform="scale(1.3157895)" />
  <path
     inkscape:connector-curvature="0"
     d="m 83.202633,51.419738 h -2.471052 v 5.268421 H 77.438159 V 42.857896 h 8.411843 c 2.357895,0.0079 4.269737,1.923684 4.269737,4.285526 0,1.948684 -1.289474,3.592105 -3.073685,4.109211 l 4.059211,5.436842 h -3.952632 z m 2.311842,-5.597369 h -4.782894 v 2.634211 h 4.782894 c 0.723685,-0.0039 1.307895,-0.593421 1.307895,-1.31579 0.0013,-0.725 -0.58421,-1.314473 -1.307895,-1.318421 z"
     id="path4149"
     style="fill:#ffffff;stroke-width:1.31578946;fill-opacity:1" />
  <path
     inkscape:connector-curvature="0"
     d="M 42.869738,56.689475 H 39.334211 L 38.221053,54.384212 H 30.48158 l -1.114474,2.305263 h -3.534211 l 6.914474,-13.831579 h 3.206579 z m -8.518422,-10.293421 -2.430263,5.023684 h 4.857895 z"
     id="path4151"
     style="fill:#ffffff;stroke-width:1.31578946;fill-opacity:1" />
  <path
     inkscape:connector-curvature="0"
     d="m 13.46579,48.136843 h 5.760526 c 0.636842,0 1.153948,-0.517105 1.153948,-1.152632 0,-0.635526 -0.517106,-1.152631 -1.153948,-1.152631 H 13.46579 Z m 0,5.598684 h 5.930263 c 0.727632,0 1.313158,-0.590789 1.313158,-1.319736 0,-0.726316 -0.585526,-1.317106 -1.313158,-1.317106 h -5.931579 v 2.636842 z m 9.263158,-4.243421 c 0.782895,0.763158 1.269737,1.828948 1.269737,3.007895 0,2.31579 -1.877632,4.197369 -4.192106,4.201316 H 10.171053 V 42.86579 h 9.476316 c 2.223684,0.0039 4.026316,1.809211 4.026316,4.034211 -0.0013,0.986842 -0.356579,1.890789 -0.944737,2.592105 z"
     id="path4153"
     style="fill:#ffffff;stroke-width:1.31578946;fill-opacity:1" />
  <polygon
     points="35.743,53.595 42.751,53.595 42.751,55.847 33.24,55.847 33.24,45.336 42.751,45.336 42.751,47.589 35.743,47.589 35.743,49.341 42.5,49.34 42.5,51.592 35.743,51.592 "
     id="polygon4155"
     style="fill:#ffffff;fill-opacity:1"
     transform="scale(1.3157895)" />
  <path
     inkscape:connector-curvature="0"
     d="m 53.939475,81.060528 c 0,-0.725 -0.582895,-1.311842 -1.305263,-1.318421 h -5.605264 v 2.632895 h 5.605264 c 0.723684,-0.0066 1.305263,-0.594737 1.305263,-1.314474 z m -10.202632,9.547369 v -13.83158 h 9.238158 c 2.353947,0.01579 4.255263,1.928948 4.255263,4.286843 0,1.793421 -1.1,3.330263 -2.663158,3.971052 l 4.153948,5.572369 H 54.768422 L 50.81579,85.339475 h -3.786842 v 5.267106 h -3.292105 z"
     id="path4157"
     style="fill:#ffffff;stroke-width:1.31578946;fill-opacity:1" />
  <path
     inkscape:connector-curvature="0"
     d="M 99.901318,46.902633 C 98.301318,20.731579 76.573686,0 50.000001,0 23.426316,0 1.6986842,20.731579 0.09868421,46.902633 c 0.06447369,1.05 0.15789474,2.090789 0.28684211,3.122368 C 1.4657895,58.730264 4.7842106,66.739475 9.7460528,73.463159 18.851316,85.801318 33.49079,93.805265 50.001317,93.805265 c -23.113159,0 -42.1000011,-17.993421 -43.6934221,-40.70658 -0.073684,-1.025 -0.1131579,-2.056579 -0.1131579,-3.098684 0,-1.042105 0.039474,-2.073684 0.1105263,-3.097368 C 7.9000002,24.188158 26.886843,6.194737 50.000001,6.194737 c 16.514474,0 31.155264,8.007895 40.259211,20.351316 4.967106,6.734211 8.282895,14.759211 9.356579,23.478948 0.125,1.015789 0.223685,2.039474 0.286843,3.073684 C 99.964476,52.072369 100,51.04079 100,50.000001 c 0,-1.040789 -0.03552,-2.072368 -0.09868,-3.097368"
     id="path4161"
     style="fill:#ffffff;stroke-width:1.31578946;fill-opacity:1" />
  <path
     inkscape:connector-curvature="0"
     d="M 0.09868421,53.097369 C 1.6986842,79.268423 23.426316,100 50.000001,100 76.573686,100 98.301318,79.268423 99.901318,53.097369 99.836844,52.047369 99.743423,51.00658 99.614476,49.975001 98.534212,41.269738 95.215791,33.260527 90.253949,26.536843 81.150002,14.198684 66.510528,6.194737 50.000001,6.194737 c 23.111843,0 42.100001,17.993421 43.694738,40.70658 0.07105,1.023684 0.110526,2.056579 0.110526,3.097368 0,1.042105 -0.03947,2.073684 -0.110526,3.097369 -1.594737,22.71579 -20.58158,40.709211 -43.694738,40.709211 -16.514474,0 -31.155264,-8.007895 -40.2592113,-20.351316 C 4.7736843,66.719738 1.4578948,58.694738 0.38421053,49.976317 0.25921053,48.960527 0.16052632,47.936843 0.09736842,46.902633 0.03552632,47.927633 0,48.959212 0,50.000001 c 0,1.040789 0.03552632,2.072368 0.09868421,3.097368"
     id="path4163"
     style="fill:#ffffff;stroke-width:1.31578946;fill-opacity:1" />
  <rect
     style="opacity:1;fill:#ffffff;fill-opacity:1;stroke:none;stroke-width:0.94747478;stroke-miterlimit:10;stroke-dasharray:none;stroke-opacity:1"
     id="rect4171"
     width="0"
     height="47.908077"
     x="-37.605267"
     y="39.728554" />
</svg>
