<svg id="svg2" version="1.0" viewBox="0 0 800 600" xmlns="http://www.w3.org/2000/svg">
 <g id="layer10" transform="translate(0 -144.09)" fill="#fff">
  <path id="path1956" d="m309.47 381.87a31.373 31.373 0 0 1 31.38 31.309 31.373 31.373 0 0 1-31.253 31.436 31.373 31.373 0 0 1-31.492-31.196 31.373 31.373 0 0 1 31.139-31.548"/>
  <path id="path3731" d="m230.16 417.34c-9.8935 20.63-9.7056 47.141-9.7056 47.141h-20.567s-0.11554-22.473 7.8569-44.599 15.27-33.099 24.033-43.906c8.9884-11.086 24.903-25.794 39.978-35.125 11.513-7.1259 22.342-11.144 33.507-14.327 8.276-2.3597 28.191-6.5985 42.058-5.7771 10.969 0.64976 23.189 3.8562 37.667 9.4745 7.7414 3.0041 9.3134 3.9155 21.029 10.861 8.088 4.795 24.264 19.411 24.264 19.411s-19.174-10.531-25.882-12.71c-18.387-5.9716-24.404-6.9512-29.348-7.3947-19.353-1.7362-21.375-0.34662-30.734 0.23109-18.925 1.1682-30.987 3.3542-44.831 8.7812-15.36 6.0215-28.895 16.303-38.36 24.726-12.157 10.82-22.709 25.997-30.965 43.213z" fill-rule="evenodd"/>
  <path id="path4619" d="m431.21 307.63v-49.674s-26.031-11.197-55.236-14.968-33.421-3.3507-61.584-0.11554-73.774 18.602-100.18 39.4-46.235 40.939-56.5 56.847c-22.379 34.679-32.425 63.081-35.24 83.768-3.339 24.533-7.1809 48.261-2.1946 80.514 4.7504 30.727 18.551 65.274 32.236 86.792 14.936 23.487 36.264 43.968 57.656 60.891 18.629 14.737 44.868 27.429 66.899 33.738 25.122 7.1944 49.859 10.057 69.903 10.399 20.392 0.34261 31.168-2.3686 52.11-6.5859 20.942-4.2173 31.659-10.283 31.659-10.283v-50.261s-10.642 7.9408-38.958 15.598c-22.044 5.9612-46.99 7.7121-76.816 3.4663-23.682-3.3712-62.797-19.931-81.92-35.818-36.24-30.109-43.83-44.522-61.122-86.888-8.6657-21.231-10.322-56.582-6.817-83.075 1.7159-12.969 9.6804-48.949 34.778-82.96 10.168-13.778 31.655-38.255 65.05-53.496 22.849-10.428 31.543-14.703 63.317-17.794 31.774-3.0908 51.707 2.5376 63.78 5.4305 13.42 3.2158 39.175 15.075 39.175 15.075z" fill-rule="evenodd"/>
  <path id="path1935" d="m83.819 464.49 0.0817 2.3693h-20.017s0.1634-13.379 1.1438-25.082c0.98041-11.704 0.61276-9.702 2.7778-21.732s1.777-11.765 5.8825-26.389 3.411-14.931 10.539-32.108 9.3548-21.161 17.974-36.602c8.6195-15.441 7.3735-12.745 16.504-25.164s10.172-13.603 20.017-24.51 7.0263-8.4765 19.363-19.118 10.723-11.152 29.984-23.448 28.514-16.81 47.06-25.736 33.477-12.439 41.668-14.134c8.1905-1.6953 6.2705-1.5319 18.219-2.6144 11.949-1.0825 15.074-1.634 29.576-1.7157 14.502-0.0817 14.91 0.14298 28.432 1.3889s14.012 1.5115 25.654 3.5948c11.642 2.0834 7.8637 0.89871 20.915 4.7387s31.291 10.621 31.291 10.621-5.4127-1.7157-15.768-3.5948c-10.356-1.8791-13.746-2.6144-25.654-3.9216-11.908-1.3072-7.5573-1.3481-21.978-1.3072-14.42 0.0409-17.852-0.49021-35.703 1.4706-17.852 1.9608-19.751 2.737-35.703 6.3727-15.952 3.6357-11.704 2.3693-28.105 8.1701s-19.935 6.4952-37.501 15.033-12.089 5.0935-32.762 19.118c-20.89 14.172-20.568 12.807-40.687 35.131s-24.183 27.554-39.788 54.168c-15.605 26.614-14.481 26.696-22.631 52.289-8.1497 25.593-7.2714 31.904-9.9675 50.083s-0.81701 22.631-0.81701 22.631z" fill-rule="evenodd"/>
  <path id="path2825" d="m289.87 602.24 0.1634-145.26h38.563v145.26z" fill-rule="evenodd"/>
  <path id="path3713" d="m357.26 602.21v-145.35h45.062l53.381 82.266v-82.035h36.511v145.35h-41.133l-55.923-86.426v86.195z" fill-rule="evenodd"/>
  <path id="path3716" d="m521.25 602.24 0.1634-145.43h82.518v32.517h-44.445v23.857h42.321v32.027h-42.484v24.674h44.609v32.354z" fill-rule="evenodd"/>
  <path id="path3719" d="m711.45 495.46 14.87-29.004-21.242-8.4969s-15.809-4.0034-28.595-3.0229c-13.382 1.0327-20.663 5.69-24.837 8.2518-8.633 5.2985-13.472 14.524-15.687 19.118-1.929 4.0017-4.6676 12.664-3.7582 24.183 0.49021 6.2093 2.407 17.254 7.3531 21.896 5.3559 5.0265 11.039 8.4893 22.304 12.337 11.602 3.9625 9.8847 3.0246 17.076 5.3923 3.3497 1.103 9.4509 4.031 11.193 6.2093 3.2716 4.0906 3.1863 3.7582 3.1863 7.925s-1.3008 6.5042-3.4314 8.6603c-2.1733 2.1993-6.2102 4.1625-9.9675 4.9021-3.0346 0.59727-7.6799 0.20426-11.275-0.3268-5.4147-0.7999-5.6374-1.3481-10.294-3.4314-4.657-2.0834-4.371-2.2468-8.3335-4.9021s-7.5165-5.7191-7.5165-5.7191l-16.177 30.066s6.109 4.2362 9.1505 5.7191c5.8632 2.8586 16.267 7.5531 21.896 8.4969 5.1676 0.86644 12.704 2.4919 19.608 2.2876 10.334-0.30942 17.116-1.634 21.732-3.4314 10.1-3.9327 16.623-8.0848 19.281-10.621 7.9524-7.588 8.4298-10.387 12.092-20.589 1.7157-4.7795 2.3285-15.83 1.9608-20.425-0.80933-10.117-2.2108-12.864-7.0263-19.853-4.654-6.7547-12.105-10.147-17.484-12.745-4.9519-2.3916-16.359-5.1739-25.164-8.5786-6.1276-2.3693-8.2057-4.5468-9.6407-6.6178-2.0421-2.9472-1.6415-5.5402-1.3889-7.4348 0.288-2.1604 2.1739-4.3079 3.7582-5.474 1.9423-1.4294 5.4364-3.3134 8.3335-3.84 2.8338-0.51503 4.7591-0.67404 9.4773 0.1634s5.6612 1.7263 9.3956 3.1863c2.7166 1.0621 3.0468 1.6903 5.3923 3.0229 1.7974 1.0213 3.7582 2.6961 3.7582 2.6961z" fill-rule="evenodd"/>
 </g>
</svg>
