<?xml version="1.0" encoding="UTF-8"?>
<!-- Created with Inkscape (http://www.inkscape.org/) -->
<svg width="312.47mm" height="94.721mm" version="1.1" viewBox="0 0 312.47 94.721" xmlns="http://www.w3.org/2000/svg">
 <g transform="translate(-89.475 27.291)">
  <path d="m136.44 63.622c-15.879-2.6192-28.664-13.502-33.59-28.592-1.5247-4.6707-1.8455-6.9567-1.8397-13.109 5e-3 -4.8702 0.0886-6.0631 0.58454-8.2922 1.6287-7.321 4.9574-14.081 9.4657-19.225 2.052-2.3409 2.2643-2.3033 0.54281 0.09607-2.7073 3.7734-4.992 9.1401-6.1543 14.456-0.38969 1.7824-0.49201 3.3742-0.49321 7.6729-1e-3 4.7155 0.0788 5.7827 0.61343 8.1705 3.748 16.74 16.499 28.409 32.69 29.915 10.232 0.95216 20.434-2.8183 27.93-10.322 5.3515-5.3569 9.064-12.506 10.502-20.223 0.68146-3.656 0.68073-10.374-2e-3 -14.023-1.4374-7.6878-4.9084-14.539-10.114-19.962-2.8779-2.9984-5.7166-5.1611-9.3024-7.0871-1.418-0.76168-2.496-1.3868-2.3955-1.3891 0.56239-0.01293 4.4346 1.574 6.8877 2.8228 3.9962 2.0343 7.0228 4.2547 10.392 7.624 5.9512 5.9511 9.6839 12.773 11.543 21.095 0.8647 3.8716 0.99029 11.493 0.26005 15.78-2.9134 17.106-15.875 30.533-33.012 34.195-3.3181 0.70908-11.293 0.9269-14.51 0.3963zm116.82 0.08511c-0.8668-0.36212-1.5929-1.0358-1.5929-1.4778 0-0.41744 1.47-0.49546 1.7198-0.09128 0.22834 0.36946 1.8118 0.3313 2.196-0.05292 0.5555-0.5555 0.35058-0.66634-0.99327-0.53721-1.1893 0.11427-1.3855 0.05124-2.1167-0.67994-2.0827-2.0827 0.11142-5.981 2.6528-4.7132 0.42605 0.21254 0.77463 0.2765 0.77463 0.14213 0-0.13437 0.35719-0.2443 0.79375-0.2443h0.79375l-0.0264 2.712c-0.0145 1.4916-0.10663 2.9989-0.20473 3.3496-0.36901 1.3191-2.561 2.1928-3.9968 1.593zm2.2246-3.837c0.49203-0.49204 0.5478-1.7276 0.0983-2.1771-0.54579-0.54579-1.7473-0.37799-2.1959 0.30668-0.94712 1.4455 0.8871 3.081 2.0977 1.8705zm63.2 3.8352c-0.46642-0.13939-1.032-0.51603-1.2568-0.83698-0.77254-1.1029-0.61097-1.1461 2.1734-0.58026 0.53994 0.10972 1.0098 0.05285 1.2568-0.15213 0.67862-0.56321 0.43918-0.71836-0.90873-0.58884-1.133 0.10887-1.3907 0.03766-1.9736-0.54522-1.8424-1.8424-0.78894-5.0918 1.6234-5.0071 0.54559 0.01916 1.498 0.03522 2.1165 0.0357l1.1245 7.94e-4v3.0491c0 2.9593-0.0214 3.0723-0.72761 3.8355-0.82121 0.88754-2.1078 1.1838-3.4277 0.78934zm2.2503-3.7369c0.17462-0.17462 0.3175-0.68659 0.3175-1.1377 0-1.0008-0.41307-1.4552-1.3229-1.4552-0.88409 0-1.3229 0.45011-1.3229 1.3569 0 1.277 1.4941 2.0702 2.3283 1.236zm-104.75 1.5073c-0.93726-0.50935-1.6496-2.0638-1.4452-3.1536 0.533-2.8412 4.4881-3.1981 5.6127-0.50652 1.0332 2.4729-1.7898 4.9522-4.1675 3.6601zm2.7253-1.8513c0.34555-0.75839-0.027-1.8914-0.7079-2.1526-1.2975-0.49789-2.3728 0.82873-1.7607 2.1721 0.42566 0.93422 2.0399 0.92146 2.4686-0.0195zm3.9003 1.4756c-0.72713-0.72714-0.7734-0.90122-0.7734-2.9104v-2.137h1.5652l0.0773 2.0505c0.0729 1.9341 0.11312 2.0556 0.70881 2.1398 0.87279 0.12341 1.0795-0.33504 1.0842-2.4044l4e-3 -1.7859h0.79375c0.79008 0 0.79374 7e-3 0.79227 1.5214-3e-3 3.0072-0.7818 4.2995-2.5913 4.2995-0.62817 0-1.1135-0.226-1.6609-0.7734zm7.1013 0.35922c-2.2128-1.2007-1.9159-4.3812 0.495-5.3019 1.252-0.47816 2.5819-0.21975 3.3741 0.65566 0.40247 0.44472 0.38459 0.49691-0.27284 0.79646-0.49045 0.22346-0.7875 0.23658-0.98078 0.0433-0.42027-0.42027-1.6666-0.33173-2.1512 0.15281-0.67617 0.67617-0.42231 2.0068 0.46346 2.4292 0.61339 0.29254 0.85451 0.28864 1.4812-0.02397 0.59138-0.29502 0.84028-0.30632 1.1856-0.05384 0.65523 0.47911 0.5342 0.81631-0.46283 1.2894-1.1074 0.52551-2.1788 0.5299-3.1317 0.01286zm45.938 0.15487c-2.334-0.94304-2.1461-4.7562 0.27371-5.5548 1.7976-0.59324 3.8569 0.69365 3.8569 2.4102v0.75807h-2.1167c-1.7184 0-2.1167 0.07575-2.1167 0.40255 0 0.66984 1.1713 1.0474 2.0807 0.67067 0.58459-0.24214 0.92114-0.24913 1.3348-0.02773 0.72585 0.38846 0.70646 0.45633-0.30672 1.0741-0.89844 0.54779-2.0566 0.65064-3.0062 0.26696zm2.5432-3.716c0-0.14912-0.31373-0.39041-0.69718-0.5362-0.52995-0.20149-0.84726-0.16672-1.3229 0.14494-0.34416 0.2255-0.62575 0.46679-0.62575 0.5362 0 0.06941 0.59532 0.12619 1.3229 0.12619s1.3229-0.12201 1.3229-0.27113zm3.1382 3.4632c-0.59036-0.484-0.59976-0.53738-0.17138-0.97296 0.38521-0.39168 0.56006-0.4122 1.1647-0.1367 1.2586 0.57347 1.301-0.10073 0.0588-0.93503-1.1847-0.79566-1.4343-1.2899-1.1744-2.3254 0.29111-1.1599 2.5567-1.4532 3.1989-0.41417 0.33328 0.53925-0.38991 1.049-1.2769 0.90012l-0.83682-0.14048 0.5829 0.48244c0.3206 0.26534 0.88615 0.69636 1.2568 0.95781 0.91982 0.64889 0.90917 1.8147-0.0233 2.5481-0.87364 0.68721-1.9679 0.70149-2.7793 0.03627zm23.149 0.0173c-0.95603-0.60004-1.5414-2.0377-1.292-3.1731 0.0913-0.41561 0.50984-1.0851 0.93013-1.4878 1.5309-1.4667 4.0016-0.78706 4.698 1.2923 0.84817 2.5328-2.0636 4.7949-4.3361 3.3686zm2.8651-1.7542c0.34555-0.75839-0.027-1.8914-0.7079-2.1526-1.2975-0.49789-2.3728 0.82873-1.7607 2.1721 0.42566 0.93422 2.0399 0.92146 2.4686-0.0195zm3.9003 1.4756c-0.72713-0.72714-0.7734-0.90122-0.7734-2.9104v-2.137h1.5652l0.0773 2.0505c0.0729 1.9341 0.11312 2.0556 0.70881 2.1398 0.87279 0.12341 1.0795-0.33504 1.0842-2.4044l4e-3 -1.7859h1.5875l-0.0149 1.6536c-0.019 2.0965-0.46465 3.4002-1.308 3.8257-1.1058 0.5579-2.0854 0.41355-2.9308-0.43187zm40.439 0.37355c-2.0896-1.1752-1.9608-4.2479 0.22152-5.2835 1.9801-0.9396 4.0713 0.51573 4.0736 2.8349 3e-3 2.0653-2.4704 3.4748-4.2952 2.4486zm2.3912-1.5052c0.17462-0.17462 0.3175-0.68659 0.3175-1.1377 0-1.0008-0.41307-1.4552-1.3229-1.4552-0.90984 0-1.3229 0.45438-1.3229 1.4552 0 1.0008 0.41307 1.4552 1.3229 1.4552 0.37836 0 0.83079-0.14288 1.0054-0.3175zm10.388 1.2026c-1.5861-1.4173-1.2988-4.0491 0.54613-5.0032 0.54705-0.28288 1.0492-0.35585 1.5169-0.2204 0.38452 0.11136 1.1456 0.17035 1.6913 0.13107l0.99219-0.07141v5.6232l-0.99219-0.01217c-0.5457-0.0067-1.4241 0.05935-1.952 0.14675-0.8061 0.13345-1.0948 0.03833-1.8023-0.59387zm2.7906-1.2863c1.0102-1.0102 0.42622-2.5091-0.97761-2.5091-1.3098 0-1.8213 1.986-0.71178 2.7631 0.77952 0.54598 0.90884 0.52654 1.6894-0.25399zm11.584 1.7295c-0.97845-0.39534-1.6902-1.5674-1.6902-2.7834 0-1.409 0.73721-2.3961 2.0928-2.8022 1.2518-0.37505 2.5922 0.1674 3.2766 1.326 1.4454 2.4468-1.0411 5.3256-3.6792 4.2597zm2.2256-1.6457c0.17463-0.17462 0.3175-0.64237 0.3175-1.0394 0-1.6043-1.9184-2.1058-2.5989-0.67949-0.3043 0.63777-0.29446 0.83241 0.0703 1.3891 0.46328 0.70706 1.656 0.88499 2.2111 0.32986zm-170.34-1.4023v-3.0427h-0.66146c-0.52916 0-0.66145-0.13229-0.66145-0.66146 0-0.65043 0.0353-0.66146 2.1167-0.66146 2.0814 0 2.1167 0.01103 2.1167 0.66146 0 0.52917-0.13229 0.66146-0.66146 0.66146h-0.66146v6.0854h-1.5875zm24.871-0.79375v-3.8365h0.66146c0.6163 0 0.66145 0.08924 0.66145 1.3072v1.3072l0.72761-0.37955c0.96206-0.50186 1.1902-0.48312 2.0148 0.16556 0.66012 0.51925 0.69714 0.6738 0.69714 2.9104 0 2.3431-5e-3 2.362-0.66146 2.362-0.63685 0-0.66146-0.06318-0.66146-1.6982 0-2.1214-0.15684-2.5352-0.9609-2.5352-0.80712 0-1.1558 0.84324-1.1558 2.7954 0 1.3575-0.037 1.438-0.66145 1.438h-0.66146zm6.35 1.0583v-2.7781h1.5875v5.5562h-1.5875zm3.175 0v-2.7781h0.66146c0.3638 0 0.66145 0.112 0.66145 0.24889 0 0.13689 0.32743 0.07809 0.72761-0.13066 0.96206-0.50186 1.1902-0.48312 2.0148 0.16556 0.66012 0.51925 0.69714 0.6738 0.69714 2.9104 0 2.3431-5e-3 2.362-0.66146 2.362-0.63685 0-0.66146-0.06318-0.66146-1.6982 0-2.1214-0.15684-2.5352-0.9609-2.5352-0.80712 0-1.1558 0.84324-1.1558 2.7954 0 1.3575-0.037 1.438-0.66145 1.438h-0.66146zm16.933-1.0583v-3.8365h1.5875v7.6729h-1.5875zm2.9104 1.0583v-2.7781h1.5875v5.5562h-1.5875zm4.3335 1.8051c-0.22988-0.55622-0.76102-1.8224-1.1803-2.8137l-0.76234-1.8023 0.82099 0.08255c0.71655 0.07205 0.89264 0.25922 1.3842 1.4714 0.3098 0.76384 0.6228 1.3888 0.69556 1.3888 0.0728 0 0.38576-0.62496 0.69555-1.3888 0.49037-1.2091 0.66879-1.3994 1.3787-1.4709l0.81544-0.08213-1.1394 2.728c-0.90134 2.1581-1.2596 2.7458-1.7149 2.8132-0.45196 0.06696-0.66536-0.13194-0.99355-0.92604zm20.273-1.1436c0-1.2347-0.11024-2.1167-0.26458-2.1167-0.14552 0-0.26459-0.29766-0.26459-0.66146s0.11188-0.66146 0.24861-0.66146c0.13674 0 0.28557-0.44648 0.33073-0.99219 0.0713-0.8614 0.17803-1.0032 0.80973-1.0759 0.68818-0.07918 0.7276-0.02543 0.7276 0.99219 0 0.77997 0.10916 1.0759 0.39687 1.0759 0.24695 0 0.39688 0.24988 0.39688 0.66146s-0.14993 0.66146-0.39688 0.66146c-0.3197 0-0.39687 0.41158-0.39687 2.1167v2.1167h-1.5875zm3.4396-1.7198v-3.8365h0.79375c0.76709 0 0.79375 0.04095 0.79375 1.2189 0 1.0639 0.0589 1.1924 0.46302 1.0105 0.8654-0.38964 1.9987-0.20335 2.4956 0.41022 0.37952 0.46869 0.48101 1.0623 0.48101 2.8137v2.2196h-1.5875v-1.9927c0-1.6008-0.0851-2.0253-0.43284-2.1588-0.9052-0.34736-1.2832 0.27887-1.3647 2.2609l-0.0777 1.8905h-1.5643zm6.35 1.05v-2.7864l0.8599 0.04272c0.47294 0.0235 1.0562-0.04042 1.2962-0.14204 0.23995-0.10162 0.51552-0.05652 0.61239 0.10023 0.28286 0.45767-0.0956 1.2698-0.66053 1.4175-0.45985 0.12025-0.52041 0.36988-0.52041 2.1452v2.0091h-1.5875zm24.871-1.05v-3.8365h0.79375c0.76609 0 0.79375 0.04212 0.79375 1.2085 0 1.1369 0.0353 1.1964 0.59531 1.0058 0.91678-0.3121 1.7656-0.198 2.3306 0.31327 0.43481 0.3935 0.51372 0.82438 0.51372 2.8052 0 2.3199-6e-3 2.3402-0.66146 2.3402-0.62442 0-0.66146-0.08052-0.66146-1.438 0-1.8345-0.35832-2.7954-1.0425-2.7954-0.75229 0-1.0742 0.78766-1.0742 2.6284v1.6049h-1.5875zm9.7896 1.0583v-2.7781h1.5875v5.5562h-1.5875zm3.175-0.0021v-2.7803l1.149 0.04346c0.63196 0.02392 1.294-0.04613 1.4712-0.15564 0.5047-0.31193 1.8965 0.39604 2.1646 1.101 0.13328 0.35055 0.24233 1.5226 0.24233 2.6045v1.9672h-1.5875v-1.9927c0-1.6008-0.0851-2.0253-0.43284-2.1588-0.9052-0.34736-1.2832 0.27887-1.3647 2.2609l-0.0777 1.8905h-1.5643v-2.7803zm6.6146 0v-2.7803l1.2568-0.01252c0.69122-0.0069 1.6059-0.02191 2.0325-0.0334 1.3094-0.03524 1.7378 0.79972 1.7378 3.3868v2.2196h-1.5875v-1.9927c0-1.6008-0.0851-2.0253-0.43284-2.1588-0.9052-0.34736-1.2832 0.27887-1.3647 2.2609l-0.0777 1.8905h-1.5643v-2.7803zm15.091 2.1455c-0.14041-0.36932-0.61685-1.5211-1.0588-2.5596-0.4419-1.0385-0.80346-1.9947-0.80346-2.125 0-0.13028 0.29917-0.23688 0.66479-0.23688 0.55357 0 0.77934 0.25456 1.3494 1.5214l0.68456 1.5214 0.66865-1.5214c0.5882-1.3383 0.75917-1.5214 1.4205-1.5214 0.85847 0 0.89958-0.22941-0.56893 3.175-0.73716 1.709-1.1059 2.2692-1.5358 2.3334-0.40423 0.06038-0.63849-0.10713-0.82095-0.58699zm12.161-1.4819c0-1.7051-0.0772-2.1167-0.39687-2.1167-0.24694 0-0.39688-0.24988-0.39688-0.66146s0.14994-0.66146 0.39688-0.66146c0.28662 0 0.39687-0.29398 0.39687-1.0583 0-0.99954 0.0441-1.0583 0.79375-1.0583 0.74964 0 0.79375 0.0588 0.79375 1.0583 0 0.76435 0.11025 1.0583 0.39688 1.0583 0.24693 0 0.39687 0.24988 0.39687 0.66146s-0.14994 0.66146-0.39687 0.66146c-0.3197 0-0.39688 0.41158-0.39688 2.1167v2.1167h-1.5875zm3.175-0.66146v-2.7781h1.5875v5.5562h-1.5875zm10.054-0.01061v-2.7887l1.1245 0.0021c0.61846 0.0013 1.513-0.01101 1.9879-0.0272 1.543-0.0526 1.9147 0.58061 1.9147 3.2622 0 2.3199-6e-3 2.3402-0.66146 2.3402-0.62441 0-0.66146-0.08052-0.66146-1.438 0-1.8345-0.35832-2.7953-1.0425-2.7953-0.75229 0-1.0742 0.78766-1.0742 2.6284v1.6049h-1.5875v-2.7887zm-142.19-3.4479c-0.22868-0.22867-0.41578-0.51783-0.41578-0.64256 0-0.21754 0.73352-1.0583 0.92331-1.0583 0.85503 0 1.2495 1.161 0.61128 1.7992-0.41843 0.41843-0.6198 0.40074-1.1188-0.09827zm23.006-0.0132c-0.50952-0.50952-0.43981-1.1273 0.17058-1.5117 0.87904-0.55354 1.7194 0.86521 0.96145 1.6232-0.42052 0.42052-0.61963 0.40091-1.132-0.11149zm69.236 0.11148c-0.55281-0.55281-0.19933-1.7992 0.51027-1.7992 0.26742 0 1.0243 0.78203 1.0243 1.0583s-0.7569 1.0583-1.0243 1.0583c-0.10602 0-0.33564-0.14288-0.51027-0.3175zm40.237-0.01323c-0.55708-0.72032-0.5911-0.96603-0.18941-1.3677 0.23003-0.23001 0.52028-0.4182 0.645-0.4182 0.29393 0 1.0583 0.76441 1.0583 1.0583 0 0.28705-0.76144 1.0583-1.0448 1.0583-0.11731 0-0.32837-0.14883-0.46908-0.33073zm-232.06-6.0159c0.046-0.12848 1.2147-1.5044 2.5971-3.0575 3.0048-3.3758 5.0187-6.0161 6.6212-8.6807 1.1624-1.9327 1.213-1.9768 2.7715-2.4119 2.224-0.62094 5.7059-2.2985 7.6315-3.6769 1.5613-1.1176 4.0693-3.5872 5.4663-5.3827l0.66056-0.84896 2.3119 2.6458-0.595 1.6427c-2.645 7.3025-7.8347 13.13-14.795 16.614-3.5341 1.7689-6.7508 2.658-11.877 3.2828-0.48254 0.05882-0.83973 0.0019-0.79375-0.12665zm-12.491-2.2022c-6.6852-2.9191-11.543-7.4534-14.792-13.807-1.0544-2.0617-2.5573-6.1489-2.3407-6.3655 0.0619-0.06195 0.75886 0.44146 1.5487 1.1187 4.4418 3.8086 11.339 6.9292 18.105 8.1913 4.8449 0.90377 12.948 0.61486 16.734-0.59665 0.25542-0.08174-1.0239 0.6081-2.8429 1.533-5.146 2.6165-9.5027 5.8337-12.479 9.215-0.76833 0.87286-1.5193 1.5856-1.6688 1.5838-0.14953-0.0019-1.1679-0.39448-2.263-0.87267zm92.876-4.5396c-10.68-1.7763-20.258-8.5105-24.771-17.415-2.2406-4.421-3.2746-9.1172-3.2746-14.873 0-4.3179 0.45479-7.3769 1.6088-10.821 3.8807-11.583 13.668-19.871 26.004-22.022 2.9429-0.513 9.0557-0.35912 12.055 0.30346 1.9644 0.43402 6.3566 1.8211 7.2298 2.2832 0.42803 0.22652 0.46302 0.9742 0.46302 9.893 0 5.3064-0.0437 9.648-0.0972 9.648s-0.9191-0.80735-1.9236-1.7941c-6.4226-6.309-17.518-6.4488-23.668-0.29819-6.4871 6.4871-6.5926 18.476-0.21883 24.878 6.3468 6.3754 17.02 6.2054 24.22-0.38595l1.6874-1.5448v19.564l-2.1848 0.68119c-6.7552 2.1062-12.244 2.7159-17.13 1.9032zm46.699-0.03053c-4.8938-0.75558-9.9782-2.6143-14.115-5.1599-1.1736-0.72224-2.2009-1.4218-2.283-1.5545-0.12333-0.19956 5.1583-10.66 6.3839-12.643l0.36708-0.59406 1.5161 1.2349c4.2979 3.5008 8.2159 5.1003 12.514 5.1087 2.8845 0.0056 4.6092-0.581 6.1036-2.076 1.8346-1.8354 2.2796-3.9387 1.2733-6.0174-1.023-2.1132-3.0299-3.1909-9.7916-5.2581-6.4174-1.9619-9.8696-3.6243-12.046-5.8008-2.6656-2.6656-3.7071-5.3361-3.9906-10.232-0.65642-11.337 5.6655-19.821 16.449-22.074 2.1906-0.45757 7.0616-0.51254 9.7389-0.1099 4.2748 0.6429 9.6482 2.3062 13.099 4.0546l1.3701 0.69427-3.1808 6.3574c-2.2069 4.4109-3.28 6.2989-3.5048 6.1663-0.17818-0.10512-0.68114-0.45432-1.1177-0.77601-0.43656-0.32169-1.5176-0.9467-2.4024-1.3889-5.4715-2.7347-11.418-1.9659-13.309 1.7205-0.41083 0.80123-0.37066 2.6134 0.0769 3.4701 1.006 1.9256 2.8009 2.8813 9.284 4.9434 5.7033 1.8141 8.41 3.0567 10.897 5.0028 4.4504 3.4822 6.297 8.5317 5.6457 15.438-0.4441 4.7092-1.4092 7.6884-3.5067 10.824-4.4696 6.6826-15.039 10.28-25.472 8.6694zm39.555-32.522v-32.941h16.404v65.881h-16.404zm26.194 0v-32.941h14.136c8.4724 0 14.965 0.11229 16.206 0.28027 2.5729 0.34841 6.7101 1.7315 8.7384 2.9213 2.3723 1.3916 5.3217 4.5022 6.4975 6.8526 1.6306 3.2594 2.1234 5.5931 2.1234 10.054 0 3.078-0.11049 4.2438-0.55893 5.8967-1.6781 6.1854-6.0636 10.843-11.758 12.488-1.0254 0.29616-1.463 0.5422-1.3361 0.75133 0.10374 0.17103 4.5474 6.0855 9.8749 13.143 5.3274 7.0578 9.7755 12.981 9.8846 13.163 0.15734 0.26241-1.9776 0.32945-10.334 0.32455l-10.533-0.0062-15.875-25.358-0.0687 12.685-0.0687 12.685h-16.928zm24.954-4.3548c3.3584-1.0653 5.208-3.6532 5.208-7.2868 0-5.3436-3.6811-8.0698-10.897-8.0698h-2.3326v16.212l3.1089-0.14177c2.1191-0.096634 3.683-0.3239 4.9123-0.71382zm-218.89 28.683c-0.21828-0.04619-0.87313-0.16307-1.4552-0.25974l-1.0583-0.17576 1.9844-0.72682c4.0788-1.4939 6.4851-3.0611 9.308-6.0618 4.4079-4.6856 6.7974-11.741 6.8552-20.24 0.0232-3.4172 0.0301-3.456 0.38314-2.169 0.71307 2.5993 2.1394 5.018 3.9675 6.7281 1.4361 1.3434 1.8878 1.6188 2.6556 1.6188 1.7903 0 4.3558-1.772 6.7037-4.6302l0.86938-1.0583-0.18095 1.8521c-1.3762 14.087-8.5381 22.789-20.476 24.879-1.928 0.33766-8.3388 0.50066-9.5565 0.24298zm-6.0134-2.7969c1.2935-1.6022 2.8662-4.3955 3.5862-6.3695 0.64224-1.7608 0.70368-2.2631 0.68953-5.6372-0.0139-3.3122-0.0935-3.9422-0.75202-5.9531-2.6236-8.0115-9.5227-16.569-19.683-24.415-1.499-1.1576-2.6667-2.1634-2.5949-2.2353 0.22394-0.22395 6.2505 0.45039 8.9781 1.0046 3.8705 0.78643 8.6007 2.4249 12.607 4.367 4.0192 1.9482 3.6627 1.9809 4.9103-0.44988 0.72426-1.4111 2.4422-6.2966 3.2945-9.3689 0.32162-1.1593 0.68168-2.2104 0.80014-2.3357 0.24968-0.26411 2.0391 5.0912 3.181 9.52 4.2768 16.587 2.5339 29.238-5.0746 36.835-2.7234 2.7193-6.7967 5.118-9.7445 5.7385l-0.92024 0.1937zm-6.8038-3.3347c-5.1265-4.3819-8.7259-7.1563-12.847-9.9025-1.9645-1.309-3.6103-2.4866-3.6573-2.6168-0.16477-0.457 1.0743-4.9109 2.1061-7.5705 1.7391-4.4827 4.7235-8.9506 7.8255-11.715l1.471-1.3111 1.2316 1.0385c1.0313 0.86962 3.401 3.3843 5.3791 5.7082 0.44881 0.52727 0.43259 0.61804-0.45265 2.534-0.50497 1.0929-1.2429 3.0469-1.6398 4.3421-0.65713 2.1443-0.72311 2.7452-0.73797 6.7205-0.0133 3.5675 0.0766 4.68 0.49214 6.0854 0.7699 2.604 2.0624 5.5446 3.4194 7.7799 0.67106 1.1053 1.1794 2.0097 1.1297 2.0097-0.0498 0-1.7236-1.3959-3.7196-3.102zm4.6411 0.05929c-2.5675-3.9889-3.8255-7.9291-3.8435-12.039-0.0137-3.1023 0.34319-4.8728 1.4931-7.4083l0.77997-1.7198 1.2866 1.4229c4.3857 4.8505 5.1906 12.527 2.0148 19.215l-0.87947 1.8521zm29.983-20.742c-2.9387-1.3347-3.5365-4.8693-1.1831-6.9954 4.1036-3.7074 9.6951 2.3038 5.7236 6.1532-0.79105 0.76672-2.1301 1.3518-3.0627 1.3382-0.21924-0.0032-0.88423-0.22636-1.4778-0.49593zm-28.084-19.223c-4.4826-2.2338-4.4775-8.7632 8e-3 -10.852 4.1618-1.9377 8.6377 0.88163 8.6377 5.4409 0 4.555-4.5942 7.4302-8.6462 5.411z" fill="#fff" stroke-width=".26458"/>
 </g>
</svg>
