<?xml version="1.0" standalone="no"?>
<!DOCTYPE svg PUBLIC "-//W3C//DTD SVG 20010904//EN"
 "http://www.w3.org/TR/2001/REC-SVG-20010904/DTD/svg10.dtd">
<svg version="1.0" xmlns="http://www.w3.org/2000/svg"
 width="1200.000000pt" height="828.000000pt" viewBox="0 0 1200.000000 828.000000"
 preserveAspectRatio="xMidYMid meet">

<g transform="translate(0.000000,828.000000) scale(0.100000,-0.100000)"
fill="#ffffff" stroke="none">
<path d="M7427 8266 c-57 -16 -135 -68 -173 -115 -15 -19 -38 -60 -51 -90 -22
-55 -23 -62 -23 -468 l0 -413 340 0 341 0 -3 423 -3 422 -27 57 c-69 147 -245
228 -401 184z"/>
<path d="M2185 6824 c-16 -2 -66 -9 -110 -15 -563 -74 -1134 -391 -1497 -830
-298 -361 -477 -761 -545 -1218 -24 -164 -24 -512 1 -676 105 -689 485 -1286
1061 -1669 125 -84 386 -213 525 -261 131 -45 305 -88 452 -112 106 -17 218
-18 1788 -18 l1675 0 105 23 c281 62 502 183 706 387 203 202 327 430 389 715
22 104 31 336 16 454 -68 540 -437 988 -954 1161 -191 64 -230 68 -782 74
l-500 7 -82 31 c-193 74 -339 223 -404 413 -31 91 -37 243 -14 344 51 230 225
416 455 488 l75 23 1315 0 1315 0 5 -1940 5 -1940 34 -63 c38 -70 92 -120 167
-154 74 -34 199 -33 275 3 72 34 134 96 168 168 l26 56 3 2278 2 2277 -1712
-3 -1713 -2 -85 -23 c-252 -67 -453 -177 -623 -341 -205 -198 -334 -433 -393
-716 -25 -122 -25 -374 -1 -498 95 -474 424 -858 870 -1016 198 -70 229 -73
787 -80 l505 -7 80 -27 c301 -100 498 -372 498 -687 0 -288 -164 -541 -427
-660 -141 -64 -35 -61 -1834 -57 l-1637 3 -98 22 c-366 84 -650 242 -897 498
-116 121 -181 206 -259 344 -109 190 -184 416 -211 633 -18 140 -8 413 19 549
73 366 272 711 548 954 355 311 828 468 1276 423 78 -7 178 -14 222 -14 72 0
86 4 143 34 70 38 119 89 154 160 19 38 23 62 23 141 0 84 -3 102 -28 151 -30
63 -93 126 -155 158 -75 38 -199 53 -457 56 -132 2 -253 1 -270 -1z"/>
<path d="M8420 4561 c0 -2264 0 -2270 20 -2325 28 -73 99 -147 175 -183 51
-24 73 -28 145 -28 71 0 94 4 140 26 70 33 136 99 169 169 l26 55 3 1938 2
1938 833 -4 c745 -3 838 -5 887 -20 241 -73 424 -270 470 -505 17 -86 8 -249
-19 -332 -29 -92 -85 -182 -160 -256 -77 -78 -150 -123 -256 -161 l-80 -28
-490 -5 c-488 -5 -490 -5 -537 -28 -137 -68 -195 -238 -126 -369 28 -52 1715
-2297 1755 -2335 15 -15 53 -39 83 -55 48 -24 67 -27 145 -28 79 0 97 4 147
28 162 80 238 272 171 439 -9 23 -289 404 -621 846 -407 541 -601 807 -592
812 6 4 46 10 88 13 92 7 237 43 347 86 293 113 557 356 702 646 99 198 136
359 137 595 1 243 -33 389 -139 605 -152 308 -444 561 -770 669 -195 64 -102
60 -1437 63 l-1218 4 0 -2270z"/>
<path d="M3403 894 c-41 -21 -58 -65 -74 -192 -12 -101 -12 -102 -39 -102 -29
0 -40 -15 -40 -56 0 -20 5 -24 28 -24 l29 0 -13 -107 c-7 -60 -16 -127 -19
-151 l-6 -42 44 0 44 0 11 88 c6 48 14 115 18 150 l7 62 42 0 c43 0 43 0 47
40 l4 40 -40 0 -39 0 8 82 c4 46 13 98 21 116 12 31 17 33 51 30 36 -3 38 -2
41 30 3 27 -1 34 -23 42 -36 14 -65 12 -102 -6z"/>
<path d="M6200 905 c0 -2 -18 -151 -40 -330 -22 -179 -40 -332 -40 -341 0 -12
10 -14 42 -12 l43 3 12 100 c7 55 17 117 23 137 20 69 96 101 135 58 18 -20
18 -28 6 -138 -7 -64 -15 -127 -18 -139 -5 -21 -2 -23 40 -23 52 0 48 -11 68
181 14 132 8 164 -40 192 -39 23 -108 22 -148 -3 -31 -18 -33 -19 -33 -2 0 19
27 236 35 290 l6 32 -46 0 c-25 0 -45 -2 -45 -5z"/>
<path d="M8569 908 c0 -2 -19 -156 -42 -343 l-43 -340 39 -3 c22 -2 41 -1 43
1 3 2 13 62 23 133 18 120 21 130 50 156 36 33 69 36 102 10 22 -19 22 -20 10
-123 -7 -57 -15 -121 -18 -141 l-6 -38 47 0 c31 0 46 4 46 13 0 7 7 67 15 132
20 162 20 170 -13 206 -35 40 -111 51 -163 25 -18 -9 -35 -14 -37 -11 -3 3 2
67 11 142 24 192 25 183 -23 183 -22 0 -40 -1 -41 -2z"/>
<path d="M10060 820 c-25 -25 -25 -32 -2 -60 25 -31 69 -21 78 17 5 20 2 31
-16 45 -28 23 -35 23 -60 -2z"/>
<path d="M4097 748 c-3 -18 -9 -59 -13 -90 -6 -52 -9 -58 -29 -58 -24 0 -35
-17 -35 -56 0 -19 5 -24 26 -24 23 0 25 -3 20 -27 -3 -16 -10 -71 -16 -123 -6
-52 -13 -107 -16 -123 -5 -26 -4 -27 40 -27 37 0 46 4 47 18 0 9 8 76 17 147
l17 130 43 3 c31 2 42 7 42 20 0 9 3 27 6 40 6 20 3 22 -36 22 l-42 0 7 73 c3
39 9 80 11 90 5 14 -2 17 -39 17 -43 0 -45 -2 -50 -32z"/>
<path d="M5919 778 c-1 -2 -7 -41 -13 -88 -11 -82 -12 -85 -38 -88 -22 -3 -28
-9 -28 -27 0 -13 -3 -30 -6 -39 -5 -12 0 -16 20 -16 31 0 32 -8 11 -160 -20
-149 -22 -140 29 -140 l43 0 7 63 c3 34 11 101 17 150 l12 87 43 0 44 0 0 40
0 40 -41 0 c-34 0 -40 3 -35 18 2 9 8 50 11 90 l7 72 -41 0 c-23 0 -42 -1 -42
-2z"/>
<path d="M9320 610 c-51 -12 -90 -60 -90 -111 0 -56 11 -72 80 -114 44 -27 60
-42 60 -59 0 -48 -57 -62 -103 -26 -25 20 -28 20 -52 4 -32 -21 -31 -24 5 -59
26 -25 40 -30 93 -33 97 -5 147 36 147 121 0 44 -21 70 -85 109 -56 33 -69 53
-53 82 11 20 66 21 88 1 15 -13 19 -12 43 13 l26 27 -32 22 c-39 26 -81 34
-127 23z"/>
<path d="M1795 593 c-80 -42 -115 -99 -115 -191 0 -237 359 -265 411 -32 21
95 -30 197 -114 229 -42 16 -147 13 -182 -6z m161 -72 c76 -46 65 -184 -17
-227 -66 -34 -144 0 -167 74 -38 116 82 215 184 153z"/>
<path d="M2848 594 c-16 -8 -28 -10 -28 -4 0 11 -90 14 -90 3 -1 -5 -11 -90
-23 -190 l-23 -183 43 0 c48 0 43 -11 64 150 13 107 34 154 71 158 15 2 36 -1
46 -7 16 -9 24 -4 46 27 24 34 25 38 9 50 -23 16 -82 15 -115 -4z"/>
<path d="M4940 593 c-17 -12 -25 -13 -28 -5 -5 17 -92 16 -92 -1 0 -7 -9 -85
-20 -173 -26 -212 -28 -196 23 -192 l42 3 8 65 c16 139 29 198 48 219 21 22
68 28 85 11 8 -8 19 0 39 26 27 35 27 37 10 50 -26 19 -86 17 -115 -3z"/>
<path d="M5215 587 c-70 -40 -113 -130 -101 -215 13 -94 72 -153 161 -160 78
-6 117 4 161 42 l39 33 -35 21 -34 21 -22 -20 c-28 -26 -86 -35 -124 -19 -28
12 -60 54 -60 80 0 6 52 10 151 10 l152 0 -6 55 c-12 114 -76 175 -183 175
-42 0 -70 -7 -99 -23z m159 -69 c13 -13 27 -33 31 -45 6 -23 5 -23 -94 -23
-114 0 -124 8 -72 61 38 37 97 40 135 7z"/>
<path d="M6768 594 c-16 -8 -28 -10 -28 -4 0 5 -20 10 -44 10 -52 0 -48 13
-71 -195 -9 -77 -18 -150 -21 -163 -4 -20 -1 -22 40 -22 50 0 44 -15 67 160 5
47 18 99 28 115 18 32 57 44 88 27 13 -8 23 -3 46 26 26 34 27 37 11 49 -24
17 -82 16 -116 -3z"/>
<path d="M7055 591 c-73 -34 -115 -102 -115 -186 0 -60 19 -103 63 -142 47
-41 96 -56 168 -51 115 8 184 87 184 209 0 82 -31 136 -97 168 -57 27 -147 28
-203 2z m149 -61 c53 -20 84 -117 55 -173 -34 -65 -88 -89 -154 -67 -92 30
-103 180 -16 233 30 19 78 22 115 7z"/>
<path d="M8070 594 c-79 -34 -120 -101 -120 -195 0 -48 6 -72 25 -105 45 -77
149 -106 230 -64 22 11 40 20 41 20 5 0 -17 -103 -26 -119 -18 -34 -56 -53
-105 -53 -54 0 -90 27 -100 73 -6 26 -11 29 -46 29 -38 0 -39 -1 -39 -34 0
-133 232 -196 336 -92 43 43 58 102 84 321 11 99 23 190 25 203 5 20 2 22 -40
22 -38 0 -45 -3 -45 -20 0 -25 -2 -25 -46 5 -43 29 -118 33 -174 9z m166 -85
c32 -30 43 -74 32 -124 -11 -50 -41 -82 -87 -95 -92 -25 -167 53 -142 147 10
37 49 84 81 96 29 12 92 -1 116 -24z"/>
<path d="M9670 589 c-121 -72 -137 -253 -30 -342 36 -31 82 -41 151 -35 60 6
65 11 72 64 l5 41 -37 -19 c-51 -27 -108 -19 -143 22 -51 56 -33 172 32 205
48 25 94 19 135 -16 l35 -31 0 30 c0 17 3 37 6 46 4 10 -7 21 -35 35 -55 29
-144 28 -191 0z"/>
<path d="M10309 582 c-124 -80 -124 -287 1 -350 49 -24 129 -30 177 -11 28 10
83 57 83 70 0 3 -13 12 -28 18 -25 10 -34 9 -66 -10 -65 -38 -166 -4 -166 58
l0 23 145 0 145 0 0 48 c-1 61 -29 123 -71 153 -26 19 -50 25 -104 27 -63 3
-74 1 -116 -26z m154 -53 c23 -10 47 -46 47 -69 0 -6 -43 -10 -100 -10 -55 0
-100 3 -100 6 0 16 36 64 54 73 28 13 70 13 99 0z"/>
<path d="M10877 590 c-31 -17 -37 -17 -37 -5 0 11 -11 15 -43 15 l-43 0 -18
-157 c-10 -87 -20 -173 -23 -190 l-6 -33 45 0 45 0 13 108 c15 132 35 184 80
202 22 9 40 10 58 4 34 -12 38 -48 19 -201 l-14 -113 43 0 c49 0 44 -11 64
143 18 142 15 174 -24 213 -28 28 -41 34 -78 34 -24 0 -60 -9 -81 -20z"/>
<path d="M11305 594 c-73 -38 -108 -100 -109 -190 0 -78 33 -139 94 -173 35
-19 52 -23 107 -19 72 5 93 20 93 70 0 32 -5 33 -40 13 -85 -49 -182 33 -164
139 16 94 109 134 188 81 20 -14 39 -25 41 -25 3 0 5 18 5 40 0 35 -5 43 -32
60 -41 25 -139 27 -183 4z"/>
<path d="M11708 590 c-123 -65 -144 -254 -39 -343 59 -49 183 -51 245 -3 43
33 45 46 8 68 -27 16 -29 16 -48 -3 -26 -26 -86 -35 -124 -19 -28 12 -60 54
-60 80 0 6 52 10 150 10 l150 0 0 33 c0 77 -41 151 -101 182 -40 21 -136 18
-181 -5z m156 -72 c13 -13 27 -33 31 -45 6 -23 5 -23 -94 -23 -114 0 -124 8
-72 61 38 37 97 40 135 7z"/>
<path d="M2245 588 c-7 -23 -25 -194 -25 -237 0 -60 24 -99 73 -122 72 -32
156 -21 209 29 30 27 42 72 58 207 6 50 13 100 16 113 4 20 1 22 -40 22 -50 0
-46 9 -66 -155 -6 -49 -16 -102 -21 -117 -19 -47 -98 -60 -130 -22 -12 14 -10
73 7 232 l7 62 -42 0 c-25 0 -43 -5 -46 -12z"/>
<path d="M3586 573 c-3 -16 -10 -78 -17 -138 -11 -101 -10 -114 6 -149 25 -53
87 -81 161 -73 110 11 145 59 164 222 6 55 14 115 17 133 l5 32 -46 0 c-31 0
-46 -4 -46 -13 0 -51 -34 -256 -45 -274 -30 -45 -119 -37 -131 12 -5 22 9 191
22 253 4 20 1 22 -40 22 -40 0 -45 -2 -50 -27z"/>
<path d="M4336 563 c-19 -124 -27 -218 -22 -248 8 -42 63 -92 111 -101 44 -8
107 1 147 22 41 21 64 80 78 199 6 55 14 115 17 133 l5 32 -46 0 c-31 0 -46
-4 -46 -13 0 -51 -34 -256 -45 -273 -29 -45 -119 -37 -131 13 -6 21 8 175 22
246 5 26 4 27 -39 27 -45 0 -45 -1 -51 -37z"/>
<path d="M7506 563 c-19 -124 -27 -218 -22 -248 8 -42 63 -92 111 -101 44 -8
107 1 147 22 41 21 64 80 78 199 6 55 14 115 17 133 l5 32 -46 0 c-31 0 -46
-4 -46 -13 0 -51 -34 -256 -45 -273 -29 -45 -119 -37 -131 13 -6 21 8 175 22
246 5 26 4 27 -39 27 -45 0 -45 -1 -51 -37z"/>
<path d="M10020 592 c0 -5 -9 -80 -20 -168 -27 -217 -28 -204 20 -204 47 0 43
-11 65 180 8 74 18 150 21 168 l5 32 -46 0 c-25 0 -45 -4 -45 -8z"/>
</g>
</svg>
