<?xml version="1.0" encoding="UTF-8" standalone="no"?>
<!-- Created with Inkscape (http://www.inkscape.org/) -->

<svg
   xmlns:dc="http://purl.org/dc/elements/1.1/"
   xmlns:cc="http://creativecommons.org/ns#"
   xmlns:rdf="http://www.w3.org/1999/02/22-rdf-syntax-ns#"
   xmlns:svg="http://www.w3.org/2000/svg"
   xmlns="http://www.w3.org/2000/svg"
   xmlns:sodipodi="http://sodipodi.sourceforge.net/DTD/sodipodi-0.dtd"
   xmlns:inkscape="http://www.inkscape.org/namespaces/inkscape"
   version="1.1"
   id="svg2"
   xml:space="preserve"
   width="781.5733"
   height="154.64"
   viewBox="0 0 781.5733 154.64"
   sodipodi:docname="cu-research-computing.svg"
   inkscape:version="0.92.3 (2405546, 2018-03-11)"><metadata
     id="metadata8"><rdf:RDF><cc:Work
         rdf:about=""><dc:format>image/svg+xml</dc:format><dc:type
           rdf:resource="http://purl.org/dc/dcmitype/StillImage" /><dc:title></dc:title></cc:Work></rdf:RDF></metadata><defs
     id="defs6" /><sodipodi:namedview
     pagecolor="#000000"
     bordercolor="#666666"
     borderopacity="1"
     objecttolerance="10"
     gridtolerance="10"
     guidetolerance="10"
     inkscape:pageopacity="0"
     inkscape:pageshadow="2"
     inkscape:window-width="1962"
     inkscape:window-height="1060"
     id="namedview4"
     showgrid="false"
     inkscape:zoom="4"
     inkscape:cx="151.31142"
     inkscape:cy="63.748005"
     inkscape:window-x="2627"
     inkscape:window-y="24"
     inkscape:window-maximized="0"
     inkscape:current-layer="g10"><inkscape:grid
       type="xygrid"
       id="grid1223" /></sodipodi:namedview><g
     id="g10"
     inkscape:groupmode="layer"
     inkscape:label="ink_ext_XXXXXX"
     transform="matrix(1.3333333,0,0,-1.3333333,0,154.64)"><path
       style="fill:#ffffff;fill-opacity:1;fill-rule:nonzero;stroke:none;stroke-width:0.13333333"
       d="M 21.230469 0.005859375 L 0 21.208984 L 0 94.416016 L 21.230469 115.60547 L 44.521484 115.60547 L 44.521484 133.42188 L 65.923828 154.64062 L 127.80273 154.64062 L 149.25781 133.43945 L 149.25781 76.730469 L 160.18359 76.730469 L 160.18359 38.976562 L 115.72852 38.976562 L 115.72852 21.216797 L 94.564453 0.005859375 L 21.230469 0.005859375 z M 22.138672 2.203125 L 93.658203 2.203125 L 113.52344 22.126953 L 113.52344 41.177734 L 157.98047 41.177734 L 157.98047 74.542969 L 147.05469 74.542969 L 147.05469 132.51758 L 126.90039 152.43555 L 66.822266 152.43555 L 46.724609 132.51758 L 46.724609 113.41211 L 22.138672 113.41211 L 2.1992188 93.492188 L 2.1992188 22.123047 L 22.138672 2.203125 z "
       transform="matrix(0.75000002,0,0,-0.75000002,0,115.98)"
       id="path14" /><path
       inkscape:connector-curvature="0"
       id="path18"
       style="fill:#ffffff;fill-opacity:1;fill-rule:nonzero;stroke:none;stroke-width:0.1"
       d="M 18.3125,35.0512 H 39.1652 V 18.3152 L 51.8141,5.78008 H 93.4824 L 106.167,18.3152 v 45.8879 h 8.2 V 80.9719 H 89.2137 V 22.527 H 55.9309 v 12.5242 h 12.5937 l 12.5,12.5179 v 16.634 H 64.259 V 51.7746 H 55.9309 V 80.9719 H 30.848 V 64.2031 h 8.3172 V 51.7746 H 22.5004 V 93.5965 H 64.259 V 80.9719 h 16.7656 v 16.7019 l -12.5,12.5292 H 18.3125 L 5.76914,97.6789 V 47.5691 L 18.3125,35.0512" /><path
       inkscape:connector-curvature="0"
       id="path20"
       style="fill:#ffffff;fill-opacity:1;fill-rule:nonzero;stroke:none;stroke-width:0.1"
       d="M 53.8625,37.1133 H 67.673 L 78.9594,48.418 V 62.1391 H 66.3266 V 49.7137 H 53.8625 v 29.191 H 32.9109 V 66.2605 h 8.3188 V 49.7137 H 20.4402 V 95.6555 H 66.3266 V 83.034 H 78.9594 V 96.8234 L 67.673,108.141 H 19.1684 L 7.8332,96.8234 V 48.418 L 19.1637,37.1133 h 22.066 V 19.177 L 52.6684,7.83398 H 92.632 l 11.475,11.34762 v 47.0789 h 8.192 V 78.9047 H 91.2762 V 20.4711 H 53.8625 v 16.6422" /><g
       id="g1326"><path
         d="m 154.485,69.6246 h 12.348 c 4.035,0 7.487,2.5285 7.487,6.7559 0,4.2304 -2.528,6.9054 -7.487,6.9054 h -12.348 z m -3.305,16.4797 h 15.897 c 5.736,0 10.549,-2.7715 10.549,-9.041 0,-4.377 -2.285,-7.9746 -6.758,-8.8508 V 68.116 c 4.522,-0.5832 5.834,-3.6945 6.077,-7.8254 0.145,-2.3816 0.145,-7.1484 1.604,-8.8972 h -3.646 c -0.826,1.3621 -0.826,3.9375 -0.924,5.3964 -0.292,4.8602 -0.68,10.2567 -6.951,10.0137 H 154.485 V 51.3934 h -3.305 v 34.7109"
         style="fill:#fff9fb;fill-opacity:1;fill-rule:nonzero;stroke:none;stroke-width:0.1"
         id="path22"
         inkscape:connector-curvature="0" /><path
         d="m 200.859,65.6871 c -0.147,4.6172 -3.015,8.9445 -7.973,8.9445 -5.007,0 -7.779,-4.3769 -8.265,-8.9445 z M 184.621,63.109 c 0.048,-4.4735 2.382,-9.8672 8.265,-9.8672 4.472,0 6.904,2.625 7.875,6.416 h 3.063 c -1.313,-5.6894 -4.619,-8.9941 -10.938,-8.9941 -7.973,0 -11.328,6.1261 -11.328,13.2715 0,6.6125 3.355,13.2714 11.328,13.2714 8.07,0 11.279,-7.0488 11.036,-14.0976 h -19.301"
         style="fill:#fff9fb;fill-opacity:1;fill-rule:nonzero;stroke:none;stroke-width:0.1"
         id="path24"
         inkscape:connector-curvature="0" /><path
         d="m 223.252,69.1383 c -0.145,3.791 -3.063,5.4933 -6.563,5.4933 -2.723,0 -5.931,-1.0695 -5.931,-4.3273 0,-2.7215 3.112,-3.6941 5.202,-4.2305 l 4.084,-0.9226 c 3.499,-0.5332 7.145,-2.5754 7.145,-6.9524 0,-5.4433 -5.395,-7.5351 -10.062,-7.5351 -5.834,0 -9.82,2.7218 -10.306,8.8476 h 3.063 c 0.243,-4.1308 3.304,-6.2695 7.388,-6.2695 2.869,0 6.856,1.2629 6.856,4.7637 0,2.9152 -2.723,3.8879 -5.495,4.5703 l -3.937,0.873 c -3.986,1.0696 -7.001,2.4317 -7.001,6.709 0,5.1067 5.009,7.0488 9.432,7.0488 5.007,0 8.993,-2.625 9.188,-8.0683 h -3.063"
         style="fill:#fff9fb;fill-opacity:1;fill-rule:nonzero;stroke:none;stroke-width:0.1"
         id="path26"
         inkscape:connector-curvature="0" /><path
         d="m 249.458,65.6871 c -0.147,4.6172 -3.015,8.9445 -7.973,8.9445 -5.007,0 -7.779,-4.3769 -8.265,-8.9445 z M 233.22,63.109 c 0.049,-4.4735 2.382,-9.8672 8.265,-9.8672 4.472,0 6.904,2.625 7.875,6.416 h 3.063 c -1.313,-5.6894 -4.619,-8.9941 -10.938,-8.9941 -7.973,0 -11.328,6.1261 -11.328,13.2715 0,6.6125 3.355,13.2714 11.328,13.2714 8.07,0 11.279,-7.0488 11.036,-14.0976 H 233.22"
         style="fill:#fff9fb;fill-opacity:1;fill-rule:nonzero;stroke:none;stroke-width:0.1"
         id="path28"
         inkscape:connector-curvature="0" /><path
         d="m 272.847,65.1012 h -0.097 c -0.389,-0.7266 -1.75,-0.9696 -2.576,-1.116 -5.202,-0.9258 -11.668,-0.8762 -11.668,-5.7864 0,-3.0613 2.722,-4.957 5.59,-4.957 4.667,0 8.799,2.9648 8.751,7.875 z m -16.334,3.6972 c 0.291,5.8801 4.423,8.4082 10.16,8.4082 4.424,0 9.237,-1.3593 9.237,-8.0683 V 55.8172 c 0,-1.166 0.583,-1.8488 1.799,-1.8488 0.34,0 0.729,0.0996 0.973,0.1964 v -2.5781 c -0.682,-0.1437 -1.168,-0.1933 -1.994,-0.1933 -3.111,0 -3.598,1.7488 -3.598,4.3738 h -0.096 c -2.141,-3.2547 -4.328,-5.1035 -9.141,-5.1035 -4.617,0 -8.41,2.2851 -8.41,7.3418 0,7.0488 6.854,7.2922 13.467,8.0683 2.528,0.293 3.937,0.6328 3.937,3.4043 0,4.1309 -2.965,5.1535 -6.562,5.1535 -3.793,0 -6.613,-1.7519 -6.709,-5.8332 h -3.063"
         style="fill:#fff9fb;fill-opacity:1;fill-rule:nonzero;stroke:none;stroke-width:0.1"
         id="path30"
         inkscape:connector-curvature="0" /><path
         d="m 282.048,76.4773 h 2.82 v -5.88 h 0.096 c 1.556,4.0343 4.96,6.416 9.481,6.2226 v -3.0644 c -5.542,0.2929 -9.334,-3.791 -9.334,-8.9942 V 51.3934 h -3.063 v 25.0839"
         style="fill:#fff9fb;fill-opacity:1;fill-rule:nonzero;stroke:none;stroke-width:0.1"
         id="path32"
         inkscape:connector-curvature="0" /><path
         d="m 314.329,68.6023 c -0.828,3.7442 -3.112,6.0293 -7.099,6.0293 -5.883,0 -8.799,-5.3496 -8.799,-10.6964 0,-5.3465 2.916,-10.6934 8.799,-10.6934 3.792,0 6.904,2.9648 7.292,7.1457 h 3.063 c -0.826,-6.0293 -4.764,-9.7238 -10.355,-9.7238 -7.682,0 -11.862,6.0761 -11.862,13.2715 0,7.1953 4.18,13.2714 11.862,13.2714 5.348,0 9.48,-2.8679 10.16,-8.6043 h -3.061"
         style="fill:#fff9fb;fill-opacity:1;fill-rule:nonzero;stroke:none;stroke-width:0.1"
         id="path34"
         inkscape:connector-curvature="0" /><path
         d="m 321.758,86.1043 h 3.063 V 72.1531 h 0.097 c 1.119,3.0117 4.472,5.0535 8.021,5.0535 7.049,0 9.189,-3.6941 9.189,-9.6738 V 51.3934 h -3.063 v 15.6531 c 0,4.3273 -1.41,7.5851 -6.369,7.5851 -4.862,0 -7.778,-3.6945 -7.875,-8.6046 V 51.3934 h -3.063 v 34.7109"
         style="fill:#fff9fb;fill-opacity:1;fill-rule:nonzero;stroke:none;stroke-width:0.1"
         id="path36"
         inkscape:connector-curvature="0" /><path
         d="m 387.374,75.6043 c -1.166,5.3465 -5.589,8.4082 -10.646,8.4082 -9.188,0 -13.077,-7.6789 -13.077,-15.2637 0,-7.5851 3.889,-15.2636 13.077,-15.2636 6.417,0 10.501,4.957 11.133,11.1328 h 3.306 c -0.924,-8.5078 -6.319,-13.9543 -14.439,-13.9543 -10.938,0 -16.383,8.6047 -16.383,18.0851 0,9.4805 5.445,18.0848 16.383,18.0848 6.564,0 13.078,-3.9375 13.953,-11.2293 h -3.307"
         style="fill:#fff9fb;fill-opacity:1;fill-rule:nonzero;stroke:none;stroke-width:0.1"
         id="path38"
         inkscape:connector-curvature="0" /><path
         d="m 397.428,63.9352 c 0,-5.3465 2.916,-10.6934 8.799,-10.6934 5.883,0 8.799,5.3469 8.799,10.6934 0,5.3468 -2.916,10.6964 -8.799,10.6964 -5.883,0 -8.799,-5.3496 -8.799,-10.6964 z m 20.661,0 c 0,-7.1954 -4.18,-13.2715 -11.862,-13.2715 -7.682,0 -11.862,6.0761 -11.862,13.2715 0,7.1953 4.18,13.2714 11.862,13.2714 7.682,0 11.862,-6.0761 11.862,-13.2714"
         style="fill:#fff9fb;fill-opacity:1;fill-rule:nonzero;stroke:none;stroke-width:0.1"
         id="path40"
         inkscape:connector-curvature="0" /><path
         d="m 422.509,76.4773 h 2.82 v -4.2277 h 0.146 c 1.604,3.0149 4.229,4.957 8.215,4.957 3.306,0 6.272,-1.6023 7.195,-4.9101 1.508,3.3078 4.667,4.9101 7.973,4.9101 5.494,0 8.313,-2.8679 8.313,-8.7976 V 51.3934 h -3.063 v 16.8691 c 0,4.1309 -1.555,6.3691 -5.931,6.3691 -5.298,0 -6.805,-4.3769 -6.805,-9.0441 V 51.3934 h -3.063 V 68.409 c 0.048,3.4012 -1.361,6.2226 -5.25,6.2226 -5.299,0 -7.439,-3.9875 -7.487,-9.2375 V 51.3934 h -3.063 v 25.0839"
         style="fill:#fff9fb;fill-opacity:1;fill-rule:nonzero;stroke:none;stroke-width:0.1"
         id="path42"
         inkscape:connector-curvature="0" /><path
         d="m 474.733,74.6316 c -6.757,0 -8.799,-5.007 -8.799,-10.6964 0,-5.2 2.285,-10.6934 8.799,-10.6934 5.835,0 8.217,5.4934 8.217,10.6934 0,5.2031 -2.382,10.6964 -8.217,10.6964 z m -11.862,1.8457 h 2.82 v -4.7636 h 0.097 c 1.41,3.4043 4.91,5.4929 8.945,5.4929 7.632,0 11.278,-6.1726 11.278,-13.2714 0,-7.0985 -3.646,-13.2715 -11.278,-13.2715 -3.742,0 -7.39,1.8957 -8.702,5.4933 h -0.097 V 42.109 h -3.063 v 34.3683"
         style="fill:#fff9fb;fill-opacity:1;fill-rule:nonzero;stroke:none;stroke-width:0.1"
         id="path44"
         inkscape:connector-curvature="0" /><path
         d="m 510.875,51.3934 h -2.819 v 4.5203 h -0.099 c -1.604,-3.3543 -4.91,-5.25 -8.652,-5.25 -6.32,0 -8.8,3.6945 -8.8,9.5273 v 16.2863 h 3.063 V 60.1441 c 0.145,-4.5203 1.847,-6.9023 6.709,-6.9023 5.25,0 7.535,4.957 7.535,10.0605 v 13.175 h 3.063 V 51.3934"
         style="fill:#fff9fb;fill-opacity:1;fill-rule:nonzero;stroke:none;stroke-width:0.1"
         id="path46"
         inkscape:connector-curvature="0" /><path
         d="m 521.513,76.4773 h 5.105 V 73.902 h -5.105 V 56.9832 c 0,-1.9922 0.292,-3.1582 2.48,-3.3047 0.875,0 1.749,0.0469 2.625,0.1465 V 51.2 c -0.924,0 -1.799,-0.0996 -2.723,-0.0996 -4.084,0 -5.493,1.3621 -5.445,5.6394 V 73.902 h -4.375 v 2.5753 h 4.375 v 7.5352 h 3.063 v -7.5352"
         style="fill:#fff9fb;fill-opacity:1;fill-rule:nonzero;stroke:none;stroke-width:0.1"
         id="path48"
         inkscape:connector-curvature="0" /><path
         d="m 530.384,76.4773 h 3.063 V 51.3934 h -3.063 z m 0,9.627 h 3.063 v -4.9102 h -3.063 v 4.9102"
         style="fill:#fff9fb;fill-opacity:1;fill-rule:nonzero;stroke:none;stroke-width:0.1"
         id="path50"
         inkscape:connector-curvature="0" /><path
         d="m 539.04,76.4773 h 3.063 v -4.3242 h 0.097 c 1.119,3.0117 4.473,5.0535 8.021,5.0535 7.049,0 9.189,-3.6941 9.189,-9.6738 V 51.3934 h -3.063 v 15.6531 c 0,4.3273 -1.411,7.5851 -6.369,7.5851 -4.86,0 -7.778,-3.6945 -7.875,-8.6046 V 51.3934 h -3.063 v 25.0839"
         style="fill:#fff9fb;fill-opacity:1;fill-rule:nonzero;stroke:none;stroke-width:0.1"
         id="path52"
         inkscape:connector-curvature="0" /><path
         d="m 583.12,64.2281 c 0,4.9102 -2.285,10.4035 -8.07,10.4035 -5.833,0 -8.264,-5.2031 -8.264,-10.4035 0,-5.0566 2.625,-9.9668 8.264,-9.9668 5.3,0 8.07,4.8606 8.07,9.9668 z m 3.063,-10.7929 C 586.135,45.95 583.267,41.3797 575.05,41.3797 c -5.007,0 -9.965,2.2351 -10.403,7.582 h 3.063 c 0.68,-3.6945 3.937,-5.007 7.34,-5.007 5.64,0 8.07,3.3547 8.07,9.4805 v 3.4015 h -0.097 c -1.41,-3.0617 -4.375,-5.1504 -7.973,-5.1504 -8.021,0 -11.327,5.7364 -11.327,12.8817 0,6.9023 4.084,12.6386 11.327,12.6386 3.646,0 6.758,-2.2851 7.973,-5.0535 h 0.097 v 4.3242 h 3.063 V 53.4352"
         style="fill:#fff9fb;fill-opacity:1;fill-rule:nonzero;stroke:none;stroke-width:0.1"
         id="path54"
         inkscape:connector-curvature="0" /></g><g
       id="g1355"><path
         d="m 152.392,24.4637 h 1.541 V 14.45 c -0.022,-3.7621 1.768,-5.18906 4.735,-5.18906 2.992,0 4.782,1.42696 4.76,5.18906 v 10.0137 h 1.541 V 14.1102 c 0,-3.3313 -1.79,-6.16411 -6.301,-6.16411 -4.485,0 -6.276,2.83281 -6.276,6.16411 v 10.3535"
         style="fill:#fff9fb;fill-opacity:1;fill-rule:nonzero;stroke:none;stroke-width:0.1"
         id="path56"
         inkscape:connector-curvature="0" /><path
         d="m 168.607,24.4637 h 1.723 l 9.426,-13.6848 h 0.046 v 13.6848 h 1.541 V 8.28594 h -1.723 l -9.426,13.68746 h -0.046 V 8.28594 h -1.541 V 24.4637"
         style="fill:#fff9fb;fill-opacity:1;fill-rule:nonzero;stroke:none;stroke-width:0.1"
         id="path58"
         inkscape:connector-curvature="0" /><path
         d="m 185.255,24.4637 h 1.541 V 8.28594 h -1.541 V 24.4637"
         style="fill:#fff9fb;fill-opacity:1;fill-rule:nonzero;stroke:none;stroke-width:0.1"
         id="path60"
         inkscape:connector-curvature="0" /><path
         d="m 188.931,24.4637 h 1.653 l 5.258,-14.47854 h 0.045 l 5.211,14.47854 h 1.631 L 196.725,8.28594 h -1.79 l -6.004,16.17776"
         style="fill:#fff9fb;fill-opacity:1;fill-rule:nonzero;stroke:none;stroke-width:0.1"
         id="path62"
         inkscape:connector-curvature="0" /><path
         d="m 204.714,24.4637 h 11.171 v -1.3125 h -9.63 v -5.8477 h 9.018 V 15.991 h -9.018 V 9.60117 h 9.743 V 8.28594 H 204.714 V 24.4637"
         style="fill:#fff9fb;fill-opacity:1;fill-rule:nonzero;stroke:none;stroke-width:0.1"
         id="path64"
         inkscape:connector-curvature="0" /><path
         d="m 220.249,16.782 h 5.755 c 1.881,0 3.49,1.1805 3.49,3.1493 0,1.9718 -1.178,3.2199 -3.49,3.2199 h -5.755 z m -1.541,7.6817 h 7.409 c 2.673,0 4.918,-1.2922 4.918,-4.2129 0,-2.0391 -1.065,-3.718 -3.15,-4.125 v -0.0442 c 2.107,-0.2726 2.719,-1.7226 2.832,-3.6507 0.069,-1.1098 0.069,-3.3309 0.748,-4.14496 h -1.699 c -0.385,0.63594 -0.385,1.83396 -0.431,2.51606 -0.136,2.2652 -0.317,4.7789 -3.24,4.6671 h -5.846 V 8.28594 h -1.541 V 24.4637"
         style="fill:#fff9fb;fill-opacity:1;fill-rule:nonzero;stroke:none;stroke-width:0.1"
         id="path66"
         inkscape:connector-curvature="0" /><path
         d="m 235.104,13.6121 c -0.069,-3.3312 2.333,-4.35116 5.279,-4.35116 1.699,0 4.283,0.92886 4.283,3.28516 0,1.8367 -1.835,2.5598 -3.331,2.923 l -3.603,0.8821 c -1.903,0.4777 -3.648,1.3828 -3.648,3.8996 0,1.5847 1.02,4.5527 5.574,4.5527 3.195,0 6.005,-1.7199 5.983,-5.0305 H 244.1 c -0.091,2.47 -2.13,3.718 -4.42,3.718 -2.106,0 -4.055,-0.8176 -4.055,-3.2199 0,-1.5176 1.133,-2.1504 2.447,-2.4695 l 3.943,-0.9727 c 2.288,-0.6125 4.191,-1.609 4.191,-4.2598 0,-1.1101 -0.453,-4.62301 -6.186,-4.62301 -3.829,0 -6.639,1.72305 -6.457,5.66601 h 1.541"
         style="fill:#fff9fb;fill-opacity:1;fill-rule:nonzero;stroke:none;stroke-width:0.1"
         id="path68"
         inkscape:connector-curvature="0" /><path
         d="m 249.325,24.4637 h 1.541 V 8.28594 h -1.541 V 24.4637"
         style="fill:#fff9fb;fill-opacity:1;fill-rule:nonzero;stroke:none;stroke-width:0.1"
         id="path70"
         inkscape:connector-curvature="0" /><path
         d="m 253.045,24.4637 h 12.825 v -1.3125 h -5.642 V 8.28594 h -1.542 V 23.1512 h -5.641 v 1.3125"
         style="fill:#fff9fb;fill-opacity:1;fill-rule:nonzero;stroke:none;stroke-width:0.1"
         id="path72"
         inkscape:connector-curvature="0" /><path
         d="m 272.453,14.948 -6.368,9.5157 h 1.836 l 5.325,-8.2032 5.302,8.2032 h 1.836 l -6.39,-9.5157 V 8.28594 h -1.541 V 14.948"
         style="fill:#fff9fb;fill-opacity:1;fill-rule:nonzero;stroke:none;stroke-width:0.1"
         id="path74"
         inkscape:connector-curvature="0" /><path
         d="m 295.971,9.26094 c 4.26,0 6.073,3.58126 6.073,7.11366 0,3.5363 -1.813,7.1164 -6.073,7.1164 -4.283,0 -6.095,-3.5801 -6.095,-7.1164 0,-3.5324 1.812,-7.11366 6.095,-7.11366 z m 0,15.54256 c 5.076,0 7.613,-4.0109 7.613,-8.4289 0,-4.4176 -2.537,-8.42851 -7.613,-8.42851 -5.099,0 -7.636,4.01091 -7.636,8.42851 0,4.418 2.537,8.4289 7.636,8.4289"
         style="fill:#fff9fb;fill-opacity:1;fill-rule:nonzero;stroke:none;stroke-width:0.1"
         id="path76"
         inkscape:connector-curvature="0" /><path
         d="m 306.546,24.4637 h 10.264 v -1.3125 h -8.723 v -5.8477 h 7.749 V 15.991 h -7.749 V 8.28594 h -1.541 V 24.4637"
         style="fill:#fff9fb;fill-opacity:1;fill-rule:nonzero;stroke:none;stroke-width:0.1"
         id="path78"
         inkscape:connector-curvature="0" /><path
         d="m 337.946,19.5711 c -0.543,2.4902 -2.604,3.9199 -4.961,3.9199 -4.283,0 -6.095,-3.5801 -6.095,-7.1164 0,-3.5324 1.812,-7.11366 6.095,-7.11366 2.991,0 4.894,2.30896 5.188,5.18906 h 1.541 c -0.43,-3.9668 -2.945,-6.50391 -6.729,-6.50391 -5.099,0 -7.636,4.01091 -7.636,8.42851 0,4.418 2.537,8.4289 7.636,8.4289 3.058,0 6.095,-1.834 6.502,-5.2324 h -1.541"
         style="fill:#fff9fb;fill-opacity:1;fill-rule:nonzero;stroke:none;stroke-width:0.1"
         id="path80"
         inkscape:connector-curvature="0" /><path
         d="m 349.404,9.26094 c 4.26,0 6.074,3.58126 6.074,7.11366 0,3.5363 -1.814,7.1164 -6.074,7.1164 -4.283,0 -6.095,-3.5801 -6.095,-7.1164 0,-3.5324 1.812,-7.11366 6.095,-7.11366 z m 0,15.54256 c 5.076,0 7.613,-4.0109 7.613,-8.4289 0,-4.4176 -2.537,-8.42851 -7.613,-8.42851 -5.099,0 -7.636,4.01091 -7.636,8.42851 0,4.418 2.537,8.4289 7.636,8.4289"
         style="fill:#fff9fb;fill-opacity:1;fill-rule:nonzero;stroke:none;stroke-width:0.1"
         id="path82"
         inkscape:connector-curvature="0" /><path
         d="m 359.979,24.4637 h 1.541 V 9.60117 h 9.063 V 8.28594 H 359.979 V 24.4637"
         style="fill:#fff9fb;fill-opacity:1;fill-rule:nonzero;stroke:none;stroke-width:0.1"
         id="path84"
         inkscape:connector-curvature="0" /><path
         d="m 379.478,9.26094 c 4.259,0 6.073,3.58126 6.073,7.11366 0,3.5363 -1.814,7.1164 -6.073,7.1164 -4.284,0 -6.096,-3.5801 -6.096,-7.1164 0,-3.5324 1.812,-7.11366 6.096,-7.11366 z m 0,15.54256 c 5.075,0 7.612,-4.0109 7.612,-8.4289 0,-4.4176 -2.537,-8.42851 -7.612,-8.42851 -5.1,0 -7.637,4.01091 -7.637,8.42851 0,4.418 2.537,8.4289 7.637,8.4289"
         style="fill:#fff9fb;fill-opacity:1;fill-rule:nonzero;stroke:none;stroke-width:0.1"
         id="path86"
         inkscape:connector-curvature="0" /><path
         d="m 391.593,16.782 h 5.756 c 1.88,0 3.489,1.1805 3.489,3.1493 0,1.9718 -1.179,3.2199 -3.489,3.2199 h -5.756 z m -1.541,7.6817 h 7.409 c 2.674,0 4.918,-1.2922 4.918,-4.2129 0,-2.0391 -1.065,-3.718 -3.15,-4.125 v -0.0442 c 2.107,-0.2726 2.719,-1.7226 2.832,-3.6507 0.069,-1.1098 0.069,-3.3309 0.749,-4.14496 h -1.701 c -0.384,0.63594 -0.384,1.83396 -0.429,2.51606 -0.137,2.2652 -0.318,4.7789 -3.241,4.6671 h -5.846 V 8.28594 h -1.541 V 24.4637"
         style="fill:#fff9fb;fill-opacity:1;fill-rule:nonzero;stroke:none;stroke-width:0.1"
         id="path88"
         inkscape:connector-curvature="0" /><path
         d="m 408.013,14.632 h 6.367 l -3.127,8.2907 z m 2.447,9.8317 h 1.722 l 6.345,-16.17776 h -1.655 l -1.97,5.03006 h -7.365 l -1.949,-5.03006 h -1.653 l 6.525,16.17776"
         style="fill:#fff9fb;fill-opacity:1;fill-rule:nonzero;stroke:none;stroke-width:0.1"
         id="path90"
         inkscape:connector-curvature="0" /><path
         d="m 422.097,9.60117 h 3.286 c 4.645,-0.02304 6.66,1.94883 6.66,6.77343 0,4.8281 -2.015,6.7969 -6.66,6.7766 h -3.286 z m -1.541,14.86253 h 5.597 c 4.871,-0.1114 7.431,-2.7864 7.431,-8.0891 0,-5.3027 -2.56,-7.9746 -7.431,-8.08866 h -5.597 V 24.4637"
         style="fill:#fff9fb;fill-opacity:1;fill-rule:nonzero;stroke:none;stroke-width:0.1"
         id="path92"
         inkscape:connector-curvature="0" /><path
         d="m 443.412,9.26094 c 4.26,0 6.073,3.58126 6.073,7.11366 0,3.5363 -1.813,7.1164 -6.073,7.1164 -4.283,0 -6.095,-3.5801 -6.095,-7.1164 0,-3.5324 1.812,-7.11366 6.095,-7.11366 z m 0,15.54256 c 5.076,0 7.613,-4.0109 7.613,-8.4289 0,-4.4176 -2.537,-8.42851 -7.613,-8.42851 -5.099,0 -7.636,4.01091 -7.636,8.42851 0,4.418 2.537,8.4289 7.636,8.4289"
         style="fill:#fff9fb;fill-opacity:1;fill-rule:nonzero;stroke:none;stroke-width:0.1"
         id="path94"
         inkscape:connector-curvature="0" /><path
         d="m 468.14,11.0512 c 0.349,0 0.681,0.0359 0.999,0.1027 0.317,0.0699 0.596,0.182 0.838,0.3402 0.242,0.161 0.435,0.375 0.579,0.6469 0.143,0.2731 0.215,0.6211 0.215,1.043 0,0.832 -0.234,1.4269 -0.703,1.782 -0.469,0.3539 -1.089,0.5328 -1.859,0.5328 h -3.879 v -4.4476 z m -0.204,6.8734 c 0.635,0 1.158,0.1524 1.565,0.4539 0.409,0.302 0.612,0.7942 0.612,1.4738 0,0.3778 -0.067,0.6883 -0.203,0.9317 -0.137,0.2402 -0.318,0.4305 -0.545,0.5652 -0.226,0.1379 -0.488,0.2317 -0.783,0.2844 -0.294,0.0527 -0.6,0.0789 -0.918,0.0789 h -3.334 v -3.7879 z m 0.455,6.5535 c 0.77,0 1.473,-0.0672 2.108,-0.2019 0.635,-0.1379 1.18,-0.3606 1.633,-0.6711 0.454,-0.3074 0.805,-0.7207 1.054,-1.2363 0.251,-0.5125 0.375,-1.1485 0.375,-1.9043 0,-0.8172 -0.186,-1.4969 -0.556,-2.0418 -0.371,-0.5422 -0.919,-0.9903 -1.644,-1.336 0.998,-0.2871 1.742,-0.791 2.234,-1.5086 0.491,-0.7179 0.737,-1.5851 0.737,-2.5992 0,-0.8141 -0.158,-1.523 -0.476,-2.118 -0.318,-0.598 -0.746,-1.08707 -1.282,-1.46481 -0.536,-0.37812 -1.148,-0.65625 -1.837,-0.83789 -0.688,-0.18125 -1.394,-0.27226 -2.121,-0.27226 h -7.847 V 24.4781 h 7.622"
         style="fill:#fff9fb;fill-opacity:1;fill-rule:nonzero;stroke:none;stroke-width:0.1"
         id="path96"
         inkscape:connector-curvature="0" /><path
         d="m 480.376,14.3301 c 0.158,-0.6422 0.412,-1.2219 0.759,-1.7352 0.348,-0.5148 0.801,-0.925 1.361,-1.2359 0.559,-0.3102 1.24,-0.466 2.042,-0.466 0.801,0 1.481,0.1558 2.04,0.466 0.56,0.3109 1.014,0.7211 1.361,1.2359 0.349,0.5133 0.602,1.093 0.76,1.7352 0.158,0.641 0.239,1.3039 0.239,1.9832 0,0.7117 -0.081,1.4004 -0.239,2.0652 -0.158,0.6653 -0.411,1.2598 -0.76,1.7813 -0.347,0.5215 -0.801,0.9375 -1.361,1.2453 -0.559,0.3105 -1.239,0.4656 -2.04,0.4656 -0.802,0 -1.483,-0.1551 -2.042,-0.4656 -0.56,-0.3078 -1.013,-0.7238 -1.361,-1.2453 -0.347,-0.5215 -0.601,-1.116 -0.759,-1.7813 -0.16,-0.6648 -0.239,-1.3535 -0.239,-2.0652 0,-0.6793 0.079,-1.3422 0.239,-1.9832 z m -3.255,5.3523 c 0.363,1.0371 0.885,1.9395 1.565,2.7098 0.681,0.7707 1.516,1.3769 2.506,1.8137 0.99,0.4394 2.105,0.6589 3.346,0.6589 1.253,0 2.373,-0.2195 3.356,-0.6589 0.982,-0.4368 1.814,-1.043 2.494,-1.8137 0.681,-0.7703 1.203,-1.6727 1.566,-2.7098 0.362,-1.0344 0.544,-2.1594 0.544,-3.3691 0,-1.1781 -0.182,-2.2793 -0.544,-3.2992 -0.363,-1.0192 -0.885,-1.9102 -1.566,-2.6661 -0.68,-0.75581 -1.512,-1.34683 -2.494,-1.77808 -0.983,-0.43086 -2.103,-0.64687 -3.356,-0.64687 -1.241,0 -2.356,0.21601 -3.346,0.64687 -0.99,0.43125 -1.825,1.02227 -2.506,1.77808 -0.68,0.7559 -1.202,1.6469 -1.565,2.6661 -0.363,1.0199 -0.545,2.1211 -0.545,3.2992 0,1.2097 0.182,2.3347 0.545,3.3691"
         style="fill:#fff9fb;fill-opacity:1;fill-rule:nonzero;stroke:none;stroke-width:0.1"
         id="path98"
         inkscape:connector-curvature="0" /><path
         d="m 507.377,9.52188 c -1.224,-1.06602 -2.918,-1.59883 -5.08,-1.59883 -2.193,0 -3.89,0.53008 -5.091,1.58711 -1.203,1.05784 -1.804,2.69294 -1.804,4.89884 v 10.0691 h 3.561 V 14.409 c 0,-0.4399 0.037,-0.8699 0.113,-1.2918 0.076,-0.425 0.235,-0.7973 0.476,-1.1223 0.242,-0.325 0.579,-0.5918 1.009,-0.7937 0.431,-0.2051 1.01,-0.3082 1.736,-0.3082 1.27,0 2.146,0.284 2.631,0.8531 0.484,0.5648 0.725,1.4527 0.725,2.6629 v 10.0691 h 3.561 V 14.409 c 0,-2.1918 -0.612,-3.8199 -1.837,-4.88712"
         style="fill:#fff9fb;fill-opacity:1;fill-rule:nonzero;stroke:none;stroke-width:0.1"
         id="path100"
         inkscape:connector-curvature="0" /><path
         d="m 516.38,24.4781 v -13.198 h 7.893 V 8.28594 H 512.819 V 24.4781 h 3.561"
         style="fill:#fff9fb;fill-opacity:1;fill-rule:nonzero;stroke:none;stroke-width:0.1"
         id="path102"
         inkscape:connector-curvature="0" /><path
         d="m 533.55,11.2801 c 0.514,0 1.012,0.082 1.497,0.2488 0.483,0.1672 0.914,0.4422 1.292,0.8293 0.378,0.384 0.681,0.8879 0.907,1.5059 0.227,0.6211 0.341,1.3769 0.341,2.2703 0,0.8144 -0.081,1.5527 -0.239,2.209 -0.158,0.6593 -0.419,1.2218 -0.782,1.6906 -0.363,0.4687 -0.844,0.8289 -1.44,1.0781 -0.598,0.2488 -1.335,0.375 -2.212,0.375 h -2.54 v -10.207 z m 0.249,13.198 c 1.043,0 2.014,-0.164 2.915,-0.498 0.899,-0.334 1.677,-0.8321 2.335,-1.4969 0.657,-0.6652 1.172,-1.4973 1.542,-2.4934 0.371,-0.9988 0.555,-2.1707 0.555,-3.5156 0,-1.1801 -0.15,-2.2672 -0.452,-3.266 -0.303,-0.9992 -0.76,-1.8613 -1.373,-2.5871 -0.612,-0.72422 -1.375,-1.29493 -2.291,-1.71094 -0.914,-0.41602 -1.992,-0.62422 -3.231,-0.62422 h -6.986 V 24.4781 h 6.986"
         style="fill:#fff9fb;fill-opacity:1;fill-rule:nonzero;stroke:none;stroke-width:0.1"
         id="path104"
         inkscape:connector-curvature="0" /><path
         d="m 556.274,24.4781 v -2.991 h -8.55 v -3.4719 h 7.847 V 15.25 h -7.847 v -3.9699 h 8.732 V 8.28594 H 544.163 V 24.4781 h 12.111"
         style="fill:#fff9fb;fill-opacity:1;fill-rule:nonzero;stroke:none;stroke-width:0.1"
         id="path106"
         inkscape:connector-curvature="0" /><path
         d="m 566.865,17.1539 c 0.817,0 1.429,0.1816 1.837,0.5449 0.408,0.3633 0.612,0.9524 0.612,1.7696 0,0.7851 -0.204,1.3566 -0.612,1.7109 -0.408,0.3547 -1.02,0.5332 -1.837,0.5332 h -3.901 v -4.5586 z m 1.27,7.3242 c 0.726,0 1.38,-0.1172 1.961,-0.3515 0.583,-0.2344 1.081,-0.5536 1.497,-0.9637 0.416,-0.4074 0.734,-0.8789 0.954,-1.4152 0.218,-0.5391 0.328,-1.1161 0.328,-1.7372 0,-0.9523 -0.201,-1.7753 -0.601,-2.4699 -0.401,-0.6972 -1.054,-1.2273 -1.961,-1.5875 v -0.0472 c 0.438,-0.12 0.801,-0.3047 1.088,-0.5571 0.287,-0.2488 0.522,-0.5418 0.703,-0.8816 0.182,-0.3422 0.314,-0.7141 0.397,-1.125 0.082,-0.407 0.14,-0.8141 0.17,-1.2242 0.015,-0.2578 0.03,-0.5598 0.046,-0.9051 0.014,-0.3488 0.041,-0.7039 0.079,-1.0668 0.038,-0.36329 0.098,-0.70899 0.181,-1.03126 0.083,-0.325 0.208,-0.6039 0.374,-0.8289 h -3.561 c -0.196,0.51289 -0.316,1.125 -0.362,1.83706 -0.045,0.7122 -0.114,1.3911 -0.205,2.0418 -0.12,0.8461 -0.378,1.4653 -0.77,1.8602 -0.394,0.393 -1.036,0.5891 -1.928,0.5891 h -3.561 V 8.28594 h -3.561 V 24.4781 h 8.732"
         style="fill:#fff9fb;fill-opacity:1;fill-rule:nonzero;stroke:none;stroke-width:0.1"
         id="path108"
         inkscape:connector-curvature="0" /></g></g></svg>
