<?xml version="1.0" encoding="UTF-8" standalone="no"?>
<!-- Generator: Adobe Illustrator 19.2.1, SVG Export Plug-In . SVG Version: 6.00 Build 0)  -->

<svg
   xmlns:dc="http://purl.org/dc/elements/1.1/"
   xmlns:cc="http://creativecommons.org/ns#"
   xmlns:rdf="http://www.w3.org/1999/02/22-rdf-syntax-ns#"
   xmlns:svg="http://www.w3.org/2000/svg"
   xmlns="http://www.w3.org/2000/svg"
   xmlns:sodipodi="http://sodipodi.sourceforge.net/DTD/sodipodi-0.dtd"
   xmlns:inkscape="http://www.inkscape.org/namespaces/inkscape"
   version="1.1"
   x="0px"
   y="0px"
   viewBox="0 0 623.59998 369.79999"
   xml:space="preserve"
   id="svg78"
   sodipodi:docname="ddn-storage-vector.svg"
   width="623.59998"
   height="369.79999"
   inkscape:version="0.92.3 (2405546, 2018-03-11)"><metadata
   id="metadata84"><rdf:RDF><cc:Work
       rdf:about=""><dc:format>image/svg+xml</dc:format><dc:type
         rdf:resource="http://purl.org/dc/dcmitype/StillImage" /><dc:title></dc:title></cc:Work></rdf:RDF></metadata><defs
   id="defs82">
	
	
	
	
	
	
	
	
	
	

		
	
		
	
		
		
	
		
	
		
		
	</defs><sodipodi:namedview
   pagecolor="#ffffff"
   bordercolor="#666666"
   borderopacity="1"
   objecttolerance="10"
   gridtolerance="10"
   guidetolerance="10"
   inkscape:pageopacity="0"
   inkscape:pageshadow="2"
   inkscape:window-width="1360"
   inkscape:window-height="788"
   id="namedview80"
   showgrid="false"
   inkscape:pagecheckerboard="true"
   fit-margin-top="0"
   fit-margin-left="0"
   fit-margin-right="0"
   fit-margin-bottom="0"
   inkscape:zoom="0.72392638"
   inkscape:cx="358.42573"
   inkscape:cy="195.62508"
   inkscape:window-x="2859"
   inkscape:window-y="502"
   inkscape:window-maximized="0"
   inkscape:current-layer="svg78" />
<style
   type="text/css"
   id="style2">
	.st0{display:none;}
	.st1{display:inline;}
	.st2{fill:#0C0407;}
	.st3{fill:#B30004;}
	.st4{fill:#FFFFFF;}
</style>
<g
   id="Layer_1"
   class="st0"
   style="display:none"
   transform="translate(-14.8,-142.60001)">
	<g
   class="st1"
   id="g40"
   style="display:inline">
		<path
   class="st2"
   d="m 240,670.9 1.6,-0.1 c 0.1,0.6 0.3,1.2 0.5,1.6 0.3,0.4 0.7,0.7 1.3,1 0.6,0.3 1.2,0.4 2,0.4 0.7,0 1.2,-0.1 1.7,-0.3 0.5,-0.2 0.9,-0.5 1.1,-0.8 0.2,-0.3 0.4,-0.7 0.4,-1.1 0,-0.4 -0.1,-0.8 -0.4,-1.1 -0.3,-0.3 -0.6,-0.6 -1.2,-0.8 -0.3,-0.1 -1.1,-0.3 -2.3,-0.6 -1.2,-0.3 -2,-0.6 -2.5,-0.8 -0.6,-0.3 -1.1,-0.7 -1.4,-1.2 -0.3,-0.5 -0.5,-1 -0.5,-1.6 0,-0.7 0.2,-1.3 0.6,-1.8 0.4,-0.5 0.9,-1 1.6,-1.3 0.7,-0.3 1.5,-0.4 2.4,-0.4 1,0 1.8,0.2 2.5,0.5 0.7,0.3 1.3,0.8 1.7,1.4 0.4,0.6 0.6,1.3 0.6,2 l -1.6,0.1 c -0.1,-0.8 -0.4,-1.4 -0.9,-1.8 -0.5,-0.4 -1.3,-0.6 -2.2,-0.6 -1,0 -1.8,0.2 -2.3,0.6 -0.5,0.4 -0.7,0.8 -0.7,1.4 0,0.5 0.2,0.8 0.5,1.1 0.3,0.3 1.2,0.6 2.6,0.9 1.4,0.3 2.3,0.6 2.9,0.8 0.8,0.3 1.3,0.8 1.7,1.3 0.4,0.5 0.5,1.1 0.5,1.8 0,0.7 -0.2,1.3 -0.6,1.9 -0.4,0.6 -1,1.1 -1.7,1.4 -0.7,0.3 -1.6,0.5 -2.5,0.5 -1.2,0 -2.1,-0.2 -2.9,-0.5 -0.8,-0.3 -1.4,-0.9 -1.9,-1.5 -0.3,-0.7 -0.6,-1.5 -0.6,-2.4 z"
   id="path4"
   inkscape:connector-curvature="0"
   style="fill:#0c0407" />
		<path
   class="st2"
   d="m 258.8,672.1 1.6,0.2 c -0.3,1 -0.7,1.7 -1.4,2.2 -0.7,0.5 -1.6,0.8 -2.7,0.8 -1.4,0 -2.4,-0.4 -3.2,-1.3 -0.8,-0.8 -1.2,-2 -1.2,-3.5 0,-1.6 0.4,-2.8 1.2,-3.7 0.8,-0.9 1.9,-1.3 3.1,-1.3 1.2,0 2.3,0.4 3.1,1.3 0.8,0.9 1.2,2 1.2,3.6 0,0.1 0,0.2 0,0.4 h -7 c 0.1,1 0.3,1.8 0.9,2.4 0.6,0.6 1.2,0.8 2,0.8 0.6,0 1.1,-0.2 1.5,-0.5 0.4,-0.3 0.7,-0.8 0.9,-1.4 z m -5.2,-2.6 h 5.2 c -0.1,-0.8 -0.3,-1.4 -0.6,-1.8 -0.5,-0.6 -1.2,-0.9 -2,-0.9 -0.7,0 -1.3,0.2 -1.8,0.7 -0.5,0.5 -0.8,1.2 -0.8,2 z"
   id="path6"
   inkscape:connector-curvature="0"
   style="fill:#0c0407" />
		<path
   class="st2"
   d="m 268.8,672.1 1.6,0.2 c -0.3,1 -0.7,1.7 -1.4,2.2 -0.7,0.5 -1.6,0.8 -2.7,0.8 -1.4,0 -2.4,-0.4 -3.2,-1.3 -0.8,-0.8 -1.2,-2 -1.2,-3.5 0,-1.6 0.4,-2.8 1.2,-3.7 0.8,-0.9 1.9,-1.3 3.1,-1.3 1.2,0 2.3,0.4 3.1,1.3 0.8,0.9 1.2,2 1.2,3.6 0,0.1 0,0.2 0,0.4 h -7 c 0.1,1 0.3,1.8 0.9,2.4 0.6,0.6 1.2,0.8 2,0.8 0.6,0 1.1,-0.2 1.5,-0.5 0.4,-0.3 0.7,-0.8 0.9,-1.4 z m -5.2,-2.6 h 5.2 c -0.1,-0.8 -0.3,-1.4 -0.6,-1.8 -0.5,-0.6 -1.2,-0.9 -2,-0.9 -0.7,0 -1.3,0.2 -1.8,0.7 -0.5,0.5 -0.7,1.2 -0.8,2 z"
   id="path8"
   inkscape:connector-curvature="0"
   style="fill:#0c0407" />
		<path
   class="st2"
   d="m 272.4,675.1 v -12.9 h 1.6 v 7.3 l 3.7,-3.8 h 2 l -3.6,3.5 3.9,5.9 h -2 l -3.1,-4.8 -1.1,1.1 v 3.7 z"
   id="path10"
   inkscape:connector-curvature="0"
   style="fill:#0c0407" />
		<path
   class="st2"
   d="m 285.3,675.1 -5,-12.9 h 1.8 l 3.3,9.4 c 0.3,0.8 0.5,1.5 0.7,2.1 0.2,-0.7 0.4,-1.4 0.7,-2.1 l 3.5,-9.4 h 1.7 l -5,12.9 z"
   id="path12"
   inkscape:connector-curvature="0"
   style="fill:#0c0407" />
		<path
   class="st2"
   d="m 298.8,672.1 1.6,0.2 c -0.3,1 -0.7,1.7 -1.4,2.2 -0.7,0.5 -1.6,0.8 -2.7,0.8 -1.4,0 -2.4,-0.4 -3.2,-1.3 -0.8,-0.8 -1.2,-2 -1.2,-3.5 0,-1.6 0.4,-2.8 1.2,-3.7 0.8,-0.9 1.9,-1.3 3.1,-1.3 1.2,0 2.3,0.4 3.1,1.3 0.8,0.9 1.2,2 1.2,3.6 0,0.1 0,0.2 0,0.4 h -7 c 0.1,1 0.3,1.8 0.9,2.4 0.6,0.6 1.2,0.8 2,0.8 0.6,0 1.1,-0.2 1.5,-0.5 0.4,-0.3 0.7,-0.8 0.9,-1.4 z m -5.2,-2.6 h 5.2 c -0.1,-0.8 -0.3,-1.4 -0.6,-1.8 -0.5,-0.6 -1.2,-0.9 -2,-0.9 -0.7,0 -1.3,0.2 -1.8,0.7 -0.5,0.5 -0.7,1.2 -0.8,2 z"
   id="path14"
   inkscape:connector-curvature="0"
   style="fill:#0c0407" />
		<path
   class="st2"
   d="m 308.5,671.7 1.6,0.2 c -0.2,1.1 -0.6,1.9 -1.3,2.5 -0.7,0.6 -1.6,0.9 -2.6,0.9 -1.3,0 -2.3,-0.4 -3.1,-1.3 -0.8,-0.8 -1.2,-2 -1.2,-3.6 0,-1 0.2,-1.9 0.5,-2.6 0.3,-0.7 0.8,-1.3 1.5,-1.7 0.7,-0.4 1.4,-0.6 2.2,-0.6 1,0 1.8,0.3 2.5,0.8 0.7,0.5 1.1,1.2 1.2,2.2 l -1.5,0.2 c -0.1,-0.6 -0.4,-1.1 -0.8,-1.4 -0.4,-0.3 -0.8,-0.5 -1.3,-0.5 -0.8,0 -1.4,0.3 -1.9,0.9 -0.5,0.6 -0.7,1.5 -0.7,2.7 0,1.3 0.2,2.2 0.7,2.7 0.5,0.5 1.1,0.9 1.9,0.9 0.6,0 1.1,-0.2 1.6,-0.6 0.5,-0.4 0.6,-1 0.7,-1.7 z"
   id="path16"
   inkscape:connector-curvature="0"
   style="fill:#0c0407" />
		<path
   class="st2"
   d="m 314.9,673.7 0.2,1.4 c -0.4,0.1 -0.8,0.1 -1.2,0.1 -0.6,0 -1,-0.1 -1.3,-0.3 -0.3,-0.2 -0.5,-0.4 -0.7,-0.7 -0.2,-0.3 -0.2,-0.9 -0.2,-1.9 V 667 h -1.2 v -1.2 h 1.2 v -2.3 l 1.6,-0.9 v 3.3 h 1.6 v 1.2 h -1.6 v 5.5 c 0,0.5 0,0.7 0.1,0.9 0.1,0.2 0.1,0.2 0.3,0.3 0.1,0.1 0.3,0.1 0.5,0.1 0.2,-0.2 0.4,-0.2 0.7,-0.2 z"
   id="path18"
   inkscape:connector-curvature="0"
   style="fill:#0c0407" />
		<path
   class="st2"
   d="m 315.9,670.4 c 0,-1.7 0.5,-3 1.4,-3.8 0.8,-0.7 1.8,-1 2.9,-1 1.3,0 2.3,0.4 3.1,1.3 0.8,0.9 1.2,2 1.2,3.5 0,1.2 -0.2,2.1 -0.5,2.8 -0.4,0.7 -0.9,1.2 -1.6,1.6 -0.7,0.4 -1.4,0.6 -2.3,0.6 -1.3,0 -2.4,-0.4 -3.2,-1.3 -0.6,-0.9 -1,-2.1 -1,-3.7 z m 1.6,0 c 0,1.2 0.3,2.1 0.8,2.7 0.5,0.6 1.2,0.9 2,0.9 0.8,0 1.4,-0.3 2,-0.9 0.6,-0.6 0.8,-1.5 0.8,-2.7 0,-1.2 -0.3,-2 -0.8,-2.6 -0.5,-0.6 -1.2,-0.9 -2,-0.9 -0.8,0 -1.4,0.3 -2,0.9 -0.6,0.6 -0.8,1.4 -0.8,2.6 z"
   id="path20"
   inkscape:connector-curvature="0"
   style="fill:#0c0407" />
		<path
   class="st2"
   d="m 326.4,675.1 v -9.3 h 1.4 v 1.4 c 0.4,-0.7 0.7,-1.1 1,-1.3 0.3,-0.2 0.6,-0.3 1,-0.3 0.5,0 1.1,0.2 1.6,0.5 l -0.5,1.5 c -0.4,-0.2 -0.8,-0.3 -1.2,-0.3 -0.3,0 -0.7,0.1 -0.9,0.3 -0.2,0.2 -0.5,0.5 -0.6,0.9 -0.2,0.6 -0.3,1.2 -0.3,1.8 v 4.9 h -1.5 z"
   id="path22"
   inkscape:connector-curvature="0"
   style="fill:#0c0407" />
		<path
   class="st2"
   d="m 332.6,675.1 v -12.9 h 1.7 v 11.4 h 6.3 v 1.5 z"
   id="path24"
   inkscape:connector-curvature="0"
   style="fill:#0c0407" />
		<path
   class="st2"
   d="m 341.9,670.4 c 0,-1.7 0.5,-3 1.4,-3.8 0.8,-0.7 1.8,-1 2.9,-1 1.3,0 2.3,0.4 3.1,1.3 0.8,0.9 1.2,2 1.2,3.5 0,1.2 -0.2,2.1 -0.5,2.8 -0.4,0.7 -0.9,1.2 -1.6,1.6 -0.7,0.4 -1.4,0.6 -2.3,0.6 -1.3,0 -2.4,-0.4 -3.2,-1.3 -0.6,-0.9 -1,-2.1 -1,-3.7 z m 1.6,0 c 0,1.2 0.3,2.1 0.8,2.7 0.5,0.6 1.2,0.9 2,0.9 0.8,0 1.4,-0.3 2,-0.9 0.6,-0.6 0.8,-1.5 0.8,-2.7 0,-1.2 -0.3,-2 -0.8,-2.6 -0.5,-0.6 -1.2,-0.9 -2,-0.9 -0.8,0 -1.4,0.3 -2,0.9 -0.6,0.6 -0.8,1.4 -0.8,2.6 z"
   id="path26"
   inkscape:connector-curvature="0"
   style="fill:#0c0407" />
		<path
   class="st2"
   d="m 352.2,675.8 1.5,0.2 c 0.1,0.5 0.2,0.8 0.5,1 0.4,0.3 0.9,0.4 1.6,0.4 0.7,0 1.3,-0.1 1.7,-0.4 0.4,-0.3 0.7,-0.7 0.8,-1.2 0.1,-0.3 0.1,-1 0.1,-2 -0.7,0.8 -1.6,1.2 -2.6,1.2 -1.3,0 -2.3,-0.5 -3,-1.4 -0.7,-0.9 -1.1,-2 -1.1,-3.3 0,-0.9 0.2,-1.7 0.5,-2.5 0.3,-0.8 0.8,-1.3 1.4,-1.7 0.6,-0.4 1.3,-0.6 2.2,-0.6 1.1,0 2,0.4 2.7,1.3 v -1.1 h 1.5 v 8.1 c 0,1.5 -0.1,2.5 -0.4,3.1 -0.3,0.6 -0.8,1.1 -1.4,1.4 -0.6,0.4 -1.4,0.5 -2.4,0.5 -1.1,0 -2,-0.3 -2.7,-0.8 -0.6,-0.4 -0.9,-1.1 -0.9,-2.2 z m 1.3,-5.6 c 0,1.2 0.2,2.1 0.7,2.7 0.5,0.6 1.1,0.8 1.8,0.8 0.7,0 1.3,-0.3 1.8,-0.8 0.5,-0.5 0.7,-1.4 0.7,-2.6 0,-1.1 -0.3,-2 -0.8,-2.6 -0.5,-0.6 -1.1,-0.9 -1.8,-0.9 -0.7,0 -1.3,0.3 -1.8,0.9 -0.4,0.6 -0.6,1.4 -0.6,2.5 z"
   id="path28"
   inkscape:connector-curvature="0"
   style="fill:#0c0407" />
		<path
   class="st2"
   d="m 361.9,670.4 c 0,-1.7 0.5,-3 1.4,-3.8 0.8,-0.7 1.8,-1 2.9,-1 1.3,0 2.3,0.4 3.1,1.3 0.8,0.9 1.2,2 1.2,3.5 0,1.2 -0.2,2.1 -0.5,2.8 -0.4,0.7 -0.9,1.2 -1.6,1.6 -0.7,0.4 -1.4,0.6 -2.3,0.6 -1.3,0 -2.4,-0.4 -3.2,-1.3 -0.6,-0.9 -1,-2.1 -1,-3.7 z m 1.6,0 c 0,1.2 0.3,2.1 0.8,2.7 0.5,0.6 1.2,0.9 2,0.9 0.8,0 1.4,-0.3 2,-0.9 0.6,-0.6 0.8,-1.5 0.8,-2.7 0,-1.2 -0.3,-2 -0.8,-2.6 -0.5,-0.6 -1.2,-0.9 -2,-0.9 -0.8,0 -1.4,0.3 -2,0.9 -0.6,0.6 -0.8,1.4 -0.8,2.6 z"
   id="path30"
   inkscape:connector-curvature="0"
   style="fill:#0c0407" />
		<path
   class="st2"
   d="m 372.9,675.1 v -1.8 h 1.8 v 1.8 z"
   id="path32"
   inkscape:connector-curvature="0"
   style="fill:#0c0407" />
		<path
   class="st2"
   d="m 386.9,670.6 1.7,0.4 c -0.4,1.4 -1,2.5 -1.9,3.2 -0.9,0.7 -2.1,1.1 -3.4,1.1 -1.4,0 -2.5,-0.3 -3.4,-0.8 -0.9,-0.6 -1.5,-1.4 -2,-2.5 -0.5,-1.1 -0.7,-2.2 -0.7,-3.5 0,-1.3 0.3,-2.5 0.8,-3.5 0.5,-1 1.2,-1.8 2.2,-2.3 0.9,-0.5 2,-0.8 3.1,-0.8 1.3,0 2.4,0.3 3.3,1 0.9,0.7 1.5,1.6 1.8,2.8 l -1.7,0.4 c -0.3,-0.9 -0.7,-1.6 -1.3,-2 -0.6,-0.4 -1.3,-0.6 -2.1,-0.6 -1,0 -1.8,0.2 -2.5,0.7 -0.7,0.5 -1.1,1.1 -1.4,1.9 -0.3,0.8 -0.4,1.6 -0.4,2.5 0,1.1 0.2,2.1 0.5,2.9 0.3,0.8 0.8,1.4 1.5,1.8 0.7,0.4 1.4,0.6 2.2,0.6 1,0 1.8,-0.3 2.4,-0.8 0.6,-0.5 1.1,-1.5 1.3,-2.5 z"
   id="path34"
   inkscape:connector-curvature="0"
   style="fill:#0c0407" />
		<path
   class="st2"
   d="m 389.9,670.4 c 0,-1.7 0.5,-3 1.4,-3.8 0.8,-0.7 1.8,-1 2.9,-1 1.3,0 2.3,0.4 3.1,1.3 0.8,0.9 1.2,2 1.2,3.5 0,1.2 -0.2,2.1 -0.5,2.8 -0.4,0.7 -0.9,1.2 -1.6,1.6 -0.7,0.4 -1.4,0.6 -2.3,0.6 -1.3,0 -2.4,-0.4 -3.2,-1.3 -0.6,-0.9 -1,-2.1 -1,-3.7 z m 1.6,0 c 0,1.2 0.3,2.1 0.8,2.7 0.5,0.6 1.2,0.9 2,0.9 0.8,0 1.4,-0.3 2,-0.9 0.6,-0.6 0.8,-1.5 0.8,-2.7 0,-1.2 -0.3,-2 -0.8,-2.6 -0.5,-0.6 -1.2,-0.9 -2,-0.9 -0.8,0 -1.4,0.3 -2,0.9 -0.6,0.6 -0.8,1.4 -0.8,2.6 z"
   id="path36"
   inkscape:connector-curvature="0"
   style="fill:#0c0407" />
		<path
   class="st2"
   d="m 400.5,675.1 v -9.3 h 1.4 v 1.3 c 0.3,-0.5 0.7,-0.8 1.2,-1.1 0.5,-0.3 1,-0.4 1.7,-0.4 0.7,0 1.3,0.1 1.7,0.4 0.4,0.3 0.8,0.7 0.9,1.2 0.7,-1.1 1.7,-1.6 2.9,-1.6 0.9,0 1.6,0.3 2.1,0.8 0.5,0.5 0.7,1.3 0.7,2.4 v 6.4 h -1.6 v -5.9 c 0,-0.6 -0.1,-1.1 -0.2,-1.4 -0.1,-0.3 -0.3,-0.5 -0.6,-0.7 -0.3,-0.2 -0.6,-0.3 -0.9,-0.3 -0.7,0 -1.2,0.2 -1.6,0.7 -0.4,0.4 -0.7,1.1 -0.7,2.1 v 5.4 h -1.6 V 669 c 0,-0.7 -0.1,-1.2 -0.4,-1.6 -0.3,-0.4 -0.7,-0.5 -1.3,-0.5 -0.4,0 -0.9,0.1 -1.2,0.4 -0.4,0.2 -0.7,0.6 -0.8,1 -0.1,0.4 -0.3,1.1 -0.3,2 v 4.8 z"
   id="path38"
   inkscape:connector-curvature="0"
   style="fill:#0c0407" />
	</g>
</g>
<path
   style="fill:#ffffff;fill-opacity:1"
   d="M 0 0 L 0 369.80078 L 623.59961 369.80078 L 623.59961 0 L 0 0 z M 509.69922 90.900391 C 517.49922 90.900391 523.59961 96.999219 523.59961 104.69922 C 523.59961 112.59922 517.49961 118.59961 509.59961 118.59961 C 501.69961 118.59961 495.5 112.49922 495.5 104.69922 C 495.5 96.999219 501.69922 90.900391 509.69922 90.900391 z M 129.59961 91.099609 L 177.09961 91.099609 C 187.29961 91.099609 196.29961 92.6 204.09961 95.5 C 211.89961 98.4 218.39961 102.4 223.59961 107.5 C 228.79961 112.5 232.80039 118.39922 235.40039 125.19922 C 238.10039 131.99922 239.40039 139.20039 239.40039 146.90039 C 239.40039 155.40039 237.9 163.1 235 170 C 232 176.9 227.80039 182.79961 222.40039 187.59961 C 216.90039 192.49961 210.39922 196.30039 202.69922 198.90039 C 194.99922 201.60039 186.49961 202.90039 177.09961 202.90039 L 129.59961 202.90039 L 129.59961 91.099609 z M 254.5 91.099609 L 302 91.099609 C 312.2 91.099609 321.2 92.6 329 95.5 C 336.8 98.4 343.3 102.4 348.5 107.5 C 353.7 112.5 357.70078 118.39922 360.30078 125.19922 C 363.00078 131.99922 364.30078 139.20039 364.30078 146.90039 C 364.30078 155.40039 362.80039 163.1 359.90039 170 C 356.90039 176.9 352.70078 182.79961 347.30078 187.59961 C 341.80078 192.49961 335.29961 196.30039 327.59961 198.90039 C 319.89961 201.60039 311.4 202.90039 302 202.90039 L 254.5 202.90039 L 254.5 91.099609 z M 379.40039 91.099609 L 405.80078 91.099609 L 455.5 148 L 455.5 91.099609 L 489.40039 91.099609 L 489.40039 202.90039 L 462.40039 202.90039 L 413.30078 148 L 413.30078 202.90039 L 379.40039 202.90039 L 379.40039 91.099609 z M 509.5 93.300781 C 503.3 93.300781 498.5 98.399609 498.5 104.59961 C 498.5 110.99961 503.29922 116 509.69922 116 C 515.89922 116.1 520.5 110.99922 520.5 104.69922 C 520.5 98.399219 515.9 93.300781 509.5 93.300781 z M 509.40039 97.400391 C 511.80039 97.400391 513 97.8 514 98.5 C 514.9 99.1 515.5 100.2 515.5 101.5 C 515.5 103.3 514.19961 104.4 512.59961 105 L 512.59961 105.19922 C 513.89961 105.69922 514.6 106.79922 515 108.69922 C 515.4 110.89922 515.7 111.80078 516 112.30078 L 513.19922 112.30078 C 512.79922 111.80078 512.39961 110.5 512.09961 108.5 C 511.79961 106.9 510.79922 106.19922 508.69922 106.19922 L 507 106.19922 L 507 112.30078 L 504.40039 112.30078 L 504.40039 97.800781 C 505.90039 97.500781 507.40039 97.400391 509.40039 97.400391 z M 509.09961 99.599609 C 508.09961 99.599609 507.5 99.700781 507 99.800781 L 507 104.19922 L 507.09961 104.19922 L 508.90039 104.19922 C 510.90039 104.19922 512.59961 103.60039 512.59961 101.90039 C 512.59961 100.50039 511.69961 99.599609 509.09961 99.599609 z M 163.5 118 L 163.5 176.30078 L 177.09961 176.30078 C 181.49961 176.30078 185.50039 175.59961 188.90039 174.09961 C 192.40039 172.59961 195.29922 170.6 197.69922 168 C 200.09922 165.4 201.89961 162.29922 203.09961 158.69922 C 204.39961 154.99922 205 151.10039 205 146.90039 C 205 142.60039 204.39961 138.69961 203.09961 135.09961 C 201.79961 131.49961 199.99961 128.5 197.59961 126 C 195.19961 123.5 192.30078 121.49961 188.80078 120.09961 C 185.30078 118.69961 181.39961 118 177.09961 118 L 163.5 118 z M 288.40039 118 L 288.40039 176.30078 L 302 176.30078 C 306.4 176.30078 310.40078 175.59961 313.80078 174.09961 C 317.30078 172.59961 320.19961 170.6 322.59961 168 C 324.99961 165.4 326.8 162.29922 328 158.69922 C 329.3 154.99922 329.90039 151.10039 329.90039 146.90039 C 329.90039 142.60039 329.3 138.69961 328 135.09961 C 326.7 131.49961 324.9 128.5 322.5 126 C 320.1 123.5 317.19922 121.49961 313.69922 120.09961 C 310.19922 118.69961 306.3 118 302 118 L 288.40039 118 z M 151.90039 225.69922 C 155.70039 225.69922 159.2 226.19922 162.5 227.19922 C 165.7 228.19922 168.50039 229.39922 170.90039 230.69922 L 165.90039 238.90039 C 165.50039 238.60039 164.80039 238.19961 163.90039 237.59961 C 163.00039 237.09961 161.89961 236.59961 160.59961 236.09961 C 159.29961 235.59961 157.90078 235.30039 156.30078 234.90039 C 154.70078 234.60039 153.00078 234.40039 151.30078 234.40039 C 148.70078 234.40039 146.80039 234.8 145.40039 235.5 C 144.00039 236.2 143.30078 237.29922 143.30078 238.69922 C 143.30078 239.59922 143.59961 240.30078 144.09961 240.80078 C 144.69961 241.40078 145.5 241.90078 146.5 242.30078 C 147.5 242.70078 148.80078 243.1 150.30078 243.5 C 151.80078 243.9 153.50039 244.19961 155.40039 244.59961 C 158.00039 245.09961 160.39961 245.8 162.59961 246.5 C 164.69961 247.2 166.59961 248.09961 168.09961 249.09961 C 169.59961 250.09961 170.7 251.40078 171.5 252.80078 C 172.3 254.30078 172.69922 255.99961 172.69922 258.09961 C 172.69922 260.59961 172.1 262.8 171 264.5 C 169.9 266.2 168.39961 267.59922 166.59961 268.69922 C 164.79961 269.79922 162.59922 270.59961 160.19922 271.09961 C 157.79922 271.59961 155.19961 271.80078 152.59961 271.80078 C 148.49961 271.80078 144.49961 271.30078 140.59961 270.30078 C 136.59961 269.30078 133.10039 267.89961 129.90039 266.09961 L 134.80078 257.59961 C 135.40078 258.09961 136.30039 258.70039 137.40039 259.40039 C 138.60039 260.00039 139.89961 260.59922 141.59961 261.19922 C 143.19961 261.69922 145.00039 262.2 146.90039 262.5 C 148.80039 262.8 150.80078 263 152.80078 263 C 158.30078 263 161.09961 261.7 161.09961 259 C 161.09961 258.2 160.80078 257.5 160.30078 257 C 159.80078 256.5 159 256 158 255.5 C 157 255 155.69922 254.59922 154.19922 254.19922 C 152.69922 253.79922 151 253.4 149 253 C 146 252.3 143.50039 251.60078 141.40039 250.80078 C 139.30039 250.00078 137.49922 249.19922 136.19922 248.19922 C 134.79922 247.19922 133.79922 245.99922 133.19922 244.69922 C 132.49922 243.39922 132.19922 241.8 132.19922 240 C 132.19922 237.7 132.70078 235.60078 133.80078 233.80078 C 134.80078 232.00078 136.3 230.50078 138 229.30078 C 139.8 228.10078 141.90078 227.19961 144.30078 226.59961 C 146.70078 225.99961 149.20039 225.69922 151.90039 225.69922 z M 418.40039 225.80078 C 423.40039 225.80078 427.70078 226.7 431.30078 228.5 C 434.90078 230.3 437.60078 232.69922 439.30078 235.69922 L 431.09961 241.19922 C 429.79961 239.09922 428.09922 237.50078 425.69922 236.30078 C 423.39922 235.10078 420.8 234.59961 418 234.59961 C 415.8 234.59961 413.8 234.99922 412 235.69922 C 410.2 236.49922 408.60078 237.50078 407.30078 238.80078 C 406.00078 240.10078 405.00078 241.60078 404.30078 243.30078 C 403.60078 245.00078 403.19922 246.90078 403.19922 248.80078 C 403.19922 250.80078 403.60039 252.7 404.40039 254.5 C 405.20039 256.2 406.19961 257.70039 407.59961 258.90039 C 408.99961 260.10039 410.6 261.10078 412.5 261.80078 C 414.4 262.50078 416.39961 262.90039 418.59961 262.90039 C 423.49961 262.90039 427.99961 260.99922 432.09961 257.19922 L 432.09961 255 L 421 255 L 421 247.90039 L 441 247.90039 L 441 271.40039 L 432.09961 271.40039 L 432.09961 266.80078 C 427.89961 270.10078 423.09961 271.69922 417.59961 271.69922 C 414.09961 271.69922 410.79922 271.10078 407.69922 269.80078 C 404.59922 268.50078 401.89922 266.79922 399.69922 264.69922 C 397.39922 262.49922 395.60078 260.10078 394.30078 257.30078 C 393.00078 254.50078 392.30078 251.6 392.30078 248.5 C 392.30078 245.4 393.00078 242.39922 394.30078 239.69922 C 395.60078 236.99922 397.40078 234.6 399.80078 232.5 C 402.10078 230.5 404.89961 228.79961 408.09961 227.59961 C 411.29961 226.39961 414.70039 225.80078 418.40039 225.80078 z M 254 225.90039 C 257.9 225.90039 261.50078 226.60039 264.80078 227.90039 C 268.00078 229.20039 270.79961 230.99961 273.09961 233.09961 C 275.39961 235.29961 277.10039 237.7 278.40039 240.5 C 279.60039 243.3 280.30078 246.10039 280.30078 248.90039 C 280.30078 251.90039 279.60078 254.7 278.30078 257.5 C 277.00078 260.2 275.20078 262.70078 272.80078 264.80078 C 270.50078 266.90078 267.70039 268.60078 264.40039 269.80078 C 261.30039 271.10078 257.70039 271.80078 253.90039 271.80078 C 250.00039 271.80078 246.39922 271.20039 243.19922 269.90039 C 239.99922 268.60039 237.20039 266.89922 234.90039 264.69922 C 232.60039 262.49922 230.8 260.10078 229.5 257.30078 C 228.2 254.60078 227.59961 251.70078 227.59961 248.80078 C 227.59961 245.80078 228.29961 242.99922 229.59961 240.19922 C 230.89961 237.49922 232.79961 235.00039 235.09961 232.90039 C 237.49961 230.80039 240.2 229.10078 243.5 227.80078 C 246.7 226.50078 250.2 225.90039 254 225.90039 z M 177 226.19922 L 223.19922 226.19922 L 223.19922 234.80078 L 205.59961 234.80078 L 205.59961 271.40039 L 194.69922 271.40039 L 194.69922 234.80078 L 177 234.80078 L 177 226.19922 z M 289.09961 226.19922 L 313.69922 226.19922 C 316.29922 226.19922 318.60078 226.6 320.80078 227.5 C 322.90078 228.4 324.80039 229.6 326.40039 231 C 328.00039 232.4 329.19961 234.10039 330.09961 235.90039 C 330.99961 237.70039 331.40039 239.60039 331.40039 241.40039 C 331.40039 244.30039 330.49922 246.89922 328.69922 249.19922 C 326.89922 251.59922 324.5 253.3 321.5 254.5 L 334.59961 271.40039 L 322.30078 271.40039 L 310.69922 256.59961 L 300.19922 256.59961 L 300.19922 271.40039 L 289.09961 271.40039 L 289.09961 226.19922 z M 358.40039 226.19922 L 367.19922 226.19922 L 388.90039 271.40039 L 377.5 271.40039 L 372.5 260.80078 L 353.09961 260.80078 L 348.09961 271.40039 L 336.59961 271.40039 L 358.40039 226.19922 z M 450.90039 226.19922 L 488.80078 226.19922 L 488.80078 234.80078 L 461.80078 234.80078 L 461.80078 244.40039 L 485.09961 244.40039 L 485.09961 252.40039 L 461.80078 252.40039 L 461.80078 262.90039 L 489.5 262.90039 L 489.5 271.40039 L 450.90039 271.40039 L 450.90039 226.19922 z M 253.90039 234.59961 C 251.50039 234.59961 249.30039 235.00039 247.40039 235.90039 C 245.50039 236.70039 243.89961 237.79961 242.59961 239.09961 C 241.29961 240.39961 240.29961 241.89961 239.59961 243.59961 C 238.99961 245.39961 238.59961 247.20039 238.59961 248.90039 C 238.59961 250.70039 238.89961 252.49922 239.59961 254.19922 C 240.29961 255.89922 241.29961 257.39922 242.59961 258.69922 C 243.89961 259.99922 245.6 261.10039 247.5 261.90039 C 249.4 262.70039 251.6 263.09961 254 263.09961 C 256.4 263.09961 258.6 262.70078 260.5 261.80078 C 262.4 261.00078 264.00078 259.9 265.30078 258.5 C 266.60078 257.2 267.49922 255.60039 268.19922 253.90039 C 268.89922 252.20039 269.19922 250.49922 269.19922 248.69922 C 269.19922 246.89922 268.79961 245.10039 268.09961 243.40039 C 267.39961 241.70039 266.39961 240.20039 265.09961 238.90039 C 263.79961 237.60039 262.20078 236.60078 260.30078 235.80078 C 258.40078 235.00078 256.30039 234.59961 253.90039 234.59961 z M 299.90039 234.80078 L 299.90039 248.09961 L 300 248.09961 L 313.5 248.09961 C 315.5 248.09961 317.1 247.49922 318.5 246.19922 C 319.8 244.89922 320.5 243.4 320.5 241.5 C 320.5 240.5 320.30039 239.60078 319.90039 238.80078 C 319.50039 238.00078 318.89922 237.29922 318.19922 236.69922 C 317.49922 236.09922 316.70078 235.60078 315.80078 235.30078 C 314.90078 235.00078 314 234.80078 313 234.80078 L 299.90039 234.80078 z M 362.90039 238.09961 L 355.59961 252.30078 L 370 252.30078 L 362.90039 238.09961 z "
   id="rect43" />
</svg>