<svg width="400mm" height="110.34mm" version="1.1" viewBox="0 0 400 110.34" xmlns="http://www.w3.org/2000/svg">
 <path d="m341.61 110.29c-5.6845-0.36271-10.962-1.4685-16.037-3.3603-12.846-4.7881-23.48-14.197-29.778-26.347-3.5798-6.906-5.6078-14.315-6.0825-22.222-0.0897-1.4935-0.089-4.8934 1e-3 -6.3691 0.77697-12.7 5.5858-24.237 14.06-33.731 0.90688-1.0161 3.3636-3.4557 4.3811-4.3505 8.301-7.3006 18.058-11.818 28.855-13.358 12.629-1.8019 25.536 0.82293 36.363 7.3954 4.033 2.448 7.4028 5.1259 10.828 8.6044 3.1102 3.159 5.5667 6.3109 7.8594 10.084 7.1482 11.765 9.5976 25.981 6.8289 39.634-2.55 12.574-9.4731 23.897-19.554 31.98-6.47 5.1879-14.034 8.8628-22.046 10.711-2.4105 0.55607-5.232 0.99521-7.9104 1.2312-1.4888 0.13117-6.2988 0.19192-7.7689 0.0981zm-4.2344-48.43v-22.817h-8.6088v45.634h8.6088zm22.817 4.1994v-18.617h7.699v-7.699h-7.699v-17.918h-8.7488v17.918h-4.7594v7.699h4.7594v37.235h8.7488zm-25.687-32.974c0.84621-0.20808 1.7417-0.69926 2.3979-1.3153 1.2038-1.1301 1.8015-2.5023 1.8015-4.1357 0-1.5011-0.5052-2.7795-1.5259-3.8616-0.77285-0.81926-1.6817-1.3403-2.8067-1.6092-0.80367-0.19208-2.1698-0.15435-2.9114 0.0804-1.9015 0.60191-3.3132 2.0642-3.8228 3.9597-0.20901 0.7775-0.20971 2.0774-2e-3 2.8656 0.79545 3.0116 3.8029 4.77 6.8689 4.0162zm-177.25 62.083c-3.9906-0.34272-7.175-1.4344-9.7402-3.3391-0.78337-0.58167-2.1068-1.9148-2.6317-2.6509-1.3358-1.8734-2.0087-3.6222-2.466-6.4089l-0.0316-0.19248h7.2701l0.0765 0.29746c0.34455 1.3389 0.8589 2.2455 1.757 3.0971 0.85239 0.8082 1.7666 1.3358 3.0302 1.749 1.3686 0.44744 2.7177 0.65251 4.6953 0.7137 3.3707 0.10429 6.1027-0.51379 7.7994-1.7645 1.9889-1.4661 3.0215-4.0642 3.2958-8.2922 0.0443-0.68298 0.0664-2.9212 0.0541-5.478l-0.0208-4.3232-0.35882 0.61369c-0.57105 0.97664-1.1722 1.7434-2.0468 2.6106-1.879 1.8631-4.1505 2.9382-7.1831 3.3999-1.0491 0.15971-3.9746 0.18203-5.0043 0.0382-3.7161-0.51914-6.6156-1.9263-9.1006-4.4166-2.9687-2.975-4.7222-6.6644-5.3906-11.342-0.42691-2.9872-0.31189-6.7073 0.29431-9.5187 1.18-5.4726 4.535-9.9848 9.0622-12.188 1.5666-0.76243 3.5438-1.312 5.5197-1.5344 0.97613-0.10985 3.2855-0.11032 4.1994-8.7e-4 3.0329 0.36324 5.4322 1.3773 7.4287 3.1399 0.86121 0.7603 1.8414 1.9249 2.5233 2.9982 0.0654 0.10294 0.0843-0.42292 0.0875-2.4409l4e-3 -2.5722h7.139v19.94c0 20.531-0.0101 21.364-0.28519 23.525-1.1327 8.8961-5.3738 13.227-13.958 14.252-1.0927 0.13051-4.8844 0.18678-6.0192 0.0893zm3.0446-26.661c2.5576-0.26501 4.5842-1.2164 6.3341-2.9737 1.9646-1.9728 3.15-4.5013 3.5765-7.6285 0.14991-1.0994 0.17333-3.784 0.0418-4.7944-0.45536-3.4984-1.7454-6.1223-3.8641-7.8592-1.4786-1.2122-3.068-1.8844-5.1785-2.19-1.1168-0.16171-3.3686-0.10564-4.367 0.10875-2.1944 0.4712-3.6878 1.2665-5.1915 2.7647-1.5386 1.533-2.4176 3.1105-3.0038 5.391-0.35236 1.3709-0.478 2.4791-0.48006 4.2344-2e-3 1.9762 0.17677 3.3976 0.62272 4.9429 0.79778 2.7644 2.459 5.0976 4.6157 6.4829 1.9111 1.2275 4.4088 1.7786 6.8941 1.5211zm-144.36 6.7835c-6.0476-0.49494-10.802-3.5828-13.568-8.8119-1.6013-3.0275-2.3759-6.5756-2.376-10.884-4.9993e-5 -2.6338 0.2669-4.6397 0.89182-6.7014 1.8938-6.2479 7.0048-11.152 12.882-12.361 1.4184-0.29178 2.3803-0.38257 4.0245-0.37987 1.7102 3e-3 2.7671 0.10597 4.2228 0.41213 6.2482 1.3141 11.007 6.2145 12.432 12.801 0.3672 1.6973 0.43645 2.453 0.4731 5.1618l0.0348 2.5722h-27.882l0.0441 0.40245c0.37604 3.4308 1.1942 5.7162 2.7309 7.6284 1.9993 2.4878 5.2506 3.6831 9.2211 3.3901 2.9454-0.21735 4.9565-1.0302 6.6917-2.7048 0.76894-0.74207 1.3304-1.4653 1.9133-2.4645 0.23177-0.39732 0.44986-0.7224 0.48465-0.7224 0.0674 0 5.7257 2.9933 5.8237 3.0808 0.1267 0.11318-0.88633 1.8144-1.8331 3.0784-2.2613 3.019-5.2731 5.0344-8.8908 5.9495-2.1368 0.54051-4.9114 0.74997-7.3216 0.55271zm11.951-23.317c-0.24614-2.0027-0.87525-3.8382-1.7741-5.1761-0.66497-0.98979-2.0967-2.2252-3.2517-2.8058-2.3117-1.1621-6.07-1.3877-8.7776-0.52705-2.8893 0.91841-5.1513 3.1091-6.1873 5.992-0.20166 0.56119-0.4958 1.692-0.56824 2.1846-0.0255 0.17323-0.0619 0.37008-0.0809 0.43744-0.0328 0.11626 0.4918 0.12249 10.317 0.12249h10.351zm85.511 23.353c-0.13474-0.0156-0.54418-0.0625-0.90988-0.10422-2.7792-0.31738-5.4412-1.3937-7.6395-3.0888-0.78982-0.60904-2.0966-1.9009-2.7463-2.7151-1.5274-1.914-2.7315-4.2659-3.4337-6.707-1.2474-4.3364-1.2516-9.888-0.0106-14.197 1.0187-3.5367 3.0516-6.657 5.7969-8.8972 2.268-1.8508 5.1538-3.0139 8.3832-3.3788 1.0896-0.12311 3.4342-0.10618 4.4715 0.0323 4.1611 0.55547 7.1811 2.3662 9.5142 5.7045l0.36231 0.51841v-5.1313h7.139v36.745h-7.1374l-0.0366-5.5256-0.34325 0.57558c-2.0307 3.4052-5.1302 5.4193-9.2942 6.0397-0.6846 0.10199-3.5675 0.19241-4.1157 0.12909zm3.6395-6.8193c2.4931-0.25833 4.4653-1.1493 6.1791-2.7916 2.153-2.0631 3.3634-4.603 3.8389-8.0556 0.12094-0.87803 0.12055-3.7455-7.9e-4 -4.6194-0.44757-3.2277-1.524-5.5567-3.3843-7.3223-1.5656-1.4858-3.3468-2.3128-5.7232-2.6569-1.1175-0.16181-3.3664-0.10563-4.3744 0.10928-2.0432 0.43563-3.6106 1.2378-4.9942 2.5558-1.9474 1.8552-3.0424 4.0977-3.5202 7.209-0.19994 1.3019-0.21516 3.8198-0.0312 5.1682 0.14214 1.042 0.43128 2.2739 0.73541 3.1333 1.147 3.241 3.4635 5.701 6.3054 6.696 1.5702 0.54972 3.2888 0.74829 4.9693 0.57417zm143.97 6.8126c-3.3763-0.2507-6.3663-1.2729-8.8005-3.0086-2.5148-1.7932-4.6353-4.57-5.8541-7.6659-1.7178-4.3635-2.0551-10.31-0.85038-14.992 1.2338-4.7952 4.3808-8.9991 8.5092-11.367 2.7709-1.5894 6.1094-2.3207 9.6619-2.1163 4.6132 0.26543 8.1318 1.7585 11.052 4.6897 2.3571 2.3659 3.8605 5.239 4.5795 8.7518 0.34089 1.6655 0.4009 2.3463 0.43961 4.9868l0.0367 2.5022h-27.891l0.046 0.43744c0.1094 1.0407 0.28046 2.0391 0.49464 2.8871 1.0046 3.9774 3.1438 6.4803 6.4697 7.5698 2.2459 0.7357 5.3845 0.7588 7.8117 0.0575 2.3365-0.67512 4.2604-2.1891 5.6141-4.418 0.1902-0.31314 0.38637-0.66726 0.43595-0.78694 0.0496-0.11968 0.13002-0.2176 0.17878-0.2176 0.0758 0 5.8211 3.0338 5.9059 3.1186 0.0859 0.0859-1.0762 1.9796-1.858 3.0277-0.75313 1.0098-2.3347 2.6038-3.296 3.3218-2.4966 1.8649-5.4646 2.911-9.0741 3.1983-0.83056 0.0661-2.8628 0.0796-3.6118 0.024zm11.644-23.789c-0.57759-4.1732-2.9017-7.0742-6.4998-8.113-1.2188-0.35189-1.7653-0.41667-3.5345-0.41892-1.3134-2e-3 -1.7858 0.0242-2.3447 0.12821-2.9386 0.54704-5.2935 2.1471-6.73 4.5728-0.60737 1.0256-1.0897 2.3431-1.3481 3.6818-0.0802 0.41578-0.14586 0.7701-0.14586 0.7874s4.6565 0.0314 10.348 0.0314h10.348zm-231.55 4.2042v-18.373h7.139l0.00106 4.4444 0.31601-0.55324c0.50474-0.88364 0.9224-1.43 1.6383-2.1431 1.593-1.5867 3.7862-2.5714 6.3735-2.8615 1.7261-0.19354 3.3813-0.14588 4.7768 0.13755 3.288 0.66778 5.8893 2.7316 7.0638 5.604l0.22188 0.54269 0.35542-0.62887c0.52997-0.93774 1.0978-1.6638 1.9251-2.4616 1.4438-1.3923 3.1447-2.3334 5.1532-2.8512 2.6042-0.67147 5.6478-0.60761 7.9629 0.16708 3.4971 1.1702 5.8545 4.0765 6.7916 8.3728 0.44403 2.0357 0.42005 1.1889 0.44549 15.73l0.0232 13.246h-7.0672l-0.0256-11.916c-0.0228-10.624-0.0382-12.003-0.14134-12.718-0.51334-3.558-1.5334-5.3995-3.516-6.3478-1.8496-0.88468-4.5638-0.84641-6.4309 0.0907-2.0402 1.0239-3.264 3.1258-3.8861 6.6742-0.38636 2.2037-0.38 1.9914-0.40565 13.526l-0.0238 10.691h-7.1994l-0.0229-12.266c-0.021-11.2-0.0335-12.336-0.14406-13.071-0.62737-4.1691-2.0534-5.8637-5.2465-6.2349-0.80874-0.094-1.8213-0.0487-2.6288 0.1177-3.1077 0.64035-5.0783 3.2506-5.8862 7.797-0.38686 2.177-0.37535 1.802-0.40326 13.141l-0.0259 10.516h-7.1335zm147.82 0v-18.373h7.139v36.745h-7.139zm18.547 0v-18.373h7.1373l0.0184 2.4956 0.0184 2.4956 0.3087-0.5184c1.565-2.6281 4.023-4.424 7.1242-5.2052 2.8041-0.7064 6.3427-0.63469 8.672 0.17574 4.1806 1.4545 6.8548 5.0907 7.6157 10.355 0.22565 1.5613 0.25049 3.0468 0.25082 14.995v11.951h-7.1345l-0.0223-11.951c-0.0221-11.867-0.0234-11.957-0.17352-12.861-0.43376-2.6098-1.2046-4.2323-2.5322-5.3295-0.79352-0.65584-1.9135-1.1396-3.1558-1.363-0.68166-0.12259-2.6079-0.12259-3.2896 0-4.0579 0.7298-6.6078 4.0627-7.4221 9.7012-0.24992 1.7305-0.27689 2.9456-0.27689 12.475v9.3274h-7.139v-18.372zm-15.667-28.523c-1.0565-0.14481-1.7978-0.5225-2.6034-1.3265-0.66479-0.66341-1.0276-1.289-1.2184-2.101-0.13731-0.58435-0.1381-1.7924-2e-3 -2.3717 0.33789-1.4334 1.6013-2.7774 3.0421-3.2361 0.63369-0.20176 1.8233-0.25114 2.5197-0.10457 1.3222 0.2783 2.5484 1.2258 3.1413 2.4274 0.98314 1.9923 0.45505 4.4241-1.2516 5.7635-0.98913 0.77627-2.3299 1.127-3.6282 0.949z" fill="#fff" stroke-width=".06999"/>
</svg>
