<?xml version="1.0" encoding="UTF-8" standalone="no"?>
<!-- Created with Inkscape (http://www.inkscape.org/) -->

<svg
   width="624.95624mm"
   height="169.89201mm"
   viewBox="0 0 624.95624 169.89201"
   version="1.1"
   id="svg5"
   inkscape:version="1.1.2 (0a00cf5339, 2022-02-04)"
   sodipodi:docname="fujifilm-white.svg"
   xmlns:inkscape="http://www.inkscape.org/namespaces/inkscape"
   xmlns:sodipodi="http://sodipodi.sourceforge.net/DTD/sodipodi-0.dtd"
   xmlns="http://www.w3.org/2000/svg"
   xmlns:svg="http://www.w3.org/2000/svg">
  <sodipodi:namedview
     id="namedview7"
     pagecolor="#ffffff"
     bordercolor="#666666"
     borderopacity="1.0"
     inkscape:pageshadow="2"
     inkscape:pageopacity="0.0"
     inkscape:pagecheckerboard="0"
     inkscape:document-units="mm"
     showgrid="false"
     fit-margin-top="0"
     fit-margin-left="0"
     fit-margin-right="0"
     fit-margin-bottom="0"
     inkscape:zoom="0.29134178"
     inkscape:cx="1007.4079"
     inkscape:cy="-310.63172"
     inkscape:window-width="2514"
     inkscape:window-height="1376"
     inkscape:window-x="46"
     inkscape:window-y="1107"
     inkscape:window-maximized="1"
     inkscape:current-layer="layer1" />
  <defs
     id="defs2" />
  <g
     inkscape:label="Layer 1"
     inkscape:groupmode="layer"
     id="layer1">
    <path
       style="fill:#ffffff;fill-opacity:1;stroke-width:0.264583"
       d="m 40.25701,169.32847 c -0.13421,-0.3437 -3.94633,-8.82752 -8.47136,-18.85294 -4.52504,-10.02541 -8.22734,-18.49588 -8.22734,-18.82325 0,-0.32738 0.18833,-0.6675 0.41851,-0.75583 0.23018,-0.0883 2.16495,-0.15847 4.29948,-0.15587 l 3.88096,0.005 5.95313,13.20037 c 3.27422,7.2602 6.03488,13.1219 6.13481,13.026 0.0999,-0.0959 2.6238,-5.99229 5.60859,-13.10309 2.98478,-7.1108 5.47698,-12.97881 5.5382,-13.04003 0.0612,-0.0612 1.36471,-0.0774 2.89663,-0.0359 l 2.78532,0.0755 -7.87423,18.78542 c -4.33082,10.33198 -8.1127,19.0783 -8.40418,19.43626 -0.4531,0.55645 -0.80293,0.66626 -2.41222,0.75719 -1.77926,0.10054 -1.89562,0.0722 -2.1263,-0.51854 z m 25.64661,0.2767 c -4.11288,-0.80623 -6.43106,-3.54989 -6.47075,-7.65837 -0.0168,-1.74152 0.0909,-2.21802 0.84988,-3.75975 1.80716,-3.67086 5.75873,-5.96826 14.8693,-8.64487 0.54221,-0.1593 0.67358,-0.38142 0.72867,-1.2321 0.037,-0.57077 -0.0897,-1.63308 -0.28146,-2.36069 -0.50019,-1.8978 -1.48601,-2.51354 -4.02428,-2.51354 -2.09287,0 -5.91841,0.86249 -8.56232,1.93041 l -1.61894,0.65392 v -2.04421 -2.04421 l 2.3151,-0.70133 c 3.79907,-1.15087 6.12175,-1.54788 9.19428,-1.57156 5.7643,-0.0444 9.21963,1.42501 10.68144,4.54243 l 0.69564,1.48351 0.0793,11.13313 c 0.0764,10.72412 0.0602,11.15667 -0.43903,11.77396 -0.49713,0.61465 -0.6706,0.64435 -4.24646,0.72697 l -3.72816,0.0861 v -1.2429 c 0,-1.23962 -0.002,-1.24176 -0.59531,-0.81401 -1.3398,0.96525 -3.27179,1.81433 -4.92626,2.16501 -1.95328,0.41402 -2.79107,0.43108 -4.52061,0.092 z m 7.79323,-5.19643 c 0.43656,-0.21769 1.12117,-0.70214 1.52135,-1.07655 l 0.7276,-0.68075 v -4.73083 -4.73083 l -0.59531,0.18038 c -1.66674,0.50502 -4.28666,2.16077 -5.47305,3.45886 -1.63249,1.78621 -2.26237,3.34755 -2.01525,4.99544 0.20335,1.35604 1.38391,2.93288 2.34164,3.12766 0.8633,0.17558 2.58977,-0.093 3.49302,-0.54338 z m 40.93553,5.19365 c -2.84381,-0.47919 -5.3155,-2.24507 -6.68945,-4.77925 l -0.90858,-1.67583 -0.0773,-10.94706 c -0.0705,-9.99079 -0.0381,-10.9904 0.37174,-11.44323 0.39788,-0.43965 0.86625,-0.49617 4.11218,-0.49617 h 3.66316 l 0.006,10.51719 c 0.005,9.70098 0.0442,10.60174 0.50054,11.60661 0.56364,1.2412 1.30789,1.84889 2.73777,2.23543 1.32588,0.35843 2.47077,-0.18915 4.03643,-1.93054 l 1.18611,-1.31925 v -10.02555 c 0,-9.67278 0.0186,-10.04417 0.52916,-10.55472 0.47877,-0.47877 0.88195,-0.52917 4.23333,-0.52917 h 3.70417 v 13.86132 c 0,13.24744 -0.0224,13.88897 -0.50518,14.48594 -0.48078,0.59445 -0.68522,0.62878 -4.23333,0.71076 l -3.72815,0.0861 v -1.34496 -1.34496 l -1.52136,1.01989 c -2.63561,1.76686 -4.79188,2.30974 -7.41707,1.8674 z m 33.33455,-0.12006 c -2.57448,-0.69296 -4.33308,-1.73796 -6.46093,-3.83927 -3.29336,-3.25227 -4.72592,-7.06037 -4.34615,-11.5531 0.23047,-2.7265 0.60933,-4.12154 1.80159,-6.63387 2.45981,-5.18329 7.58033,-8.07527 13.53333,-7.64339 6.02815,0.43733 10.07997,3.80885 11.42297,9.50506 0.21509,0.9123 0.39284,2.40286 0.39499,3.31236 l 0.004,1.65365 h -9.525 -9.525 l 0.005,0.8599 c 0.007,1.35161 0.69783,4.27383 1.27947,5.41395 0.68243,1.33767 2.34356,2.83295 3.61236,3.25169 0.5978,0.19729 1.75022,0.27977 2.87885,0.20605 2.98474,-0.19497 4.9846,-1.4514 6.6786,-4.19589 l 0.96716,-1.56695 h 2.09689 c 1.87305,0 2.08221,0.0494 1.95933,0.46302 -0.0757,0.25466 -0.21791,0.82021 -0.31613,1.25677 -0.60419,2.68563 -3.97309,6.57886 -7.14895,8.26162 -2.94212,1.5589 -6.42404,2.02571 -9.3119,1.2484 z m 6.82471,-18.98642 c 0,-1.19054 -0.5836,-3.74824 -1.07504,-4.71155 -0.94676,-1.8558 -2.94435,-2.83359 -4.77943,-2.33945 -1.89135,0.50929 -3.09875,2.65856 -3.52502,6.2748 l -0.16374,1.38906 h 4.77162 4.77161 z m 87.97395,19.13203 c -3.56506,-0.48728 -7.58418,-2.69886 -9.64685,-5.30834 -2.18066,-2.75874 -3.17745,-5.69675 -3.1823,-9.37969 -0.006,-4.3509 1.28077,-7.66634 4.16629,-10.73705 2.82384,-3.00505 6.38903,-4.46335 10.91182,-4.46335 11.77989,0 18.6934,11.12018 13.46954,21.66535 -2.90385,5.86192 -9.13683,9.12267 -15.7185,8.22308 z m 5.44235,-4.41206 c 2.43343,-2.19845 3.40204,-6.05307 2.88877,-11.49589 -0.62269,-6.60313 -3.09163,-10.55061 -6.59698,-10.54773 -3.4063,0.003 -5.57059,3.75626 -5.57059,9.6609 0,8.07122 2.79999,13.35586 7.07683,13.35665 0.92334,1.7e-4 1.31599,-0.17349 2.20197,-0.97393 z m 173.42846,4.39109 c -1.99112,-0.29876 -3.05154,-0.64337 -5.0356,-1.63643 -1.93167,-0.96683 -4.83317,-3.70963 -5.79633,-5.47931 -3.34965,-6.15438 -2.34154,-13.74621 2.46287,-18.54719 2.85515,-2.85314 6.31997,-4.21235 10.73783,-4.21235 4.32117,0 7.7194,1.31128 10.71041,4.13285 4.73609,4.46779 5.81702,11.30954 2.76627,17.50907 -2.85141,5.79443 -9.40504,9.19972 -15.84545,8.23336 z m 5.03151,-3.95656 c 1.09111,-0.67436 2.38093,-2.59377 2.91851,-4.34321 0.98089,-3.19196 0.64598,-9.69656 -0.67882,-13.18354 -1.63528,-4.30429 -5.13955,-6.16058 -7.88095,-4.17473 -1.28768,0.93279 -2.57027,3.36728 -3.00549,5.70463 -0.64899,3.48573 0.19524,9.77685 1.70974,12.74078 1.6378,3.20521 4.69638,4.64085 6.93701,3.25607 z m 20.55688,-10.33508 c -5.22153,-11.86098 -6.36328,-14.66344 -6.14228,-15.0764 0.24876,-0.46478 0.59738,-0.5071 4.16478,-0.50553 l 3.89329,0.002 3.95809,8.97545 c 2.17696,4.93649 4.02243,8.93546 4.10104,8.88658 0.0786,-0.0489 1.92889,-4.08521 4.1117,-8.96963 l 3.96875,-8.88078 2.84428,-0.008 c 1.56434,-0.004 2.84427,0.0324 2.84427,0.0812 0,0.0488 -2.9133,6.56748 -6.47401,14.48594 -4.41669,9.82205 -6.69153,14.58637 -7.15849,14.99251 -0.53962,0.46929 -1.00343,0.59428 -2.19112,0.59045 l -1.50659,-0.005 -6.41371,-14.56915 z m 31.946,14.22486 c -2.91166,-0.66722 -4.64267,-1.95994 -5.72606,-4.27621 -0.77282,-1.65229 -0.84492,-4.39893 -0.16669,-6.35 0.64188,-1.84642 3.536,-4.71799 6.09283,-6.04535 1.81739,-0.9435 8.61007,-3.34736 9.45872,-3.34736 0.30075,0 0.39502,-0.33241 0.39388,-1.38906 -0.003,-1.88071 -0.39311,-3.15477 -1.20163,-3.91433 -1.35411,-1.27212 -6.02694,-0.91683 -10.78627,0.82011 -1.17414,0.42851 -2.23631,0.77911 -2.36034,0.77911 -0.12404,0 -0.19056,-0.8632 -0.1478,-1.91823 l 0.0777,-1.91823 2.11667,-0.70209 c 6.17381,-2.04785 13.26147,-2.18662 16.85189,-0.32995 1.20796,0.62467 2.58837,1.96967 3.20588,3.12366 0.56661,1.05887 0.58148,1.33783 0.65741,12.32818 0.0427,6.18463 0.0145,11.49761 -0.0628,11.80661 -0.23318,0.93274 -1.34488,1.18143 -4.91911,1.10042 l -3.29787,-0.0747 -0.0815,-1.12665 -0.0815,-1.12665 -1.17978,0.81171 c -2.39977,1.65109 -6.08804,2.38052 -8.84375,1.74905 z m 6.77124,-4.75359 c 0.73171,-0.18979 1.76967,-0.68017 2.30664,-1.08973 l 0.97629,-0.74466 v -4.88122 -4.88121 l -0.59532,0.18014 c -2.51314,0.76045 -5.97058,3.49674 -6.88858,5.45175 -1.04172,2.21849 -0.3157,5.14153 1.46984,5.91775 1.06979,0.46506 1.11704,0.46588 2.73113,0.0472 z m 24.23687,4.62309 c -1.74385,-0.62404 -2.74614,-1.56436 -3.53552,-3.31692 -0.6005,-1.33321 -0.61328,-1.54961 -0.70179,-11.87515 l -0.0901,-10.51718 h -2.09555 -2.09553 v -1.7198 -1.71979 h 2.11667 2.11666 v -4.10104 c 0,-5.40674 -0.22833,-5.15937 4.7625,-5.15937 h 3.70417 v 4.6302 4.63021 h 3.43958 3.43959 v 1.71979 1.7198 h -3.43959 -3.43958 v 9.67468 c 0,11.30485 -0.0183,11.21481 2.2828,11.22335 1.17269,0.004 2.69597,-0.53395 3.86876,-1.36715 l 0.72761,-0.51692 v 2.07878 2.07879 l -1.42481,0.86351 c -3.307,2.00426 -6.94642,2.6366 -9.63583,1.67421 z m 43.47209,0.21875 c -6.01011,-0.83404 -10.96451,-5.11001 -12.42716,-10.72546 -0.47225,-1.81306 -0.53012,-5.57307 -0.1167,-7.58275 0.49784,-2.4202 2.14032,-5.46995 3.90533,-7.25147 2.83961,-2.86617 6.51152,-4.34031 10.79338,-4.33316 4.47508,0.007 8.17981,1.46253 11.1089,4.36311 2.74963,2.72284 4.13965,6.17037 4.12195,10.22338 -0.0119,2.72467 -0.4004,4.35554 -1.67617,7.03626 -2.75338,5.78567 -9.19101,9.17469 -15.70953,8.27009 z m 4.79801,-3.94605 c 1.09998,-0.67074 2.12797,-2.05489 2.80451,-3.77622 1.11376,-2.8337 0.9167,-10.185 -0.36497,-13.61569 -1.86373,-4.98861 -5.87211,-6.64877 -8.74395,-3.62148 -3.58841,3.78268 -3.15807,15.02059 0.75319,19.66887 1.43449,1.70479 3.95803,2.316 5.55122,1.34452 z M 91.556221,148.34565 v -21.01937 l 0.58804,-0.41188 c 0.460539,-0.32258 1.349716,-0.41188 4.101041,-0.41188 h 3.513006 l -0.004,20.83594 c -0.002,11.45976 -0.0915,20.96694 -0.19844,21.12706 -0.47021,0.70419 -1.48528,0.8995 -4.674913,0.8995 h -3.324686 z m 96.768629,20.8623 c -0.10764,-0.10764 -0.19571,-5.89086 -0.19571,-12.85161 v -12.6559 h -2.64584 -2.64583 v -1.7198 -1.71979 h 2.64583 2.64584 v -2.10364 c 0,-1.15701 0.13002,-2.70993 0.28894,-3.45096 0.95694,-4.46204 6.78312,-7.1827 13.64776,-6.3731 4.05882,0.47868 3.79038,0.30446 3.79038,2.46007 0,1.78794 -0.0206,1.84698 -0.59531,1.70475 -1.66411,-0.41186 -4.20314,-0.68468 -4.99458,-0.53667 -2.64086,0.49386 -3.65584,2.11468 -3.66472,5.85216 l -0.006,2.44739 h 3.43959 3.43958 v 1.71979 1.7198 h -3.43958 -3.43959 v 12.14152 c 0,11.55488 -0.0244,12.1717 -0.50518,12.76615 -0.47801,0.59102 -0.69517,0.62921 -4.03762,0.71008 -1.94285,0.047 -3.62051,-0.003 -3.72815,-0.11024 z m 19.38345,-13.93713 c 0,-13.35697 0.0266,-14.15828 0.48386,-14.57208 0.40056,-0.36251 1.1065,-0.43789 4.10104,-0.43789 h 3.61719 v 1.17274 1.17273 l 1.31917,-0.88774 c 2.16505,-1.45697 4.06965,-2.06275 6.49078,-2.06447 1.58024,-0.001 2.4408,0.13977 3.37344,0.55232 l 1.25202,0.55383 v 3.32217 c 0,1.8272 -0.0621,3.32217 -0.13796,3.32217 -0.0759,0 -0.5819,-0.2891 -1.12448,-0.64245 -1.64166,-1.0691 -3.56804,-1.55938 -5.56547,-1.41647 -1.88075,0.13457 -3.00129,0.58441 -4.61532,1.85282 l -0.99218,0.77974 v 10.11365 c 0,8.30948 -0.0669,10.20528 -0.37498,10.62725 -0.33472,0.45843 -0.77513,0.52284 -4.10105,0.59973 l -3.72606,0.0861 z m 57.67917,0.0913 c 0,-13.69014 0.0132,-14.05621 0.52916,-14.57208 0.47877,-0.47877 0.88194,-0.52917 4.23334,-0.52917 h 3.70416 v 1.05333 1.05333 l 1.65365,-0.90103 c 2.51894,-1.37249 4.37851,-1.81577 7.05159,-1.68091 2.65457,0.13392 4.821,1.03036 6.15106,2.54522 l 0.7973,0.90807 0.72215,-0.53391 c 2.41893,-1.78838 5.95887,-2.97338 8.8814,-2.97305 2.46557,2.6e-4 4.55279,0.95543 6.27597,2.87202 2.17691,2.42123 2.17215,2.39064 2.27245,14.61041 0.0849,10.34 0.069,10.7594 -0.43066,11.37708 -0.50382,0.62282 -0.62439,0.64132 -4.18071,0.64132 h -3.66191 l -0.13229,-11.12461 c -0.14473,-12.16976 -0.1115,-11.92301 -1.74998,-12.99658 -0.59523,-0.39002 -0.84333,-0.4058 -1.90704,-0.1213 -1.36205,0.36428 -2.62498,1.08019 -3.93552,2.23085 l -0.87413,0.7675 v 10.13984 10.13985 l -0.69715,0.54837 c -0.62629,0.49264 -1.05648,0.54837 -4.23333,0.54837 h -3.53618 l -0.003,-10.64948 c 0,-6.44758 -0.10835,-11.03425 -0.27231,-11.62466 -0.38896,-1.40044 -1.69071,-2.42604 -2.84207,-2.2392 -1.26402,0.20512 -2.95447,1.07215 -4.24632,2.17793 l -1.10448,0.9454 v 10.00423 c 0,9.45142 -0.0279,10.03876 -0.50517,10.62887 -0.4808,0.59445 -0.68524,0.62878 -4.23333,0.71076 l -3.72817,0.0861 v -14.04292 z m 64.29374,-4.7825 c 0,-18.43264 0.0101,-18.79535 0.52917,-19.31458 0.48212,-0.48213 0.88193,-0.52917 4.49791,-0.52917 h 3.96875 v 18.76622 18.76621 l -0.69715,0.54837 c -0.63177,0.49697 -1.05338,0.54837 -4.49791,0.54837 h -3.80077 z m 17.05033,18.44413 c -0.072,-0.18771 -0.0981,-6.5672 -0.0578,-14.17666 0.0705,-13.34535 0.0913,-13.84866 0.58672,-14.21079 0.38478,-0.28126 1.43002,-0.37543 4.16719,-0.37543 h 3.6536 v 1.05333 1.05333 l 1.65365,-0.90798 c 3.46863,-1.90454 7.3692,-2.27985 10.12031,-0.97377 1.82861,0.86813 3.61159,2.6654 4.45534,4.49111 0.55243,1.1953 0.57441,1.60938 0.6512,12.25379 l 0.0795,11.01668 -0.7198,0.5662 c -0.66492,0.52302 -0.9838,0.56061 -4.18052,0.4927 l -3.46067,-0.0735 -0.13229,-11.1125 c -0.11676,-9.80696 -0.18524,-11.20915 -0.58283,-11.93513 -1.12823,-2.05998 -3.42834,-1.75699 -6.75936,0.8904 l -1.12448,0.8937 -0.004,10.1026 c -0.003,5.55643 -0.0915,10.2336 -0.19844,10.39372 -0.47048,0.70458 -1.48529,0.8995 -4.6832,0.8995 -2.47732,0 -3.36661,-0.0876 -3.46398,-0.34129 z m 31.633,-13.66163 c 0,-13.69014 0.0132,-14.05621 0.52917,-14.57208 0.47876,-0.47877 0.88193,-0.52917 4.23333,-0.52917 h 3.70417 v 1.05333 1.05333 l 1.65364,-0.90798 c 2.1072,-1.157 4.31136,-1.7279 6.67018,-1.72763 3.37539,2.6e-4 6.20903,1.89018 7.73578,5.15916 l 0.74144,1.5875 0.082,10.73281 c 0.0791,10.34814 0.0634,10.75589 -0.43903,11.37708 -0.50061,0.61895 -0.66765,0.64767 -4.24923,0.73042 l -3.72816,0.0861 -0.003,-10.66948 c 0,-6.46122 -0.10829,-11.05411 -0.27231,-11.64466 -0.38896,-1.40044 -1.69071,-2.42604 -2.84207,-2.2392 -1.26402,0.20512 -2.95447,1.07215 -4.24633,2.17793 l -1.10448,0.9454 v 10.00423 c 0,9.45142 -0.0279,10.03876 -0.50516,10.62887 -0.4808,0.59445 -0.68525,0.62878 -4.23334,0.71076 l -3.72816,0.0861 v -14.04292 z m 148.43125,-0.13339 c 0,-12.49841 0.0482,-14.18448 0.41576,-14.55208 0.33819,-0.33818 1.10358,-0.41578 4.10105,-0.41578 h 3.68527 l -0.004,13.95677 c -0.003,7.67623 -0.0915,14.08778 -0.19844,14.2479 -0.47021,0.70419 -1.48526,0.8995 -4.67492,0.8995 h -3.32467 v -14.13631 z m 49.47708,0.0421 c 0,-13.35697 0.0266,-14.15828 0.48384,-14.57208 0.40233,-0.3641 1.11572,-0.43789 4.23334,-0.43789 h 3.74949 v 1.09073 c 0,0.85874 0.0724,1.03069 0.34017,0.80841 0.71498,-0.59339 3.55645,-1.84415 4.91088,-2.16169 2.26819,-0.53176 5.20935,-0.24597 6.89165,0.66966 1.78964,0.97404 3.30121,2.68906 3.98807,4.52484 0.50906,1.3606 0.53797,2.02594 0.53797,12.37579 0,9.84168 -0.0438,10.97428 -0.43658,11.30101 -0.31113,0.25877 -1.48971,0.38789 -4.10105,0.44927 l -3.66445,0.0861 -0.003,-10.53719 c 0,-6.78084 -0.10417,-10.90703 -0.28954,-11.57467 -0.1584,-0.57061 -0.63923,-1.38867 -1.06844,-1.8179 -0.6912,-0.69117 -0.90289,-0.76083 -1.85142,-0.60915 -1.29278,0.20673 -2.64343,0.87333 -4.06516,2.00637 l -1.05834,0.84343 -0.13229,10.28625 c -0.12102,9.41083 -0.17243,10.32644 -0.60402,10.75841 -0.39822,0.39861 -1.04732,0.48558 -4.16718,0.5583 l -3.69547,0.0861 v -14.1342 z m -46.96354,-18.04124 c -3.47081,-1.26637 -3.9942,-6.17254 -0.8623,-8.08288 4.20272,-2.56351 8.9336,2.33649 6.18857,6.40982 -1.12191,1.66482 -3.39336,2.37831 -5.32627,1.67306 z M 118.54372,103.85904 c -0.50932,-0.0581 -2.23573,-0.23552 -3.83646,-0.39435 -12.10663,-1.20126 -21.880806,-5.381813 -26.992593,-11.5451 -1.858584,-2.2409 -3.617277,-5.79715 -4.561847,-9.2245 l -0.72398,-2.62695 -0.078,-37.96771 C 82.30794,21.2182 82.34384,3.74323 82.42964,3.26717 82.68282,1.86984 83.95306,0.64648 85.493859,0.31604 86.313869,0.14018 90.85029,0.03168 97.383641,0.03168 h 10.563899 l 0.0758,41.07657 c 0.0702,38.03689 0.10968,41.18947 0.53337,42.60236 1.43271,4.77758 3.9749,7.08649 9.5901,8.7101 1.86348,0.53881 2.68633,0.6119 6.87916,0.61102 5.48742,-10e-4 7.1086,-0.30996 10.6306,-2.02502 2.51701,-1.22567 4.27593,-2.92797 5.27088,-5.10124 1.45729,-3.18313 1.42873,-2.31787 1.42873,-43.28612 0,-25.95247 0.0891,-38.21467 0.28435,-39.12501 0.33774,-1.57483 1.54106,-2.79198 3.08343,-3.11888 0.54882,-0.11631 5.81988,-0.21148 11.71347,-0.21148 h 10.71562 v 39.15833 c 0,36.63728 -0.0306,39.30868 -0.47534,41.49365 -1.03201,5.07022 -3.06417,9.23474 -6.11239,12.5262 -6.65473,7.18574 -16.93112,10.30504 -34.68726,10.52901 -4.07459,0.0514 -7.82506,0.0459 -8.33438,-0.0121 z m 65.91962,-0.10885 c -3.46522,-0.25138 -4.79854,-0.46711 -5.26389,-0.85166 -0.24123,-0.19935 -0.33073,-1.50794 -0.33073,-4.835703 V 93.50044 l 9.06198,-0.14951 c 12.12228,-0.19999 16.09033,-0.77515 20.17104,-2.92374 3.1,-1.63222 5.72311,-5.05975 6.91542,-9.03613 0.44572,-1.48649 0.48508,-4.01181 0.61847,-39.6875 0.15653,-41.86087 0.0458,-39.24152 1.71406,-40.55376 1.30935,-1.02993 2.89085,-1.15243 13.77424,-1.06691 l 10.31875,0.0811 0.078,32.54375 c 0.0966,40.29036 -0.0297,43.03117 -2.29468,49.77004 -1.36572,4.06342 -2.86243,6.56055 -5.76353,9.61593 -6.14642,6.473297 -13.04264,9.58626 -24.96046,11.2672 -3.52392,0.49703 -19.08084,0.74897 -24.03871,0.38929 z M 0.07151,54.20512 0.14271,7.8368897 0.73018,6.1171 C 1.72504,3.20472 3.45452,1.70488 7.04169,0.64364 8.4870099,0.21605 10.92756,0.17323 38.30886,0.09507 l 29.69947,-0.0848 v 5.15117 c 0,4.3301097 -0.0663,5.21745 -0.41577,5.56695 -0.36963,0.36963 -2.37365,0.41594 -18.05781,0.41725 -11.93182,10e-4 -17.98459,0.0951 -18.70037,0.29057 -1.50909,0.41221 -2.62873,1.35227 -3.34636,2.80961 l -0.62239,1.26397 -0.0772,13.82448 -0.0772,13.82448 h 19.59024 19.59025 v 5.40895 c 0,5.28953 -0.013,5.41805 -0.58804,5.82084 -0.51896,0.36349 -2.81893,0.41188 -19.57917,0.41188 H 26.73339 l -0.002,20.83593 c -0.001,13.32968 -0.0986,21.18554 -0.27101,21.80636 -0.32686,1.176817 -1.73302,2.472257 -3.09372,2.85013 -0.62444,0.17341 -5.19548,0.2781 -12.1831,0.27902 L 0,100.57286 Z M 264.8583,77.68689 V 54.80044 h 12.83229 12.83229 v 21.3651 c 0,24.21469 0.13507,22.682307 -2.10616,23.812497 -1.16875,0.589363 -1.29233,0.595313 -12.36927,0.595313 H 264.85872 V 77.68689 Z m 52.12291,0.0139 V 54.80741 l -8.98776,-0.0696 -8.98774,-0.0696 4.95284,-3.88963 c 2.72407,-2.13929 6.73881,-5.29878 8.92162,-7.0211 l 3.96875,-3.13147 0.1578,-16.26223 c 0.10861,-11.19494 0.25495,-16.6199503 0.46963,-17.41022 0.95369,-3.51081 3.135,-5.49761 7.06954,-6.43913 0.94149,-0.22529 9.43403,-0.33713 30.86605,-0.40647 l 29.56719,-0.0957 v 5.28578 c 0,3.9380797 -0.0843,5.34036 -0.33073,5.49984 -0.1819,0.11773 -8.55552,0.27358 -18.60804,0.34634 l -18.27729,0.13229 -1.27791,0.79375 c -0.79496,0.49378 -1.48696,1.19371 -1.83105,1.85209 -0.53803,1.02949 -0.55509,1.44232 -0.62597,15.14739 l -0.0729,14.08907 h 19.45359 19.4536 v 5.40505 c 0,4.56092 -0.0649,5.47 -0.41577,5.82084 -0.37028,0.37027 -2.49769,0.41578 -19.43639,0.41578 h -19.02061 l -0.0767,20.96822 -0.0766,20.96823 -0.66146,1.309067 c -0.47585,0.94175 -0.95843,1.46143 -1.71979,1.85208 -1.01298,0.519763 -1.55993,0.546303 -12.76615,0.619563 l -11.70781,0.0765 V 77.70076 Z m 83.34375,-25.58435 c 0,-48.40883 0,-48.47971 0.54507,-49.60407 0.40841,-0.84367 0.85616,-1.27921 1.78593,-1.73718 1.22727,-0.60451 1.36203,-0.61212 12.28723,-0.69319 L 425.98954,0 l -0.006,48.63302 c -0.006,47.20332 -0.0206,48.66555 -0.50837,49.739937 -0.95017,2.092863 -0.72583,2.057753 -13.70716,2.144823 l -11.44323,0.0767 z m 60.45729,48.06526 c -5.19912,-0.965383 -8.23288,-3.39003 -9.72034,-7.76869 L 450.4635,90.65148 450.3927,47.4376 c -0.0476,-29.07643 0.0185,-43.54544 0.20212,-44.22739 0.37031,-1.3752 1.73545,-2.52355 3.4327,-2.88754 0.85503,-0.18337 5.16631,-0.29099 11.65775,-0.29099 h 10.30097 l 0.0709,42.00261 0.0709,42.0026 0.60886,1.32292 c 0.79571,1.72886 1.92267,2.86438 3.59317,3.62043 l 1.35422,0.6129 14.63416,0.0767 14.63415,0.0767 -0.0821,5.03831 c -0.0754,4.629147 -0.12377,5.068777 -0.59566,5.41338 -0.72466,0.52919 -46.63619,0.5138 -49.49266,-0.0166 z m 62.37067,-47.96095 0.071,-48.35261 0.66479,-1.1873 c 0.43755,-0.78145 1.07061,-1.41453 1.85209,-1.85208 l 1.18729,-0.66478 12.61155,-0.0802 c 11.96165,-0.0761 12.61906,-0.0556 12.75694,0.39687 0.0799,0.2624 3.89747,17.37153 8.48336,38.02029 4.58591,20.64876 8.40007,37.60524 8.4759,37.68108 0.36121,0.36121 -0.0238,1.93278 12.42126,-50.69057 3.04062,-12.8571 4.8723,-20.09531 5.29767,-20.93472 0.35759,-0.70565 1.20896,-1.77489 1.89193,-2.37608 2.3101,-2.03342 1.9108,-1.99178 20.01607,-2.08722 l 16.07344,-0.0847 -0.003,47.96723 c 0,32.65518 -0.0901,48.28627 -0.279,48.96665 -0.15266,0.54969 -0.63944,1.411597 -1.08177,1.915377 -1.42018,1.617513 -2.19081,1.715413 -13.50243,1.715413 H 600.08386 V 59.69528 18.81715 h -0.73511 -0.7351 l -9.60128,38.03386 c -5.31704,21.06255 -9.90531,38.71409 -10.28263,39.55833 -0.37476,0.83846 -1.1358,1.935027 -1.69122,2.436817 -1.76514,1.594703 -2.81101,1.744713 -11.6101,1.665173 l -7.76787,-0.0702 -10.45356,-40.81198 -10.45353,-40.81198 h -0.74316 -0.74316 l -0.0687,40.37235 -0.0687,40.372357 -0.62463,0.505773 c -0.56938,0.46105 -1.10209,0.50577 -6.02408,0.50577 h -5.39907 z M 264.91799,28.71968 c 0.0713,-24.92677 0.0822,-25.39727 0.60783,-26.30675 0.31697,-0.54841 1.01415,-1.1688 1.70971,-1.52135 1.16229,-0.58913 1.28937,-0.59531 12.23092,-0.59531 h 11.05643 v 16.38694 c 0,9.45595 -0.10401,16.66054 -0.24593,17.0338 -0.15103,0.3972 -4.92496,4.30092 -12.36927,10.11453 -6.66784,5.20721 -12.33461,9.64793 -12.59281,9.86825 -0.44916,0.38326 -0.46633,-0.6971 -0.39688,-24.98011 z"
       id="path467" />
  </g>
</svg>
