<?xml version="1.0" encoding="UTF-8" standalone="no"?>
<svg
   xmlns:dc="http://purl.org/dc/elements/1.1/"
   xmlns:cc="http://creativecommons.org/ns#"
   xmlns:rdf="http://www.w3.org/1999/02/22-rdf-syntax-ns#"
   xmlns:svg="http://www.w3.org/2000/svg"
   xmlns="http://www.w3.org/2000/svg"
   xmlns:xlink="http://www.w3.org/1999/xlink"
   xmlns:sodipodi="http://sodipodi.sourceforge.net/DTD/sodipodi-0.dtd"
   xmlns:inkscape="http://www.inkscape.org/namespaces/inkscape"
   width="999.992"
   height="400.00195"
   version="1.1"
   id="svg10"
   sodipodi:docname="ibm.svg"
   inkscape:version="0.92.3 (2405546, 2018-03-11)">
  <metadata
     id="metadata16">
    <rdf:RDF>
      <cc:Work
         rdf:about="">
        <dc:format>image/svg+xml</dc:format>
        <dc:type
           rdf:resource="http://purl.org/dc/dcmitype/StillImage" />
        <dc:title></dc:title>
      </cc:Work>
    </rdf:RDF>
  </metadata>
  <defs
     id="defs14" />
  <sodipodi:namedview
     pagecolor="#ffffff"
     bordercolor="#666666"
     borderopacity="1"
     objecttolerance="10"
     gridtolerance="10"
     guidetolerance="10"
     inkscape:pageopacity="0"
     inkscape:pageshadow="2"
     inkscape:window-width="1910"
     inkscape:window-height="782"
     id="namedview12"
     showgrid="false"
     fit-margin-top="0"
     fit-margin-left="0"
     fit-margin-right="0"
     fit-margin-bottom="0"
     inkscape:pagecheckerboard="true"
     inkscape:zoom="0.756"
     inkscape:cx="538.82408"
     inkscape:cy="187.75906"
     inkscape:window-x="3115"
     inkscape:window-y="481"
     inkscape:window-maximized="0"
     inkscape:current-layer="svg10" />
  <clipPath
     id="b">
    <path
       d="M 0,-1 V 82 H 55.937 V 318 H 1.523 v 82 h 194.65 V 318 H 140.235 V 82 h 54.414 V -1 Z m 554.02,1 v 82 h 55.938 v 236 h -54.414 v 82 h 138.71 V 171.84 l 82.656,228.08 1.68,0.04 81.172,-228.12 V 400 h 140.23 V 318 H 944.054 V 82 h 54.415 V 0 H 842.139 L 777.413,182.89 711.866,0 Z"
       id="path2"
       inkscape:connector-curvature="0" />
    <path
       id="a"
       d="m 222.23,0 v 82 h 55.937 v 130 h 215.31 v -24.928 c 0,0 18.011,-14.042 23.75,-27.367 L 528.75,133.85 c 0,0 5.352,-14.472 5.352,-27.405 L 531.797,80.59 c 0,0 -3.616,-21.063 -9.922,-27.328 L 499.609,27.367 C 499.609,27.367 471.276,0 433.75,0 Z m 140.23,82 h 81.992 v 76 H 362.46 Z"
       inkscape:connector-curvature="0" />
    <use
       transform="matrix(1,0,0,-1,0,400)"
       xlink:href="#a"
       id="use5"
       x="0"
       y="0"
       width="100%"
       height="100%" />
  </clipPath>
  <path
     style="color:#000000;font-style:normal;font-variant:normal;font-weight:normal;font-stretch:normal;font-size:medium;line-height:normal;font-family:sans-serif;font-variant-ligatures:normal;font-variant-position:normal;font-variant-caps:normal;font-variant-numeric:normal;font-variant-alternates:normal;font-feature-settings:normal;text-indent:0;text-align:start;text-decoration:none;text-decoration-line:none;text-decoration-style:solid;text-decoration-color:#000000;letter-spacing:normal;word-spacing:normal;text-transform:none;writing-mode:lr-tb;direction:ltr;text-orientation:mixed;dominant-baseline:auto;baseline-shift:baseline;text-anchor:start;white-space:normal;shape-padding:0;clip-rule:nonzero;display:inline;overflow:visible;visibility:visible;opacity:1;isolation:auto;mix-blend-mode:normal;color-interpolation:sRGB;color-interpolation-filters:linearRGB;solid-color:#000000;solid-opacity:1;vector-effect:none;fill:#ffffff;fill-opacity:1;fill-rule:nonzero;stroke:none;stroke-width:27.37000084;stroke-linecap:butt;stroke-linejoin:miter;stroke-miterlimit:4;stroke-dasharray:none;stroke-dashoffset:0;stroke-opacity:1;color-rendering:auto;image-rendering:auto;shape-rendering:auto;text-rendering:auto;enable-background:accumulate"
     d="M 0,-0.00195313 V 27.367188 H 1016.3145 V 53.230469 H 0 v 27.36914 H 1043.6855 V -0.00195313 Z M 0,106.46289 v 27.36914 h 961.31445 v 25.87109 H -13.685547 v 80.59376 H 961.31445 v 25.85156 H 0 v 27.36914 h 988.68555 v -80.5918 H 13.685547 V 187.07422 H 988.68555 v -80.61133 z m 0,212.92773 v 27.36915 h 1016.3145 v 25.87304 H 0 v 27.36914 h 1043.6855 v -80.61133 z"
     clip-path="url(#b)"
     id="path8"
     inkscape:connector-curvature="0"
     transform="translate(0,0.00195313)" />
</svg>
