<?xml version="1.0" standalone="no"?>
<!DOCTYPE svg PUBLIC "-//W3C//DTD SVG 20010904//EN"
 "http://www.w3.org/TR/2001/REC-SVG-20010904/DTD/svg10.dtd">
<svg version="1.0" xmlns="http://www.w3.org/2000/svg"
 width="3456.000000pt" height="864.000000pt" viewBox="0 0 3456.000000 864.000000"
 preserveAspectRatio="xMidYMid meet">

<g transform="translate(0.000000,864.000000) scale(0.100000,-0.100000)"
fill="#ffffff" stroke="none">
<path d="M0 7520 l0 -170 17280 0 17280 0 0 170 0 170 -17280 0 -17280 0 0
-170z"/>
<path d="M27642 6020 c-71 -36 -129 -100 -157 -174 -23 -59 -17 -205 9 -255
28 -53 96 -121 151 -149 43 -23 62 -27 140 -27 109 0 161 20 230 90 69 68 90
122 90 225 0 100 -23 161 -83 223 -69 72 -114 91 -222 95 -90 3 -98 2 -158
-28z"/>
<path d="M9070 5993 c-67 -7 -205 -45 -268 -74 -180 -81 -320 -234 -379 -413
-24 -73 -27 -99 -31 -271 l-4 -190 -139 3 -139 4 0 -106 0 -106 140 0 140 0 0
-752 c0 -416 -5 -771 -10 -792 -18 -78 -75 -122 -171 -132 -97 -10 -99 -11
-99 -49 l0 -35 580 0 580 0 0 35 c0 30 -4 35 -22 35 -127 2 -226 48 -247 112
-19 63 -20 107 -21 838 l-1 735 146 3 146 3 -3 102 -3 102 -139 2 c-76 2 -141
4 -143 7 -2 2 -5 161 -6 352 -2 342 -2 350 20 390 26 49 58 71 104 74 52 3 55
2 88 -26 35 -29 39 -59 19 -155 -16 -79 -1 -126 58 -177 54 -49 120 -67 208
-59 148 14 249 109 248 234 -1 72 -31 131 -98 192 -61 56 -130 86 -244 107
-69 12 -227 16 -310 7z"/>
<path d="M10123 5986 c-89 -29 -167 -99 -206 -185 -30 -66 -30 -198 0 -263 26
-57 96 -129 155 -159 62 -32 188 -38 260 -13 75 27 168 120 193 193 24 73 17
199 -14 259 -30 60 -96 123 -155 151 -62 29 -173 37 -233 17z"/>
<path d="M13702 5982 c-266 -96 -298 -462 -51 -597 69 -37 177 -46 264 -20 48
13 70 28 120 78 79 79 99 134 93 251 -5 88 -19 124 -73 192 -76 94 -237 137
-353 96z"/>
<path d="M19360 5605 l0 -385 34 0 c34 0 35 1 46 58 45 216 171 417 306 485
92 47 156 58 357 64 l187 6 -2 -1219 -3 -1219 -31 -55 c-45 -80 -107 -110
-254 -123 l-110 -10 0 -33 0 -34 745 0 745 0 0 34 0 33 -114 10 c-125 12 -194
39 -241 95 -50 60 -49 25 -53 1311 l-3 1207 158 0 c285 -1 372 -27 499 -154
83 -83 133 -177 185 -348 l33 -108 33 0 33 0 0 385 0 385 -1275 0 -1275 0 0
-385z"/>
<path d="M2860 5545 l0 -385 45 0 c40 0 45 2 45 23 0 34 38 164 68 232 55 127
150 238 244 286 92 47 169 60 330 57 l142 -3 31 -49 30 -49 0 -1146 c0 -1220
1 -1194 -48 -1255 l-24 -29 -132 2 c-150 3 -251 23 -332 68 -70 38 -157 135
-206 229 -42 80 -93 235 -93 281 0 22 -3 24 -42 21 l-43 -3 0 -380 0 -380
1275 0 1275 0 0 380 0 380 -42 3 c-34 2 -43 0 -43 -13 0 -27 -71 -238 -100
-296 -71 -141 -213 -254 -350 -279 -30 -5 -114 -11 -186 -12 -120 -3 -134 -1
-154 17 -59 53 -55 -26 -55 1235 0 1249 -2 1200 55 1255 l29 27 169 -4 169 -3
78 -39 c54 -26 98 -59 142 -103 88 -88 134 -185 209 -440 2 -8 20 -13 44 -13
l40 0 0 385 0 385 -1285 0 -1285 0 0 -385z"/>
<path d="M26531 5729 c-153 -258 -375 -500 -628 -687 -87 -63 -92 -69 -92
-104 l-1 -38 130 0 130 0 0 -642 c0 -354 4 -682 9 -730 13 -114 45 -183 128
-266 46 -45 86 -74 141 -100 72 -34 83 -36 198 -40 136 -5 197 8 295 60 97 51
214 185 262 300 l16 37 -31 20 -31 19 -25 -36 c-64 -95 -123 -144 -194 -163
-41 -11 -48 -10 -89 12 -32 18 -51 37 -69 74 l-25 50 -3 703 -3 702 235 0 236
0 0 100 0 100 -235 0 -235 0 0 360 0 360 -32 0 c-31 0 -37 -6 -87 -91z"/>
<path d="M15223 5727 c-14 -23 -39 -64 -56 -92 -131 -213 -375 -477 -584 -635
-109 -82 -113 -86 -113 -122 l0 -38 130 0 130 0 0 -672 c0 -415 4 -697 10
-737 14 -85 51 -153 122 -227 97 -101 222 -154 369 -154 80 0 202 30 272 67
80 42 184 154 236 252 l44 84 -29 24 c-16 12 -32 23 -35 23 -4 0 -21 -22 -39
-49 -61 -96 -141 -151 -219 -151 -33 0 -48 7 -80 38 -67 64 -64 20 -62 915 l1
587 230 0 230 0 0 105 0 105 -230 -3 -230 -2 -2 360 -3 360 -33 2 c-28 1 -36
-4 -59 -40z"/>
<path d="M22580 5146 c-130 -23 -232 -55 -338 -107 -86 -42 -118 -64 -182
-127 -75 -75 -127 -156 -144 -226 -12 -50 -8 -152 8 -190 22 -53 98 -122 162
-145 61 -23 164 -28 226 -11 53 15 119 68 148 120 19 35 25 59 25 110 0 70
-16 106 -90 198 -46 58 -53 87 -29 131 36 66 189 121 298 106 91 -12 188 -79
217 -150 8 -20 14 -106 17 -251 l4 -220 -134 -63 c-182 -85 -429 -218 -546
-294 -181 -118 -292 -244 -333 -378 -30 -98 -25 -241 12 -319 33 -70 103 -141
176 -177 81 -39 224 -45 337 -14 130 36 265 112 413 233 l72 59 7 -28 c33
-152 100 -231 229 -268 45 -13 84 -16 170 -13 98 4 118 8 176 35 71 33 181
129 236 206 30 41 31 45 15 59 -34 30 -42 30 -77 -1 -65 -57 -123 -51 -152 17
-15 32 -17 116 -23 667 -7 709 -5 685 -84 793 -84 114 -209 198 -351 238 -80
22 -361 28 -465 10z m320 -1235 l0 -329 -37 -30 c-91 -71 -189 -102 -264 -82
-61 16 -100 48 -133 110 -25 46 -28 59 -25 128 6 118 45 190 173 317 85 84
252 213 279 214 4 1 7 -147 7 -328z"/>
<path d="M24720 5145 c-159 -34 -280 -97 -395 -206 -154 -146 -261 -347 -316
-594 -9 -39 -14 -127 -14 -255 0 -214 12 -286 75 -447 68 -178 226 -372 370
-456 114 -66 204 -89 371 -95 126 -4 157 -1 230 17 236 60 430 212 563 442
l27 47 -31 24 -30 24 -63 -59 c-128 -119 -230 -167 -357 -167 -261 0 -451 208
-550 605 -68 271 -65 590 9 786 49 131 132 209 221 209 101 0 161 -83 181
-250 21 -181 66 -274 156 -327 44 -25 57 -28 143 -28 85 0 100 3 141 27 86 51
127 144 116 266 -18 186 -196 367 -422 428 -83 22 -338 28 -425 9z"/>
<path d="M29260 5145 c-159 -34 -280 -97 -395 -206 -154 -146 -261 -347 -316
-594 -9 -39 -14 -127 -14 -255 0 -214 12 -286 75 -447 68 -178 226 -372 370
-456 114 -66 204 -89 371 -95 126 -4 157 -1 230 17 236 60 430 212 563 442
l27 47 -31 24 -30 24 -63 -59 c-128 -119 -230 -167 -357 -167 -261 0 -451 208
-550 605 -68 271 -65 590 9 786 49 131 132 209 221 209 101 0 161 -83 181
-250 21 -181 66 -274 156 -327 44 -25 57 -28 143 -28 85 0 100 3 141 27 86 51
127 144 116 266 -18 186 -196 367 -422 428 -83 22 -338 28 -425 9z"/>
<path d="M30862 5140 c-103 -27 -167 -64 -243 -141 -215 -219 -235 -548 -48
-796 62 -83 194 -191 483 -394 223 -157 286 -234 286 -349 0 -70 -26 -127 -76
-168 -49 -41 -101 -55 -180 -50 -126 8 -298 122 -399 262 -42 59 -111 192
-133 256 -9 26 -16 30 -46 30 -22 0 -36 -5 -36 -12 0 -7 7 -146 15 -308 8
-162 15 -314 15 -337 0 -42 1 -43 35 -43 28 0 37 6 49 28 18 34 54 68 83 76
14 5 59 -6 125 -29 162 -57 251 -75 363 -75 125 0 206 19 306 71 229 119 365
407 319 678 -20 120 -76 219 -185 326 -85 84 -141 127 -447 344 -224 159 -284
230 -276 323 7 69 45 120 113 153 50 25 63 27 123 22 130 -12 276 -110 365
-245 25 -37 68 -113 96 -169 51 -102 52 -103 87 -103 l36 0 -6 48 c-3 26 -11
174 -17 330 l-13 282 -34 0 c-28 0 -42 -9 -81 -50 -59 -63 -84 -64 -197 -10
-46 22 -112 47 -147 55 -88 21 -245 18 -335 -5z"/>
<path d="M7015 5099 c-149 -29 -269 -95 -404 -225 l-80 -76 -3 123 -3 124
-398 3 -398 2 3 -42 c3 -40 5 -43 41 -50 59 -12 115 -46 132 -79 29 -56 35
-192 34 -844 0 -639 -5 -738 -34 -795 -17 -32 -105 -80 -147 -80 -26 0 -28 -3
-28 -40 l0 -40 495 0 495 0 0 39 c0 37 -2 39 -38 45 -47 7 -103 43 -119 76
-28 59 -33 169 -33 738 l0 583 39 57 c75 111 172 183 263 197 60 9 106 -6 148
-49 60 -63 61 -79 65 -706 4 -609 -1 -743 -30 -803 -21 -45 -76 -85 -127 -93
-36 -6 -38 -8 -38 -45 l0 -39 501 0 500 0 -3 37 c-3 35 -5 37 -56 49 -67 14
-101 39 -127 90 -19 37 -20 65 -26 674 -6 654 -11 734 -50 847 -53 155 -203
290 -351 317 -68 12 -172 15 -223 5z"/>
<path d="M12244 5099 c-136 -17 -274 -92 -413 -225 l-80 -76 -3 123 -3 124
-397 3 -398 3 0 -46 c0 -42 2 -45 28 -45 46 0 129 -45 147 -79 29 -58 34 -175
35 -811 0 -619 -6 -768 -31 -823 -15 -34 -68 -67 -129 -83 -42 -10 -45 -13
-48 -48 l-3 -36 495 0 496 0 0 39 c0 37 -2 39 -37 45 -51 8 -99 39 -117 74
-31 60 -36 157 -36 740 l0 583 39 57 c100 148 241 227 344 193 52 -18 102 -78
117 -142 16 -65 24 -1205 10 -1312 -5 -37 -17 -83 -26 -103 -20 -43 -76 -82
-126 -90 -36 -6 -38 -8 -38 -45 l0 -39 501 0 500 0 -3 37 c-3 36 -5 38 -46 45
-89 15 -136 60 -152 148 -6 33 -10 253 -10 561 0 523 -9 754 -36 855 -52 200
-207 345 -399 374 -71 10 -88 10 -181 -1z"/>
<path d="M16758 5099 c-290 -42 -569 -273 -689 -574 -56 -140 -80 -284 -81
-485 -2 -190 11 -282 59 -434 98 -313 317 -517 609 -570 113 -20 298 -14 394
14 220 63 394 220 542 488 l41 75 -29 24 c-16 12 -33 23 -39 23 -5 0 -37 -37
-70 -81 -71 -97 -136 -156 -214 -195 -52 -27 -64 -29 -176 -29 -116 0 -122 1
-183 33 -155 81 -269 244 -327 465 -13 51 -26 117 -30 147 -3 30 -8 72 -11 93
l-6 37 541 0 541 0 0 43 c0 60 -26 242 -44 309 -47 176 -128 320 -237 424
-108 102 -206 158 -325 184 -64 15 -197 19 -266 9z m199 -169 c99 -78 138
-204 149 -491 l7 -167 -270 -1 c-148 -1 -277 1 -286 5 -15 6 -17 19 -12 123
16 319 118 536 264 561 49 8 117 -5 148 -30z"/>
<path d="M27260 5066 c0 -33 1 -34 59 -45 73 -14 121 -45 144 -94 31 -63 39
-274 34 -927 -5 -691 -4 -686 -79 -740 -23 -17 -66 -35 -99 -42 -58 -12 -59
-13 -59 -45 l0 -33 530 0 530 0 0 34 c0 33 -1 34 -50 41 -81 11 -131 42 -160
100 l-25 50 -3 868 -3 867 -409 0 -410 0 0 -34z"/>
<path d="M9690 5004 l0 -44 38 -1 c58 0 124 -30 148 -67 42 -62 45 -126 42
-877 -3 -630 -5 -714 -19 -745 -30 -63 -96 -106 -173 -112 -35 -2 -36 -4 -36
-40 l0 -38 530 0 530 0 0 34 c0 37 -3 39 -75 51 -102 17 -144 72 -159 205 -3
25 -5 413 -5 863 l-1 818 -410 -1 -410 -2 0 -44z"/>
<path d="M13280 5006 l0 -43 49 -5 c76 -7 122 -36 151 -94 l25 -49 2 -735 c1
-574 -1 -745 -11 -783 -21 -78 -76 -123 -165 -136 -45 -6 -46 -7 -49 -44 l-3
-37 531 0 531 0 -3 37 c-3 37 -4 38 -56 45 -90 13 -139 50 -163 123 -10 31
-14 228 -17 903 l-3 862 -409 0 -410 0 0 -44z"/>
<path d="M18375 4853 c-147 -18 -276 -107 -340 -234 -48 -94 -67 -190 -67
-344 0 -235 49 -374 181 -506 105 -105 196 -147 352 -163 73 -8 201 15 270 47
88 42 230 176 318 299 14 21 28 38 31 38 3 0 31 -33 63 -74 89 -113 176 -192
254 -229 63 -30 75 -32 173 -32 93 0 112 3 162 27 79 37 152 108 187 182 46
97 56 156 56 321 0 166 -17 243 -77 356 -30 57 -116 151 -173 190 -144 97
-360 106 -519 21 -30 -15 -99 -74 -165 -140 -62 -62 -114 -112 -115 -110 -1 2
-27 35 -59 75 -73 92 -150 168 -207 205 -77 49 -229 82 -325 71z m218 -368
c72 -15 181 -68 235 -114 l33 -28 -69 -89 c-82 -107 -176 -196 -241 -228 -144
-73 -315 -42 -395 72 -24 34 -31 56 -34 106 -5 82 9 124 63 184 90 100 234
134 408 97z m1153 -53 c82 -42 118 -106 118 -212 0 -111 -48 -190 -139 -231
-132 -59 -341 -10 -454 105 l-44 45 66 79 c98 118 187 197 249 221 65 26 146
23 204 -7z"/>
<path d="M0 1500 l0 -170 17280 0 17280 0 0 170 0 170 -17280 0 -17280 0 0
-170z"/>
</g>
</svg>
