<?xml version="1.0" encoding="UTF-8" standalone="no"?>
<svg
   xmlns:dc="http://purl.org/dc/elements/1.1/"
   xmlns:cc="http://creativecommons.org/ns#"
   xmlns:rdf="http://www.w3.org/1999/02/22-rdf-syntax-ns#"
   xmlns:svg="http://www.w3.org/2000/svg"
   xmlns="http://www.w3.org/2000/svg"
   xmlns:sodipodi="http://sodipodi.sourceforge.net/DTD/sodipodi-0.dtd"
   xmlns:inkscape="http://www.inkscape.org/namespaces/inkscape"
   version="1.1"
   width="298"
   height="196.51317"
   id="svg4419"
   sodipodi:docname="intel.svg"
   style="fill:#0071c5"
   inkscape:version="0.92.3 (2405546, 2018-03-11)">
  <metadata
     id="metadata9">
    <rdf:RDF>
      <cc:Work
         rdf:about="">
        <dc:format>image/svg+xml</dc:format>
        <dc:type
           rdf:resource="http://purl.org/dc/dcmitype/StillImage" />
        <dc:title></dc:title>
      </cc:Work>
    </rdf:RDF>
  </metadata>
  <defs
     id="defs7" />
  <sodipodi:namedview
     pagecolor="#ffffff"
     bordercolor="#666666"
     borderopacity="1"
     objecttolerance="10"
     gridtolerance="10"
     guidetolerance="10"
     inkscape:pageopacity="0"
     inkscape:pageshadow="2"
     inkscape:window-width="1149"
     inkscape:window-height="1058"
     id="namedview5"
     showgrid="false"
     inkscape:pagecheckerboard="true"
     fit-margin-top="0"
     fit-margin-left="0"
     fit-margin-right="0"
     fit-margin-bottom="0"
     inkscape:zoom="1.6812708"
     inkscape:cx="149.4125"
     inkscape:cy="79.778881"
     inkscape:window-x="3219"
     inkscape:window-y="217"
     inkscape:window-maximized="0"
     inkscape:current-layer="svg4419" />
  <path
     id="path4423"
     d="M 87.79854,83.353684 V 131.47583 H 72.47991 V 70.988534 l 31.62545,0.0314 c 13.43261,0 18.00847,9.47252 18.00847,18.07669 V 131.4759 H 106.82285 V 89.175904 c 0,-3.60428 -1.86574,-5.82215 -6.36602,-5.82215 H 87.79854 Z m 104.16449,-0.7227 c -5.23588,0 -9.28815,2.69169 -10.9806,6.34574 -1.00293,2.19391 -1.34768,3.87529 -1.46567,6.56144 h 23.56698 c -0.30235,-6.56144 -3.27795,-12.90718 -11.12071,-12.90718 m -12.44627,23.332846 c 0,7.83538 4.87084,13.60222 13.56719,13.60222 6.76608,0 10.12884,-1.87496 14.041,-5.76684 l 9.46146,9.03373 c -6.05813,5.98071 -12.41493,9.61264 -23.61492,9.61264 -14.66415,0 -28.69778,-7.99578 -28.69778,-31.29913 0,-19.911086 12.2527,-31.182966 28.35302,-31.182966 16.31972,0 25.74799,13.19662 25.74799,30.482396 v 5.51795 h -38.85796 m -28.17419,25.43641 c -12.47946,0 -17.77434,-8.68713 -17.77434,-17.26733 V 54.508424 h 15.29467 v 16.48011 h 11.52999 v 12.36515 H 148.8629 v 29.820536 c 0,3.51394 1.65926,5.46449 5.30778,5.46449 h 6.22221 v 12.76153 h -9.05032 M 58.85003,62.629564 H 43.42632 v -14.65124 h 15.42371 z m 0.0388,69.482316 C 47.33856,131.00202 43.40981,123.99627 43.40981,115.912 l 0.0167,-44.923466 h 15.46244 v 61.123346 z m 183.82912,-1.29238 c -11.52631,-1.1117 -15.43662,-8.10639 -15.43662,-16.1796 V 45.893184 h 15.43662 z m 53.96458,-74.991046 c -13.98939,-68.2047 -146.38522,-72.52245 -231.72267,-20.57111 v 5.7355 c 85.2508,-43.8117599 206.15719,-43.5536599 217.17282,19.26582 3.68539,20.77206 -8.01975,42.429056 -28.92455,54.877166 v 16.28654 c 25.16172,-9.20519 50.96686,-39.055226 43.47439,-75.593916 M 141.55855,175.16037 C 82.66229,180.60458 21.28821,172.05572 12.70063,126.03347 8.4971798,103.34589 18.83251,79.295884 32.54351,64.357034 v -7.9884 C 7.8611298,78.012724 -5.5346102,105.41443 2.1772498,137.79207 12.02034,179.31036 64.69438,202.83863 145.09277,195.02537 c 31.80981,-3.10465 73.44426,-13.33305 102.38908,-29.21952 v -22.56957 c -26.2642,15.63941 -69.72568,28.57239 -105.9233,31.92409"
     style="fill:#ffffff;fill-opacity:1"
     inkscape:connector-curvature="0" />
  <path
     id="path4425"
     d="m 260.56171,50.458164 c 0,-0.74851 -0.43694,-0.98633 -1.43618,-0.98633 h -0.96421 v 2.11831 c 0.14011,0 0.84069,0.0258 0.96421,0.0258 0.99924,0 1.43618,-0.33369 1.43618,-1.03427 v -0.12344 z m 1.50439,5.25247 h -1.14304 c -0.10324,0 -0.19358,-0.0646 -0.23783,-0.15117 l -1.5597,-2.64375 c -0.0277,-0.0534 -0.16224,-0.118 -0.2157,-0.118 h -0.70058 v 2.62163 c 0,0.14012 -0.0959,0.29129 -0.28023,0.29129 h -1.03427 c -0.12905,0 -0.2581,-0.15117 -0.2581,-0.29129 v -6.6315 c 0,-0.38347 0.14933,-0.54386 0.47381,-0.59364 0.36503,-0.0479 1.3569,-0.0811 1.89155,-0.0811 1.89893,0 3.0475,0.56046 3.0475,2.34508 v 0.12345 c 0,1.10433 -0.5494,1.68691 -1.40115,1.97267 l 1.61686,2.73409 c 0.0103,0.0553 0.0479,0.13097 0.0479,0.19542 0,0.10693 -0.0646,0.22677 -0.24705,0.22677 m -2.7138,-8.79406 c -2.81337,0 -5.08839,2.32296 -5.08839,5.11973 0,2.80045 2.27502,5.08654 5.08839,5.08654 2.79861,0 5.09576,-2.28609 5.09576,-5.08654 0,-2.79677 -2.29715,-5.11973 -5.09576,-5.11973 m 0,11.26082 c -3.41807,0 -6.14479,-2.75805 -6.14479,-6.14109 0,-3.37751 2.72672,-6.14294 6.14479,-6.14294 3.3812,0 6.15953,2.76543 6.15953,6.14294 0,3.38304 -2.77833,6.14109 -6.15953,6.14109"
     style="fill:#ffffff;fill-opacity:1"
     inkscape:connector-curvature="0" />
</svg>
