<?xml version="1.0" encoding="UTF-8" standalone="no"?>
<svg
   viewBox="0 0 462.70667 63.666668"
   height="63.666668"
   width="462.70667"
   xml:space="preserve"
   id="svg2"
   version="1.1"
   sodipodi:docname="IT4I-EN-all-white.svg"
   inkscape:version="1.3.1 (9b9bdc1480, 2023-11-25, custom)"
   xmlns:inkscape="http://www.inkscape.org/namespaces/inkscape"
   xmlns:sodipodi="http://sodipodi.sourceforge.net/DTD/sodipodi-0.dtd"
   xmlns="http://www.w3.org/2000/svg"
   xmlns:svg="http://www.w3.org/2000/svg"
   xmlns:rdf="http://www.w3.org/1999/02/22-rdf-syntax-ns#"
   xmlns:cc="http://creativecommons.org/ns#"
   xmlns:dc="http://purl.org/dc/elements/1.1/"><sodipodi:namedview
     id="namedview1"
     pagecolor="#ffffff"
     bordercolor="#000000"
     borderopacity="0.25"
     inkscape:showpageshadow="2"
     inkscape:pageopacity="0.0"
     inkscape:pagecheckerboard="0"
     inkscape:deskcolor="#d1d1d1"
     inkscape:zoom="4.1386912"
     inkscape:cx="231.47414"
     inkscape:cy="31.77333"
     inkscape:window-width="2510"
     inkscape:window-height="1403"
     inkscape:window-x="50"
     inkscape:window-y="1600"
     inkscape:window-maximized="1"
     inkscape:current-layer="svg2" /><metadata
     id="metadata8"><rdf:RDF><cc:Work
         rdf:about=""><dc:format>image/svg+xml</dc:format><dc:type
           rdf:resource="http://purl.org/dc/dcmitype/StillImage" /></cc:Work></rdf:RDF></metadata><defs
     id="defs6" /><path
     id="path14"
     style="fill:#ffffff;fill-opacity:1;fill-rule:nonzero;stroke:none;stroke-width:0.133333"
     d="m 212.43999,11.909335 v 1.7828 h -8.93733 v -1.7828 h 3.44267 V 2.0593352 h -3.38 V 0.25573525 h 8.812 V 2.0593352 h -3.37867 v 9.8499998 h 3.44133" /><path
     id="path16"
     style="fill:#ffffff;fill-opacity:1;fill-rule:nonzero;stroke:none;stroke-width:0.133333"
     d="M 220.70266,2.0593352 V 13.692135 h -2.07333 V 2.0593352 h -4.044 V 0.25573525 h 10.16133 V 2.0593352 h -4.044" /><path
     id="path18"
     style="fill:#ffffff;fill-opacity:1;fill-rule:nonzero;stroke:none;stroke-width:0.133333"
     d="m 226.67466,9.1724017 h 4.272 V 2.3292019 c -0.816,1.0645333 -1.58933,2.1843999 -2.32267,3.3593332 -0.73333,1.1750667 -1.38133,2.336 -1.94933,3.4838666 z m 6.22133,1.7202663 v 2.799467 h -1.94933 v -2.799467 h -6.17867 l -0.208,-1.326533 c 0.73334,-1.5067999 1.648,-3.1005332 2.748,-4.7801332 1.09867,-1.6797333 2.208,-3.1890666 3.328,-4.53026655 h 2.26 V 9.1724017 h 1.99067 v 1.7202663 h -1.99067" /><path
     id="path20"
     style="fill:#ffffff;fill-opacity:1;fill-rule:nonzero;stroke:none;stroke-width:0.133333"
     d="m 245.58533,11.909335 v 1.7828 h -8.93734 v -1.7828 h 3.44267 V 2.0593352 h -3.38 V 0.25573525 h 8.81333 V 2.0593352 h -3.38 v 9.8499998 h 3.44134" /><path
     id="path22"
     style="fill:#ffffff;fill-opacity:1;fill-rule:nonzero;stroke:none;stroke-width:0.133333"
     d="m 256.92799,13.692135 h -2.54933 L 249.96133,2.9718685 V 13.692135 h -1.84534 V 0.25573525 h 2.52934 L 255.08266,10.996402 V 0.25573525 h 1.84533 V 13.692135" /><path
     id="path24"
     style="fill:#ffffff;fill-opacity:1;fill-rule:nonzero;stroke:none;stroke-width:0.133333"
     d="m 268.74933,13.692135 h -2.55067 l -4.416,-10.7202665 V 13.692135 h -1.84533 V 0.25573525 h 2.52933 L 266.90399,10.996402 V 0.25573525 h 1.84534 V 13.692135" /><path
     id="path26"
     style="fill:#ffffff;fill-opacity:1;fill-rule:nonzero;stroke:none;stroke-width:0.133333"
     d="m 273.37199,6.9120018 c 0,1.7691999 0.23067,3.0686665 0.69467,3.8984002 0.46267,0.8292 1.184,1.243733 2.16667,1.243733 0.99466,0 1.724,-0.4072 2.188,-1.222933 0.46266,-0.816134 0.69466,-2.080667 0.69466,-3.7952003 0,-1.7411999 -0.232,-3.0302665 -0.69466,-3.8671999 -0.464,-0.8365333 -1.19334,-1.2542666 -2.188,-1.2542666 -0.996,0 -1.72134,0.4010667 -2.17734,1.2021333 -0.456,0.8021333 -0.684,2.0672 -0.684,3.7953333 z m 7.9,0.1239999 c 0,2.226 -0.432,3.9265333 -1.296,5.1009333 -0.864,1.175067 -2.112,1.763067 -3.74266,1.763067 -1.67334,0 -2.928,-0.580667 -3.764,-1.742134 -0.836,-1.161466 -1.25467,-2.9094663 -1.25467,-5.2458662 0,-2.212 0.436,-3.9089333 1.30667,-5.0906666 0.87066,-1.18226662 2.108,-1.77346661 3.712,-1.77346661 1.68666,0 2.948,0.58079999 3.784,1.74226661 0.836,1.1609333 1.25466,2.9098666 1.25466,5.2458665" /><path
     id="path28"
     style="fill:#ffffff;fill-opacity:1;fill-rule:nonzero;stroke:none;stroke-width:0.133333"
     d="M 292.96533,0.25573525 289.21199,13.692135 h -2.96533 L 282.49333,0.25573525 h 2.17733 l 3.08933,11.79839975 3.09067,-11.79839975 h 2.11467" /><path
     id="path30"
     style="fill:#ffffff;fill-opacity:1;fill-rule:nonzero;stroke:none;stroke-width:0.133333"
     d="m 298.60666,1.7484019 -1.84533,6.6146665 h 3.67066 z m 5.43333,11.9437331 h -2.136 l -0.99466,-3.566133 h -4.62534 l -0.99466,3.566133 h -2.05334 l 3.92,-13.43639975 h 2.96534 l 3.91866,13.43639975" /><path
     id="path32"
     style="fill:#ffffff;fill-opacity:1;fill-rule:nonzero;stroke:none;stroke-width:0.133333"
     d="M 310.20266,2.0593352 V 13.692135 h -2.07333 V 2.0593352 h -4.044 V 0.25573525 h 10.16133 V 2.0593352 h -4.044" /><path
     id="path34"
     style="fill:#ffffff;fill-opacity:1;fill-rule:nonzero;stroke:none;stroke-width:0.133333"
     d="m 325.33866,11.909335 v 1.7828 h -8.93733 v -1.7828 h 3.44266 V 2.0593352 h -3.38 V 0.25573525 h 8.81334 V 2.0593352 h -3.38 v 9.8499998 h 3.44133" /><path
     id="path36"
     style="fill:#ffffff;fill-opacity:1;fill-rule:nonzero;stroke:none;stroke-width:0.133333"
     d="m 329.25599,6.9120018 c 0,1.7691999 0.232,3.0686665 0.69467,3.8984002 0.464,0.8292 1.18533,1.243733 2.16667,1.243733 0.996,0 1.72533,-0.4072 2.18799,-1.222933 0.464,-0.816134 0.69467,-2.080667 0.69467,-3.7952003 0,-1.7411999 -0.23067,-3.0302665 -0.69467,-3.8671999 -0.46266,-0.8365333 -1.19199,-1.2542666 -2.18799,-1.2542666 -0.99467,0 -1.72,0.4010667 -2.176,1.2021333 -0.45734,0.8021333 -0.68534,2.0672 -0.68534,3.7953333 z m 7.90133,0.1239999 c 0,2.226 -0.43333,3.9265333 -1.29733,5.1009333 -0.86267,1.175067 -2.11067,1.763067 -3.74266,1.763067 -1.672,0 -2.92667,-0.580667 -3.76267,-1.742134 -0.83733,-1.161466 -1.25467,-2.9094663 -1.25467,-5.2458662 0,-2.212 0.43467,-3.9089333 1.30667,-5.0906666 0.87067,-1.18226662 2.108,-1.77346661 3.71067,-1.77346661 1.68799,0 2.94799,0.58079999 3.78533,1.74226661 0.836,1.1609333 1.25466,2.9098666 1.25466,5.2458665" /><path
     id="path38"
     style="fill:#ffffff;fill-opacity:1;fill-rule:nonzero;stroke:none;stroke-width:0.133333"
     d="m 348.44399,13.692135 h -2.54933 L 341.47732,2.9718685 V 13.692135 h -1.84533 V 0.25573525 h 2.53067 L 346.59999,10.996402 V 0.25573525 h 1.844 V 13.692135" /><path
     id="path40"
     style="fill:#ffffff;fill-opacity:1;fill-rule:nonzero;stroke:none;stroke-width:0.133333"
     d="m 359.96399,10.105202 c 0,1.147866 -0.408,2.066133 -1.224,2.757866 -0.816,0.691067 -1.91467,1.036934 -3.296,1.036934 -0.776,0 -1.56933,-0.111467 -2.38533,-0.331734 -0.816,-0.221333 -1.548,-0.532266 -2.19734,-0.933333 l 0.89067,-1.638533 c 0.664,0.387466 1.3,0.671333 1.908,0.850533 0.608,0.180133 1.216,0.2692 1.82533,0.2692 0.74534,0 1.32667,-0.162 1.74134,-0.486933 0.41466,-0.325067 0.62266,-0.7912 0.62266,-1.399467 0,-0.4422667 -0.16666,-0.8370666 -0.49866,-1.1824 -0.33067,-0.3452 -1.064,-0.7598666 -2.19734,-1.2442666 -0.76133,-0.3312 -1.32,-0.6009333 -1.68,-0.8088 -0.36,-0.2068 -0.664,-0.4208 -0.912,-0.6421333 -0.40133,-0.3594667 -0.69866,-0.7573333 -0.892,-1.1922666 -0.19333,-0.4353334 -0.29066,-0.9234667 -0.29066,-1.4625333 0,-1.078 0.38666,-1.9557333 1.16133,-2.6333333 0.77467,-0.67706665 1.79067,-1.01613331 3.048,-1.01613331 0.73333,0 1.452,0.09693333 2.15733,0.29013333 0.704,0.19426666 1.38934,0.47759998 2.05334,0.85053328 l -0.83067,1.638 c -0.608,-0.3312 -1.18933,-0.5770667 -1.74133,-0.7358667 -0.55334,-0.1589333 -1.092,-0.2385333 -1.61734,-0.2385333 -0.664,0 -1.18533,0.1593333 -1.56533,0.4770667 -0.38,0.3181333 -0.57067,0.7395999 -0.57067,1.2650666 0,0.4426667 0.16934,0.8322666 0.508,1.1708 0.33867,0.3396 1.07467,0.7573333 2.20934,1.2546666 0.74533,0.3458667 1.29866,0.6193333 1.65866,0.8193333 0.35867,0.2005333 0.66267,0.4114667 0.912,0.6328 0.41467,0.3593333 0.71867,0.7562667 0.912,1.1917333 0.19334,0.4358667 0.29067,0.9161333 0.29067,1.4416003" /><path
     id="path42"
     style="fill:#ffffff;fill-opacity:1;fill-rule:nonzero;stroke:none;stroke-width:0.133333"
     d="m 212.37733,38.576001 h -2.54934 l -4.41733,-10.7208 v 10.7208 h -1.84533 V 25.139068 h 2.52933 l 4.43733,10.740666 V 25.139068 h 1.84534 v 13.436933" /><path
     id="path44"
     style="fill:#ffffff;fill-opacity:1;fill-rule:nonzero;stroke:none;stroke-width:0.133333"
     d="m 219.80266,26.631735 -1.84533,6.614666 h 3.67066 z m 5.43333,11.944266 h -2.136 l -0.99466,-3.566667 h -4.62534 l -0.99466,3.566667 h -2.05334 l 3.92,-13.436933 h 2.96534 l 3.91866,13.436933" /><path
     id="path46"
     style="fill:#ffffff;fill-opacity:1;fill-rule:nonzero;stroke:none;stroke-width:0.133333"
     d="m 231.39866,26.943201 v 11.6328 h -2.07333 v -11.6328 h -4.044 v -1.804133 h 10.16133 v 1.804133 h -4.044" /><path
     id="path48"
     style="fill:#ffffff;fill-opacity:1;fill-rule:nonzero;stroke:none;stroke-width:0.133333"
     d="m 246.53599,36.792668 v 1.783333 h -8.93733 v -1.783333 h 3.44267 v -9.849467 h -3.38 v -1.804133 h 8.812 v 1.804133 h -3.38 v 9.849467 h 3.44266" /><path
     id="path50"
     style="fill:#ffffff;fill-opacity:1;fill-rule:nonzero;stroke:none;stroke-width:0.133333"
     d="m 250.45199,31.795334 c 0,1.7692 0.232,3.068667 0.69467,3.8984 0.464,0.829734 1.18533,1.244267 2.16667,1.244267 0.996,0 1.72533,-0.407733 2.188,-1.223467 0.464,-0.8156 0.69466,-2.080666 0.69466,-3.7948 0,-1.741599 -0.23066,-3.030666 -0.69466,-3.867066 -0.46267,-0.837067 -1.192,-1.2548 -2.188,-1.2548 -0.99467,0 -1.72,0.401067 -2.176,1.202667 -0.45734,0.802133 -0.68534,2.0672 -0.68534,3.794799 z m 7.90134,0.1244 c 0,2.226134 -0.43334,3.926667 -1.29734,5.100534 -0.86266,1.1756 -2.11066,1.7636 -3.74266,1.7636 -1.672,0 -2.92667,-0.5812 -3.76267,-1.742667 -0.83733,-1.161467 -1.25467,-2.909467 -1.25467,-5.245867 0,-2.211466 0.43467,-3.908933 1.30667,-5.090666 0.87067,-1.182267 2.108,-1.773467 3.71067,-1.773467 1.68666,0 2.948,0.5808 3.78533,1.742267 0.836,1.160933 1.25467,2.9104 1.25467,5.246266" /><path
     id="path52"
     style="fill:#ffffff;fill-opacity:1;fill-rule:nonzero;stroke:none;stroke-width:0.133333"
     d="m 269.64133,38.576001 h -2.55067 l -4.416,-10.7208 v 10.7208 h -1.84533 V 25.139068 h 2.52933 l 4.43733,10.740666 V 25.139068 h 1.84534 v 13.436933" /><path
     id="path54"
     style="fill:#ffffff;fill-opacity:1;fill-rule:nonzero;stroke:none;stroke-width:0.133333"
     d="m 277.06666,26.631735 -1.84533,6.614666 h 3.66933 z m 5.432,11.944266 h -2.13467 l -0.996,-3.566667 h -4.624 l -0.99466,3.566667 h -2.05334 l 3.91867,-13.436933 h 2.96667 l 3.91733,13.436933" /><path
     id="path56"
     style="fill:#ffffff;fill-opacity:1;fill-rule:nonzero;stroke:none;stroke-width:0.133333"
     d="m 286.93733,36.792668 h 6.30266 v 1.783333 h -8.39733 V 25.139068 h 2.09467 v 11.6536" /><path
     id="path58"
     style="fill:#ffffff;fill-opacity:1;fill-rule:nonzero;stroke:none;stroke-width:0.133333"
     d="m 311.13599,34.988534 c 0,1.147867 -0.408,2.066667 -1.224,2.757867 -0.816,0.6916 -1.91466,1.037467 -3.29733,1.037467 -0.77467,0 -1.568,-0.111467 -2.384,-0.332267 -0.816,-0.221333 -1.548,-0.531867 -2.19867,-0.9328 l 0.892,-1.639067 c 0.664,0.387467 1.29867,0.671334 1.908,0.850534 0.608,0.180133 1.216,0.2692 1.82534,0.2692 0.74533,0 1.32666,-0.162 1.74133,-0.4864 0.41467,-0.325067 0.62267,-0.7912 0.62267,-1.4 0,-0.442267 -0.16667,-0.836534 -0.49867,-1.1824 -0.33067,-0.3452 -1.064,-0.759867 -2.19733,-1.244267 -0.76134,-0.3312 -1.32134,-0.600933 -1.68,-0.808267 -0.36,-0.207333 -0.664,-0.421333 -0.912,-0.642666 -0.40134,-0.359467 -0.69867,-0.757334 -0.892,-1.192267 -0.19334,-0.435333 -0.29067,-0.922933 -0.29067,-1.462 0,-1.078133 0.38667,-1.955733 1.16133,-2.633866 0.77467,-0.677067 1.78934,-1.016134 3.048,-1.016134 0.73334,0 1.452,0.09747 2.156,0.290667 0.70534,0.193733 1.38934,0.477067 2.05467,0.85 l -0.83067,1.638 c -0.608,-0.3312 -1.18933,-0.576533 -1.74133,-0.735333 -0.55333,-0.158934 -1.09333,-0.239067 -1.61733,-0.239067 -0.664,0 -1.18534,0.159333 -1.56534,0.477067 -0.38133,0.318133 -0.57066,0.7396 -0.57066,1.265066 0,0.442667 0.16933,0.8328 0.508,1.171334 0.33866,0.339066 1.07466,0.757333 2.208,1.254133 0.74666,0.345866 1.3,0.619333 1.66,0.819333 0.35866,0.200533 0.66266,0.411467 0.912,0.6328 0.41466,0.359333 0.71866,0.7568 0.912,1.192133 0.19333,0.435467 0.29066,0.915734 0.29066,1.4412" /><path
     id="path60"
     style="fill:#ffffff;fill-opacity:1;fill-rule:nonzero;stroke:none;stroke-width:0.133333"
     d="m 318.17466,36.938001 c 0.788,0 1.396,-0.221333 1.82533,-0.663467 0.428,-0.4428 0.64267,-1.071866 0.64267,-1.8876 v -9.247866 h 2.032 v 9.247866 c 0,1.3276 -0.41067,2.392267 -1.23333,3.193334 -0.82267,0.802 -1.912,1.2036 -3.26667,1.2036 -1.368,0 -2.47067,-0.4016 -3.30667,-1.2036 -0.83733,-0.801067 -1.25466,-1.865734 -1.25466,-3.193334 v -9.247866 h 2.09466 v 9.247866 c 0,0.815734 0.21334,1.4448 0.64267,1.8876 0.428,0.442134 1.03733,0.663467 1.824,0.663467" /><path
     id="path62"
     style="fill:#ffffff;fill-opacity:1;fill-rule:nonzero;stroke:none;stroke-width:0.133333"
     d="m 332.73866,29.265068 c 0,-0.732267 -0.22533,-1.302533 -0.67467,-1.710933 -0.44933,-0.4072 -1.068,-0.610934 -1.856,-0.610934 h -2.384 v 4.7276 h 2.384 c 0.816,0 1.44134,-0.207733 1.876,-0.6224 0.436,-0.414533 0.65467,-1.008266 0.65467,-1.783333 z m -4.91467,4.189066 v 5.121867 h -2.09466 V 25.139068 h 4.54133 c 1.396,0 2.508,0.362533 3.33866,1.088533 0.82934,0.726 1.244,1.724534 1.244,2.9964 0,1.340533 -0.412,2.3812 -1.23466,3.1208 -0.82133,0.7396 -1.93867,1.109333 -3.348,1.109333 h -2.44667" /><path
     id="path64"
     style="fill:#ffffff;fill-opacity:1;fill-rule:nonzero;stroke:none;stroke-width:0.133333"
     d="m 339.50532,36.792668 h 6.076 v 1.783333 h -8.16933 V 25.139068 h 8.16933 v 1.804133 h -6.076 v 3.919333 h 5.164 v 1.8036 h -5.164 v 4.126534" /><path
     id="path66"
     style="fill:#ffffff;fill-opacity:1;fill-rule:nonzero;stroke:none;stroke-width:0.133333"
     d="m 355.16932,29.078668 c 0,-0.677067 -0.21066,-1.202667 -0.632,-1.5756 -0.42133,-0.373333 -1.00533,-0.559867 -1.752,-0.559867 h -2.468 v 4.333867 h 2.468 c 0.76,0 1.348,-0.190134 1.76267,-0.570267 0.41467,-0.380266 0.62133,-0.922933 0.62133,-1.628133 z m -4.852,4.002533 v 5.4948 h -2.09466 V 25.139068 h 4.58266 c 1.36934,0 2.45867,0.345867 3.26667,1.0364 0.80933,0.691733 1.21333,1.645867 1.21333,2.862 0,0.953733 -0.232,1.752133 -0.69466,2.395333 -0.464,0.642133 -1.13067,1.095867 -2.00134,1.357867 l 3.19334,5.785333 h -2.364 l -2.92267,-5.4948 h -2.17867" /><path
     id="path68"
     style="fill:#ffffff;fill-opacity:1;fill-rule:nonzero;stroke:none;stroke-width:0.133333"
     d="m 365.10266,38.783868 c -1.812,0 -3.19067,-0.5948 -4.13734,-1.7844 -0.94666,-1.188534 -1.42,-2.923467 -1.42,-5.204134 0,-2.142666 0.49334,-3.822399 1.48267,-5.039066 0.988,-1.216133 2.35333,-1.825067 4.09467,-1.825067 0.70533,0 1.36133,0.08707 1.96933,0.26 0.608,0.1724 1.21067,0.4452 1.804,0.818667 l -0.95333,1.638 c -0.47067,-0.29 -0.936,-0.504133 -1.4,-0.6432 -0.46267,-0.137467 -0.92267,-0.2068 -1.37867,-0.2068 -1.14667,0 -2.01067,0.417733 -2.592,1.2548 -0.58,0.8364 -0.87067,2.083733 -0.87067,3.742666 0,1.728134 0.28267,3.0172 0.85067,3.8672 0.56667,0.850534 1.43733,1.275467 2.612,1.275467 0.53867,0 1.03067,-0.0692 1.47333,-0.207733 0.44134,-0.138134 0.952,-0.387067 1.53334,-0.745867 l 0.892,1.5344 c -0.58134,0.414533 -1.20934,0.729067 -1.88667,0.9432 -0.67733,0.214 -1.36933,0.321867 -2.07333,0.321867" /><path
     id="path70"
     style="fill:#ffffff;fill-opacity:1;fill-rule:nonzero;stroke:none;stroke-width:0.133333"
     d="m 372.54399,31.795334 c 0,1.7692 0.23067,3.068667 0.69467,3.8984 0.46266,0.829734 1.184,1.244267 2.16666,1.244267 0.996,0 1.72534,-0.407733 2.188,-1.223467 0.46267,-0.8156 0.69467,-2.080666 0.69467,-3.7948 0,-1.741599 -0.232,-3.030666 -0.69467,-3.867066 -0.46266,-0.837067 -1.192,-1.2548 -2.188,-1.2548 -0.99466,0 -1.72,0.401067 -2.17733,1.202667 -0.456,0.802133 -0.684,2.0672 -0.684,3.794799 z m 7.9,0.1244 c 0,2.226134 -0.432,3.926667 -1.296,5.100534 -0.864,1.1756 -2.112,1.7636 -3.74267,1.7636 -1.672,0 -2.928,-0.5812 -3.764,-1.742667 -0.836,-1.161467 -1.25466,-2.909467 -1.25466,-5.245867 0,-2.211466 0.436,-3.908933 1.308,-5.090666 0.87066,-1.182267 2.108,-1.773467 3.71066,-1.773467 1.68667,0 2.948,0.5808 3.78534,1.742267 0.836,1.160933 1.25333,2.9104 1.25333,5.246266" /><path
     id="path72"
     style="fill:#ffffff;fill-opacity:1;fill-rule:nonzero;stroke:none;stroke-width:0.133333"
     d="m 384.46666,27.959335 v 10.616666 h -1.84534 V 25.139068 h 2.42534 l 2.61333,6.759866 2.57067,-6.759866 h 2.40666 v 13.436933 h -1.84666 V 27.959335 l -2.40534,6.158399 h -1.51333 l -2.40533,-6.158399" /><path
     id="path74"
     style="fill:#ffffff;fill-opacity:1;fill-rule:nonzero;stroke:none;stroke-width:0.133333"
     d="m 402.47999,29.265068 c 0,-0.732267 -0.22533,-1.302533 -0.67467,-1.710933 -0.448,-0.4072 -1.06666,-0.610934 -1.85466,-0.610934 h -2.38534 v 4.7276 h 2.38534 c 0.81466,0 1.44133,-0.207733 1.876,-0.6224 0.43466,-0.414533 0.65333,-1.008266 0.65333,-1.783333 z m -4.91467,4.189066 v 5.121867 h -2.09333 V 25.139068 h 4.54 c 1.39733,0 2.50933,0.362533 3.33867,1.088533 0.82933,0.726 1.244,1.724534 1.244,2.9964 0,1.340533 -0.41067,2.3812 -1.23334,3.1208 -0.82266,0.7396 -1.94,1.109333 -3.34933,1.109333 h -2.44667" /><path
     id="path76"
     style="fill:#ffffff;fill-opacity:1;fill-rule:nonzero;stroke:none;stroke-width:0.133333"
     d="m 411.37466,36.938001 c 0.788,0 1.396,-0.221333 1.82533,-0.663467 0.42933,-0.4428 0.64267,-1.071866 0.64267,-1.8876 v -9.247866 h 2.032 v 9.247866 c 0,1.3276 -0.41067,2.392267 -1.23467,3.193334 -0.82133,0.802 -1.90933,1.2036 -3.26533,1.2036 -1.368,0 -2.47067,-0.4016 -3.30667,-1.2036 -0.836,-0.801067 -1.25467,-1.865734 -1.25467,-3.193334 v -9.247866 h 2.09467 v 9.247866 c 0,0.815734 0.21467,1.4448 0.64267,1.8876 0.428,0.442134 1.036,0.663467 1.824,0.663467" /><path
     id="path78"
     style="fill:#ffffff;fill-opacity:1;fill-rule:nonzero;stroke:none;stroke-width:0.133333"
     d="m 424.13999,26.943201 v 11.6328 h -2.07333 v -11.6328 h -4.04267 v -1.804133 h 10.16 v 1.804133 h -4.044" /><path
     id="path80"
     style="fill:#ffffff;fill-opacity:1;fill-rule:nonzero;stroke:none;stroke-width:0.133333"
     d="m 439.27732,36.792668 v 1.783333 h -8.93733 v -1.783333 h 3.44267 v -9.849467 h -3.38 v -1.804133 h 8.812 v 1.804133 h -3.37867 v 9.849467 h 3.44133" /><path
     id="path82"
     style="fill:#ffffff;fill-opacity:1;fill-rule:nonzero;stroke:none;stroke-width:0.133333"
     d="m 450.61732,38.576001 h -2.54933 l -4.41733,-10.7208 v 10.7208 h -1.84534 V 25.139068 h 2.52934 l 4.43733,10.740666 V 25.139068 h 1.84533 v 13.436933" /><path
     id="path84"
     style="fill:#ffffff;fill-opacity:1;fill-rule:nonzero;stroke:none;stroke-width:0.133333"
     d="m 458.78266,38.783868 c -1.83867,0 -3.23867,-0.591734 -4.19867,-1.774 -0.96,-1.1812 -1.44133,-2.919734 -1.44133,-5.214534 0,-2.169866 0.492,-3.856799 1.47333,-5.059866 0.98,-1.202667 2.356,-1.804267 4.12533,-1.804267 0.692,0 1.33334,0.07613 1.92934,0.228667 0.59333,0.152667 1.17466,0.393733 1.74266,0.7256 l -0.91466,1.679067 c -0.42667,-0.2484 -0.87467,-0.438 -1.336,-0.570267 -0.464,-0.130667 -0.924,-0.1964 -1.38,-0.1964 -1.17467,0 -2.04934,0.411467 -2.62267,1.233867 -0.57467,0.822933 -0.86,2.077066 -0.86,3.763599 0,1.728134 0.28933,3.0172 0.87067,3.8672 0.58,0.850534 1.464,1.275467 2.65333,1.275467 0.36,0 0.688,-0.0276 0.984,-0.08333 0.29733,-0.05467 0.6,-0.145334 0.904,-0.269734 v -4.5412 h 1.98933 v 5.536534 c -0.53866,0.373333 -1.15333,0.6676 -1.84533,0.881733 -0.69067,0.214 -1.384,0.321867 -2.07333,0.321867" /><path
     id="path86"
     style="fill:#ffffff;fill-opacity:1;fill-rule:nonzero;stroke:none;stroke-width:0.133333"
     d="m 208.99866,63.666146 c -1.812,0 -3.19067,-0.594271 -4.13733,-1.783852 -0.94667,-1.188547 -1.42,-2.92344 -1.42,-5.204173 0,-2.142707 0.49333,-3.822387 1.48133,-5.039054 0.98933,-1.216146 2.35467,-1.825066 4.096,-1.825066 0.70533,0 1.36133,0.08707 1.96933,0.26 0.60934,0.1724 1.20934,0.445266 1.804,0.818706 l -0.95333,1.638027 c -0.47067,-0.290107 -0.936,-0.504173 -1.4,-0.64324 -0.46267,-0.138013 -0.92267,-0.20676 -1.37867,-0.20676 -1.14666,0 -2.01066,0.417707 -2.592,1.25468 -0.58,0.836467 -0.87066,2.083853 -0.87066,3.742707 0,1.728133 0.28266,3.017186 0.84933,3.867186 0.568,0.85052 1.43867,1.27552 2.61333,1.27552 0.53867,0 1.02934,-0.06927 1.472,-0.2078 0.44267,-0.138027 0.95467,-0.386987 1.53467,-0.74584 l 0.892,1.534376 c -0.58133,0.414583 -1.20933,0.729167 -1.88667,0.943229 -0.67866,0.214062 -1.36933,0.321354 -2.07333,0.321354" /><path
     id="path88"
     style="fill:#ffffff;fill-opacity:1;fill-rule:nonzero;stroke:none;stroke-width:0.133333"
     d="m 217.59066,61.67552 h 6.076 v 1.783335 h -8.16933 V 50.021867 h 8.16933 v 1.804174 h -6.076 v 3.919266 h 5.164 v 1.803653 h -5.164 v 4.12656" /><path
     id="path90"
     style="fill:#ffffff;fill-opacity:1;fill-rule:nonzero;stroke:none;stroke-width:0.133333"
     d="m 235.07866,63.458855 h -2.55067 l -4.416,-10.720828 v 10.720828 h -1.84533 V 50.021867 h 2.52933 l 4.43734,10.74116 v -10.74116 h 1.84533 v 13.436988" /><path
     id="path92"
     style="fill:#ffffff;fill-opacity:1;fill-rule:nonzero;stroke:none;stroke-width:0.133333"
     d="m 243.40533,51.826041 v 11.632814 h -2.07334 V 51.826041 h -4.044 v -1.804174 h 10.16 v 1.804174 h -4.04266" /><path
     id="path94"
     style="fill:#ffffff;fill-opacity:1;fill-rule:nonzero;stroke:none;stroke-width:0.133333"
     d="m 252.04133,61.67552 h 6.07466 v 1.783335 h -8.16933 V 50.021867 h 8.16933 v 1.804174 h -6.07466 v 3.919266 h 5.16266 v 1.803653 h -5.16266 v 4.12656" /><path
     id="path96"
     style="fill:#ffffff;fill-opacity:1;fill-rule:nonzero;stroke:none;stroke-width:0.133333"
     d="m 267.70399,53.961454 c 0,-0.67708 -0.21066,-1.2026 -0.632,-1.57552 -0.42133,-0.372907 -1.00533,-0.559893 -1.752,-0.559893 h -2.468 v 4.333853 h 2.468 c 0.76,0 1.348,-0.190107 1.76267,-0.570307 0.41467,-0.380213 0.62133,-0.92344 0.62133,-1.628133 z m -4.852,4.002613 v 5.494788 h -2.09466 V 50.021867 h 4.58266 c 1.36934,0 2.45867,0.34584 3.26667,1.036467 0.80933,0.691147 1.21333,1.645827 1.21333,2.861973 0,0.953654 -0.232,1.752094 -0.69466,2.39532 -0.464,0.642187 -1.13067,1.095827 -2.00134,1.357813 l 3.19334,5.785415 h -2.364 l -2.924,-5.494788 h -2.17734" /><path
     id="path98"
     style="fill:#ffffff;fill-opacity:1;fill-rule:nonzero;stroke:none;stroke-width:0.133333"
     d="m 189.37333,63.597396 h -2.132 V 0.26400192 h 2.132 V 63.597396" /><path
     id="path100"
     style="fill:#ffffff;fill-opacity:1;fill-rule:nonzero;stroke:none;stroke-width:0.133333"
     d="M 2.6380266,49.813601 H 0.50520799 V 24.907335 H 2.6380266 v 24.906266" /><path
     id="path102"
     style="fill:#ffffff;fill-opacity:1;fill-rule:nonzero;stroke:none;stroke-width:0.133333"
     d="m 27.223999,56.652081 h -2.1328 v -24.91928 h 2.1328 v 24.91928" /><path
     id="path104"
     style="fill:#ffffff;fill-opacity:1;fill-rule:nonzero;stroke:none;stroke-width:0.133333"
     d="m 35.420266,49.813601 h -2.1328 V 24.907335 h 2.1328 v 24.906266" /><path
     id="path106"
     style="fill:#ffffff;fill-opacity:1;fill-rule:nonzero;stroke:none;stroke-width:0.133333"
     d="m 19.028666,63.490626 h -2.1328 V 38.581734 h 2.1328 v 24.908892" /><path
     id="path108"
     style="fill:#ffffff;fill-opacity:1;fill-rule:nonzero;stroke:none;stroke-width:0.133333"
     d="M 10.833333,56.641667 H 8.7005198 V 31.732801 h 2.1328132 v 24.908866" /><path
     id="path110"
     style="fill:#ffffff;fill-opacity:1;fill-rule:nonzero;stroke:none;stroke-width:0.133333"
     d="M 10.761453,0.25573525 7.1536398,13.692135 H 3.6078132 L 0,0.25573525 H 2.5916666 L 5.4328132,11.681202 8.2531198,0.25573525 h 2.5083332" /><path
     id="path112"
     style="fill:#ffffff;fill-opacity:1;fill-rule:nonzero;stroke:none;stroke-width:0.133333"
     d="m 22.809333,10.001602 c 0,1.189066 -0.414534,2.135333 -1.244267,2.840533 -0.8296,0.7052 -1.956266,1.057867 -3.3796,1.057867 -0.788533,0 -1.604266,-0.111467 -2.447466,-0.331734 -0.842667,-0.221333 -1.603067,-0.532266 -2.280134,-0.933333 l 0.9952,-2.032267 c 0.6772,0.387467 1.322934,0.673867 1.938667,0.8604 0.615067,0.186934 1.227067,0.280134 1.8348,0.280134 0.649467,0 1.154133,-0.134934 1.5136,-0.404134 0.359333,-0.269733 0.539066,-0.6604 0.539066,-1.171866 0,-0.3869337 -0.1516,-0.728667 -0.455733,-1.0260003 -0.304666,-0.298 -0.981733,-0.6666667 -2.032266,-1.1094666 -0.788134,-0.3322667 -1.365734,-0.6052 -1.731334,-0.8192 -0.366666,-0.2141333 -0.680666,-0.4385333 -0.9432,-0.674 -0.401066,-0.3593333 -0.6984,-0.7636 -0.892133,-1.2136 C 14.0312,4.8765351 13.9344,4.3754685 13.9344,3.8218685 c 0,-1.1197333 0.401066,-2.0286666 1.203066,-2.7265333 0.801067,-0.69799995 1.858934,-1.04746661 3.1724,-1.04746661 0.759867,0 1.506267,0.10106666 2.2396,0.30053333 0.732267,0.20053332 1.430267,0.48799998 2.093733,0.86093328 l -0.912,2.0109333 C 21.095333,2.8890685 20.497333,2.6401352 19.937466,2.4745352 19.3776,2.3082685 18.834933,2.2254685 18.309866,2.2254685 c -0.5672,0 -1.012933,0.1318667 -1.338,0.3938667 -0.324933,0.2624 -0.486933,0.6082666 -0.486933,1.0364 0,0.3874666 0.155733,0.7333333 0.466133,1.0374666 0.311467,0.3037333 0.998934,0.6912 2.064,1.1614666 0.759467,0.3453334 1.319867,0.6213334 1.679733,0.8292 0.358267,0.2073334 0.663067,0.4286667 0.912,0.6634667 0.414534,0.3458666 0.718667,0.7396 0.912,1.1818666 0.193734,0.4426667 0.290534,0.9328 0.290534,1.4724003" /><path
     id="path114"
     style="fill:#ffffff;fill-opacity:1;fill-rule:nonzero;stroke:none;stroke-width:0.133333"
     d="m 33.467732,9.648935 c 0,-0.65 -0.204133,-1.1234666 -0.611466,-1.4207999 -0.4084,-0.2969334 -1.054667,-0.4453334 -1.9396,-0.4453334 h -1.7416 v 3.8360003 h 1.866667 c 0.815066,0 1.4228,-0.162 1.823866,-0.4876 0.4016,-0.3244 0.602133,-0.8192 0.602133,-1.482267 z M 32.928666,3.9672018 c 0,-0.5526666 -0.176533,-0.9604 -0.5292,-1.2234666 -0.352533,-0.2625333 -0.8948,-0.3937333 -1.6276,-0.3937333 h -1.5968 v 3.4213332 h 1.5968 c 0.718267,0 1.257333,-0.152 1.617733,-0.4568 0.3588,-0.3030666 0.539067,-0.7530666 0.539067,-1.3473333 z M 26.666133,0.25573525 h 4.416666 c 1.381734,0 2.468267,0.29013333 3.255733,0.87079995 0.787467,0.5802667 1.181734,1.3964 1.181734,2.4469333 0,0.7046667 -0.176,1.3202666 -0.528534,1.8453333 -0.352133,0.5254666 -0.853733,0.926 -1.503733,1.2025333 0.8432,0.2489333 1.4828,0.6396 1.918267,1.1718666 0.435466,0.5317334 0.653066,1.1922667 0.653066,1.9797333 0,1.2172 -0.418133,2.1744 -1.254666,2.8724 -0.8364,0.697867 -1.9588,1.0468 -3.3692,1.0468 H 26.666133 V 0.25573525" /><path
     id="path116"
     style="fill:#ffffff;fill-opacity:1;fill-rule:nonzero;stroke:none;stroke-width:0.133333"
     d="M 56.816132,2.0177352 V 13.651068 H 54.743199 V 2.0177352 H 50.698932 V 0.21400192 H 60.860398 V 2.0177352 h -4.044266" /><path
     id="path118"
     style="fill:#ffffff;fill-opacity:1;fill-rule:nonzero;stroke:none;stroke-width:0.133333"
     d="m 66.489598,11.867735 h 6.075467 v 1.783333 h -8.1692 V 0.21400192 h 8.1692 V 2.0177352 h -6.075467 v 3.9191999 h 5.164 v 1.8042666 h -5.164 v 4.1265333" /><path
     id="path120"
     style="fill:#ffffff;fill-opacity:1;fill-rule:nonzero;stroke:none;stroke-width:0.133333"
     d="m 81.446398,13.858268 c -1.810933,0 -3.1896,-0.594266 -4.136533,-1.783733 -0.947867,-1.188533 -1.420267,-2.924 -1.420267,-5.2042666 0,-2.1426666 0.4932,-3.8223999 1.4812,-5.0390665 0.988533,-1.21613332 2.354267,-1.82493331 4.096933,-1.82493331 0.704134,0 1.3604,0.0864 1.968267,0.25986666 0.609867,0.1724 1.209867,0.44533332 1.8052,0.81879995 l -0.9548,1.638 c -0.470267,-0.2901333 -0.935867,-0.5046667 -1.4,-0.6432 -0.461867,-0.1381333 -0.921867,-0.2068 -1.378533,-0.2068 -1.147467,0 -2.010534,0.4177333 -2.5912,1.2541333 -0.580667,0.8369333 -0.8708,2.0844 -0.8708,3.7431999 0,1.7276 0.282266,3.0166666 0.85,3.8671996 0.566666,0.85 1.437466,1.275067 2.612,1.275067 0.539066,0 1.0296,-0.0688 1.4724,-0.207333 0.4432,-0.138 0.954666,-0.386934 1.535333,-0.7464 l 0.890667,1.5344 c -0.5808,0.415066 -1.209867,0.7292 -1.886934,0.943733 -0.6772,0.214133 -1.368266,0.321333 -2.072933,0.321333" /><path
     id="path122"
     style="fill:#ffffff;fill-opacity:1;fill-rule:nonzero;stroke:none;stroke-width:0.133333"
     d="m 91.140664,7.5541351 v 6.0969329 h -2.0948 V 0.21400192 h 2.0948 V 5.7505351 h 4.914 V 0.21400192 h 2.093734 V 13.651068 H 96.054664 V 7.5541351 h -4.914" /><path
     id="path124"
     style="fill:#ffffff;fill-opacity:1;fill-rule:nonzero;stroke:none;stroke-width:0.133333"
     d="m 111.362,13.651068 h -2.55054 L 104.3948,2.9302685 V 13.651068 h -1.84534 V 0.21400192 h 2.53027 L 109.5172,10.954668 V 0.21400192 h 1.8448 V 13.651068" /><path
     id="path126"
     style="fill:#ffffff;fill-opacity:1;fill-rule:nonzero;stroke:none;stroke-width:0.133333"
     d="m 124.05986,11.867735 v 1.783333 h -8.93746 v -1.783333 h 3.44266 V 2.0177352 h -3.38013 V 0.21400192 h 8.8124 V 2.0177352 h -3.37853 v 9.8499998 h 3.44106" /><path
     id="path128"
     style="fill:#ffffff;fill-opacity:1;fill-rule:nonzero;stroke:none;stroke-width:0.133333"
     d="m 132.58853,13.858268 c -1.81147,0 -3.19013,-0.594266 -4.1364,-1.783733 -0.94693,-1.188533 -1.42093,-2.924 -1.42093,-5.2042666 0,-2.1426666 0.4948,-3.8223999 1.4828,-5.0390665 0.98866,-1.21613332 2.3532,-1.82493331 4.09533,-1.82493331 0.70573,0 1.36267,0.0864 1.97067,0.25986666 0.608,0.1724 1.20933,0.44533332 1.80266,0.81879995 l -0.95333,1.638 c -0.46933,-0.2901333 -0.936,-0.5046667 -1.4,-0.6432 -0.46267,-0.1381333 -0.92253,-0.2068 -1.37827,-0.2068 -1.14746,0 -2.01146,0.4177333 -2.59266,1.2541333 -0.58027,0.8369333 -0.87094,2.0844 -0.87094,3.7431999 0,1.7276 0.28387,3.0166666 0.85,3.8671996 0.56827,0.85 1.4376,1.275067 2.6136,1.275067 0.53907,0 1.03027,-0.0688 1.47294,-0.207333 0.44133,-0.138 0.95333,-0.386934 1.53333,-0.7464 l 0.892,1.5344 c -0.58,0.415066 -1.20933,0.7292 -1.88667,0.943733 -0.67866,0.214133 -1.3684,0.321333 -2.07413,0.321333" /><path
     id="path130"
     style="fill:#ffffff;fill-opacity:1;fill-rule:nonzero;stroke:none;stroke-width:0.133333"
     d="m 144.42133,1.7068019 -1.844,6.6145332 H 146.248 Z M 149.856,13.651068 h -2.136 l -0.996,-3.566666 H 142.1 l -0.996,3.566666 h -2.052 l 3.92,-13.43706608 h 2.964 l 3.92,13.43706608" /><path
     id="path132"
     style="fill:#ffffff;fill-opacity:1;fill-rule:nonzero;stroke:none;stroke-width:0.133333"
     d="m 155.53733,11.867735 h 6.304 v 1.783333 h -8.39867 V 0.21400192 h 2.09467 V 11.867735" /><path
     id="path134"
     style="fill:#ffffff;fill-opacity:1;fill-rule:nonzero;stroke:none;stroke-width:0.133333"
     d="m 55.821332,36.896401 c 0.788,0 1.3964,-0.221467 1.824533,-0.6636 0.428667,-0.442667 0.6432,-1.071333 0.6432,-1.887467 v -9.247999 h 2.032267 v 9.247999 c 0,1.3276 -0.411467,2.392134 -1.2344,3.1932 -0.822933,0.802134 -1.911467,1.203067 -3.2656,1.203067 -1.368267,0 -2.4708,-0.400933 -3.307333,-1.203067 -0.836934,-0.801066 -1.2552,-1.8656 -1.2552,-3.1932 v -9.247999 h 2.095333 v 9.247999 c 0,0.816134 0.2136,1.4448 0.642267,1.887467 0.428133,0.442133 1.037466,0.6636 1.824933,0.6636" /><path
     id="path136"
     style="fill:#ffffff;fill-opacity:1;fill-rule:nonzero;stroke:none;stroke-width:0.133333"
     d="m 73.517198,38.534401 h -2.551066 l -4.416667,-10.7208 v 10.7208 H 64.704132 V 25.097335 h 2.530266 l 4.437467,10.740666 V 25.097335 h 1.845333 v 13.437066" /><path
     id="path138"
     style="fill:#ffffff;fill-opacity:1;fill-rule:nonzero;stroke:none;stroke-width:0.133333"
     d="m 86.216131,36.751068 v 1.783333 h -8.937466 v -1.783333 h 3.442666 v -9.849467 h -3.380133 v -1.804266 h 8.8124 v 1.804266 h -3.380133 v 9.849467 h 3.442666" /><path
     id="path140"
     style="fill:#ffffff;fill-opacity:1;fill-rule:nonzero;stroke:none;stroke-width:0.133333"
     d="m 98.969731,25.097335 -3.752,13.437066 h -2.966133 l -3.7532,-13.437066 h 2.177066 l 3.090134,11.799066 3.090133,-11.799066 h 2.114" /><path
     id="path142"
     style="fill:#ffffff;fill-opacity:1;fill-rule:nonzero;stroke:none;stroke-width:0.133333"
     d="m 104.52706,36.751068 h 6.0756 v 1.783333 h -8.1688 V 25.097335 h 8.1688 v 1.804266 h -6.0756 v 3.9192 h 5.16414 v 1.803733 h -5.16414 v 4.126534" /><path
     id="path144"
     style="fill:#ffffff;fill-opacity:1;fill-rule:nonzero;stroke:none;stroke-width:0.133333"
     d="m 121.64173,29.036935 c 0,-0.677067 -0.21107,-1.202534 -0.63133,-1.575467 -0.42187,-0.373467 -1.0068,-0.559867 -1.75254,-0.559867 h -2.4672 v 4.333867 h 2.4672 c 0.7604,0 1.34787,-0.190134 1.76294,-0.5704 0.41413,-0.380133 0.62093,-0.923467 0.62093,-1.628133 z m -4.85107,4.002666 v 5.4948 h -2.09533 V 25.097335 h 4.58333 c 1.36827,0 2.45734,0.345866 3.2656,1.036533 0.8084,0.691067 1.2136,1.645867 1.2136,2.862 0,0.9536 -0.23186,1.752 -0.69533,2.395333 -0.4636,0.642667 -1.13027,1.0952 -2.00107,1.357733 l 3.19374,5.785467 h -2.36347 l -2.924,-5.4948 h -2.17707" /><path
     id="path146"
     style="fill:#ffffff;fill-opacity:1;fill-rule:nonzero;stroke:none;stroke-width:0.133333"
     d="m 136.22,34.946934 c 0,1.147867 -0.408,2.066667 -1.224,2.757734 -0.81467,0.691733 -1.91427,1.036933 -3.29707,1.036933 -0.7744,0 -1.56867,-0.110933 -2.38387,-0.331733 -0.81666,-0.221334 -1.54786,-0.531734 -2.19786,-0.9328 l 0.8916,-1.639067 c 0.66306,0.387467 1.29853,0.671333 1.90786,0.850533 0.60787,0.180267 1.21614,0.269334 1.82454,0.269334 0.74573,0 1.32653,-0.162 1.74146,-0.487067 0.41467,-0.3244 0.62267,-0.790533 0.62267,-1.399467 0,-0.442133 -0.16667,-0.8364 -0.49867,-1.182266 -0.33066,-0.345334 -1.064,-0.759867 -2.19786,-1.244267 -0.7604,-0.3312 -1.32027,-0.601067 -1.6796,-0.8084 -0.35947,-0.2072 -0.66307,-0.421333 -0.91147,-0.642667 -0.40107,-0.359333 -0.69893,-0.757333 -0.89227,-1.192133 -0.19373,-0.435466 -0.29,-0.922933 -0.29,-1.462 0,-1.078133 0.38694,-1.955733 1.16147,-2.633333 0.77333,-0.677067 1.78907,-1.016667 3.0484,-1.016667 0.7312,0 1.45053,0.0968 2.156,0.290667 0.704,0.193733 1.38933,0.477067 2.05333,0.85 l -0.83066,1.638 c -0.608,-0.331333 -1.18934,-0.576667 -1.74134,-0.735467 -0.55293,-0.1588 -1.092,-0.239066 -1.61706,-0.239066 -0.66347,0 -1.18587,0.159333 -1.56614,0.477066 -0.38013,0.3188 -0.57026,0.7396 -0.57026,1.2652 0,0.442667 0.1692,0.8328 0.50773,1.171334 0.33853,0.339066 1.0756,0.756666 2.21,1.254666 0.74573,0.345333 1.2984,0.618667 1.6584,0.818667 0.35867,0.200533 0.66267,0.411466 0.912,0.632933 0.41467,0.359333 0.71867,0.756133 0.912,1.192133 0.19467,0.435467 0.29067,0.9156 0.29067,1.4412" /><path
     id="path148"
     style="fill:#ffffff;fill-opacity:1;fill-rule:nonzero;stroke:none;stroke-width:0.133333"
     d="m 148.37866,36.751068 v 1.783333 h -8.93733 v -1.783333 h 3.44267 v -9.849467 h -3.38 v -1.804266 h 8.812 v 1.804266 h -3.37867 v 9.849467 h 3.44133" /><path
     id="path150"
     style="fill:#ffffff;fill-opacity:1;fill-rule:nonzero;stroke:none;stroke-width:0.133333"
     d="m 156.85066,26.901601 v 11.6328 H 154.776 v -11.6328 h -4.04267 v -1.804266 h 10.16 v 1.804266 h -4.04267" /><path
     id="path152"
     style="fill:#ffffff;fill-opacity:1;fill-rule:nonzero;stroke:none;stroke-width:0.133333"
     d="m 169.04666,33.329734 v 5.204667 H 166.952 v -5.204667 l -4.292,-8.232399 h 2.23866 l 3.152,6.283333 3.132,-6.283333 h 2.11467 l -4.25067,8.232399" /><path
     id="path154"
     style="fill:#ffffff;fill-opacity:1;fill-rule:nonzero;stroke:none;stroke-width:0.133333"
     d="m 52.918265,56.636454 c 0,1.7698 0.2312,3.06876 0.6948,3.89844 0.4624,0.829173 1.1848,1.244266 2.166667,1.244266 0.9948,0 1.723867,-0.4078 2.188,-1.223426 0.462933,-0.815627 0.695333,-2.080734 0.695333,-3.7948 0,-1.741667 -0.2324,-3.03072 -0.695333,-3.867187 -0.464133,-0.836453 -1.1932,-1.25468 -2.188,-1.25468 -0.995867,0 -1.721333,0.40104 -2.177067,1.2026 -0.4568,0.80208 -0.6844,2.066667 -0.6844,3.794787 z m 7.900533,0.12448 c 0,2.22552 -0.4324,3.92604 -1.296399,5.10104 -0.8636,1.175005 -2.110934,1.762506 -3.742667,1.762506 -1.672933,0 -2.927067,-0.58073 -3.764133,-1.742186 -0.835867,-1.161467 -1.2536,-2.909374 -1.2536,-5.24584 0,-2.211453 0.4344,-3.908853 1.305733,-5.090627 0.871333,-1.18228 2.107733,-1.773426 3.712,-1.773426 1.6864,0 2.9484,0.58072 3.783867,1.742186 0.835866,1.160934 1.255199,2.910414 1.255199,5.246347" /><path
     id="path156"
     style="fill:#ffffff;fill-opacity:1;fill-rule:nonzero;stroke:none;stroke-width:0.133333"
     d="m 67.148398,57.714587 v 5.702601 H 65.075465 V 49.980267 h 8.148533 v 1.804107 h -6.0756 v 4.12604 h 5.164134 v 1.804173 h -5.164134" /><path
     id="path158"
     style="fill:#ffffff;fill-opacity:1;fill-rule:nonzero;stroke:none;stroke-width:0.133333"
     d="m 85.127598,56.636454 c 0,1.7698 0.230267,3.06876 0.693733,3.89844 0.464134,0.829173 1.185467,1.244266 2.166667,1.244266 0.9964,0 1.7256,-0.4078 2.189066,-1.223426 0.462534,-0.815627 0.693734,-2.080734 0.693734,-3.7948 0,-1.741667 -0.2312,-3.03072 -0.693734,-3.867187 -0.463466,-0.836453 -1.192666,-1.25468 -2.189066,-1.25468 -0.9948,0 -1.719733,0.40104 -2.176533,1.2026 -0.455734,0.80208 -0.683867,2.066667 -0.683867,3.794787 z m 7.899466,0.12448 c 0,2.22552 -0.431733,3.92604 -1.295333,5.10104 -0.864533,1.175005 -2.112,1.762506 -3.743733,1.762506 -1.671867,0 -2.926533,-0.58073 -3.762933,-1.742186 -0.837067,-1.161467 -1.255334,-2.909374 -1.255334,-5.24584 0,-2.211453 0.436534,-3.908853 1.307334,-5.090627 0.871333,-1.18228 2.1084,-1.773426 3.710933,-1.773426 1.687466,0 2.948,0.58072 3.785466,1.742186 0.835867,1.160934 1.2536,2.910414 1.2536,5.246347" /><path
     id="path160"
     style="fill:#ffffff;fill-opacity:1;fill-rule:nonzero;stroke:none;stroke-width:0.133333"
     d="m 104.91933,59.829694 c 0,1.147906 -0.40733,2.066666 -1.224,2.757806 -0.81507,0.691667 -1.91413,1.03698 -3.29693,1.03698 -0.774402,0 -1.568669,-0.110938 -2.384402,-0.331772 -0.816134,-0.221353 -1.547867,-0.53177 -2.197867,-0.932812 l 0.892267,-1.639069 c 0.6624,0.387507 1.2984,0.67136 1.9072,0.850533 0.6084,0.1802 1.216133,0.269267 1.824532,0.269267 0.74587,0 1.32707,-0.161987 1.74213,-0.486987 0.41414,-0.32448 0.6224,-0.790613 0.6224,-1.39948 0,-0.442186 -0.16666,-0.836453 -0.4984,-1.18228 -0.3312,-0.34532 -1.06413,-0.759906 -2.1984,-1.24428 -0.760529,-0.33124 -1.320396,-0.601039 -1.679196,-0.808333 -0.359333,-0.207293 -0.663066,-0.421346 -0.911466,-0.642706 -0.4016,-0.359374 -0.699467,-0.757294 -0.892134,-1.192187 -0.1944,-0.435413 -0.290133,-0.92292 -0.290133,-1.461973 0,-1.078134 0.3864,-1.955734 1.161467,-2.633854 0.772933,-0.676546 1.789066,-1.016146 3.047862,-1.016146 0.73174,0 1.45054,0.09693 2.15627,0.290666 0.70413,0.193734 1.3896,0.47704 2.05307,0.84996 l -0.83014,1.638014 c -0.6084,-0.331254 -1.18906,-0.57656 -1.7412,-0.735414 -0.55306,-0.158853 -1.09213,-0.239066 -1.6172,-0.239066 -0.663996,0 -1.185862,0.159373 -1.566662,0.47708 -0.3796,0.31824 -0.569734,0.739586 -0.569734,1.265106 0,0.442707 0.168667,0.832814 0.507334,1.17136 0.338533,0.339054 1.076002,0.756774 2.209862,1.25468 0.74587,0.34532 1.29787,0.61876 1.6588,0.81876 0.3584,0.20052 0.66307,0.411454 0.91147,0.632813 0.41507,0.359374 0.7188,0.75624 0.91307,1.192187 0.19373,0.435413 0.29013,0.915613 0.29013,1.441147" /><path
     id="path162"
     style="fill:#ffffff;fill-opacity:1;fill-rule:nonzero;stroke:none;stroke-width:0.133333"
     d="m 113.35933,51.784374 v 11.632814 h -2.07387 V 51.784374 h -4.04333 v -1.804107 h 10.16053 v 1.804107 h -4.04333" /><path
     id="path164"
     style="fill:#ffffff;fill-opacity:1;fill-rule:nonzero;stroke:none;stroke-width:0.133333"
     d="m 127.85266,53.919787 c 0,-0.67708 -0.21093,-1.2026 -0.63293,-1.57552 -0.42187,-0.37344 -1.0052,-0.559893 -1.75093,-0.559893 H 123 v 4.333853 h 2.4688 c 0.75933,0 1.34733,-0.190106 1.76146,-0.570306 0.4156,-0.380214 0.6224,-0.92344 0.6224,-1.628134 z M 123,57.9224 v 5.494788 h -2.09374 V 49.980267 h 4.58174 c 1.3688,0 2.45893,0.345734 3.2672,1.0364 0.8084,0.691147 1.21253,1.645827 1.21253,2.861974 0,0.953653 -0.23173,1.752093 -0.69427,2.39532 -0.4636,0.642186 -1.13026,1.095306 -2.00106,1.357813 l 3.19213,5.785414 H 128.1016 L 125.17866,57.9224 H 123" /><path
     id="path166"
     style="fill:#ffffff;fill-opacity:1;fill-rule:nonzero;stroke:none;stroke-width:0.133333"
     d="M 138.52533,51.472921 136.68,58.087494 h 3.67066 z m 5.43333,11.944267 h -2.136 l -0.996,-3.566668 h -4.624 l -0.996,3.566668 h -2.052 l 3.92,-13.436921 h 2.964 l 3.92,13.436921" /><path
     id="path168"
     style="fill:#ffffff;fill-opacity:1;fill-rule:nonzero;stroke:none;stroke-width:0.133333"
     d="M 155.52133,49.980267 151.768,63.417188 h -2.96534 l -3.75333,-13.436921 h 2.17733 l 3.08934,11.798893 3.09066,-11.798893 h 2.11467" /><path
     id="path170"
     style="fill:#ffffff;fill-opacity:1;fill-rule:nonzero;stroke:none;stroke-width:0.133333"
     d="m 161.992,51.472921 -1.84534,6.614573 h 3.66934 z m 5.432,11.944267 h -2.13467 l -0.99467,-3.566668 h -4.62533 l -0.99467,3.566668 h -2.05333 L 160.54,49.980267 h 2.96666 l 3.91734,13.436921" /></svg>
