<?xml version="1.0" encoding="UTF-8" standalone="no"?>
<svg
   xmlns:dc="http://purl.org/dc/elements/1.1/"
   xmlns:cc="http://creativecommons.org/ns#"
   xmlns:rdf="http://www.w3.org/1999/02/22-rdf-syntax-ns#"
   xmlns:svg="http://www.w3.org/2000/svg"
   xmlns="http://www.w3.org/2000/svg"
   viewBox="0 0 211.65334 75.58667"
   height="75.58667"
   width="211.65334"
   xml:space="preserve"
   id="svg2"
   version="1.1"><metadata
     id="metadata8"><rdf:RDF><cc:Work
         rdf:about=""><dc:format>image/svg+xml</dc:format><dc:type
           rdf:resource="http://purl.org/dc/dcmitype/StillImage" /></cc:Work></rdf:RDF></metadata><defs
     id="defs6" /><g
     transform="matrix(1.3333333,0,0,-1.3333333,0,75.586667)"
     id="g10"><g
       transform="scale(0.1)"
       id="g12"><path
         id="path14"
         style="fill:#ffffff;fill-opacity:1;fill-rule:nonzero;stroke:none"
         d="M 1577.48,0 H 56.6914 V 510.238 H 1577.48 Z M 0,566.934 V 0 H 1577.48 V 566.934 H 0" /><path
         id="path16"
         style="fill:#ffffff;fill-opacity:1;fill-rule:nonzero;stroke:none"
         d="m 170.078,340.16 h 50.711 v -58.582 h 0.473 l 45.191,58.582 h 62.473 l -59.707,-66.457 69.394,-103.625 h -63.175 l -40.575,66.223 -14.074,-15.938 V 170.078 H 170.078 V 340.16" /><path
         id="path18"
         style="fill:#ffffff;fill-opacity:1;fill-rule:nonzero;stroke:none"
         d="m 490.793,235.879 c 0,-47.129 -24.672,-69.766 -74.934,-69.766 -50.254,0 -75.156,22.637 -75.156,69.766 V 340.16 h 50.723 v -92.621 c 0,-17.383 0,-39.043 24.668,-39.043 23.984,0 23.984,21.66 23.984,39.043 v 92.621 h 50.715 V 235.879" /><path
         id="path20"
         style="fill:#ffffff;fill-opacity:1;fill-rule:nonzero;stroke:none"
         d="m 565.18,340.16 h 50.734 V 213.691 h 71.559 V 170.078 H 565.18 V 340.16" /><path
         id="path22"
         style="fill:#ffffff;fill-opacity:1;fill-rule:nonzero;stroke:none"
         d="m 703.008,340.16 h 134.988 v -43.578 h -84.734 v -21.219 h 76.965 v -40.492 h -76.965 v -21.18 h 87.226 V 170.078 H 703.008 V 340.16" /><path
         id="path24"
         style="fill:#ffffff;fill-opacity:1;fill-rule:nonzero;stroke:none"
         d="m 1003.61,235.879 c 0,-47.129 -24.665,-69.766 -74.919,-69.766 -50.273,0 -75.156,22.637 -75.156,69.766 V 340.16 h 50.703 v -92.621 c 0,-17.383 0,-39.043 24.668,-39.043 23.985,0 23.985,21.66 23.985,39.043 v 92.621 h 50.719 V 235.879" /><path
         id="path26"
         style="fill:#ffffff;fill-opacity:1;fill-rule:nonzero;stroke:none"
         d="m 1116.61,170.078 h -56.72 l -49.12,170.082 h 51.19 l 26.98,-103.137 h 0.46 l 26.51,103.137 h 52.11 l -51.41,-170.082" /><path
         id="path28"
         style="fill:#ffffff;fill-opacity:1;fill-rule:nonzero;stroke:none"
         d="m 1175.18,340.16 h 134.96 v -43.578 h -84.73 v -21.219 h 76.97 v -40.492 h -76.97 v -21.18 h 87.25 V 170.078 H 1175.18 V 340.16" /><path
         id="path30"
         style="fill:#ffffff;fill-opacity:1;fill-rule:nonzero;stroke:none"
         d="m 1325.77,340.16 h 51.88 l 47.95,-90.98 h 0.46 v 90.98 h 47.95 V 170.078 h -49.33 l -50.49,92.918 h -0.47 v -92.918 h -47.95 V 340.16" /></g></g></svg>