<?xml version="1.0" encoding="UTF-8" standalone="no"?>
<svg
   xmlns:dc="http://purl.org/dc/elements/1.1/"
   xmlns:cc="http://creativecommons.org/ns#"
   xmlns:rdf="http://www.w3.org/1999/02/22-rdf-syntax-ns#"
   xmlns:svg="http://www.w3.org/2000/svg"
   xmlns="http://www.w3.org/2000/svg"
   xmlns:sodipodi="http://sodipodi.sourceforge.net/DTD/sodipodi-0.dtd"
   xmlns:inkscape="http://www.inkscape.org/namespaces/inkscape"
   height="90.888"
   width="613.909"
   version="1.1"
   viewBox="0 0 613.909 90.888"
   id="svg8"
   sodipodi:docname="maastricht-university.svg"
   inkscape:version="0.92.3 (2405546, 2018-03-11)">
  <metadata
     id="metadata14">
    <rdf:RDF>
      <cc:Work
         rdf:about="">
        <dc:format>image/svg+xml</dc:format>
        <dc:type
           rdf:resource="http://purl.org/dc/dcmitype/StillImage" />
        <dc:title></dc:title>
      </cc:Work>
    </rdf:RDF>
  </metadata>
  <defs
     id="defs12" />
  <sodipodi:namedview
     pagecolor="#ffffff"
     bordercolor="#666666"
     borderopacity="1"
     objecttolerance="10"
     gridtolerance="10"
     guidetolerance="10"
     inkscape:pageopacity="0"
     inkscape:pageshadow="2"
     inkscape:window-width="2195"
     inkscape:window-height="1081"
     id="namedview10"
     showgrid="false"
     fit-margin-top="0"
     fit-margin-left="0"
     fit-margin-right="0"
     fit-margin-bottom="0"
     inkscape:pagecheckerboard="true"
     inkscape:zoom="2.2909091"
     inkscape:cx="316.78808"
     inkscape:cy="29.372464"
     inkscape:window-x="2822"
     inkscape:window-y="170"
     inkscape:window-maximized="0"
     inkscape:current-layer="svg8" />
  <path
     d="M 0,0 V 54.124 L 55.58,28.849 Z M 66.889,36.983 V 90.888 L 11.323,65.549 Z m 81.05,28.689 -5.73,-36.854 h -8.24 l -6.34,19.055 c -0.92,2.73 -1.53,4.805 -2.07,7.644 h -0.11 c -0.49,-2.621 -1.15,-5.132 -2.02,-7.753 l -6.17,-18.946 h -8.3 l -5.68,36.854 h 7.21 l 2.07,-16.98 c 0.44,-3.221 0.82,-6.115 1.04,-9.391 h 0.11 c 0.44,2.948 1.37,6.279 2.35,9.282 l 5.62,17.089 h 7.05 l 5.84,-18.509 c 0.93,-2.894 1.53,-5.514 2.02,-7.862 h 0.11 c 0.27,2.566 0.6,5.296 1.14,8.79 l 2.62,17.581 z m 26.56,0 c -0.11,-2.238 -0.16,-4.804 -0.16,-6.988 V 47.382 c 0,-5.897 -2.46,-9.446 -11.19,-9.446 -3.5,0 -6.99,0.71 -9.72,1.693 l 0.6,5.842 c 2.29,-1.311 5.57,-2.13 8.02,-2.13 3.93,0 5.3,1.474 5.3,4.314 v 1.474 c -9.23,0 -15.67,3.44 -15.67,9.937 0,4.368 2.84,7.152 7.75,7.152 4.04,0 7.37,-2.129 8.68,-5.187 l 0.06,0.055 c -0.22,1.42 -0.27,3.003 -0.27,4.586 z m -7.15,-11.356 c 0,3.276 -2.35,6.552 -5.79,6.552 -2.02,0 -3.22,-1.147 -3.22,-2.894 0,-2.184 1.64,-4.313 9.01,-4.313 z m 35.73,11.356 c -0.11,-2.238 -0.16,-4.804 -0.16,-6.988 V 47.382 c 0,-5.897 -2.46,-9.446 -11.2,-9.446 -3.49,0 -6.99,0.71 -9.72,1.693 l 0.61,5.842 c 2.29,-1.311 5.56,-2.13 8.02,-2.13 3.93,0 5.3,1.474 5.3,4.314 v 1.474 c -9.23,0 -15.67,3.44 -15.67,9.937 0,4.368 2.84,7.152 7.75,7.152 4.04,0 7.37,-2.129 8.68,-5.187 l 0.06,0.055 c -0.22,1.42 -0.28,3.003 -0.28,4.586 z m -7.15,-11.356 c 0,3.276 -2.35,6.552 -5.79,6.552 -2.02,0 -3.22,-1.147 -3.22,-2.894 0,-2.184 1.64,-4.313 9.01,-4.313 z m 31.41,2.948 c 0,-8.79 -11.13,-6.825 -11.13,-11.247 0,-1.693 1.31,-2.785 4.04,-2.785 1.69,0 3.49,0.273 5.02,0.71 l 0.22,-5.515 c -1.64,-0.273 -3.39,-0.491 -4.97,-0.491 -7.64,0 -11.52,3.931 -11.52,8.681 0,9.227 10.97,6.498 10.97,11.302 0,1.802 -1.74,2.894 -4.42,2.894 -2.07,0 -4.15,-0.382 -5.84,-0.819 l -0.16,5.733 c 1.74,0.273 3.71,0.491 5.67,0.491 7.43,0 12.12,-3.603 12.12,-8.954 z m 20.72,8.245 v -5.624 c -0.98,0.273 -2.24,0.437 -3.38,0.437 -2.41,0 -3.23,-0.983 -3.23,-4.478 V 43.942 h 6.61 v -5.405 h -6.61 v -10.21 l -6.98,1.856 v 8.354 h -4.65 v 5.405 h 4.7 v 13.759 c 0,6.333 1.86,8.517 7.86,8.517 1.91,0 3.93,-0.273 5.68,-0.709 z m 20.5,-27.573 c -4.7,-0.382 -7.32,2.621 -8.63,6.06 h -0.11 c 0.33,-1.91 0.49,-4.094 0.49,-5.459 h -6.6 v 27.135 h 6.99 V 54.589 c 0,-7.535 2.51,-10.811 7.53,-9.774 z m 12.36,-7.152 c 0,-2.348 -1.97,-4.205 -4.37,-4.205 -2.4,0 -4.31,1.911 -4.31,4.205 0,2.347 1.91,4.258 4.31,4.258 2.4,0 4.37,-1.911 4.37,-4.258 z m -0.87,34.888 V 38.537 h -6.99 v 27.135 z m 25.24,-0.764 -0.54,-5.951 c -1.48,0.764 -3.5,1.146 -5.35,1.146 -4.64,0 -6.45,-3.167 -6.45,-7.807 0,-5.133 2.24,-8.409 6.67,-8.409 1.74,0 3.44,0.437 4.91,0.983 l 0.71,-6.06 c -1.75,-0.492 -3.71,-0.765 -5.57,-0.765 -9.61,0 -14.03,6.497 -14.03,14.96 0,9.228 4.69,13.159 12.23,13.159 2.89,0 5.57,-0.546 7.42,-1.256 z m 29.02,0.764 V 46.617 c 0,-4.75 -1.97,-8.681 -8.08,-8.681 -4.21,0 -7.32,2.02 -8.9,5.078 l -0.11,-0.055 c 0.38,-1.583 0.49,-3.876 0.49,-5.514 v -11.63 h -6.99 v 39.857 h 6.99 V 52.569 c 0,-4.751 2.78,-8.791 6.33,-8.791 2.57,0 3.33,1.693 3.33,4.532 v 17.362 z m 22.35,-0.163 v -5.624 c -0.98,0.273 -2.24,0.437 -3.38,0.437 -2.41,0 -3.22,-0.983 -3.22,-4.478 V 43.942 h 6.6 v -5.405 h -6.6 v -10.21 l -6.99,1.856 v 8.354 h -4.64 v 5.405 h 4.69 v 13.759 c 0,6.333 1.86,8.517 7.86,8.517 1.91,0 3.93,-0.273 5.68,-0.709 z m 47.93,-14.142 V 28.818 h -7.04 v 22.986 c 0,6.279 -2.3,8.572 -7.76,8.572 -6.11,0 -7.64,-3.276 -7.64,-7.917 V 28.818 h -7.1 v 24.078 c 0,7.043 2.62,13.377 14.25,13.377 9.72,0 15.29,-4.805 15.29,-14.906 z m 31.15,14.305 V 46.617 c 0,-4.75 -1.97,-8.681 -8.09,-8.681 -4.42,0 -7.58,2.239 -9.22,5.46 l -0.06,-0.055 c 0.28,-1.419 0.38,-3.549 0.38,-4.804 h -6.6 v 27.135 h 6.99 V 52.569 c 0,-4.751 2.78,-8.791 6.33,-8.791 2.57,0 3.33,1.693 3.33,4.532 v 17.362 z m 15.41,-34.888 c 0,-2.348 -1.96,-4.205 -4.36,-4.205 -2.41,0 -4.32,1.911 -4.32,4.205 0,2.347 1.91,4.258 4.32,4.258 2.4,0 4.36,-1.911 4.36,-4.258 z m -0.87,34.888 V 38.537 h -6.99 v 27.135 z m 31.2,-27.135 h -7.43 l -4.36,12.448 c -0.66,1.857 -1.2,3.931 -1.64,5.788 h -0.11 c -0.49,-1.966 -1.15,-4.15 -1.8,-6.006 l -4.32,-12.23 h -7.64 l 10.05,27.135 h 7.09 z m 26.12,11.52 c 0,-6.716 -3.49,-12.121 -11.41,-12.121 -8.14,0 -12.72,6.115 -12.72,14.414 0,9.555 4.8,13.868 13.43,13.868 3.38,0 6.82,-0.6 9.72,-1.747 l -0.66,-5.405 c -2.34,1.092 -5.24,1.692 -7.91,1.692 -5.03,0 -7.54,-2.457 -7.48,-7.534 h 16.81 c 0.17,-1.147 0.22,-2.239 0.22,-3.167 z m -6.93,-1.583 h -9.99 c 0.38,-3.276 2.4,-5.406 5.29,-5.406 2.95,0 4.81,2.02 4.7,5.406 z m 27.59,-10.538 c -4.69,-0.382 -7.31,2.621 -8.62,6.06 h -0.11 c 0.32,-1.91 0.49,-4.094 0.49,-5.459 h -6.61 v 27.135 h 6.99 V 54.589 c 0,-7.535 2.51,-10.811 7.53,-9.774 z m 21.32,19.328 c 0,-8.79 -11.14,-6.825 -11.14,-11.247 0,-1.693 1.31,-2.785 4.04,-2.785 1.69,0 3.49,0.273 5.02,0.71 l 0.22,-5.515 c -1.64,-0.273 -3.38,-0.491 -4.97,-0.491 -7.64,0 -11.52,3.931 -11.52,8.681 0,9.227 10.98,6.498 10.98,11.302 0,1.802 -1.75,2.894 -4.43,2.894 -2.07,0 -4.14,-0.382 -5.84,-0.819 l -0.16,5.733 c 1.75,0.273 3.71,0.491 5.68,0.491 7.42,0 12.12,-3.603 12.12,-8.954 z m 13.78,-26.48 c 0,-2.348 -1.97,-4.205 -4.37,-4.205 -2.4,0 -4.31,1.911 -4.31,4.205 0,2.347 1.91,4.258 4.31,4.258 2.4,0 4.37,-1.911 4.37,-4.258 z m -0.87,34.888 V 38.537 h -6.99 v 27.135 z m 22.3,-0.163 v -5.624 c -0.99,0.273 -2.24,0.437 -3.39,0.437 -2.4,0 -3.22,-0.983 -3.22,-4.478 V 43.942 h 6.61 v -5.405 h -6.61 v -10.21 l -6.99,1.856 v 8.354 h -4.64 v 5.405 h 4.69 v 13.759 c 0,6.333 1.86,8.517 7.87,8.517 1.91,0 3.93,-0.273 5.68,-0.709 z m 29.12,-26.972 h -7.48 l -3.22,9.227 c -0.88,2.566 -2.02,6.17 -2.62,8.626 h -0.06 c -0.6,-2.456 -1.31,-5.132 -2.13,-7.48 l -3.65,-10.373 h -7.76 l 9.99,27.135 -0.92,2.621 c -1.42,4.04 -2.95,5.078 -5.25,5.078 -1.31,0 -2.45,-0.219 -3.71,-0.601 l -0.44,6.008 c 1.15,0.27 2.63,0.43 3.83,0.43 6.22,0 9.06,-2.561 12.28,-11.024 z"
     id="path4"
     style="fill:#ffffff;fill-opacity:1"
     inkscape:connector-curvature="0" />
  <path
     d="M 24.135,29.811 V 18.505 h -5.111 v 11.583 c 0,2.334 -0.667,3.223 -2.75,3.223 -2.139,0 -2.75,-1.084 -2.75,-3.084 V 18.505 H 8.357 v 11.972 c 0,3.973 1.583,7.167 7.611,7.167 5.028,0 8.167,-2.389 8.167,-7.833 z M 63.118,73.335 59.317,54.585 H 53.643 L 50.196,68.044 47.057,54.585 h -5.398 l -4.63,18.75 h 4.63 l 2.749,-13.437 3.247,13.437 h 5.157 l 3.385,-13.437 2.405,13.437 z"
     id="path6"
     inkscape:connector-curvature="0"
     style="fill:#ffffff" />
</svg>
