<?xml version="1.0" encoding="UTF-8" standalone="no"?>
<!-- Created with Inkscape (http://www.inkscape.org/) -->

<svg
   xmlns:dc="http://purl.org/dc/elements/1.1/"
   xmlns:cc="http://creativecommons.org/ns#"
   xmlns:rdf="http://www.w3.org/1999/02/22-rdf-syntax-ns#"
   xmlns:svg="http://www.w3.org/2000/svg"
   xmlns="http://www.w3.org/2000/svg"
   xmlns:sodipodi="http://sodipodi.sourceforge.net/DTD/sodipodi-0.dtd"
   xmlns:inkscape="http://www.inkscape.org/namespaces/inkscape"
   version="1.1"
   id="svg2"
   width="1499.6539"
   height="649.76941"
   viewBox="0 0 1499.6539 649.76941"
   sodipodi:docname="msc.svg"
   inkscape:version="0.92.3 (2405546, 2018-03-11)">
  <metadata
     id="metadata8">
    <rdf:RDF>
      <cc:Work
         rdf:about="">
        <dc:format>image/svg+xml</dc:format>
        <dc:type
           rdf:resource="http://purl.org/dc/dcmitype/StillImage" />
        <dc:title></dc:title>
      </cc:Work>
    </rdf:RDF>
  </metadata>
  <defs
     id="defs6" />
  <sodipodi:namedview
     pagecolor="#ffffff"
     bordercolor="#666666"
     borderopacity="1"
     objecttolerance="10"
     gridtolerance="10"
     guidetolerance="10"
     inkscape:pageopacity="0"
     inkscape:pageshadow="2"
     inkscape:window-width="1965"
     inkscape:window-height="1108"
     id="namedview4"
     showgrid="false"
     fit-margin-top="0"
     fit-margin-left="0"
     fit-margin-right="0"
     fit-margin-bottom="0"
     inkscape:pagecheckerboard="true"
     inkscape:zoom="1.008"
     inkscape:cx="763.80437"
     inkscape:cy="365.2637"
     inkscape:window-x="2739"
     inkscape:window-y="193"
     inkscape:window-maximized="0"
     inkscape:current-layer="svg2" />
  <path
     style="fill:#fffefe;fill-opacity:1"
     d="m 109.4462,639.52238 c 16.3755,-36.79789 28.85695,-75.30076 34.44299,-106.25 2.65686,-14.72024 3.03702,-42.53114 0.70398,-51.5 l -1.4307,-5.5 -0.6908,10.09405 c -0.37994,5.55173 -1.63598,15.67673 -2.7912,22.5 -2.54417,15.02707 -1.92087,14.12178 -26.8176,38.94981 -30.619283,30.53478 -66.361969,56.52394 -103.073591,74.9467 -10.7915675,5.41546 -12.9102064,5.50498 -5.1100349,0.21591 2.6714645,-1.81144 11.1606929,-8.33644 18.8649509,-14.5 C 72.753158,569.11072 111.8933,525.0456 135.61355,482.30789 l 6.0216,-10.84935 -2.31861,-6.16 C 132.56536,447.36231 123.19699,433.25879 89.83873,390.81271 56.983044,349.0061 43.507014,323.91278 36.650458,291.77238 c -2.926605,-13.71859 -3.192578,-42.44278 -0.555572,-60 6.980562,-46.47667 25.372211,-87.51341 58.262781,-130 11.486653,-14.837954 42.539873,-46.041844 57.912803,-58.193804 12.20395,-9.646949 20.79909,-15.8062 22.05731,-15.8062 0.38332,0 -2.40109,3.2625 -6.18759,7.25 C 124.5791,80.895886 91.667975,141.08616 80.265962,195.7332 c -5.207277,24.9572 -6.890794,56.6755 -4.119323,77.61012 5.262912,39.754 17.853298,64.89267 55.557441,110.92906 27.003,32.97042 35.83625,47.84113 41.77648,70.33046 2.18734,8.28111 2.56489,11.89515 2.62947,25.16954 0.0521,10.71392 -0.46184,18.43341 -1.66447,25 -7.0552,38.52294 -21.75409,75.10951 -45.19761,112.5 -6.84325,10.91444 -22.56018,32.49224 -23.6703,32.49702 -0.38106,0.002 1.35979,-4.60952 3.86855,-10.24702 z M 1457.511,622.40441 c -4.6629,-1.74001 -6.472,-3.2122 -8.3064,-6.75954 -2.3911,-4.62387 -1.7505,-6.98261 3.2852,-12.09516 l 4.7193,-4.79137 -3.7193,-3.06579 c -4.7954,-3.95277 -4.856,-6.81577 -0.2193,-10.35237 3.7228,-2.83949 4.4502,-4.98919 2.0057,-5.92723 -2.7415,-1.05203 -5.4981,-6.93522 -5.502,-11.74269 0,-5.08728 2.5668,-9.7846 7.2571,-13.25923 3.7518,-2.77945 13.8927,-3.43699 19.1473,-1.24151 2.1099,0.88157 6.4261,1.60286 9.5916,1.60286 6.0863,0 8.5344,1.44468 7.4106,4.37325 -0.4286,1.11686 -1.8445,1.62675 -4.5173,1.62675 h -3.893 v 4.18428 c 0,5.68544 -3.3704,12.2635 -7.6334,14.89818 -2.2225,1.37359 -5.8191,2.34471 -9.8955,2.67193 -6.7772,0.544 -10.2653,2.73352 -9.118,5.72337 1.0227,2.6652 5.6852,3.73064 13.268,3.03192 7.6324,-0.70327 14.6431,0.57374 17.5913,3.20427 5.0014,4.46268 4.1986,13.61157 -1.7746,20.22318 -6.4639,7.15483 -21.0301,10.9291 -29.6973,7.6949 z m 20.6609,-6.0264 c 4.3197,-1.80486 6.5986,-5.14565 6.5986,-9.67315 0,-5.8438 -2.5623,-7.36785 -13.0818,-7.78117 -8.7401,-0.34339 -8.9205,-0.30285 -11.8964,2.67308 -4.9858,4.98579 -3.4951,12.52791 2.9782,15.06789 3.6981,1.45106 11.5942,1.3041 15.4014,-0.28665 z m -4.8559,-40.06018 c 2.0211,-2.02113 2.4545,-3.4425 2.4545,-8.04966 0,-5.94432 -1.8781,-10.85128 -4.5448,-11.87461 -5.1883,-1.99094 -9.9134,0.65305 -11.4651,6.41543 -2.9158,10.82867 6.6763,20.3879 13.5554,13.50884 z m -252.1283,45.53788 c -1.142,-1.14049 -0.1896,-3.08333 1.5114,-3.08333 4.8626,0 5.0714,-1.25246 5.0714,-30.41644 0,-26.00359 -0.093,-27.35787 -2,-29.08356 -3.047,-2.75751 -2.482,-3.84696 3.5222,-6.79168 7.0646,-3.46481 7.7961,-3.43423 6.9778,0.29168 -0.78,3.5512 -0.1748,3.66084 5.6408,1.02196 14.1088,-6.40204 26.8592,2.06012 26.8592,17.82588 0,14.496 -9.3688,23.93737 -24.75,24.94175 l -7.25,0.47342 v 9.83331 c 0,8.69845 0.2232,9.95278 1.9343,10.8685 1.0638,0.56935 2.8968,1.03518 4.0733,1.03518 1.4695,0 2.0372,0.52869 1.8138,1.68898 -0.2816,1.46238 -1.8454,1.69716 -11.6561,1.75 -6.232,0.0336 -11.5186,-0.12648 -11.7481,-0.35565 z m 31.4234,-31.38428 c 3.0741,-1.48937 6.1254,-7.61613 6.8531,-13.76058 0.733,-6.18873 -1.6502,-12.88263 -5.8423,-16.41003 -3.5598,-2.99542 -11.0311,-3.49171 -14.6289,-0.97174 -2.1072,1.47593 -2.2217,2.24132 -2.2072,14.75 0.01,7.25632 0.3909,13.78562 0.85,14.50956 1.1342,1.78872 7.9269,4.02796 10.5256,3.4698 1.16,-0.24915 3.1624,-0.9633 4.4497,-1.58701 z m -829.84063,4.91758 c 0,-3.13012 0.27481,-3.09599 -5.1408,-0.63859 -7.9464,3.60577 -17.0835,1.78119 -23.04558,-4.60194 -3.64622,-3.90372 -4.81362,-7.4138 -4.81362,-14.47332 0,-14.59677 10.03042,-23.87197 25.83848,-23.89301 l 7.33847,-0.01 -0.33847,-11.12967 c -0.31142,-10.23999 -0.51834,-11.24897 -2.58848,-12.62197 -1.2375,-0.82077 -2.25,-2.05212 -2.25,-2.73634 0,-1.08087 10.12974,-5.51153 12.60267,-5.5123 0.51767,-1.6e-4 0.74917,12.74388 0.54715,30.12037 -0.1926,16.56636 -0.0421,32.58629 0.33439,35.59984 l 0.68458,5.47918 3.38695,-0.39541 c 3.33622,-0.38948 4.93695,0.87662 3.60174,2.84881 -0.36161,0.53412 -3.13248,1.51569 -6.15748,2.18127 -3.025,0.66557 -6.5125,1.47773 -7.75,1.8048 -1.91159,0.50524 -2.25,0.20113 -2.25,-2.02195 z m -4.1432,-5.71656 c 4.03117,-1.40527 4.39926,-3.00419 3.98125,-17.29382 -0.39534,-13.51456 -1.49548,-15.50882 -8.97604,-16.27127 -10.14767,-1.03429 -17.2078,10.23972 -13.96169,22.29482 2.58291,9.59221 10.41415,14.24815 18.95648,11.27027 z m 891.82093,7.44426 c -0.3728,-0.37271 -0.6777,-1.72766 -0.6777,-3.011 0,-1.28333 -0.1125,-2.33145 -0.25,-2.32914 -0.1375,0.002 -2.4638,1.1273 -5.1695,2.5 -8.5438,4.33454 -17.8173,2.80619 -21.0636,-3.47146 -1.1503,-2.22455 -1.5169,-6.42153 -1.5169,-17.36806 0,-14.29348 -0.024,-14.45067 -2.5,-16.07271 -4.4336,-2.90503 -3.6102,-3.48727 7.25,-5.12633 l 4.25,-0.64143 v 17.13336 c 0,16.85763 0.04,17.17285 2.4545,19.58789 3.947,3.94692 14.1201,2.61157 15.9243,-2.09025 0.8729,-2.2748 0.748,-25.71937 -0.1441,-27.0555 -0.4041,-0.60516 -1.7472,-1.63349 -2.9847,-2.28518 -3.3543,-1.76641 -2.744,-2.86272 2,-3.59269 2.3375,-0.35968 5.7125,-0.89932 7.5,-1.19919 l 3.25,-0.54522 v 18.48884 c 0,19.68812 0.4757,21.66968 4.8679,20.27568 2.2049,-0.69983 3.8767,1.11349 2.3937,2.59647 -0.5303,0.53029 -3.1686,1.54783 -5.8629,2.2612 -2.6943,0.71338 -5.8313,1.59525 -6.971,1.95972 -1.1398,0.36447 -2.3773,0.35772 -2.75,-0.015 z m -952.2191,-2.22399 c -10.87269,-4.93878 -14.67517,-19.45178 -8.32799,-31.78557 6.53075,-12.69047 25.24911,-15.54655 31.8536,-4.86027 2.43692,3.94302 2.66098,9.06393 0.43397,9.91851 -0.86998,0.33385 -7.45615,0.60699 -14.63592,0.60699 h -13.05414 l 0.63126,4.60555 c 0.3472,2.53305 1.58641,6.305 2.75381,8.38211 4.28783,7.62917 14.84753,10.44058 20.70441,5.51234 5.03378,-4.23564 7.20362,-2.33932 3.17848,2.77782 -4.84236,6.15607 -15.71926,8.39384 -23.53748,4.84252 z m 16.54137,-33.12034 c 0,-3.05804 -3.5577,-6.00051 -7.25,-5.99626 -3.76965,0.004 -9.13477,2.97817 -10.72136,5.94275 -1.07284,2.00461 -0.87195,2.05351 8.43618,2.05351 8.86851,0 9.53518,-0.13983 9.53518,-2 z m 110.79136,34.01159 c -5.01084,-1.51048 -9.00997,-5.24742 -11.54774,-10.79063 -4.93316,-10.77545 -1.03022,-23.3669 9.20433,-29.69452 4.13351,-2.55558 6.07415,-3.0712 12.47357,-3.31412 8.99163,-0.34133 12.42683,1.02237 12.90074,5.12132 0.17724,1.53302 -0.2278,3.45008 -0.90009,4.26014 -1.06521,1.2835 -1.49231,1.22648 -3.32226,-0.4435 -6.27135,-5.72311 -12.90503,-6.28875 -18.50372,-1.57776 -3.80721,3.20355 -5.44088,8.25737 -4.87502,15.08102 0.50179,6.05086 2.60213,9.56947 7.87078,13.18553 4.80044,3.29473 12.6989,2.69355 16.84892,-1.28242 2.62587,-2.51574 5.05913,-2.79199 5.05913,-0.57436 0,1.93608 -5.67627,7.41996 -9.45863,9.13805 -4.20209,1.90874 -11.08294,2.29811 -15.75001,0.89125 z m 34.31871,-0.4071 c -5.24922,-2.90942 -6.76897,-10.69741 -2.81277,-14.41407 1.26352,-1.18701 6.32602,-3.6427 11.25,-5.45708 l 8.9527,-3.29888 0.29846,-5.66877 c 0.34497,-6.55216 -1.82067,-9.7767 -6.54846,-9.75038 -3.78362,0.0211 -5.41007,1.25818 -6.67219,5.07502 -1.11634,3.37596 -5.19248,5.65525 -8.1108,4.53538 -3.89545,-1.49482 0.94456,-8.15695 8.7528,-12.04796 7.34262,-3.65898 13.6731,-3.53907 18.01441,0.34122 l 3.26578,2.91896 -0.31427,14.52668 c -0.37051,17.12596 0.22882,19.15436 5.41107,18.31339 4.23534,-0.6873 4.58511,1.24715 0.76834,4.24942 -3.55264,2.79451 -8.55719,2.67162 -12.00587,-0.29481 l -2.75225,-2.36739 -4.45245,2.36739 c -4.95328,2.63369 -9.44276,2.96818 -13.0445,0.97188 z m 14.67236,-6.35449 c 2.12093,-1.8521 3.86568,-10.73141 2.29896,-11.6997 -1.20064,-0.74203 -9.08868,2.14632 -11.28174,4.13102 -5.70799,5.16565 3.16923,12.64539 8.98278,7.56868 z m 81.61459,6.32095 c -2.25569,-0.98193 -3.27966,-2.23413 -3.75,-4.58586 -1.83636,-9.18177 0.69924,-12.14702 4.31927,-5.05117 2.35821,4.62248 5.48719,7.07209 9.00622,7.05077 3.08735,-0.0187 4.38175,-0.82672 5.87793,-3.66922 1.69262,-3.21571 -0.0743,-6.81466 -4.93622,-10.05434 -8.54157,-5.69157 -12.00666,-9.50236 -12.5154,-13.76401 -0.97111,-8.13483 5.01128,-13.49712 15.05793,-13.49712 7.78203,0 9.59628,1.29089 10.27482,7.31081 0.64175,5.69362 -1.16898,6.30141 -4.23792,1.42252 -3.5563,-5.65369 -11.79147,-6.37924 -13.10281,-1.15441 -0.97604,3.88884 0.52652,6.01008 7.54974,10.65839 8.31378,5.50246 10.58734,8.62252 10.46301,14.35867 -0.11,5.07515 -2.83858,8.78189 -8.12147,11.0329 -4.06268,1.73108 -11.84054,1.70272 -15.8851,-0.0579 z m 43.61012,-0.16393 c -7.94148,-3.44387 -12.01835,-10.11684 -11.98518,-19.61718 0.0276,-7.89462 2.37044,-13.25795 7.83463,-17.93509 4.89543,-4.1903 9.85467,-5.85475 17.44433,-5.85475 6.82241,0 10.3211,1.23374 11.1809,3.94272 1.646,5.18608 -2.42423,7.98837 -5.94775,4.09493 -5.15424,-5.69538 -15.37454,-4.25601 -19.73837,2.77984 -3.38791,5.46234 -3.22302,14.42729 0.36506,19.84925 3.08123,4.65606 8.01168,7.33484 13.49037,7.32952 3.89072,-0.004 10.34887,-3.11249 10.34887,-4.98156 0,-0.55809 0.675,-1.0147 1.5,-1.0147 2.59024,0 1.63705,3.79628 -1.82159,7.25493 -5.47257,5.47256 -15.42369,7.29504 -22.67127,4.15209 z m 71.78422,0.60457 c -8.08044,-2.4358 -13.20106,-10.43335 -13.09924,-20.4588 0.13903,-13.68851 9.06722,-23.55279 21.3177,-23.55279 5.80097,0 9.88241,1.77623 12.90188,5.61488 2.55705,3.25076 2.86821,9.87186 0.50651,10.77813 -0.86998,0.33385 -7.16998,0.60699 -14,0.60699 h -12.41821 l 0.0164,4.25 c 0.0189,4.88699 3.16804,11.08673 7.11931,14.01594 3.69314,2.73785 10.73377,3.37001 14.69853,1.31975 1.74119,-0.90038 3.16576,-2.07549 3.16576,-2.61137 0,-0.53588 0.675,-0.97432 1.5,-0.97432 2.41036,0 1.7304,3.40513 -1.25,6.25986 -5.26219,5.0403 -13.30467,6.90825 -20.45864,4.75173 z m 14.20864,-34.18285 c 0,-6.34816 -8.51235,-7.95183 -14.4652,-2.72515 -1.94414,1.70698 -3.5348,3.50698 -3.5348,4 0,0.49303 4.05,0.89641 9,0.89641 8.56996,0 9,-0.10375 9,-2.17126 z m 84.5,33.84518 c -5.53425,-2.16559 -7.42298,-3.68636 -9.96459,-8.02328 -6.5325,-11.14688 -2.86138,-25.85907 8.04791,-32.25233 8.07782,-4.73392 25.0992,-4.41911 25.57512,0.47301 0.63063,6.48238 -1.37925,7.83998 -6.07593,4.10407 -4.56819,-3.63372 -8.06333,-4.46685 -12.54044,-2.98927 -5.55189,1.83229 -8.89541,7.00755 -9.29286,14.38392 -0.56842,10.54974 5.18545,17.58682 15.04866,18.40476 4.90517,0.40677 5.69397,0.17126 8.92349,-2.66429 5.93678,-5.21257 8.15002,-3.08219 3.07001,2.95506 -5.11602,6.08005 -15.2274,8.56819 -22.79137,5.60835 z m 40.88391,-0.58704 c -12.03908,-5.46717 -15.05385,-23.47558 -5.9321,-35.43482 7.29811,-9.5683 24.1522,-10.26838 29.66251,-1.2321 2.32526,3.81316 2.48743,9.13515 0.30389,9.97305 -0.86998,0.33385 -7.39498,0.60699 -14.5,0.60699 -12.73165,0 -12.91813,0.0325 -12.91263,2.25 0.0341,13.77935 14.78502,23.84574 23.81205,16.25 5.14936,-4.3329 7.18291,-2.31299 3.01097,2.99077 -4.78143,6.0786 -15.53702,8.18713 -23.44469,4.59611 z m 16.61609,-33.53018 c 0,-4.89356 -7.1092,-7.10295 -13.02002,-4.04635 -2.55293,1.32018 -4.97998,4.20725 -4.97998,5.92391 0,0.31116 4.05,0.56574 9,0.56574 8.87763,0 9,-0.0332 9,-2.4433 z m 56.01986,33.1933 c -2.42216,-1.2375 -5.78001,-3.97927 -7.46189,-6.09282 -2.77433,-3.48639 -3.05797,-4.51345 -3.05797,-11.07303 0,-6.23181 0.38376,-7.81011 2.77915,-11.42978 1.52853,-2.30977 5.04194,-5.82523 7.80758,-7.81215 l 5.02844,-3.61257 -2.4354,-2.61483 c -3.51138,-3.77007 -4.68065,-6.47211 -4.67318,-10.79908 0.021,-12.18727 16.52832,-18.5081 25.33526,-9.70117 2.81624,2.81625 4.24062,7.92856 3.27782,11.76464 -0.58786,2.34222 -3.12535,5.21023 -7.11967,8.04702 -1.92002,1.36361 -1.75842,1.63921 4.0412,6.89204 3.32266,3.00939 7.32136,7.3189 8.886,9.57668 1.56464,2.25778 3.14778,4.10505 3.51809,4.10505 0.8452,0 9.57458,-14.60663 11.53864,-19.30729 1.5907,-3.80709 0.90393,-4.69271 -3.63904,-4.69271 -1.35777,0 -1.88484,-0.55691 -1.65624,-1.75 0.2921,-1.52455 1.80741,-1.78665 11.76218,-2.03452 12.9177,-0.32163 14.9195,0.0309 13.0394,2.29635 -0.6793,0.81849 -2.1023,1.48817 -3.1623,1.48817 -4.5032,0 -7.9538,3.31999 -16.34423,15.72584 -9.56599,14.14403 -9.50511,13.76337 -3.32684,20.80003 5.68553,6.47546 11.58947,7.91735 18.33557,4.47799 2.7587,-1.40647 4.2244,-1.68212 4.9615,-0.93313 1.4853,1.50927 -4.3604,6.53178 -9.1506,7.86197 -10.00318,2.77779 -18.31239,0.40788 -22.65903,-6.46268 l -2.85484,-4.51253 -4.00517,3.61843 c -9.05096,8.17699 -20.17197,10.56404 -28.76443,6.17408 z m 19.14389,-6.1464 c 3.98371,-1.42291 9.36269,-5.31516 10.26488,-7.42771 0.78624,-1.84104 -4.18399,-8.75947 -11.50003,-16.00774 -7.95786,-7.88415 -9.20048,-8.24992 -13.64793,-4.01731 -14.07126,13.39154 -2.9877,33.83584 14.88308,27.45276 z m -2.15279,-41.8536 c 3.99034,-6.54463 1.4996,-15 -4.41861,-15 -3.96567,0 -6.79235,3.21564 -6.79235,7.727 0,2.85475 0.76765,4.51345 3.29617,7.12222 4.10032,4.23046 5.41213,4.25545 7.91479,0.15078 z m 96.48907,49.02847 c -5.2939,-1.87694 -8.3121,-4.69503 -11.0738,-10.33974 -3.5281,-7.21124 -3.0721,-15.2422 1.2638,-22.25535 4.376,-7.07795 10.5535,-10.42803 20.0983,-10.89941 9.131,-0.45095 12.5512,0.87413 13.034,5.04967 0.1772,1.53302 -0.2039,3.42125 -0.847,4.19607 -0.9801,1.18095 -1.8169,0.88817 -5.175,-1.81047 -7.125,-5.72579 -15.7889,-3.85037 -20.1044,4.35184 -1.3318,2.53131 -1.7122,5.06221 -1.4533,9.66815 0.3907,6.94919 2.221,10.23687 7.8493,14.09984 4.8005,3.29473 12.6989,2.69355 16.849,-1.28242 2.6258,-2.51574 5.0591,-2.79199 5.0591,-0.57436 0,1.93608 -5.6763,7.41996 -9.4586,9.13805 -4.4494,2.02105 -11.3937,2.30596 -16.0414,0.65813 z m 43,-0.28122 c -5.2723,-1.86502 -11.0628,-8.16003 -12.5349,-13.62687 -3.0164,-11.20203 1.4186,-22.1037 11.0503,-27.16264 4.7922,-2.51704 6.3313,-2.8344 12.1915,-2.51397 5.4745,0.29935 7.4858,0.91414 10.9454,3.34563 5.9801,4.20302 9.3724,11.13652 9.2637,18.93431 -0.2276,16.33084 -15.2683,26.55879 -30.916,21.02354 z m 14.0332,-3.69431 c 9.3027,-4.23863 8.8726,-29.43899 -0.586,-34.33022 -9.7929,-5.06412 -17.9742,4.06463 -16.6693,18.59967 1.1333,12.62399 8.7779,19.59309 17.2553,15.73055 z m 227.7692,4.18527 c -4.3429,-1.74893 -5.3024,-5.70692 -5.3024,-21.87213 v -14.98324 l -2.6729,-0.31642 c -4.1032,-0.48575 -3.8817,-2.49285 0.5233,-4.74008 2.1896,-1.11708 4.9497,-3.39125 6.1335,-5.0537 2.9386,-4.12691 5.0161,-3.94812 5.0161,0.43167 v 3.45431 l 6.75,0.29569 c 6.4545,0.28274 6.75,0.40514 6.75,2.79569 0,2.39055 -0.2955,2.51295 -6.75,2.79569 l -6.75,0.29569 v 13.7318 c 0,16.34502 0.8792,18.64006 6.8721,17.93953 1.9954,-0.23324 4.3029,-0.61276 5.1279,-0.84339 2.8145,-0.78678 1.5164,2.48997 -1.8979,4.79085 -3.5606,2.39952 -9.6212,2.9608 -13.7997,1.27804 z M 263.27047,594.77238 c -0.89095,-1.44158 0.3345,-3 2.35902,-3 3.64313,0 4.14098,-1.98915 4.14098,-16.54501 0,-12.87502 -0.17957,-14.30752 -2,-15.95499 -1.1,-0.99549 -2,-2.18375 -2,-2.64059 0,-1.14813 11.61247,-6.91361 12.37968,-6.1464 0.34117,0.34118 0.62032,1.88266 0.62032,3.42552 v 2.8052 l 4.75,-2.55272 c 6.41472,-3.44736 15.01795,-3.07761 18.90821,0.81266 l 2.56964,2.56964 5.48762,-2.88666 c 7.73253,-4.06754 14.94428,-4.05597 19.51875,0.0313 l 3.26578,2.91797 0.54829,15.85115 c 0.30156,8.71814 0.89062,16.40505 1.30902,17.08203 0.4184,0.67698 1.85917,1.23088 3.20171,1.23088 1.78785,0 2.44098,0.54419 2.44098,2.03383 0,1.93658 -0.51402,2.02026 -10.75,1.75 -8.71756,-0.23017 -10.75,-0.56484 -10.75,-1.77013 0,-0.81747 0.9,-1.64293 2,-1.83436 3.77999,-0.65783 4.5,-3.02673 4.5,-14.80537 0,-15.91136 -1.67497,-19.2808 -9.61514,-19.34217 -2.69953,-0.0209 -5.03055,0.68826 -6.7762,2.06139 l -2.66106,2.09319 0.2762,14.65681 0.2762,14.65681 2.75,0.31642 c 1.94275,0.22354 2.75,0.88402 2.75,2.25 0,1.78867 -0.7869,1.93358 -10.5,1.93358 -9.83333,0 -10.5,-0.12698 -10.5,-2 0,-1.25926 0.66667,-2 1.8,-2 3.62886,0 4.2,-2.00575 4.2,-14.74966 0,-16.73643 -1.32251,-19.25032 -10.12724,-19.25032 -2.87501,0 -4.63784,0.67417 -6.41821,2.45455 -2.36083,2.36082 -2.45455,2.96408 -2.45455,15.8 0,13.77628 0.52526,15.74545 4.2,15.74545 1.13333,0 1.8,0.74074 1.8,2 0,1.8723 -0.66667,2 -10.44098,2 -5.88197,0 -10.71085,-0.43665 -11.05902,-1 z m 181.02107,0.0341 c -0.94599,-1.53065 0.32387,-3.0341 2.5627,-3.0341 3.03865,0 3.91623,-3.93611 3.91623,-17.5651 0,-11.10157 -0.21445,-12.64935 -2,-14.4349 -1.1,-1.1 -2,-2.59219 -2,-3.31599 0,-1.31827 10.2413,-6.13955 11.71618,-5.5156 0.4311,0.18237 0.62922,8.20659 0.44026,17.83159 -0.37213,18.95529 0.27003,22.63898 4.03968,23.17339 1.26713,0.17963 2.30388,1.00161 2.30388,1.82661 0,1.21638 -1.92292,1.55372 -10.16991,1.7841 -6.23444,0.17416 -10.41722,-0.11607 -10.80902,-0.75 z m 112.99934,-10e-4 c -0.90897,-1.47081 0.29563,-3.0331 2.33861,-3.0331 3.96692,0 4.14098,-1.34616 4.14098,-32.02569 v -29.62568 l -2.5,-2.34863 c -1.375,-1.29175 -2.5,-2.65989 -2.5,-3.04032 0,-0.74008 10.93482,-4.95968 12.85267,-4.95968 0.84154,0 1.14733,9.45387 1.14733,35.47141 v 35.47141 l 3.25,0.84216 c 1.7875,0.46318 3.25,1.48855 3.25,2.27859 0,1.14115 -2.19351,1.49461 -10.67057,1.71946 -6.57062,0.17427 -10.91588,-0.1139 -11.30902,-0.75 z m 132.97959,-0.0331 c -0.89095,-1.44158 0.3345,-3 2.35902,-3 3.64313,0 4.14098,-1.98915 4.14098,-16.54501 0,-12.87502 -0.17957,-14.30752 -2,-15.95499 -1.1,-0.99549 -2,-2.18375 -2,-2.64059 0,-0.73623 11.13291,-6.85941 12.47148,-6.85941 0.29069,0 0.52852,8.91 0.52852,19.8 0,20.49261 0.32302,22.2 4.2,22.2 1.13333,0 1.8,0.74074 1.8,2 0,1.8723 -0.66667,2 -10.44098,2 -5.88197,0 -10.71085,-0.43665 -11.05902,-1 z m 71.02107,0.0341 c -0.94599,-1.53065 0.32387,-3.0341 2.5627,-3.0341 3.03865,0 3.91623,-3.93611 3.91623,-17.5651 0,-11.10157 -0.21445,-12.64935 -2,-14.4349 -3.02749,-3.02749 -2.43961,-4.27311 3.27357,-6.93624 6.46429,-3.01326 7.28276,-3.07911 7.00784,-0.56376 -0.46224,4.22915 0.44931,4.55271 5.57423,1.97862 8.9009,-4.47067 17.68539,-2.88583 21.33392,3.84893 0.67367,1.24352 1.41926,8.80017 1.74368,17.67245 l 0.56676,15.5 2.75,0.31642 c 1.96093,0.22563 2.75,0.88094 2.75,2.28383 0,1.85214 -0.62985,1.95078 -10.75,1.68358 -8.71756,-0.23017 -10.75,-0.56484 -10.75,-1.77013 0,-0.81747 0.9,-1.64293 2,-1.83436 3.77999,-0.65783 4.5,-3.02673 4.5,-14.80537 0,-15.95285 -1.66822,-19.28131 -9.69424,-19.34217 -3.02165,-0.0229 -4.97864,0.64228 -7,2.37933 -2.7387,2.3535 -2.81351,2.69407 -3.13019,14.25 -0.36004,13.13825 0.53058,17.0175 4.02055,17.51226 1.26713,0.17963 2.30388,1.00161 2.30388,1.82661 0,1.21638 -1.92292,1.55372 -10.16991,1.7841 -6.23444,0.17416 -10.41722,-0.11607 -10.80902,-0.75 z m 377.47896,-0.93385 c 0,-1.39481 0.7889,-2.0595 2.7105,-2.28383 3.5797,-0.4179 4.0669,-2.46069 4.1898,-17.56642 0.09,-10.99335 -0.1055,-12.45517 -1.9003,-14.25 -3.0708,-3.07079 -2.4516,-4.39921 3.25,-6.97282 6.9229,-3.12486 7.3039,-3.08516 6.936,0.72282 -0.1727,1.7875 -0.1727,3.24812 0,3.24581 0.1727,-0.002 2.5278,-1.1273 5.2335,-2.5 7.0672,-3.58541 13.4506,-3.4268 17.8589,0.44376 l 3.348,2.93957 5.8277,-2.93957 c 9.7973,-4.94186 18.5955,-3.5696 21.9111,3.41751 1.2708,2.67804 1.6348,6.55732 1.6348,17.4216 0,14.54653 0.2882,15.59548 4.5,16.37741 1.1,0.20421 2,1.04014 2,1.85761 0,1.20529 -2.0324,1.53996 -10.75,1.77013 -10.0113,0.26433 -10.75,0.15267 -10.75,-1.625 0,-1.32092 0.924,-2.09363 3,-2.50883 l 3,-0.6 v -14.07045 c 0,-13.60567 -0.081,-14.15154 -2.4545,-16.525 -3.947,-3.94692 -14.1201,-2.61157 -15.9243,2.09025 -0.3417,0.89033 -0.6212,7.37687 -0.6212,14.41454 0,13.30178 0.332,14.42295 4.5,15.19675 1.1,0.20421 2,1.04014 2,1.85761 0,1.2207 -1.8763,1.4863 -10.5,1.4863 -8.5221,0 -10.5,-0.27407 -10.5,-1.45492 0,-0.8002 1.125,-1.71993 2.5,-2.04385 l 2.5,-0.58894 0.2776,-14.22404 c 0.2728,-13.98339 0.2355,-14.26602 -2.2046,-16.70614 -3.3804,-3.38039 -9.3788,-3.41249 -13.2672,-0.071 -2.7387,2.3535 -2.8136,2.69407 -3.1302,14.25 -0.3601,13.13825 0.5306,17.0175 4.0205,17.51226 1.2672,0.17963 2.3039,1.00161 2.3039,1.82661 0,1.22271 -1.9873,1.55247 -10.75,1.78383 -10.1202,0.2672 -10.75,0.16856 -10.75,-1.68358 z m 226,0.0586 c 0,-1.32092 0.924,-2.09363 3,-2.50883 l 3,-0.6 v -15.48982 c 0,-14.46636 -0.1321,-15.56053 -2,-16.56018 -3.1856,-1.70489 -2.3908,-2.92896 3.75,-5.77498 3.1625,-1.46571 6.0875,-2.82845 6.5,-3.02831 0.4125,-0.19986 0.75,8.61902 0.75,19.59751 0,20.86816 0.1376,21.55198 4.5,22.36187 1.1,0.20421 2,1.04014 2,1.85761 0,1.20529 -2.0324,1.53996 -10.75,1.77013 -10.0113,0.26433 -10.75,0.15267 -10.75,-1.625 z m 28,-0.0338 c 0,-1.28333 0.9467,-2.06433 3,-2.475 l 3,-0.6 v -15.48982 c 0,-14.46636 -0.1321,-15.56053 -2,-16.56018 -1.1,-0.5887 -2,-1.49201 -2,-2.00736 0,-0.76365 11.2263,-6.99264 12.6026,-6.99264 0.2186,0 0.3974,1.5543 0.3974,3.454 v 3.45399 l 5.25,-2.44423 c 8.9309,-4.15793 17.198,-3.05756 20.7458,2.76131 1.7451,2.86219 1.9972,5.04679 2.0005,17.3338 0,14.7188 0.5706,16.936 4.5037,17.62047 1.1,0.19143 2,1.01689 2,1.83436 0,1.2207 -1.8763,1.4863 -10.5,1.4863 -8.5221,0 -10.5,-0.27407 -10.5,-1.45492 0,-0.8002 1.125,-1.71993 2.5,-2.04385 l 2.5,-0.58894 0.2776,-14.22404 c 0.2728,-13.98339 0.2355,-14.26602 -2.2046,-16.70614 -3.9733,-3.97329 -14.1401,-2.65865 -15.9518,2.06269 -0.3417,0.89033 -0.6212,7.34197 -0.6212,14.33699 0,13.12583 0.5535,15.11821 4.2,15.11821 1.1333,0 1.8,0.74074 1.8,2 0,1.87302 -0.6667,2 -10.5,2 -9.6,0 -10.5,-0.16071 -10.5,-1.875 z M 450.95585,540.08856 c -3.42842,-1.37157 -3.28948,-8.21131 0.21432,-10.55087 3.53643,-2.36133 8.6003,0.82317 8.6003,5.40844 0,4.28954 -4.45293,6.88736 -8.81462,5.14243 z m 245.46961,-1.14492 c -3.50716,-3.87537 -0.67992,-10.17126 4.56752,-10.17126 2.38689,0 5.77749,3.52118 5.77749,6 0,2.71387 -3.47509,6 -6.34501,6 -1.28976,0 -3.08976,-0.82293 -4,-1.82874 z m 674.34504,-0.17126 c -1.1,-1.1 -2,-2.9 -2,-4 0,-2.71387 3.4751,-6 6.345,-6 4.9691,0 7.5492,6.97583 3.8263,10.34501 -2.459,2.2253 -5.7395,2.08679 -8.1713,-0.34501 z M 905.77047,496.71747 c -13.78933,-1.68525 -29.19306,-5.02778 -40.92783,-8.88114 -11.52866,-3.78567 -27.87767,-11.27886 -29.32441,-13.44017 -5.03315,-7.51908 -15.74037,-62.40564 -15.74655,-80.71879 -10e-4,-4.34885 2.34137,-6.76177 7.35539,-7.57543 4.65694,-0.75572 8.23269,1.52402 9.184,5.8553 1.23317,5.61459 9.4024,25.01 13.61094,32.31514 15.71974,27.28617 35.51329,43.47569 62.01183,50.72068 7.24999,1.98222 10.68284,2.27778 26.33663,2.26749 20.56208,-0.0135 25.48952,-0.97246 39.44382,-7.67638 6.74538,-3.24061 10.07072,-5.69142 16.53191,-12.18419 12.6024,-12.66397 18.125,-25.6305 19.2205,-45.1276 1.7564,-31.26013 -9.5406,-56.47287 -34.37393,-76.71608 -3.75227,-3.05871 -23.36541,-16.38707 -43.58477,-29.61856 -20.21936,-13.2315 -40.01936,-26.72095 -44,-29.97655 -23.43283,-19.16476 -38.98592,-41.18192 -46.40308,-65.68881 -2.51981,-8.32565 -2.72738,-10.34869 -2.77025,-27 -0.0407,-15.80483 0.23642,-19.03661 2.27235,-26.5 11.05526,-40.52677 43.99698,-67.851014 91.61442,-75.991624 23.24471,-3.97388 55.33531,-2.1963 81.54906,4.5172 5.775,1.47901 13.8617,3.22038 17.9705,3.86971 l 7.4705,1.1806 1.8176,5.96206 c 4.2353,13.892324 8.7414,45.395114 8.7414,61.112674 0,7.97766 -0.8866,9.26947 -7.4037,10.78805 -5.6615,1.31919 -7.9874,-0.72912 -10.4835,-9.23233 -6.9294,-23.60537 -20.9581,-42.65621 -37.9428,-51.52583 -24.71273,-12.905324 -62.28405,-12.444114 -85.03988,1.0439 -16.35636,9.69487 -26.35138,27.95917 -27.81982,50.83625 -1.32523,20.64607 5.95878,38.89481 22.64471,56.73212 9.17623,9.80942 20.95055,18.25103 55.54496,39.82304 34.96165,21.801 46.47023,30.08104 58.71623,42.24462 16.8545,16.74107 28.8666,36.67171 34.4378,57.13956 2.5338,9.30879 2.7234,11.38242 2.7421,30 0.019,18.65207 -0.1625,20.67396 -2.6889,30 -11.5538,42.64892 -44.9909,70.94969 -94.69378,80.14778 -10.0795,1.86532 -44.78814,2.6692 -56.01345,1.29731 z m 417.00003,-0.059 c -78.0802,-6.89444 -137.3471,-39.22089 -173.9627,-94.88609 -15.6338,-23.7673 -26.1309,-53.04795 -30.114,-84 -1.7682,-13.74043 -1.4734,-44.1425 0.5575,-57.5 6.2491,-41.10007 22.7154,-77.02542 48.8139,-106.5 30.2652,-34.18017 75.8849,-59.136564 126.7053,-69.314574 23.1482,-4.63598 29.8382,-5.1873 62.5,-5.15062 26.5062,0.0298 33.4644,0.36554 48,2.31625 19.9582,2.67843 38.4874,6.12508 54.5,10.13766 6.325,1.58497 13.8625,3.19388 16.75,3.57535 4.8798,0.64468 5.25,0.88584 5.25,3.41954 0,7.493244 3.7222,47.801114 6.6774,72.310384 1.4942,12.39218 1.5074,13.94975 0.1305,15.3267 -2.0946,2.0946 -9.1416,2.89796 -12.6549,1.44267 -2.5273,-1.04681 -3.153,-2.21023 -5.0488,-9.38636 -4.6769,-17.70396 -13.4942,-33.91887 -24.9895,-45.95533 -16.3614,-17.13159 -35.7993,-26.83863 -63.759,-31.84039 -14.0003,-2.504544 -45.3283,-3.040114 -59.3557,-1.014734 -57.0715,8.240424 -98.9099,36.814084 -122.7967,83.864254 -9.4649,18.64311 -15.1574,36.86448 -18.8287,60.2692 -2.5599,16.31919 -2.6047,58.67597 -0.079,75 2.443,15.79219 6.9533,34.06565 11.2879,45.73262 21.8728,58.87279 65.8874,97.01822 126.7545,109.8525 16.3806,3.45396 47.0592,4.48418 62.1637,2.08753 31.8719,-5.05718 58.0175,-19.23347 76.8576,-41.67265 9.08,-10.81451 12.3342,-15.83927 19.7319,-30.46738 6.1919,-12.2437 6.8085,-13.08773 10.185,-13.94309 2.5965,-0.65775 4.653,-0.50917 7.4091,0.53532 3.2324,1.22497 3.8642,1.9534 4.1366,4.7694 1.4256,14.73887 -22.2965,80.20727 -29.8215,82.30151 -1.375,0.38266 -9.25,2.75638 -17.5,5.27492 -22.0669,6.73654 -46.3027,11.2557 -72.5,13.51878 -13.4003,1.15759 -43.3344,1.10332 -57,-0.10335 z m -821.19078,-3.02864 c -2.04297,-0.74759 -3.10185,-2.23325 -4.39834,-6.17105 -4.87291,-14.80035 -20.35251,-50.3596 -39.91281,-91.6864 -30.19825,-63.80254 -67.80549,-145.20465 -82.00384,-177.5 -8.94669,-20.35 -17.81769,-40.375 -19.71334,-44.5 l -3.44663,-7.5 -0.68773,9.5 c -1.22015,16.85463 -5.51644,97.41578 -7.2528,136 -2.17991,48.44023 -2.49285,130.86497 -0.52963,139.5 2.5335,11.14336 6.73777,16.71036 14.3205,18.96219 2.62097,0.77834 11.18914,1.9325 19.04039,2.56479 8.97252,0.7226 14.78061,1.63572 15.6362,2.45826 2.0172,1.93927 2.58821,9.62485 0.8839,11.89711 -1.35732,1.80966 -3.95764,1.88271 -67.32848,1.89158 l -65.91664,0.009 -1.31985,-3.89157 c -0.99472,-2.93295 -1.05692,-4.78025 -0.25251,-7.49921 l 1.06734,-3.60764 9.25251,-1.22218 c 30.28931,-4.00098 36.09257,-9.10589 40.20781,-35.36928 6.1115,-39.0035 19.22373,-247.9155 18.33933,-292.19326 -0.32569,-16.30517 -0.58169,-18.49842 -2.71894,-23.2935 -4.60282,-10.32677 -13.40028,-14.8449 -35.25379,-18.10538 -10.1675,-1.51696 -11.43281,-1.93535 -12.70437,-4.200794 -1.70692,-3.04109 -0.81883,-9.19903 1.68825,-11.70611 1.47962,-1.47962 3.15087,-1.60985 13.19422,-1.0281 14.87204,0.86143 66.93588,0.85562 78.25,-0.009 l 8.75,-0.66847 v 5.12455 c 0,17.125884 8.90639,45.632204 25.27183,80.886544 12.83554,27.65023 111.1844,226.42213 115.44471,233.32414 l 2.05185,3.32413 3.01597,-5.32413 c 9.69115,-17.10741 23.51427,-44.52137 67.479,-133.82367 26.94186,-54.725 52.56692,-107.10236 56.94457,-116.39413 12.94354,-27.47325 18.66561,-43.51991 21.25484,-59.605874 0.90118,-5.59865 1.56595,-7.40409 2.62223,-7.12169 3.35107,0.89592 68.74909,1.16564 82.415,0.3399 14.5244,-0.87761 15.05878,-0.84029 16.85399,1.17693 1.45621,1.6363 1.76041,3.21176 1.41783,7.34291 -0.2399,2.8928 -0.74379,5.567264 -1.11977,5.943234 -0.37598,0.37598 -5.94852,1.2518 -12.38342,1.94628 -29.82932,3.21925 -38.44616,9.17051 -41.97949,28.99333 -1.42246,7.98034 -1.46415,16.92636 -0.41189,88.37911 1.57601,107.01764 3.41007,169.32846 6.19243,210.38346 1.20411,17.76716 2.32922,23.72492 5.53345,29.30119 4.55705,7.93055 10.79652,10.53046 29.39687,12.24932 10.5509,0.97501 12.77287,1.47731 14.25,3.22136 2.0337,2.4012 2.25532,7.30695 0.48526,10.74156 l -1.23526,2.39689 -73.97237,-0.009 -73.97236,-0.009 -1.35478,-3.32019 c -1.47022,-3.60312 -0.91436,-9.14542 1.07597,-10.7281 0.67295,-0.53512 7.29854,-1.69223 14.72354,-2.57135 7.425,-0.87912 15.62398,-2.32421 18.21995,-3.21131 6.02178,-2.05776 10.22484,-6.83108 12.50341,-14.19983 1.66029,-5.36926 1.75142,-11.80345 1.39159,-98.24554 -0.21177,-50.875 -0.67365,-113.875 -1.0264,-140 l -0.64136,-47.49946 -23.17289,46.5 c -12.74509,25.575 -39.83001,79.35 -60.18871,119.5 -36.45776,71.89946 -58.19474,116.77093 -69.61839,143.71268 -5.12839,12.0949 -6.16542,13.83507 -8.79,14.75 -1.63661,0.57053 -3.021,1.00179 -3.07642,0.95837 -0.0554,-0.0434 -1.31162,-0.52203 -2.79153,-1.06358 z M 180.49057,478.02238 c -0.60113,-13.51042 -2.61802,-23.15453 -7.27874,-34.80448 -2.58089,-6.45121 -2.63444,-6.98022 -1.55709,-15.38098 4.26179,-33.23164 -2.85909,-65.85977 -20.14522,-92.30611 -9.26159,-14.16947 -17.18049,-23.08005 -45.54105,-51.24412 L 78.478836,256.98752 79.18616,242.62995 c 0.64757,-13.14465 2.977334,-34.43253 4.127358,-37.71314 0.268345,-0.76549 3.939496,3.80515 8.43364,10.5 10.415142,15.51526 17.362812,23.72381 46.006302,54.35557 27.87895,29.81416 34.67983,37.80827 44.15697,51.90447 14.90385,22.16782 21.49008,39.5337 23.8999,63.01679 2.67358,26.05338 -5.48347,66.66131 -19.35196,96.33906 -2.50326,5.35682 -4.74243,9.73968 -4.97594,9.73968 -0.23351,0 -0.67985,-5.7375 -0.99186,-12.75 z m -145.699645,-275.75 c -8.993544,-22.54309 -9.425706,-62.48061 -1.027259,-94.93254 4.420849,-17.082334 8.410752,-27.594494 17.484973,-46.067464 9.455488,-19.24914 16.091494,-30.141008 28.026086,-46 C 87.15923,4.7952443 93.76719,-2.4489507 92.501236,0.77237628 92.177018,1.5973763 89.137815,9.0223763 85.747453,17.272376 67.176113,62.463276 57.194703,102.51194 55.839606,137.27238 l -0.740694,19 -5.047129,11 c -2.775921,6.05 -6.709141,16.175 -8.740488,22.5 -5.32146,16.56941 -5.08088,16.1082 -6.52037,12.5 z"
     id="path817"
     inkscape:connector-curvature="0" />
</svg>
