<svg version="1.1" viewBox="0 0 357.33 357.33" xmlns="http://www.w3.org/2000/svg">
 <g fill="#fff">
  <path d="m323.16 104.3c-8.4476-6.8428-7.5792-22.586 1.4734-26.711 15.96-7.2717 28.947 12.625 16.419 25.154-3.1012 3.1012-5.0819 3.9137-9.484 3.8902-3.2467-0.0173-6.7486-0.98909-8.408-2.3333z"/>
  <path d="m62.667 143.44c0-2.9574 19.116-22.536 31.13-31.882 34.885-27.141 86.018-47.667 132.09-53.024 18.857-2.1928 50.412-0.86886 64.114 2.6901 11.01 2.8597 30.265 11.683 30.986 14.198 0.22462 0.78375-0.97288 2.1642-2.6611 3.0677-2.6471 1.4167-4.2712 1.0804-11.802-2.4439-16.09-7.5296-32.776-10.974-53.856-11.117-30.283-0.20565-54.621 5.6955-87.036 21.103-25.51 12.126-61.455 38.087-74.742 53.982l-4.4439 5.3164h-11.889c-9.3701 0-11.889-0.40036-11.889-1.8894z"/>
  <path d="m190.68 214.33c0.0148-2.0669 11.52-49.393 13.452-55.333l1.4092-4.3333h34.209l2.1253 6.2375c1.1689 3.4306 2.1253 6.4306 2.1253 6.6667 0 0.23602-5.9886 0.42914-13.308 0.42914h-13.308l-0.86387 3.6667c-0.47513 2.0167-2.285 9.0667-4.022 15.667-1.737 6.6-3.1597 12.45-3.1615 13-1e-3 0.55 4.4828 1 9.9659 1 11.037 0 13.046 1.4079 14.845 10.403l0.85273 4.2636h-22.167c-16.851 0-22.164-0.3997-22.155-1.6667z"/>
  <path d="m126.67 214.68c0-1.2287 9.2457-39.036 13.453-55.01l1.3168-5h7.9486c9.3766 0 9.4098 0.0941 5.282 14.99-1.4667 5.2926-2.6667 10.085-2.6667 10.65s3.5886 1.0268 7.9746 1.0268c7.1608 0 8.0504-0.30614 8.7179-3 0.4088-1.65 1.7825-7.5 3.0527-13l2.3094-10 8.306-0.39696c4.5683-0.21832 8.306 0.1196 8.306 0.75093 0 1.9999-13.307 57.859-14.083 59.113-0.78672 1.2729-14.31 1.6962-15.52 0.48582-0.39258-0.39258 0.0864-4.4426 1.0643-9 2.6052-12.141 2.8777-11.62-6.0769-11.62h-7.9486l-1.2592 5c-0.69257 2.75-1.786 7.4-2.4298 10.333l-1.1705 5.3333-8.2883 0.39696c-5.327 0.25513-8.2883-0.12137-8.2883-1.0538z"/>
  <path d="m69.175 215c-0.19691-1.2471-0.8095 1.3814 7.3802-31.667l6.9387-28h17.235c17.084 0 17.248 0.0292 18.775 3.3333 4.4059 9.5347 4.7701 9.1979-10.402 9.6192l-13.714 0.3808-3.6567 15.333c-2.0112 8.4333-3.6744 15.933-3.696 16.667-0.0229 0.77735 4.2607 1.3333 10.273 1.3333 11.229 0 11.973 0.5335 14.405 10.333l0.91004 3.6667h-22.145c-12.18 0-22.216-0.45-22.302-1z"/>
  <path d="m8 215.56c0-0.30941 2.9298-10.388 6.5106-22.397 3.5808-12.009 7.5599-25.584 8.8424-30.168l2.3318-8.3333h15.309l7.9326 24.667 3.7743-12.333 3.7743-12.333h7.7623c4.2693 0 7.7623 0.55451 7.7623 1.2322 0 0.9838-5.7545 20.753-16.816 57.768-0.52443 1.755-2.1263 2.3333-6.4624 2.3333h-5.7651l-5-14.034c-2.75-7.7186-5.2537-13.78-5.5637-13.47-0.31 0.30999-2.1912 6.4752-4.1805 13.701l-3.6168 13.137-8.2979 0.39696c-4.5638 0.21832-8.2979 0.14379-8.2979-0.16563z"/>
  <path d="m89.814 296.78c-19.598-3.733-34.749-11.054-45.81-22.134-11.372-11.392-16.787-23.36-19.448-42.983l-0.85894-6.3333h213.64v6c0 3.3-0.15 6.0653-0.33334 6.1451-0.18333 0.0797-40.334 0.5298-89.223 1-48.889 0.4702-89.389 1.3674-90 1.9939-2.1601 2.2155 16.868 18.111 28.121 23.491 16.289 7.7879 28.256 10.049 52.768 9.9698 43.165-0.13937 85.181-13.731 124.67-40.328 45.217-30.457 70.346-67.919 72.332-107.83 0.617-12.402 0.91535-13.62 3.5046-14.315 1.5566-0.41776 3.2802-0.76775 3.8302-0.77776 1.8312-0.0333 1.031 24.878-1.1405 35.506-9.3646 45.831-44.526 87.466-99.859 118.25-23.459 13.049-52.433 23.925-79.333 29.779-19.144 4.166-57.39 5.5148-72.853 2.5694z"/>
 </g>
</svg>
