<?xml version="1.0" encoding="UTF-8" standalone="no"?>
<!-- Generator: Adobe Illustrator 19.1.0, SVG Export Plug-In . SVG Version: 6.00 Build 0)  -->

<svg
   xmlns:dc="http://purl.org/dc/elements/1.1/"
   xmlns:cc="http://creativecommons.org/ns#"
   xmlns:rdf="http://www.w3.org/1999/02/22-rdf-syntax-ns#"
   xmlns:svg="http://www.w3.org/2000/svg"
   xmlns="http://www.w3.org/2000/svg"
   xmlns:sodipodi="http://sodipodi.sourceforge.net/DTD/sodipodi-0.dtd"
   xmlns:inkscape="http://www.inkscape.org/namespaces/inkscape"
   version="1.1"
   id="Layer_1"
   x="0px"
   y="0px"
   viewBox="0 0 1158.4 726.79999"
   xml:space="preserve"
   sodipodi:docname="nih.svg"
   width="1158.4"
   height="726.79999"
   inkscape:version="0.92.3 (2405546, 2018-03-11)"><metadata
   id="metadata13"><rdf:RDF><cc:Work
       rdf:about=""><dc:format>image/svg+xml</dc:format><dc:type
         rdf:resource="http://purl.org/dc/dcmitype/StillImage" /><dc:title></dc:title></cc:Work></rdf:RDF></metadata><defs
   id="defs11" /><sodipodi:namedview
   pagecolor="#ffffff"
   bordercolor="#666666"
   borderopacity="1"
   objecttolerance="10"
   gridtolerance="10"
   guidetolerance="10"
   inkscape:pageopacity="0"
   inkscape:pageshadow="2"
   inkscape:window-width="1820"
   inkscape:window-height="957"
   id="namedview9"
   showgrid="false"
   fit-margin-top="0"
   fit-margin-left="0"
   fit-margin-right="0"
   fit-margin-bottom="0"
   inkscape:zoom="0.2979798"
   inkscape:cx="577.9"
   inkscape:cy="363.1"
   inkscape:window-x="2832"
   inkscape:window-y="319"
   inkscape:window-maximized="0"
   inkscape:current-layer="Layer_1" />
<style
   type="text/css"
   id="style2">
	.st0{fill:#5E5F5F;}
</style>
<path
   class="st0"
   d="M 1007.8,363.1 806.1,726.6 H 66.9 C 30,726.6 0,696.7 0,659.7 V 66.9 C 0,30 29.9,0 66.9,0 h 740 z M 376,526.6 V 201.8 H 321.9 V 441 h -1 L 172.7,201.8 v 0 h -60 v 0 324.8 0 h 54.2 V 287.7 h 1.4 L 316.2,526.6 H 376 Z m 112.9,0 V 201.8 h -56.8 v 324.8 h 56.8 z M 807.4,201.8 h -56.8 v 0 V 331 H 602.7 V 201.8 h -56.8 v 324.8 h 56.8 V 380.2 h 147.9 v 146.5 0 h 56.8 V 201.8 Z"
   id="path4"
   style="fill:#ffffff;fill-opacity:1"
   inkscape:connector-curvature="0" />
<path
   class="st0"
   d="M 856.6,726.8 1057.9,363.1 857.3,0 h 50.3 c 27.5,0 61,19.7 74.3,43.8 L 1158.4,363 981.2,682.9 c -13.3,24 -46.8,43.7 -74.3,43.7 z"
   id="path6"
   style="fill:#ffffff;fill-opacity:1"
   inkscape:connector-curvature="0" />
</svg>