<svg width="250" height="130.48" version="1.1" viewBox="0 0 66.146 34.522" xmlns="http://www.w3.org/2000/svg">
 <g transform="matrix(1.9951 0 0 1.9951 -92.466 -238.84)" fill="#fff">
  <g id="a" transform="matrix(.26458 0 0 .26458 46.346 119.71)">
   <path class="cls-1" d="m40.4 61.1-0.9 2.6h1.8zm-1.4 4c0 0.1-0.1 0.2-0.3 0.2s-0.3-0.1-0.3-0.2 0.1-0.2 0.1-0.3l1.5-3.9c0.1-0.2 0.2-0.4 0.4-0.4s0.3 0.2 0.4 0.4l1.5 3.9c0 0.1 0.1 0.2 0.1 0.3 0 0.2-0.1 0.2-0.3 0.2s-0.2-0.1-0.3-0.2l-0.3-0.9h-2.2z"/>
   <path class="cls-1" d="m43.8 65c0 0.2-0.1 0.3-0.3 0.3s-0.3-0.1-0.3-0.3v-4.2c0-0.2 0.1-0.3 0.3-0.3s0.3 0.1 0.4 0.3l2.4 3.5v-3.5c0-0.2 0.1-0.3 0.3-0.3s0.3 0.1 0.3 0.3v4.2c0 0.2-0.1 0.3-0.3 0.3s-0.3-0.1-0.4-0.3l-2.4-3.5z"/>
   <path class="cls-1" d="m48.9 61h-0.9c-0.2 0-0.3-0.1-0.3-0.3s0.1-0.3 0.3-0.3h2.4c0.2 0 0.3 0.1 0.3 0.3s-0.1 0.3-0.3 0.3h-0.9v4c0 0.2-0.1 0.3-0.3 0.3s-0.3-0.1-0.3-0.3z"/>
   <path class="cls-1" d="m53.1 60.4c-1.4 0-2.1 1.2-2.1 2.4s0.7 2.4 2.1 2.4 2.1-1.2 2.1-2.4-0.8-2.4-2.1-2.4zm0 4.4c-1.1 0-1.5-1-1.5-1.9s0.4-1.9 1.5-1.9 1.5 1 1.5 1.9c-0.1 0.9-0.5 1.9-1.5 1.9z"/>
   <path class="cls-1" d="m56.8 65c0 0.2-0.1 0.3-0.3 0.3s-0.3-0.1-0.3-0.3v-4.2c0-0.2 0.1-0.3 0.3-0.3s0.3 0.1 0.4 0.3l2.4 3.5v-3.5c0-0.2 0.1-0.3 0.3-0.3s0.3 0.1 0.3 0.3v4.2c0 0.2-0.1 0.3-0.3 0.3s-0.3-0.1-0.4-0.3l-2.4-3.5z"/>
   <path class="cls-1" d="m61.7 65c0 0.2-0.1 0.3-0.3 0.3s-0.3-0.1-0.3-0.3v-4.2c0-0.2 0.1-0.3 0.3-0.3s0.3 0.1 0.3 0.3z"/>
   <path class="cls-1" d="m67.6 60.8c0.1-0.2 0.1-0.4 0.4-0.4 0.2 0 0.3 0.1 0.3 0.2v0.2l-1.5 4.2c-0.1 0.2-0.1 0.3-0.3 0.3s-0.3-0.1-0.3-0.3l-1.5-4.1v-0.2c0-0.1 0.1-0.2 0.3-0.2s0.3 0.2 0.4 0.4l1.2 3.5z"/>
   <path class="cls-1" d="m70.4 61.1-0.9 2.6h1.8zm-1.4 4c0 0.1-0.1 0.2-0.3 0.2s-0.3-0.1-0.3-0.2 0.1-0.2 0.1-0.3l1.5-3.9c0.1-0.2 0.2-0.4 0.4-0.4s0.3 0.2 0.4 0.4l1.5 3.9c0 0.1 0.1 0.2 0.1 0.3 0 0.2-0.1 0.2-0.3 0.2s-0.2-0.1-0.3-0.2l-0.3-0.9h-2.2z"/>
   <path class="cls-1" d="m73.8 65c0 0.2-0.1 0.3-0.3 0.3s-0.3-0.1-0.3-0.3v-4.2c0-0.2 0.1-0.3 0.3-0.3s0.3 0.1 0.4 0.3l2.4 3.5v-3.5c0-0.2 0.1-0.3 0.3-0.3s0.3 0.1 0.3 0.3v4.2c0 0.2-0.1 0.3-0.3 0.3s-0.3-0.1-0.4-0.3l-2.4-3.5z"/>
   <path class="cls-1" d="m80.7 64.7h1.3c0.2 0 0.3 0.1 0.3 0.3s-0.1 0.3-0.3 0.3h-1.5c-0.2 0-0.3-0.1-0.3-0.3v-4.2c0-0.2 0.1-0.3 0.3-0.3s0.3 0.1 0.3 0.3v3.9z"/>
   <path class="cls-1" d="m83.7 64.7h1.4c0.2 0 0.3 0.1 0.3 0.3s-0.1 0.3-0.3 0.3h-1.7c-0.2 0-0.3-0.1-0.3-0.3v-4.1c0-0.2 0.1-0.3 0.3-0.3h1.7c0.2 0 0.3 0.1 0.3 0.3s-0.1 0.3-0.3 0.3h-1.4v1.6h1.3c0.2 0 0.3 0.1 0.3 0.3s-0.1 0.3-0.3 0.3h-1.3z"/>
   <path class="cls-1" d="m87 64.7h1.4c0.2 0 0.3 0.1 0.3 0.3s-0.1 0.3-0.3 0.3h-1.7c-0.2 0-0.3-0.1-0.3-0.3v-4.1c0-0.2 0.1-0.3 0.3-0.3h1.7c0.2 0 0.3 0.1 0.3 0.3s-0.1 0.3-0.3 0.3h-1.4v1.6h1.3c0.2 0 0.3 0.1 0.3 0.3s-0.1 0.3-0.3 0.3h-1.3z"/>
   <path class="cls-1" d="m93 60.4c-0.2 0-0.3 0.1-0.3 0.3v2.8c0 0.8-0.5 1.2-1.3 1.2s-1.3-0.4-1.3-1.2v-2.8c0-0.2-0.1-0.3-0.3-0.3s-0.3 0.1-0.3 0.3v2.6c0 1.6 1 1.9 1.8 1.9s1.8-0.3 1.8-1.9v-2.6c0.2-0.1 0.1-0.3-0.1-0.3z"/>
   <path class="cls-1" d="m96.5 60.7c0.1-0.2 0.2-0.2 0.3-0.2s0.2 0.1 0.3 0.2l1.1 3.9 0.6-3.8c0-0.2 0.1-0.3 0.3-0.3s0.3 0.1 0.3 0.3v0.3l-0.7 3.9c0 0.2-0.1 0.4-0.4 0.4-0.2 0-0.4-0.1-0.5-0.4l-1-3.5-1 3.5c-0.1 0.3-0.2 0.4-0.5 0.4s-0.4-0.2-0.4-0.4l-0.7-4v-0.3c0-0.1 0.1-0.3 0.3-0.3s0.3 0.1 0.3 0.3l0.6 3.8z"/>
   <path class="cls-1" d="m101 64.7h1.4c0.2 0 0.3 0.1 0.3 0.3s-0.1 0.3-0.3 0.3h-1.7c-0.2 0-0.3-0.1-0.3-0.3v-4.1c0-0.2 0.1-0.3 0.3-0.3h1.7c0.2 0 0.3 0.1 0.3 0.3s-0.1 0.3-0.3 0.3h-1.4v1.6h1.3c0.2 0 0.3 0.1 0.3 0.3s-0.1 0.3-0.3 0.3h-1.3z"/>
   <path class="cls-1" d="m104.3 65c0 0.2-0.1 0.3-0.3 0.3s-0.3-0.1-0.3-0.3v-4.2c0-0.2 0.1-0.3 0.3-0.3s0.3 0.1 0.4 0.3l2.4 3.5v-3.5c0-0.2 0.1-0.3 0.3-0.3s0.3 0.1 0.3 0.3v4.2c0 0.2-0.1 0.3-0.3 0.3s-0.3-0.1-0.4-0.3l-2.4-3.5z"/>
   <path class="cls-1" d="m109.2 64.9c0 0.2-0.1 0.4-0.3 0.4s-0.3-0.1-0.3-0.4v-4.1c0-0.2 0.1-0.4 0.3-0.4s0.3 0.1 0.3 0.4v1.8h2.5v-1.8c0-0.2 0.1-0.4 0.3-0.4s0.3 0.1 0.3 0.4v4.1c0 0.2-0.1 0.4-0.3 0.4s-0.3-0.1-0.3-0.4v-1.8h-2.5z"/>
   <path class="cls-1" d="m115.4 60.4c-1.4 0-2.1 1.2-2.1 2.4s0.7 2.4 2.1 2.4 2.1-1.2 2.1-2.4-0.7-2.4-2.1-2.4zm0 4.4c-1.1 0-1.5-1-1.5-1.9s0.4-1.9 1.5-1.9 1.5 1 1.5 1.9-0.4 1.9-1.5 1.9z"/>
   <path class="cls-1" d="m119.1 64.7h1.4c0.2 0 0.3 0.1 0.3 0.3s-0.1 0.3-0.3 0.3h-1.7c-0.2 0-0.3-0.1-0.3-0.3v-4.1c0-0.2 0.1-0.3 0.3-0.3h1.7c0.2 0 0.3 0.1 0.3 0.3s-0.1 0.3-0.3 0.3h-1.4v1.6h1.3c0.2 0 0.3 0.1 0.3 0.3s-0.1 0.3-0.3 0.3h-1.3z"/>
   <path class="cls-1" d="m122.4 65c0 0.2-0.1 0.3-0.3 0.3s-0.3-0.1-0.3-0.3v-4.2c0-0.2 0.1-0.3 0.3-0.3s0.3 0.1 0.3 0.3v1.7l2-1.9c0.1-0.1 0.2-0.2 0.3-0.2s0.3 0.1 0.3 0.3-0.1 0.2-0.1 0.3l-2 1.8 2.1 2.1c0.1 0.1 0.1 0.2 0.1 0.2 0 0.1-0.1 0.3-0.3 0.3-0.1 0-0.2 0-0.3-0.1l-2.2-2.2v1.9z"/>
  </g>
  <g transform="matrix(.26458 0 0 .26458 46.346 119.71)">
   <path class="cls-1" d="m125.2 49.9c-0.1-0.2-3.4-4.8-6-5.8-1.3-0.5-2 0.2-2.8 0.9-1.1 1-2.6 2.3-6.9 2-0.3 0-0.6 0.2-0.6 0.5s0.2 0.6 0.5 0.6c4.7 0.3 6.5-1.3 7.7-2.3 0.8-0.7 1.1-0.9 1.7-0.7 2.3 0.9 5.4 5.4 5.5 5.4 0.2 0.3 0.5 0.3 0.8 0.1 0.2-0.1 0.3-0.5 0.1-0.7z"/>
   <path class="cls-1" d="m91.9 29.3c-0.8-0.1-2.1-0.4-3.5-0.2h-1c-0.3 0-0.6 0.2-0.6 0.5s0.2 0.6 0.5 0.6h1.2c0 0.8 0.4 1.2 0.8 1.5 1.3 1 3.5 1 4.8 0.5 0.8-0.3 1.4-0.8 1.5-1.4 0.1-0.3-0.1-0.6-0.4-0.7s-0.6 0.1-0.7 0.4c0 0.2-0.4 0.4-0.8 0.6-1.1 0.4-2.9 0.4-3.8-0.3-0.3-0.2-0.4-0.4-0.4-0.7 0.8 0 1.5 0.1 2 0.2 0.4 0.1 0.7 0.1 1 0.1 0.2 0 0.6-0.1 1.1-0.2 0.6-0.1 2.1-0.5 2.5-0.3 0.3 0.1 0.6 0 0.7-0.2 0.1-0.3 0-0.6-0.2-0.7-0.6-0.3-1.8-0.1-3.2 0.2-0.4 0.1-0.7 0.2-0.9 0.2 0 0-0.2 0-0.6-0.1z"/>
   <path class="cls-1" d="m91.9 27.7c-1.8-0.5-2.6-0.3-2.7-0.3-0.3 0.1-0.5 0.3-0.4 0.6s0.3 0.5 0.6 0.4c0 0 0.7-0.1 2.2 0.3 0.3 0.1 0.6-0.1 0.7-0.4 0.1-0.2-0.1-0.5-0.4-0.6z"/>
   <path class="cls-1" d="m93.8 28.6s0.9-0.3 1.8-0.3c0.3 0 0.6-0.2 0.6-0.5s-0.2-0.6-0.5-0.6c-1.2 0-2.2 0.3-2.2 0.3-0.3 0.1-0.4 0.4-0.3 0.7 0 0.4 0.3 0.5 0.6 0.4z"/>
   <path class="cls-1" d="m101.4 27.7c1.5-3.8-0.2-7.5-0.3-7.7-0.1-0.3-0.5-0.4-0.7-0.3-0.3 0.1-0.4 0.5-0.3 0.7 0 0 1.6 3.5 0.3 6.8-1.8 4.5-3.2 7.2-4.3 8.1-1.3 1.1-5.9 2-10 0.1h-0.1c-0.1 0-0.2-0.1-0.4-0.2-0.3-0.2-0.8-0.4-1.4-0.6-0.3-0.1-0.6 0.1-0.7 0.4s0.1 0.6 0.4 0.7c0.5 0.1 0.8 0.3 1.1 0.5 0.2 0.1 0.3 0.2 0.5 0.2 4.8 2.3 9.7 1 11.1-0.2 1.5-1 2.9-3.7 4.8-8.5z"/>
   <path class="cls-1" d="m97.6 19.9c0.5 0 0.9-0.4 0.9-1 0-0.2-0.1-0.4-0.2-0.6 0.7 0.1 1.4 0.4 1.4 0.4 0.3 0.1 0.6 0 0.7-0.3s0-0.6-0.3-0.7c-0.1 0-2-1-3.7-0.4-0.7 0.3-1.3 0.8-1.6 1.6-0.1 0.3 0 0.6 0.3 0.7s0.6 0 0.7-0.3c0.2-0.4 0.5-0.7 0.8-0.9-0.1 0.1-0.1 0.3-0.1 0.4 0.2 0.7 0.6 1.1 1.1 1.1z"/>
   <path class="cls-1" d="m114.6 44.5c0.6-0.4 0.9-1 1-1.7v-0.7c0-1.5-0.8-1.9-1.3-2.2-0.3-0.2-0.4-0.3-0.4-0.5 0-0.1 0.1-0.3 0.2-0.6s0.2-0.7 0.2-1c0-0.4-0.1-0.8-0.3-1.1-0.5-1.1-1.6-1.8-2.3-2.1 0.5-0.8 1.3-2.3 1.3-4v-0.6c-0.3-2.4-1.4-3.5-2.3-4.3-0.7-0.6-1-1-1-1.6v-0.1c0-0.4 0.1-0.9 0.1-1.4 0.1-0.8 0.2-1.6 0.2-2.5 0-1.7-0.4-3.5-1.9-4.5 0.4-0.9 0.6-1.8 0.6-2.5 0-0.5-0.1-1-0.3-1.4-0.4-0.9-1.2-1.5-2.4-1.7-0.2-0.6-0.3-1.1-0.3-1.6 0-0.3-0.1-0.7-0.1-1.1-0.2-0.8-0.8-1.6-1.7-2-0.5-0.3-1.1-0.3-1.6-0.3-0.3-2.3-1.1-2.6-2.2-2.8-0.6-0.1-1.3-0.2-2.1-1-0.7-0.7-1.5-1.1-2.2-1-0.5 0.1-1 0.4-1.2 0.6-0.4-0.4-1.1-0.8-1.8-0.8s-1.4 0.3-2 1c-0.2 0.2-0.2 0.6 0.1 0.8 0.2 0.2 0.5 0.2 0.7-0.1 0.4-0.4 0.7-0.6 1.1-0.6 0.8 0 1.5 0.8 1.5 0.8 0.1 0.1 0.3 0.2 0.5 0.2s0.3-0.1 0.4-0.3c0 0 0.3-0.6 0.9-0.6 0.4 0 0.8 0.2 1.3 0.6 1 1 2 1.2 2.7 1.3 0.5 0.1 0.7 0.1 0.9 0.3 0.3 0.3 0.4 1 0.5 2.1 0 0.2 0.1 0.3 0.3 0.4s0.4 0.1 0.5 0c0.4-0.2 0.9-0.2 1.3 0.1 0.6 0.3 1 0.7 1.1 1.2 0.1 0.3 0.1 0.6 0.1 0.9 0.1 0.7 0.1 1.4 0.6 2.2 0.1 0.1 0.2 0.3 0.4 0.3 0.6 0.1 1.5 0.4 1.9 1.2s0.2 2-0.6 3.4c-0.1 0.1-0.1 0.3 0 0.4 0 0.1 0.2 0.3 0.3 0.3 2.1 1 1.8 3.8 1.6 6.2-0.1 0.5-0.1 1.1-0.1 1.5 0 1.2 0.7 1.9 1.3 2.5 0.8 0.7 1.7 1.6 1.9 3.6 0.3 2.2-1.4 4.4-1.5 4.4-0.1 0.1-0.1 0.3-0.1 0.5s0.2 0.3 0.3 0.4c0 0 1.8 0.7 2.3 1.8 0.2 0.4 0.2 0.8 0 1.3-0.6 1.5 0.1 2.1 0.8 2.5 0.5 0.3 0.9 0.5 0.7 1.8-0.1 0.4-0.3 0.7-0.6 1-1.5 1.2-5.4 0.9-6.8 0.7-0.2 0-0.4 0-0.5 0.2-0.1 0.1-0.2 0.3-0.1 0.5 0.1 0.6 0.1 1-0.3 1.3-0.6 0.6-1.8 0.7-2.5 0.6-0.2 0-0.4 0-0.5 0.2-0.1 0.1-0.2 0.3-0.1 0.5 0.2 0.9 0.1 1.5-0.5 1.8-0.6 0.4-1.5 0.2-1.7 0-0.1-0.1-0.2-0.4-0.3-0.6-0.1-0.4-0.3-0.8-0.7-1-0.3-0.2-0.7-0.1-1.2 0.1-0.8 0.3-1.2 0.2-1.3 0.2-0.2-0.1-0.3-0.5-0.3-0.8 0-0.2-0.2-0.4-0.4-0.5-0.1 0-1.1-0.3-1.2-1.9s1.2-3 1.7-3.7l0.4-0.4c0.4-0.5 1.5-1.9 0.5-3.5-0.2-0.3-0.5-0.3-0.8-0.2-0.2 0.1-0.3 0.3-0.3 0.5 0 0.1 0 0.2 0.1 0.3 0.2 0.3 0.3 0.6 0.3 0.8 0 0.5-0.3 1-0.6 1.4l-0.3 0.3c-0.6 0.7-2 2.3-2 4.2v0.3c0.2 1.8 1.1 2.5 1.7 2.7 0.1 0.6 0.4 1 0.8 1.2 0.5 0.3 1.3 0.3 2.3-0.1 0.2-0.1 0.3-0.1 0.3-0.1 0.1 0.1 0.1 0.3 0.2 0.4 0.1 0.3 0.2 0.8 0.6 1.1 0.6 0.6 2 0.7 3 0.2 0.5-0.3 1.1-0.8 1.1-2v-0.2c0.9 0 2-0.2 2.8-0.9 0.3-0.3 0.6-0.8 0.6-1.6 1.3 0.2 5 0.4 6.7-0.9z"/>
   <path class="cls-1" d="m86.7 17.2c-1.7-0.1-3.2 0.7-3.7 1.8-0.1 0.3 0 0.6 0.3 0.7s0.6 0 0.7-0.3c0.2-0.4 0.6-0.7 1-0.9v0.3c0 0.6 0.4 1.1 1 1.1 0.5 0 1-0.5 1-1.1 0-0.2 0-0.4-0.1-0.5 1 0.1 1.7 0.6 1.9 1.3 0.1 0.3 0.4 0.4 0.7 0.3s0.4-0.4 0.3-0.7c0-0.1-0.1-0.2-0.1-0.3 0.7-1.1 0.5-2.4-0.4-3.4-1.4-1.5-3.9-0.9-5.7-0.4-0.3 0.1-0.5 0.4-0.4 0.7s0.4 0.5 0.7 0.4c1.6-0.4 3.7-0.9 4.7 0.1 0.5 0.5 0.6 1.1 0.4 1.7-0.7-0.5-1.5-0.7-2.3-0.8z"/>
   <path class="cls-1" d="m98.6 49.9c-0.3 0.1-0.5 0.4-0.4 0.7 0.5 1.8 0.4 2.6-0.2 2.9-1.2 0.6-4.8 0.9-9 0.8-4.3-0.1-6.9-0.5-7.5-0.8 1.5-4.2 2.6-8.8 3.2-13.6 0 0 0.1-0.6 0.1-1.2 0.8 0.3 2.2 0.8 3.4 1 0.1 0.3 0.1 0.8 0.1 1.3 0 1-0.2 2.4-0.3 3.8-0.2 1.9-0.5 4.1-0.5 6.4v1.4c0 0.3 0.3 0.5 0.6 0.5s0.5-0.3 0.5-0.6c-0.1-2.7 0.2-5.3 0.4-7.6 0.3-2.5 0.5-4.6 0.1-5.8-0.1-0.2-0.2-0.3-0.4-0.4-1.7-0.3-4.2-1.2-4.2-1.3-0.2-0.1-0.3 0-0.5 0-0.1 0.1-0.2 0.2-0.3 0.4l-0.2 1.9c-0.7 4.8-1.8 9.4-3.3 13.6v0.3c0 0.2 0.1 0.4 0.3 0.6 1.1 1 6.7 1.2 8.4 1.2s7.4 0.1 9.5-0.9c1.7-0.8 1.1-2.9 0.8-4.1 0-0.4-0.3-0.5-0.6-0.5z"/>
   <path class="cls-1" d="m96.2 38.5c-0.1-0.3-0.4-0.4-0.7-0.3-1.1 0.5-2.8 0.7-4.7 0.7-0.3 0-0.5 0.2-0.5 0.6 0 0.3 0.2 0.6 0.5 0.6 2.2 0 3.9-0.3 5.2-0.8 0.2-0.2 0.3-0.5 0.2-0.8z"/>
   <path class="cls-1" d="m95.3 15.1c-0.9 0.5-1.6 1.3-1.8 2.6v0.1c-0.2 1.7 0.5 3.3 1.1 4.8 0.5 1.1 0.9 2.2 0.7 2.7-0.3 0.6-0.7 0.5-1.6 0.4-0.7-0.1-1.6-0.3-2.5 0.2-0.3 0.1-0.6 0.2-0.9 0-0.2-0.1-0.3-0.3-0.3-0.4 0.1-0.1 0.2-0.3 0.2-0.4 0-0.3-0.2-0.6-0.6-0.6-0.2 0-0.3 0.1-0.4 0.2s-0.3 0.3-0.4 0.7c0 0.3 0.2 1 0.7 1.4 0.4 0.3 1 0.5 2 0.1 0.6-0.3 1.2-0.2 1.8-0.1 0.9 0.2 2 0.4 2.7-0.9 0.2-0.3 0.2-0.6 0.2-0.9 0-0.8-0.4-1.7-0.8-2.8-0.5-1.2-1.1-2.6-1.1-3.8v-0.4c0.2-0.9 0.6-1.5 1.2-1.8 1.5-0.7 3.9 0.4 3.9 0.4 0.2 0.1 0.4 0.1 0.6-0.1 0.2-0.1 0.2-0.4 0.1-0.6-0.9-2.4-0.9-4.3-0.9-4.3 0-0.3-0.3-0.5-0.6-0.5s-0.5 0.3-0.5 0.5c0 0.1 0.1 1.5 0.6 3.5-0.6-0.4-2.1-0.6-3.4 0z"/>
   <path class="cls-1" d="m82.8 11.9c1.5 0.3 2.9-0.9 3.5-1.7 0.5 0.5 1.5 1.3 2.5 1.3 1.1 0 2-0.7 2.5-1.2 0.5 0.4 1.5 1.1 2.7 1.1 0.9 0 1.7-0.4 2.4-1.3 0.3 0.3 0.7 0.6 1.1 0.8 0.3 0.1 0.6 0 0.7-0.2 0.1-0.3 0-0.6-0.2-0.7-0.6-0.3-0.9-0.6-1.1-1-0.1-0.2-0.3-0.3-0.5-0.3s-0.4 0.1-0.5 0.3c-0.6 1-1.2 1.4-1.9 1.4-1.2 0-2.3-1.2-2.3-1.2-0.1-0.2-0.2-0.2-0.4-0.2s-0.3 0.1-0.4 0.2c-0.3 0.3-1.1 1.2-2 1.2s-1.9-1-2.2-1.4c-0.1-0.1-0.3-0.2-0.5-0.2s-0.3 0.1-0.4 0.2c-0.3 0.5-1.4 1.8-2.5 1.8-0.7-3.1-1.6-6.1-2.7-8.8 0.1 0 0.2 0 0.3-0.1 0.5-0.1 1.6 0.2 2.1 1 0.1 0.2 0.3 0.3 0.5 0.2 0.2 0 0.4-0.2 0.4-0.4 0.2-0.6 1.6-1.3 3-1.2 1.3 0 2.3 1 2.9 2 0.1 0.3 0.5 0.4 0.7 0.2 0.5-0.1 0.6-0.4 0.4-0.7-0.7-1.2-2-2.5-3.8-2.6-1.3 0-2.9 0.4-3.7 1.3-0.9-0.8-2-1-2.7-0.9-0.4 0.1-0.7 0.1-1 0.2-0.1 0-0.1 0-0.2 0.1-0.2 0.1-0.3 0.3-0.3 0.5v0.3c1.2 3 2.2 6.2 2.9 9.5 0.4 0.3 0.5 0.4 0.7 0.5z"/>
   <path class="cls-1" d="m94.6 52.6c0.1 0.3 0.4 0.4 0.7 0.3s0.4-0.4 0.3-0.7c-0.3-0.7-0.3-2.4-0.3-3v-0.3c0-0.3-0.3-0.5-0.6-0.5s-0.5 0.3-0.5 0.6v0.2c0 1.3 0 2.7 0.4 3.4z"/>
  </g>
  <g id="b" transform="matrix(.26458 0 0 .26458 46.346 119.71)">
   <path class="cls-1" d="m6.3 22.9c-0.4 0-0.6 0.2-0.6 0.6v6.2l-4.3-6.2c-0.4-0.5-0.5-0.6-0.9-0.6s-0.5 0.2-0.5 0.7v7.7c0 0.4 0.2 0.6 0.6 0.6s0.6-0.2 0.6-0.6v-6.3l4.3 6.2c0.3 0.4 0.5 0.6 0.8 0.6 0.4 0 0.5-0.2 0.5-0.7v-7.7c0.1-0.3-0.2-0.5-0.5-0.5z"/>
   <path class="cls-1" d="m12.4 30.6h-2.6v-2.7h2.3c0.4 0 0.6-0.2 0.6-0.6s-0.2-0.6-0.6-0.6h-2.3v-2.7h2.5c0.4 0 0.6-0.2 0.6-0.6 0-0.3-0.2-0.6-0.6-0.6h-3c-0.4 0-0.6 0.2-0.6 0.6v7.5c0 0.4 0.2 0.6 0.6 0.6h3.1c0.4 0 0.6-0.2 0.6-0.6-0.1 0-0.3-0.3-0.6-0.3z"/>
   <path class="cls-1" d="m18.7 22.9h-4.3c-0.4 0-0.6 0.2-0.6 0.6 0 0.3 0.2 0.6 0.6 0.6h1.6v7.2c0 0.4 0.2 0.6 0.6 0.6s0.6-0.2 0.6-0.6v-7.3h1.6c0.4 0 0.6-0.2 0.6-0.6-0.1-0.3-0.3-0.5-0.7-0.5z"/>
   <path class="cls-1" d="m26.5 22.9c-0.4 0-0.6 0.3-0.6 0.7v3.3h-4.5v-3.3c0-0.4-0.2-0.7-0.6-0.7s-0.6 0.3-0.6 0.7v7.6c0 0.4 0.2 0.7 0.6 0.7s0.6-0.3 0.6-0.7v-3.3h4.6v3.3c0 0.4 0.2 0.7 0.6 0.7s0.6-0.3 0.6-0.7v-7.6c-0.1-0.5-0.3-0.7-0.7-0.7z"/>
   <path class="cls-1" d="m32.6 30.6h-2.5v-2.7h2.3c0.4 0 0.6-0.2 0.6-0.6s-0.2-0.6-0.6-0.6h-2.3v-2.7h2.5c0.4 0 0.6-0.2 0.6-0.6 0-0.3-0.2-0.6-0.6-0.6h-3.1c-0.4 0-0.6 0.2-0.6 0.6v7.5c0 0.4 0.2 0.6 0.6 0.6h3.1c0.4 0 0.6-0.2 0.6-0.6 0 0-0.2-0.3-0.6-0.3z"/>
   <path class="cls-1" d="m39.8 30.8-2.7-3h0.4c0.9 0 2.4-0.4 2.4-2.5 0-1.5-1.4-2.4-2.7-2.4h-2c-0.4 0-0.6 0.2-0.6 0.6v7.6c0 0.4 0.2 0.6 0.6 0.6s0.6-0.2 0.6-0.6v-3.1l3.2 3.5c0.1 0.1 0.3 0.3 0.5 0.3 0.3 0 0.5-0.2 0.5-0.5 0-0.1-0.1-0.3-0.2-0.5zm-4.2-3.7v-3.2h1.5c1 0 1.7 0.6 1.7 1.5 0 1.1-0.5 1.7-1.7 1.7z"/>
   <path class="cls-1" d="m44.7 30.6h-2.2v-7.2c0-0.4-0.2-0.6-0.6-0.6s-0.6 0.2-0.6 0.6v7.6c0 0.4 0.2 0.6 0.6 0.6h2.8c0.4 0 0.6-0.2 0.6-0.6-0.1-0.1-0.3-0.4-0.6-0.4z"/>
   <path class="cls-1" d="m53.2 30.8-2.7-7.3c-0.2-0.5-0.4-0.7-0.8-0.7s-0.7 0.2-0.8 0.7l-2.7 7.2v0.1c0 0.1-0.1 0.3-0.1 0.5 0 0.3 0.2 0.5 0.6 0.5 0.3 0 0.5-0.1 0.6-0.4l0.5-1.5h4l0.6 1.6c0.1 0.3 0.3 0.4 0.6 0.4s0.6-0.2 0.6-0.5c-0.3-0.2-0.3-0.4-0.4-0.6zm-5.3-1.9 1.7-4.8h0.1l1.8 4.8z"/>
   <path class="cls-1" d="m60.6 22.9c-0.4 0-0.6 0.2-0.6 0.6v6.2l-4.3-6.2c-0.3-0.4-0.5-0.6-0.8-0.6-0.4 0-0.5 0.2-0.5 0.7v7.7c0 0.4 0.2 0.6 0.6 0.6s0.6-0.2 0.6-0.6v-6.3l4.3 6.2c0.3 0.4 0.5 0.6 0.8 0.6 0.4 0 0.5-0.2 0.5-0.7v-7.7c0-0.3-0.2-0.5-0.6-0.5z"/>
   <path class="cls-1" d="m65.8 22.9h-2.1c-0.4 0-0.6 0.2-0.6 0.6v7.5c0 0.4 0.2 0.6 0.6 0.6h2.3c2.3 0 3.8-1.8 3.8-4.5-0.1-1.8-1.1-4.2-4-4.2zm-0.1 7.9h-1.6v-7h1.5c1.8 0 2.9 1.3 2.9 3.4 0 2.3-1 3.6-2.8 3.6z"/>
   <path class="cls-1" d="m73.5 26.5c-0.9-0.3-1.7-0.6-1.7-1.4 0-0.7 0.5-1.2 1.3-1.2 0.6 0 0.9 0.2 1.2 0.4 0.2 0.1 0.3 0.2 0.5 0.2 0.3 0 0.5-0.2 0.5-0.5 0-0.6-1.2-1.1-2.2-1.1-1.6 0-2.6 1.2-2.6 2.3 0 1.6 1.3 2 2.4 2.4 1 0.3 1.8 0.6 1.8 1.5 0 1-0.7 1.7-1.7 1.7-0.7 0-1.1-0.3-1.5-0.5-0.2-0.1-0.4-0.2-0.5-0.2-0.3 0-0.5 0.2-0.5 0.6 0 0.7 1.3 1.1 2.5 1.1 2.1 0 3-1.5 3-2.8 0-1.6-1.3-2.1-2.5-2.5z"/>
   <path class="cls-1" d="m39.3 41.8c-0.2 0-0.4 0.1-0.6 0.3-0.4 0.2-0.9 0.5-1.7 0.5-1.8 0-2.6-1.8-2.6-3.5s0.8-3.4 2.7-3.4c0.8 0 1.2 0.3 1.5 0.6 0.2 0.2 0.4 0.3 0.6 0.3 0.3 0 0.5-0.2 0.5-0.6 0-0.5-1-1.3-2.6-1.3-2.7 0-3.9 2.3-3.9 4.5s1.2 4.5 3.9 4.5c1.6 0 2.8-0.7 2.8-1.3-0.2-0.3-0.4-0.6-0.6-0.6z"/>
   <path class="cls-1" d="m47.7 42.7-2.7-7.3c-0.2-0.5-0.4-0.7-0.8-0.7s-0.7 0.2-0.8 0.7l-2.7 7.2v0.1c0 0.1-0.1 0.4-0.1 0.5 0 0.3 0.2 0.5 0.6 0.5 0.3 0 0.5-0.1 0.6-0.4l0.5-1.5h4l0.6 1.6c0.1 0.3 0.3 0.4 0.6 0.4s0.6-0.2 0.6-0.5c-0.2-0.3-0.3-0.5-0.4-0.6zm-5.3-1.9 1.7-4.8h0.1l1.8 4.8z"/>
   <path class="cls-1" d="m55.2 34.7c-0.4 0-0.6 0.2-0.6 0.6v6.2l-4.3-6.2c-0.3-0.4-0.5-0.6-0.8-0.6-0.4 0-0.5 0.2-0.5 0.7v7.6c0 0.4 0.2 0.6 0.6 0.6s0.6-0.2 0.6-0.6v-6.2l4.3 6.2c0.3 0.4 0.5 0.6 0.8 0.6 0.4 0 0.5-0.2 0.5-0.7v-7.7c-0.1-0.3-0.3-0.5-0.6-0.5z"/>
   <path class="cls-1" d="m63.3 41.8c-0.2 0-0.4 0.1-0.6 0.3-0.4 0.2-0.9 0.5-1.7 0.5-1.8 0-2.6-1.8-2.6-3.5s0.8-3.4 2.7-3.4c0.8 0 1.2 0.3 1.5 0.6 0.2 0.2 0.4 0.3 0.6 0.3 0.3 0 0.5-0.2 0.5-0.6 0-0.5-1-1.3-2.6-1.3-2.7 0-3.9 2.3-3.9 4.5s1.2 4.5 3.9 4.5c1.6 0 2.8-0.7 2.8-1.3-0.1-0.3-0.3-0.6-0.6-0.6z"/>
   <path class="cls-1" d="m68.7 42.5h-2.5v-2.7h2.3c0.4 0 0.6-0.2 0.6-0.6 0-0.3-0.2-0.6-0.6-0.6h-2.3v-2.7h2.5c0.4 0 0.6-0.2 0.6-0.6 0-0.3-0.2-0.6-0.6-0.6h-3.1c-0.4 0-0.6 0.2-0.6 0.6v7.7c0 0.4 0.2 0.6 0.6 0.6h3.1c0.4 0 0.6-0.2 0.6-0.6 0-0.3-0.2-0.5-0.6-0.5z"/>
   <path class="cls-1" d="m75.8 42.7-2.7-3h0.4c0.9 0 2.4-0.4 2.4-2.5 0-1.5-1.4-2.4-2.7-2.4h-2c-0.4 0-0.6 0.2-0.6 0.6v7.6c0 0.4 0.2 0.6 0.6 0.6s0.6-0.2 0.6-0.6v-3.2l3.2 3.5c0.1 0.1 0.3 0.3 0.5 0.3 0.3 0 0.5-0.2 0.5-0.5 0-0.1 0-0.3-0.2-0.4zm-4.2-3.8v-3.2h1.5c1 0 1.7 0.7 1.7 1.5 0 1.1-0.5 1.7-1.7 1.7z"/>
   <path class="cls-1" d="m25.8 46.6c-0.4 0-0.6 0.2-0.6 0.6v7.7c0 0.4 0.2 0.6 0.6 0.6s0.6-0.2 0.6-0.6v-7.7c0-0.4-0.3-0.6-0.6-0.6z"/>
   <path class="cls-1" d="m34.4 46.6c-0.4 0-0.6 0.2-0.6 0.6v6.2l-4.3-6.2c-0.3-0.4-0.5-0.6-0.8-0.6-0.4 0-0.5 0.2-0.5 0.7v7.7c0 0.4 0.2 0.6 0.6 0.6s0.6-0.2 0.6-0.6v-6.2l4.3 6.2c0.3 0.4 0.5 0.6 0.8 0.6 0.4 0 0.5-0.2 0.5-0.7v-7.7c0-0.4-0.2-0.6-0.6-0.6z"/>
   <path class="cls-1" d="m39.3 50.2c-0.9-0.3-1.7-0.6-1.7-1.4 0-0.7 0.5-1.2 1.3-1.2 0.6 0 0.9 0.2 1.2 0.4 0.2 0.1 0.3 0.2 0.5 0.2 0.3 0 0.5-0.2 0.5-0.5 0-0.6-1.2-1.1-2.2-1.1-1.6 0-2.6 1.2-2.6 2.3 0 1.6 1.2 2 2.4 2.4 1 0.3 1.8 0.6 1.8 1.5 0 1-0.7 1.7-1.7 1.7-0.7 0-1.1-0.3-1.5-0.5-0.2-0.1-0.4-0.2-0.5-0.2-0.3 0-0.5 0.2-0.5 0.6 0 0.6 1.3 1.1 2.5 1.1 2.1 0 3-1.5 3-2.8 0-1.6-1.3-2.1-2.5-2.5z"/>
   <path class="cls-1" d="m47.1 46.6h-4.3c-0.4 0-0.6 0.2-0.6 0.6 0 0.3 0.2 0.6 0.6 0.6h1.6v7.2c0 0.4 0.2 0.6 0.6 0.6s0.6-0.2 0.6-0.6v-7.2h1.6c0.4 0 0.6-0.2 0.6-0.6-0.1-0.4-0.3-0.6-0.7-0.6z"/>
   <path class="cls-1" d="m49.3 46.6c-0.4 0-0.6 0.2-0.6 0.6v7.7c0 0.4 0.2 0.6 0.6 0.6s0.6-0.2 0.6-0.6v-7.7c0-0.4-0.3-0.6-0.6-0.6z"/>
   <path class="cls-1" d="m55.7 46.6h-4.3c-0.4 0-0.6 0.2-0.6 0.6 0 0.3 0.2 0.6 0.6 0.6h1.6v7.2c0 0.4 0.2 0.6 0.6 0.6s0.6-0.2 0.6-0.6v-7.2h1.6c0.4 0 0.6-0.2 0.6-0.6-0.1-0.4-0.3-0.6-0.7-0.6z"/>
   <path class="cls-1" d="m63.6 46.6c-0.4 0-0.6 0.2-0.6 0.6v5.2c0 1.3-0.9 2.1-2.2 2.1-1.4 0-2.3-0.8-2.3-2.1v-5.2c0-0.4-0.2-0.6-0.6-0.6s-0.6 0.2-0.6 0.6v4.8c0 3 1.9 3.6 3.4 3.6s3.4-0.6 3.4-3.6v-4.8c0.1-0.4-0.2-0.6-0.5-0.6z"/>
   <path class="cls-1" d="m70.1 46.6h-4.3c-0.4 0-0.6 0.2-0.6 0.6 0 0.3 0.2 0.6 0.6 0.6h1.6v7.2c0 0.4 0.2 0.6 0.6 0.6s0.6-0.2 0.6-0.6v-7.2h1.6c0.4 0 0.6-0.2 0.6-0.6-0.2-0.4-0.4-0.6-0.7-0.6z"/>
   <path class="cls-1" d="m75.3 54.4h-2.5v-2.7h2.3c0.4 0 0.6-0.2 0.6-0.6 0-0.3-0.2-0.6-0.6-0.6h-2.3v-2.7h2.5c0.4 0 0.6-0.2 0.6-0.6 0-0.3-0.2-0.6-0.6-0.6h-3.1c-0.4 0-0.6 0.2-0.6 0.6v7.5c0 0.4 0.2 0.6 0.6 0.6h3.1c0.4 0 0.6-0.2 0.6-0.6 0-0.1-0.2-0.3-0.6-0.3z"/>
  </g>
 </g>
</svg>
