<?xml version="1.0" encoding="UTF-8" standalone="no"?>
<!-- Created with Inkscape (http://www.inkscape.org/) -->

<svg
   xmlns:dc="http://purl.org/dc/elements/1.1/"
   xmlns:cc="http://creativecommons.org/ns#"
   xmlns:rdf="http://www.w3.org/1999/02/22-rdf-syntax-ns#"
   xmlns:svg="http://www.w3.org/2000/svg"
   xmlns="http://www.w3.org/2000/svg"
   xmlns:sodipodi="http://sodipodi.sourceforge.net/DTD/sodipodi-0.dtd"
   xmlns:inkscape="http://www.inkscape.org/namespaces/inkscape"
   version="1.1"
   id="svg937"
   width="1179.5774"
   height="647.79053"
   viewBox="0 0 1179.5774 647.79053"
   sodipodi:docname="ocf.svg"
   inkscape:version="0.92.3 (2405546, 2018-03-11)">
  <metadata
     id="metadata943">
    <rdf:RDF>
      <cc:Work
         rdf:about="">
        <dc:format>image/svg+xml</dc:format>
        <dc:type
           rdf:resource="http://purl.org/dc/dcmitype/StillImage" />
        <dc:title></dc:title>
      </cc:Work>
    </rdf:RDF>
  </metadata>
  <defs
     id="defs941" />
  <sodipodi:namedview
     pagecolor="#ffffff"
     bordercolor="#666666"
     borderopacity="1"
     objecttolerance="10"
     gridtolerance="10"
     guidetolerance="10"
     inkscape:pageopacity="0"
     inkscape:pageshadow="2"
     inkscape:window-width="2109"
     inkscape:window-height="1300"
     id="namedview939"
     showgrid="false"
     fit-margin-top="0"
     fit-margin-left="0"
     fit-margin-right="0"
     fit-margin-bottom="0"
     inkscape:pagecheckerboard="true"
     inkscape:zoom="0.921875"
     inkscape:cx="636.81906"
     inkscape:cy="374.91321"
     inkscape:window-x="2603"
     inkscape:window-y="0"
     inkscape:window-maximized="0"
     inkscape:current-layer="svg937" />
  <path
     style="fill:#ffffff;fill-opacity:1"
     d="M 32.654843,647.42455 C 27.31099,646.423 17.511726,641.1098 12.689728,636.59939 3.2670001,627.78553 -1.8412729,612.66784 0.61129911,600.85387 3.6918971,586.01471 12.882286,574.68489 26.075653,569.46167 l 7.075816,-2.8013 552.500001,-0.27257 c 345.74664,-0.17057 554.82583,0.0833 558.71533,0.67834 9.9156,1.51706 17.476,5.47481 24.2103,12.67389 12.1266,12.9633 14.3976,31.10552 5.9634,47.63801 -3.249,6.36855 -12.1306,14.24855 -19.6423,17.42733 l -6.7467,2.855 -556.50003,0.11605 c -306.075,0.0638 -557.623483,-0.0945 -558.996627,-0.35187 z M 728.65147,481.11653 c -28.58517,-1.56555 -58.36067,-8.74319 -85,-20.48998 -48.1191,-21.21844 -91.17633,-62.00065 -115.34543,-109.25091 -5.17109,-10.10942 -13.65457,-29.59212 -13.65457,-31.35836 0,-0.39969 -0.48024,-1.98985 -1.06721,-3.53368 -1.01617,-2.67275 -1.28002,-2.26341 -5.51763,8.56026 -8.88088,22.68347 -19.6424,42.20459 -33.61179,60.97091 -8.66499,11.64045 -34.24934,37.50379 -45.30337,45.79739 -43.81532,32.87369 -92.50264,49.34821 -145.83922,49.34821 -38.24075,0 -72.54459,-7.89786 -106.16078,-24.44167 C 94.642239,416.11277 42.783185,332.86078 42.876577,241.16037 c 0.019,-18.65172 1.161226,-30.01333 4.844014,-48.18273 C 70.246179,81.8454 168.37124,1.26814 281.65147,0.88085 c 64.81058,-0.22158 125.55902,24.73691 170.91268,70.21944 24.05149,24.11984 42.98215,53.46476 55.4754,85.9939 l 4.23468,11.02601 4.32848,-11.22991 C 538.4625,100.17667 578.13375,55.42406 631.15147,27.66936 647.27379,19.22935 672.00575,10.18987 688.74839,6.61781 715.10757,0.99405 717.23523,0.86864 793.90147,0.41993 L 865.65147,0 v 40.08018 c 0,22.04411 -0.1125,40.13167 -0.25,40.19459 -0.1375,0.0629 -33.1,0.45158 -73.25,0.86369 -67.85356,0.69647 -73.63449,0.89094 -82,2.75843 -22.24483,4.96589 -44.83449,14.92051 -62.3754,27.48709 -10.7737,7.71844 -27.73701,24.65346 -35.62895,35.56953 -19.85939,27.46935 -30.47467,60.15606 -30.48975,93.8845 -0.0114,25.47817 4.61822,46.00977 15.52672,68.85846 19.21081,40.2385 54.4413,71.02179 96.20206,84.05833 22.46175,7.01192 17.31229,6.69986 117.51532,7.12148 l 90.75,0.38184 V 227.89291 c 0,-118.65279 0.33732,-175.23783 1.06884,-179.29888 1.83715,-10.19899 8.135,-21.7403 16.28194,-29.838 7.94553,-7.8975 15.37964,-12.2728 26.64922,-15.68425 l 7.5,-2.27035 85.50003,-0.0705 85.5,-0.0705 0.2613,39.59442 0.2614,39.59443 -13.6695,0.65557 c -7.5182,0.36051 -39.7012,0.65552 -71.5179,0.65552 h -57.84853 l 0.2566,72.25 0.2566,72.25 71.25003,0.25666 71.25,0.25667 v 39.3383 39.33831 l -13.6581,0.65503 c -7.512,0.36027 -39.3953,0.65503 -70.8518,0.65503 h -57.19373 l -0.6422,8.25 c -0.3532,4.5375 -0.6449,43.84028 -0.6482,87.33951 l -0.01,79.08952 -26.25,0.65844 c -34.42086,0.86349 -209.38965,0.56926 -226.746,-0.38131 z m -416,-82.45913 c 75.4415,-14.71716 129.95758,-80.71342 129.9941,-157.36869 0.0382,-80.11525 -58.27305,-147.33092 -137.9941,-159.06657 -9.57272,-1.40918 -42.00892,-0.60054 -51,1.27145 -60.13956,12.52137 -105.45811,53.04993 -123.77166,110.6895 -4.81009,15.13913 -6.6311,28.15419 -6.57286,46.97728 0.0617,19.93519 1.81492,31.37333 7.48693,48.8448 19.76508,60.88228 71.43931,102.93386 135.85759,110.55849 7.86587,0.93101 37.81868,-0.31024 46,-1.90626 z"
     id="path1490"
     inkscape:connector-curvature="0" />
</svg>
