<?xml version="1.0" encoding="UTF-8" standalone="no"?>
<svg
   xmlns:dc="http://purl.org/dc/elements/1.1/"
   xmlns:cc="http://creativecommons.org/ns#"
   xmlns:rdf="http://www.w3.org/1999/02/22-rdf-syntax-ns#"
   xmlns:svg="http://www.w3.org/2000/svg"
   xmlns="http://www.w3.org/2000/svg"
   viewBox="0 0 280 400"
   height="400"
   width="280"
   id="svg2"
   version="1.1">
  <metadata
     id="metadata8">
    <rdf:RDF>
      <cc:Work
         rdf:about="">
        <dc:format>image/svg+xml</dc:format>
        <dc:type
           rdf:resource="http://purl.org/dc/dcmitype/StillImage" />
        <dc:title></dc:title>
      </cc:Work>
    </rdf:RDF>
  </metadata>
  <defs
     id="defs6" />
  <path
     id="path18"
     d="m 77.039995,378.05488 c -4.24279,-1.91834 -6.17392,-6.68778 -4.59002,-11.33629 0.50515,-1.48253 2.87922,-4.31859 3.6151,-4.31859 0.17705,0 0.60953,0.56378 0.96107,1.25283 l 0.63915,1.25287 -0.83265,1.48976 c -1.6182,2.89529 -0.89203,7.11027 1.52099,8.82851 1.05685,0.75251 3.50559,1.16121 4.88434,0.81517 1.20603,-0.30269 2.78532,-1.78346 3.44053,-3.22589 1.027,-2.26093 0.61448,-5.60771 -0.89708,-7.27795 -0.47467,-0.52452 -0.45534,-0.67901 0.25166,-2.01172 0.42119,-0.79398 0.84125,-1.44358 0.93345,-1.44358 0.63252,0 2.66488,2.24282 3.41312,3.76653 1.02532,2.08797 1.20715,5.03683 0.44683,7.24656 -0.5938,1.72573 -2.74795,3.97488 -4.66649,4.87229 -2.189,1.02387 -6.95007,1.07059 -9.12,0.0895 z M 190.8,378.43453 c -2.46056,-0.63424 -4.20348,-2.19802 -5.3884,-4.83453 -0.90546,-2.01469 -0.90056,-5.99366 0.01,-8.02861 0.78161,-1.74701 2.65703,-3.70973 4.13461,-4.3271 2.1585,-0.90186 5.2026,-0.42535 6.9239,1.0839 0.53121,0.46576 0.56,0.13475 0.56,-6.43859 V 348.96 h 2.08 2.08 v 14.56 14.56 h -2.08 c -1.84137,0 -2.08,-0.0709 -2.08,-0.61747 0,-0.58746 -0.0662,-0.58045 -1.36195,0.14374 -1.54793,0.86515 -3.46928,1.19136 -4.87805,0.82826 z m 4.6325,-4.44893 c 1.87948,-1.37581 2.45625,-4.47002 1.30562,-7.00438 -0.69652,-1.53412 -1.97645,-2.34122 -3.71286,-2.34122 -2.37657,0 -3.91766,1.68006 -4.19228,4.5703 -0.39935,4.20304 3.5135,7.03431 6.59952,4.7753 z m -53.27179,3.92755 c -0.5276,-0.28461 -1.2116,-0.74582 -1.52,-1.02489 -0.52091,-0.47143 -0.56071,-0.44714 -0.56071,0.34214 0,0.82506 -0.0555,0.8496 -1.92,0.8496 h -1.92 v -14.56 -14.56 h 1.92 1.92 v 6.87296 6.87296 l 1.50265,-0.95296 c 1.22985,-0.77997 1.84559,-0.95296 3.39164,-0.95296 2.25855,0 3.53797,0.55254 5.18508,2.23936 l 1.22872,1.2583 -0.57851,1.91069 c -0.68029,2.24685 -0.56234,5.70391 0.24808,7.27111 0.49257,0.95251 0.48166,1.03843 -0.25938,2.04288 -1.45196,1.96803 -2.85283,2.6976 -5.39258,2.80848 -1.65068,0.0721 -2.55221,-0.044 -3.24499,-0.41767 z m 4.94346,-4.4839 c 0.99176,-0.97747 1.11773,-1.30138 1.23748,-3.18199 0.22917,-3.59897 -1.23321,-5.60726 -4.08305,-5.60726 -2.68933,0 -4.1786,1.80227 -4.1786,5.0568 0,4.45021 4.0905,6.62378 7.02417,3.73245 z m 10.53111,4.48822 c -1.88858,-0.60579 -4.48064,-2.92313 -5.35839,-4.79046 -0.93077,-1.98013 -0.93357,-5.38791 -0.006,-7.36112 0.8116,-1.72659 2.72843,-3.52122 4.73001,-4.42845 1.10724,-0.50186 2.12287,-0.67021 4.03917,-0.66947 2.92802,0 4.56923,0.65245 6.66711,2.64595 5.75564,5.46934 1.94288,14.58554 -6.26131,14.97062 -1.46861,0.0689 -2.87301,-0.0664 -3.81052,-0.36707 z m 6.02733,-3.98339 c 1.39326,-0.84954 2.00325,-1.8801 2.22599,-3.76083 0.28046,-2.368 -0.69417,-4.38938 -2.51479,-5.21568 -2.57532,-1.16883 -5.14888,-0.5537 -6.56743,1.56976 -0.55312,0.82797 -0.72638,1.54409 -0.72638,3.00221 0,2.26883 0.75383,3.7311 2.32199,4.50416 1.45736,0.71846 3.99784,0.67033 5.26062,-0.0996 z m -74.782615,4.03802 c 0,-0.0594 0.56131,-0.69799 1.24736,-1.41917 1.74362,-1.83293 2.38681,-3.9416 2.20543,-7.2304 -0.15861,-2.87575 -0.99266,-4.92813 -2.78871,-6.86227 -0.54124,-0.58288 -0.98408,-1.12288 -0.98408,-1.2 0,-0.0772 1.296,-0.14026 2.88,-0.14026 2.65198,0 2.88,0.0499 2.88,0.63037 0,0.59782 0.0601,0.58957 1.16466,-0.16 0.80459,-0.54602 1.60253,-0.79037 2.58103,-0.79037 1.589695,0 2.411205,0.34221 3.694315,1.53898 0.484,0.45142 0.88,0.6559 0.88,0.45436 0,-0.2015 0.62465,-0.73244 1.38812,-1.17984 2.8054,-1.64409 6.16988,-0.88192 7.71458,1.74759 0.59707,1.01638 0.66673,1.74345 0.76023,7.93478 l 0.10294,6.81587 -2.02294,-0.0959 -2.02293,-0.0958 -0.16,-6.11194 c -0.17476,-6.676 -0.3107,-7.16806 -1.98022,-7.16806 -2.45092,0 -2.81978,1.05274 -2.81978,8.04774 V 378.08 h -2.08 -2.08 v -5.57917 c 0,-6.98163 -0.26717,-7.84521 -2.430405,-7.85593 -2.06995,-0.0102 -2.68464,2.0927 -2.68775,9.1951 l -0.002,4.24 h -2.72 c -1.496,0 -2.72,-0.0486 -2.72,-0.1079 z M 114.48,369.6 v -8.48 h 1.92 c 1.71988,0 1.92,0.0681 1.92,0.6535 0,0.63338 0.0427,0.62845 1.38812,-0.16 2.4366,-1.42796 5.61525,-0.9703 7.3183,1.05364 1.20714,1.43462 1.53358,3.52672 1.53358,9.8286 V 378.08 h -2.0606 -2.06061 l -0.0994,-6.04726 c -0.089,-5.41514 -0.16312,-6.11757 -0.709,-6.72 -0.41363,-0.45648 -0.9967,-0.67274 -1.81382,-0.67274 -2.8934,0 -3.23355,0.78518 -3.4311,7.92 l -0.15283,5.52 H 116.35632 114.48 Z m 15.75469,0.08 0.0853,-8.4 2,-0.0953 2,-0.0953 v 8.49527 8.49526 h -2.08531 -2.08532 z m 39.28531,7.40941 c 0,-0.54483 0.26801,-1.37283 0.59558,-1.84 1.47328,-2.10115 1.85614,-5.99239 0.87765,-8.91987 -0.32625,-0.9761 -1.14754,-2.32583 -1.97578,-3.24704 -0.7796,-0.86708 -1.41745,-1.66336 -1.41745,-1.76951 0,-0.10614 1.368,-0.19299 3.04,-0.19299 2.84161,0 3.04,0.0424 3.04,0.64957 0,0.63955 0.0148,0.63862 0.9591,-0.0595 1.27969,-0.94611 4.29103,-1.19015 5.69935,-0.46189 1.49316,0.77216 2.52856,2.04429 2.91592,3.58262 0.1901,0.75495 0.34563,4.04487 0.34563,7.31092 v 5.9383 h -2.06098 -2.06099 l -0.099,-6.26637 c -0.11165,-7.06579 -0.15045,-7.17363 -2.58122,-7.17363 -2.78402,0 -3.1178,0.86157 -3.1178,8.04774 V 378.08 h -2.08 -2.08 z m 33.28,0.37677 c 0,-0.3376 -0.0874,-0.8416 -0.19424,-1.12 -0.15072,-0.3928 0.0225,-0.50618 0.77334,-0.50618 0.53216,0 1.05157,0.18 1.15423,0.4 0.14934,0.32 0.224,0.32 0.37334,0 0.36335,-0.77862 0.77333,-0.38477 0.77333,0.74291 0,1.0584 -0.065,1.1353 -0.88,1.04 -0.62787,-0.0734 -0.93791,-0.33213 -1.08214,-0.90291 l -0.20214,-0.8 -0.0379,0.88 c -0.0422,0.9824 -0.67782,1.232 -0.67782,0.26618 z M 80.239995,369.44 v -1.28 h 1.28 1.28 v 1.28 1.28 h -1.28 -1.28 z m -1.6,-3.37933 v -1.45929 l 1.2,0.0993 c 1.16481,0.0964 1.20289,0.1392 1.2984,1.45933 l 0.0984,1.36 h -1.2984 -1.2984 z m 3.2,0.0192 v -1.47862 l 1.2,0.0993 c 1.17012,0.0969 1.2,0.1312 1.2,1.37933 0,1.24813 -0.0299,1.28247 -1.2,1.37933 l -1.2,0.0993 z m -4.48,-3.36 v -1.28 h 1.28 1.28 v 1.28 1.28 h -1.28 -1.28 z m 5.50068,0.08 c 0.0939,-1.13485 0.16448,-1.20541 1.29932,-1.29933 l 1.2,-0.0993 v 1.29929 1.29933 h -1.29932 -1.29931 z m 47.764785,-2.78544 c -1.50596,-1.50595 -0.79553,-3.99859 1.28873,-4.52169 1.41141,-0.35424 3.04581,1.23014 3.04581,2.95257 0,0.79955 -1.78971,2.35456 -2.70993,2.35456 -0.46429,0 -1.19003,-0.35088 -1.62461,-0.78544 z M 75.439995,359.2 v -1.28 h 1.28 1.28 v 1.28 1.28 h -1.28 -1.28 z m 3.2,0 v -1.28 h 1.28 1.28 v 1.28 1.28 h -1.28 -1.28 z m 6.08,0 v -1.28 h 1.28 1.28 v 1.28 1.28 h -1.28 -1.28 z m -11.2,-3.52 v -1.28 h 1.28 1.28 v 1.28 1.28 h -1.28 -1.28 z m 6.72,0 v -1.28 h 1.28 1.28 v 1.28 1.28 h -1.28 -1.28 z m 3.52,0 v -1.28 h 1.28 1.28 v 1.28 1.28 h -1.28 -1.28 z m 3.2,0 v -1.28 h 1.28 1.28 v 1.28 1.28 h -1.28 -1.28 z m -11.52,-3.52 v -1.28 h 1.28 1.28 v 1.28 1.28 h -1.28 -1.28 z m 6.4,0 v -1.28 h 1.28 1.28 v 1.28 1.28 h -1.28 -1.28 z m 6.72,0 v -1.28 h 1.28 1.28 v 1.28 1.28 h -1.28 -1.28 z M 208.56,336.32 v -6.56 h -2.10125 -2.10126 l 0.10126,-0.88 L 204.56,328 h 4.96 4.96 l 0.10125,0.88 0.10126,0.88 H 212.58125 210.48 v 6.56 6.56 h -0.96 -0.96 z m 6.40485,6.16 c 0.003,-0.22 0.21564,-3.424 0.47326,-7.12 0.25761,-3.696 0.47143,-6.9087 0.47514,-7.13933 0.005,-0.288 0.38237,-0.38819 1.20615,-0.32 1.16326,0.0963 1.22187,0.16202 1.94498,2.17933 0.41008,1.144 1.21216,3.69398 1.7824,5.66662 l 1.0368,3.5866 1.89821,-5.6666 L 225.68,328 l 1.2,-0.0993 c 1.06797,-0.0884 1.20051,-0.0179 1.20474,0.64 0.003,0.40663 0.13705,2.75533 0.29875,5.21933 0.16169,2.464 0.33955,5.488 0.39523,6.72 L 228.88,342.72 h -0.96 -0.96 l -0.28605,-5.82442 -0.28605,-5.82438 -1.89382,5.74438 c -1.77491,5.38368 -1.94346,5.74442 -2.684,5.74442 -0.92586,0 -0.7928,0.29626 -2.72182,-6.0615 l -1.49931,-4.94151 -0.20343,3.18151 c -0.55151,8.62531 -0.46244,8.1415 -1.49883,8.1415 -0.53061,0 -0.92462,-0.17098 -0.92184,-0.4 z M 126.64,340.75882 c -13.63479,-1.2 -25.07608,-3.74237 -35.840005,-7.96407 -8.18049,-3.20845 -13.20328,-5.81821 -20.32,-10.55801 -5.72432,-3.81245 -8.95645,-6.41962 -13.85615,-11.1769 C 41.278325,296.16035 32.084806,277.44772 28.865456,254.56 c -0.69724,-4.957 -0.97861,-19.08999 -0.4913,-24.67841 2.81525,-32.28555 17.585959,-57.81291 43.332909,-74.88979 2.08288,-1.38149 3.88529,-2.5118 4.00533,-2.5118 0.12005,0 3.72046,6.55404 8.00092,14.56452 l 7.78264,14.56452 -1.68464,1.83548 c -9.50796,10.35927 -16.03747,25.11816 -18.5793,41.99548 -0.94084,6.24699 -1.02527,19.26796 -0.16289,25.12 0.80843,5.48597 1.71261,9.69689 2.98892,13.92 9.67787,32.02242 36.710785,51.36122 68.850755,49.2544 15.49995,-1.01603 29.33086,-6.97747 40.77537,-17.57516 6.52049,-6.03801 12.9079,-15.37281 16.68058,-24.37763 12.55275,-29.96148 6.63612,-67.87428 -14.0091,-89.76809 l -2.47669,-2.62647 7.74308,-14.49353 c 4.2587,-7.97143 7.85376,-14.61615 7.98903,-14.76603 0.47593,-0.52733 9.40086,5.16284 14.38893,9.17381 12.8575,10.33887 22.1649,23.01083 28.24746,38.4587 2.9656,7.53171 4.89017,15.10993 6.21702,24.48 0.82006,5.79128 0.8192,23.29553 0,29.44 -2.39856,17.95854 -8.02362,32.76803 -17.44176,45.92 -5.55562,7.75816 -13.75512,15.83594 -22.14125,21.81251 -15.33902,10.93175 -34.80921,18.0944 -56.48,20.77773 -3.96279,0.49069 -22.09699,0.89094 -25.76,0.56858 z m -2.343,-93.76849 c -0.11935,-0.11935 -0.217,-6.385 -0.217,-13.92366 V 219.36 h 12.8034 12.8034 l -0.0834,13.84 -0.0834,13.84 -12.503,0.0837 c -6.87666,0.046 -12.60066,-0.014 -12.72,-0.13333 z M 106.16,194.4 v -13.76 h 12.8 12.8 v 13.76 13.76 h -12.8 -12.8 z m 35.84,0 v -13.76 h 12.8 12.8 v 13.76 13.76 H 154.8 142 Z M 92.399995,155.36 V 141.6 H 105.2 118 v 13.76 13.76 H 105.2 92.399995 Z m 63.680005,0 V 141.6 h 12.8 12.8 v 13.76 13.76 h -12.8 -12.8 z M 70.639995,114.72 v -13.76 h 12.8 12.8 v 13.76 13.76 h -12.8 -12.8 z m 37.120005,0 v -13.76 h 12.8 12.8 v 13.76 13.76 h -12.8 -12.8 z m 70.08,0 v -13.76 h 12.8 12.8 v 13.76 13.76 h -12.8 -12.8 z M 46.319995,73.76 V 60 h 12.8 12.8 v 13.76 13.76 h -12.8 -12.8 z m 77.760005,0 V 60 H 137.04 150 v 13.76 13.76 h -12.96 -12.96 z m 40,0 V 60 h 12.8 12.8 v 13.76 13.76 h -12.8 -12.8 z m 37.97695,13.55029 C 201.93763,87.19096 201.84,80.99734 201.84,73.54667 V 60 h 12.96344 12.96344 l -0.0835,13.68 -0.0834,13.68 -12.66305,0.0836 c -6.96467,0.046 -12.76067,-0.014 -12.88,-0.13333 z M 68.079995,32.8 V 19.04 h 12.8 12.8 V 32.8 46.56 h -12.8 -12.8 z M 142,32.8 V 19.04 h 12.8 12.8 V 32.8 46.56 H 154.8 142 Z m 80,0 V 19.04 h 12.8 12.8 V 32.8 46.56 H 234.8 222 Z"
     style="fill:#ffffff;stroke-width:0.31999999;fill-opacity:1" />
</svg>
