<?xml version="1.0" standalone="no"?>
<!DOCTYPE svg PUBLIC "-//W3C//DTD SVG 20010904//EN"
 "http://www.w3.org/TR/2001/REC-SVG-20010904/DTD/svg10.dtd">
<svg version="1.0" xmlns="http://www.w3.org/2000/svg"
 width="7501.000000pt" height="7501.000000pt" viewBox="0 0 7501.000000 7501.000000"
 preserveAspectRatio="xMidYMid meet">

<g transform="translate(0.000000,7501.000000) scale(0.100000,-0.100000)"
fill="#ffffff" stroke="none">
<path d="M42680 73411 c0 -1515 1 -1600 18 -1605 9 -3 134 -30 278 -61 2165
-462 4278 -1267 6259 -2383 2780 -1567 5175 -3705 6962 -6217 995 -1400 1853
-2971 2503 -4585 1052 -2613 1590 -5508 1590 -8555 0 -2871 -475 -5596 -1410
-8095 -456 -1219 -1079 -2506 -1767 -3649 -1098 -1824 -2416 -3419 -3998
-4837 -2615 -2345 -5865 -4084 -9257 -4953 -380 -98 -1131 -271 -1173 -271 -3
0 -5 -720 -5 -1600 0 -978 4 -1600 9 -1600 20 0 509 94 736 141 1910 399 3614
956 5370 1754 3597 1634 6746 4066 9151 7065 1388 1731 2560 3697 3466 5815
1170 2735 1830 5660 1988 8810 41 831 41 2003 0 2840 -167 3341 -904 6444
-2218 9330 -1473 3237 -3506 6002 -6092 8286 -2366 2089 -5132 3729 -8149
4831 -1264 461 -2728 858 -4046 1097 -93 17 -180 34 -192 36 l-23 5 0 -1599z"/>
<path d="M31890 74051 c-1814 -379 -3438 -903 -5100 -1646 -2579 -1152 -4855
-2670 -6870 -4581 -2209 -2095 -3946 -4551 -5252 -7429 -1452 -3198 -2168
-6628 -2168 -10390 0 -3763 712 -7180 2162 -10380 898 -1981 2011 -3778 3330
-5377 1825 -2213 4112 -4126 6653 -5563 2299 -1301 4740 -2217 7283 -2735
l332 -68 0 3717 0 3716 -238 74 c-709 219 -1382 492 -2127 861 -1870 928
-3442 2159 -4801 3760 -1106 1302 -2012 2803 -2719 4500 -802 1925 -1260 3976
-1390 6220 -52 903 -44 1960 20 2865 141 1971 553 3830 1228 5551 564 1437
1279 2755 2121 3909 1484 2037 3296 3580 5496 4680 757 379 1502 680 2253 910
l157 49 0 3713 0 3713 -22 -1 c-13 0 -169 -31 -348 -68z"/>
<path d="M42680 66186 l0 -1643 58 -21 c665 -238 990 -374 1517 -631 994 -486
1896 -1076 2730 -1785 478 -407 1023 -956 1446 -1456 947 -1119 1717 -2378
2331 -3810 718 -1672 1143 -3466 1283 -5415 68 -957 65 -2040 -10 -2980 -117
-1461 -396 -2845 -834 -4135 -378 -1115 -922 -2269 -1534 -3255 -571 -920
-1211 -1729 -1957 -2476 -633 -634 -1215 -1112 -1939 -1593 -943 -626 -1923
-1113 -3008 -1492 l-83 -29 0 -1643 c0 -1560 1 -1643 18 -1638 9 3 112 32 227
65 1556 442 3035 1113 4410 1999 1434 925 2710 2080 3801 3442 1586 1980 2789
4407 3448 6960 567 2196 771 4600 595 7030 -214 2973 -1015 5705 -2402 8190
-1365 2448 -3200 4438 -5412 5870 -1383 895 -2878 1575 -4450 2021 -115 33
-216 62 -222 64 -10 4 -13 -329 -13 -1639z"/>
<path d="M7570 19584 c-30 -2 -129 -8 -220 -14 -547 -35 -1141 -136 -1679
-286 -1595 -445 -2992 -1359 -3992 -2615 -939 -1179 -1496 -2583 -1644 -4149
-49 -526 -45 -1153 11 -1700 309 -3033 2273 -5516 5149 -6512 1326 -459 2794
-575 4225 -332 1374 233 2657 813 3708 1676 274 226 613 551 837 803 1059
1190 1717 2687 1895 4310 38 356 45 484 45 955 0 473 -6 610 -45 956 -179
1591 -780 2998 -1784 4184 -161 190 -511 548 -706 723 -868 777 -1913 1350
-3065 1682 -555 159 -1096 255 -1725 305 -132 11 -900 21 -1010 14z m715
-2794 c1725 -112 3120 -1012 3880 -2505 389 -765 585 -1623 585 -2565 0 -1963
-874 -3600 -2387 -4469 -40 -23 -150 -80 -245 -127 -893 -439 -1976 -584
-3038 -408 -1723 286 -3058 1442 -3625 3139 -211 630 -306 1276 -292 1985 13
644 102 1175 292 1745 314 942 856 1713 1606 2285 701 534 1587 856 2534 919
189 12 506 13 690 1z"/>
<path d="M66575 19580 c-2431 -143 -4555 -1248 -5937 -3087 -1065 -1418 -1601
-3180 -1538 -5051 52 -1527 475 -2899 1266 -4104 855 -1303 2093 -2309 3569
-2899 1483 -592 3184 -743 4795 -423 1811 359 3403 1300 4535 2679 1313 1599
1918 3698 1699 5895 -219 2207 -1306 4147 -3044 5437 -1042 773 -2267 1274
-3600 1472 -179 27 -375 49 -595 67 -214 18 -932 26 -1150 14z m955 -2800
c846 -84 1563 -331 2210 -763 851 -568 1488 -1431 1828 -2477 285 -873 354
-1869 197 -2830 -227 -1386 -950 -2561 -2016 -3278 -561 -378 -1207 -625
-1909 -731 -358 -54 -882 -72 -1215 -42 -739 66 -1383 257 -1960 580 -1276
716 -2121 2014 -2349 3606 -81 569 -80 1223 5 1785 200 1329 813 2433 1769
3190 688 544 1578 886 2500 960 74 6 155 12 180 14 85 7 655 -3 760 -14z"/>
<path d="M53800 11720 l0 -7610 1515 0 1515 0 0 7610 0 7610 -1515 0 -1515 0
0 -7610z"/>
<path d="M34350 14319 c-1252 -98 -2344 -568 -3184 -1370 -895 -855 -1430
-2015 -1546 -3354 -29 -334 -22 -817 16 -1155 120 -1070 512 -2010 1165 -2795
104 -124 382 -409 510 -521 667 -586 1481 -983 2384 -1163 390 -78 680 -105
1135 -105 435 0 702 20 1070 80 1482 241 2666 985 3433 2159 93 143 216 353
277 474 l39 79 -72 10 c-40 6 -703 99 -1474 207 l-1402 196 -103 -107 c-57
-59 -134 -132 -173 -164 -326 -265 -730 -430 -1216 -496 -151 -20 -493 -23
-629 -6 -678 89 -1215 406 -1592 942 -190 270 -339 646 -393 988 l-7 42 3706
0 3706 0 0 93 c-1 145 -19 598 -30 752 -151 1995 -926 3503 -2258 4392 -668
447 -1435 712 -2337 809 -177 19 -845 28 -1025 13z m606 -2349 c838 -67 1525
-540 1851 -1275 65 -146 153 -442 153 -512 l0 -23 -2215 0 c-2140 0 -2215 1
-2215 18 0 10 15 74 34 143 231 839 864 1436 1701 1604 242 48 465 63 691 45z"/>
<path d="M47120 14323 c-806 -60 -1589 -373 -2209 -881 -128 -105 -356 -325
-453 -439 -39 -46 -72 -82 -73 -80 -1 1 5 67 12 147 7 80 16 337 20 573 l6
427 -1387 0 -1386 0 0 -4980 0 -4980 1420 0 1420 0 0 3228 0 3229 67 79 c89
106 318 334 423 420 424 350 890 559 1365 614 117 13 387 13 495 -1 750 -93
1249 -550 1394 -1279 14 -69 30 -174 35 -234 8 -75 11 -1058 11 -3083 l0
-2973 1420 0 1420 0 0 3253 c0 1932 -4 3341 -10 3472 -10 226 -20 337 -46 510
-186 1251 -895 2203 -1985 2668 -398 170 -818 269 -1303 307 -118 9 -548 11
-656 3z"/>
<path d="M23385 14304 c-435 -32 -616 -59 -920 -135 -832 -209 -1554 -682
-1947 -1274 -34 -52 -64 -92 -66 -91 -2 2 4 80 13 172 12 115 19 313 22 622
l5 452 -1416 0 -1416 0 0 -7025 0 -7025 1415 0 1415 0 2 2661 3 2660 51 -78
c135 -208 402 -486 634 -659 527 -393 1123 -627 1850 -726 147 -20 206 -23
550 -23 307 0 415 4 535 18 1188 142 2211 667 2979 1528 865 971 1326 2252
1326 3689 0 1154 -302 2226 -877 3109 -292 449 -697 884 -1118 1201 -680 512
-1490 822 -2360 905 -155 15 -579 27 -680 19z m-121 -2519 c586 -69 1094 -314
1481 -716 402 -418 644 -941 731 -1584 25 -182 25 -598 0 -780 -74 -548 -263
-1012 -575 -1415 -92 -119 -317 -341 -437 -431 -298 -224 -616 -369 -973 -443
-199 -42 -294 -50 -536 -50 -246 0 -357 12 -569 60 -916 209 -1619 926 -1866
1903 -103 410 -120 896 -45 1326 118 678 480 1286 992 1667 356 265 801 431
1258 471 115 10 423 6 539 -8z"/>
</g>
</svg>
