<?xml version="1.0" encoding="UTF-8" standalone="no"?>
<!-- Created with Inkscape (http://www.inkscape.org/) -->

<svg
   xmlns:dc="http://purl.org/dc/elements/1.1/"
   xmlns:cc="http://creativecommons.org/ns#"
   xmlns:rdf="http://www.w3.org/1999/02/22-rdf-syntax-ns#"
   xmlns:svg="http://www.w3.org/2000/svg"
   xmlns="http://www.w3.org/2000/svg"
   xmlns:sodipodi="http://sodipodi.sourceforge.net/DTD/sodipodi-0.dtd"
   xmlns:inkscape="http://www.inkscape.org/namespaces/inkscape"
   width="123.6914mm"
   height="60.60006mm"
   viewBox="0 0 123.6914 60.60006"
   version="1.1"
   id="svg1016"
   inkscape:version="0.92.3 (2405546, 2018-03-11)"
   sodipodi:docname="renci.svg">
  <defs
     id="defs1010" />
  <sodipodi:namedview
     id="base"
     pagecolor="#ffffff"
     bordercolor="#666666"
     borderopacity="1.0"
     inkscape:pageopacity="0.0"
     inkscape:pageshadow="2"
     inkscape:zoom="0.35"
     inkscape:cx="-337.68104"
     inkscape:cy="288.80552"
     inkscape:document-units="mm"
     inkscape:current-layer="layer1"
     showgrid="false"
     fit-margin-top="0"
     fit-margin-left="0"
     fit-margin-right="0"
     fit-margin-bottom="0"
     inkscape:pagecheckerboard="true"
     inkscape:window-width="2517"
     inkscape:window-height="1412"
     inkscape:window-x="2603"
     inkscape:window-y="0"
     inkscape:window-maximized="1" />
  <metadata
     id="metadata1013">
    <rdf:RDF>
      <cc:Work
         rdf:about="">
        <dc:format>image/svg+xml</dc:format>
        <dc:type
           rdf:resource="http://purl.org/dc/dcmitype/StillImage" />
        <dc:title></dc:title>
      </cc:Work>
    </rdf:RDF>
  </metadata>
  <g
     inkscape:label="Layer 1"
     inkscape:groupmode="layer"
     id="layer1"
     transform="translate(-32.648348,-104.17021)">
    <g
       transform="matrix(0.35277777,0,0,-0.35277777,14.858488,186.85758)"
       id="g988">
      <g
         style="fill:#ffffff;fill-opacity:1"
         transform="translate(50.42795,154.1897)"
         id="g22">
        <path
           inkscape:connector-curvature="0"
           id="path24"
           style="fill:#ffffff;fill-opacity:1;fill-rule:nonzero;stroke:none"
           d="m 0,0 h 12.035 v -13.386 c 3.589,5.277 7.378,9.219 11.361,11.827 3.984,2.611 8.137,3.911 12.459,3.911 3.251,0 6.735,-1.036 10.44,-3.11 l -6.147,-9.935 c -2.469,1.065 -4.544,1.602 -6.227,1.602 -3.929,0 -7.718,-1.612 -11.364,-4.846 -3.65,-3.223 -6.426,-8.23 -8.331,-15.016 -1.462,-5.222 -2.191,-15.771 -2.191,-31.654 V -91.58 H 0 Z" />
      </g>
      <g
         style="fill:#ffffff;fill-opacity:1"
         transform="translate(175.57975,118.6101)"
         id="g26">
        <path
           inkscape:connector-curvature="0"
           id="path28"
           style="fill:#ffffff;fill-opacity:1;fill-rule:nonzero;stroke:none"
           d="m 0,0 c -1.534,6.131 -3.773,11.034 -6.705,14.7 -2.932,3.663 -6.809,6.62 -11.632,8.864 -4.821,2.246 -9.893,3.366 -15.208,3.366 -8.771,0 -16.305,-2.819 -22.61,-8.455 C -60.756,14.369 -64.236,8.214 -66.594,0 Z m 0,-24.06 9.689,-5.09 c -3.181,-6.233 -6.848,-11.276 -11.016,-15.108 -4.164,-3.83 -8.844,-6.746 -14.055,-8.737 -5.204,-2.003 -11.096,-3.005 -17.667,-3.005 -14.576,0 -25.972,4.777 -34.188,14.33 -8.222,9.551 -12.328,20.354 -12.328,32.396 0,11.325 3.477,21.428 10.434,30.294 8.821,11.279 20.627,16.911 35.426,16.911 15.227,0 27.39,-5.771 36.487,-17.322 6.465,-8.156 9.75,-18.338 9.862,-30.545 h -80.387 c 0.214,-10.371 3.537,-18.882 9.945,-25.518 6.414,-6.637 14.333,-9.954 23.758,-9.954 4.554,0 8.976,0.799 13.28,2.373 4.301,1.582 7.962,3.681 10.975,6.304 3.015,2.617 6.276,6.839 9.785,12.671" />
      </g>
      <g
         style="fill:#ffffff;fill-opacity:1"
         transform="translate(198.26435,154.1897)"
         id="g30">
        <path
           inkscape:connector-curvature="0"
           id="path32"
           style="fill:#ffffff;fill-opacity:1;fill-rule:nonzero;stroke:none"
           d="m 0,0 h 11.784 v -16.416 c 4.718,6.286 9.933,10.985 15.659,14.098 5.721,3.114 11.949,4.67 18.687,4.67 6.844,0 12.918,-1.737 18.225,-5.215 5.301,-3.478 9.213,-8.164 11.74,-14.056 2.524,-5.895 3.789,-15.063 3.789,-27.524 V -91.58 H 68.097 v 43.682 c 0,10.549 -0.439,17.594 -1.306,21.133 -1.366,6.057 -3.991,10.617 -7.864,13.674 -3.867,3.058 -8.918,4.584 -15.146,4.584 -7.129,0 -13.516,-2.354 -19.156,-7.067 C 18.986,-20.285 15.268,-26.126 13.468,-33.082 12.344,-37.625 11.784,-45.927 11.784,-58 V -91.58 H 0 Z" />
      </g>
      <g
         style="fill:#ffffff;fill-opacity:1"
         transform="translate(379.08225,135.6882)"
         id="g34">
        <path
           inkscape:connector-curvature="0"
           id="path36"
           style="fill:#ffffff;fill-opacity:1;fill-rule:nonzero;stroke:none"
           d="m 0,0 -9.115,-5.664 c -7.874,10.457 -18.616,15.682 -32.235,15.682 -10.878,0 -19.913,-3.5 -27.098,-10.497 -7.194,-7 -10.784,-15.502 -10.784,-25.503 0,-6.509 1.65,-12.633 4.96,-18.375 3.307,-5.739 7.842,-10.2 13.613,-13.369 5.767,-3.167 12.233,-4.76 19.399,-4.76 13.12,0 23.834,5.232 32.145,15.683 L 0,-52.793 c -4.269,-6.43 -10.006,-11.42 -17.2,-14.965 -7.199,-3.547 -15.401,-5.32 -24.591,-5.32 -14.13,0 -25.838,4.492 -35.145,13.469 -9.308,8.976 -13.958,19.9 -13.958,32.759 0,8.655 2.175,16.684 6.523,24.1 4.357,7.416 10.333,13.203 17.946,17.365 7.604,4.157 16.116,6.238 25.533,6.238 5.914,0 11.618,-0.899 17.118,-2.708 5.506,-1.807 10.169,-4.161 14.004,-7.061 C -5.939,8.182 -2.685,4.489 0,0" />
      </g>
      <path
         inkscape:connector-curvature="0"
         id="path38"
         style="fill:#ffffff;fill-opacity:1;fill-rule:nonzero;stroke:none"
         d="m 388.96325,156.5417 h 12.086 v -93.931 h -12.086 z" />
      <g
         style="fill:#ffffff;fill-opacity:1"
         transform="translate(331.04025,234.3894)"
         id="g40">
        <path
           inkscape:connector-curvature="0"
           id="path42"
           style="fill:#ffffff;fill-opacity:1;fill-rule:nonzero;stroke:none"
           d="M 0,0 70.009,-57.841 V -68.928 H 57.956 Z" />
      </g>
    </g>
  </g>
</svg>
