<?xml version="1.0" encoding="UTF-8" standalone="no"?>
<!-- Created with Inkscape (http://www.inkscape.org/) -->

<svg
   xmlns:dc="http://purl.org/dc/elements/1.1/"
   xmlns:cc="http://creativecommons.org/ns#"
   xmlns:rdf="http://www.w3.org/1999/02/22-rdf-syntax-ns#"
   xmlns:svg="http://www.w3.org/2000/svg"
   xmlns="http://www.w3.org/2000/svg"
   xmlns:sodipodi="http://sodipodi.sourceforge.net/DTD/sodipodi-0.dtd"
   xmlns:inkscape="http://www.inkscape.org/namespaces/inkscape"
   version="1.1"
   id="svg2"
   width="606"
   height="150.06056"
   viewBox="0 0 606 150.06056"
   sodipodi:docname="snic.svg"
   inkscape:version="0.92.3 (2405546, 2018-03-11)">
  <metadata
     id="metadata8">
    <rdf:RDF>
      <cc:Work
         rdf:about="">
        <dc:format>image/svg+xml</dc:format>
        <dc:type
           rdf:resource="http://purl.org/dc/dcmitype/StillImage" />
        <dc:title></dc:title>
      </cc:Work>
    </rdf:RDF>
  </metadata>
  <defs
     id="defs6" />
  <sodipodi:namedview
     pagecolor="#ffffff"
     bordercolor="#666666"
     borderopacity="1"
     objecttolerance="10"
     gridtolerance="10"
     guidetolerance="10"
     inkscape:pageopacity="0"
     inkscape:pageshadow="2"
     inkscape:window-width="1884"
     inkscape:window-height="999"
     id="namedview4"
     showgrid="false"
     inkscape:pagecheckerboard="true"
     inkscape:zoom="1.2373159"
     inkscape:cx="205.87972"
     inkscape:cy="-12.298492"
     inkscape:window-x="2738"
     inkscape:window-y="188"
     inkscape:window-maximized="0"
     inkscape:current-layer="svg2"
     fit-margin-top="0"
     fit-margin-left="0"
     fit-margin-right="0"
     fit-margin-bottom="0" />
  <path
     style="fill:#ffffff;fill-opacity:1"
     d="m 216.37803,147.14588 c -10.67783,-3.71709 -20.39517,-10.43685 -20.36517,-14.08297 0.007,-0.8596 2.38038,-5.61291 5.27403,-10.56291 5.82406,-9.96292 7.68396,-11.08107 12.6042,-7.57755 4.8026,3.41976 15.19913,7.96853 19.78403,8.65608 10.006,1.50049 16.32978,-2.29071 16.31829,-9.78308 -0.0121,-7.86097 -3.72349,-11.4316 -19.57735,-18.83465 -25.26986,-11.7999 -35.28547,-24.38128 -34.20922,-42.97284 1.76893,-30.55727 37.81795,-44.71495 71.2288,-27.97397 15.25165,7.64205 15.61939,8.6375 7.66554,20.75053 -3.26856,4.97775 -6.8514,9.33881 -7.96186,9.69126 -1.3833,0.43904 -4.47817,-0.77223 -9.82917,-3.84697 -14.06493,-8.08183 -22.06054,-9.30808 -27.90621,-4.27985 -1.92556,1.65631 -2.60394,3.19614 -2.60394,5.91062 0,6.66709 2.78367,9.01303 21.58368,18.1896 20.21421,9.86687 26.66321,15.20445 31.96456,26.45581 2.70721,5.74565 3.10865,7.66639 3.05462,14.61501 -0.079,10.15889 -2.8222,17.52562 -9.14483,24.5579 -9.7064,10.79586 -18.00322,13.94779 -36.66458,13.92872 -11.76901,-0.012 -13.91501,-0.29937 -21.21542,-2.84074 z M 371.25,113.782 335,77.50345 v 34.54827 c 0,25.53755 -0.31298,34.86126 -1.2,35.74828 -0.80249,0.80249 -5.25079,1.2 -13.42857,1.2 -9.78355,0 -12.54277,-0.3142 -13.8,-1.57143 C 305.17599,146.03314 305,138.77576 305,82.62857 305,34.78413 305.29197,19.10803 306.2,18.2 c 0.66,-0.66 2.7975,-1.17485 4.75,-1.14412 3.28674,0.0517 6.2197,2.6444 39.55,34.96121 l 36,34.90533 0.26373,-33.16068 c 0.19885,-25.00278 0.56786,-33.35385 1.5,-33.9459 0.67995,-0.43187 6.91867,-0.79211 13.86383,-0.80053 9.44829,-0.0115 12.91203,0.32746 13.75745,1.34613 0.81988,0.9879 1.05925,18.89063 0.87244,65.25 L 416.5,149.5 l -4.5,0.28028 -4.5,0.28028 z m 167.20476,33.4467 C 527.28002,143.43857 520.03127,138.76911 511.5201,129.8781 479.91582,96.86335 489.99185,43.21741 531.52869,23.35003 549.27689,14.86093 572.29896,14.90234 589.5,23.45431 598.20161,27.78055 606,34.34801 606,37.34988 606,39.67829 590.47728,56 588.26285,56 c -0.65745,0 -3.91106,-1.75524 -7.23025,-3.90053 -18.80851,-12.15653 -42.55446,-5.49127 -51.7139,14.51558 -6.87628,15.01976 -3.67726,33.16358 7.72821,43.83206 7.70134,7.2037 12.59096,9.05139 23.95309,9.05139 10.14426,0 15.02418,-1.50168 23.1811,-7.13346 2.42449,-1.67395 4.17214,-2.25539 5.11957,-1.70329 C 592.69041,112.63706 606,127.92964 606,129.8491 c 0,4.30577 -12.49711,13.16058 -24.44362,17.31949 -7.29311,2.53894 -9.33539,2.8039 -21.55638,2.79673 -12.05727,-0.007 -14.35979,-0.29953 -21.54524,-2.73662 z M 94,121.5 V 94 H 121.5 149 V 121.5 149 H 121.5 94 Z m 352.57143,25.92857 c -1.3949,-1.3949 -1.57143,-8.5619 -1.57143,-63.8 0,-47.06666 0.29238,-62.52095 1.2,-63.42857 1.66263,-1.66263 25.93737,-1.66263 27.6,0 1.73403,1.73403 1.73403,125.86597 0,127.6 -0.80249,0.80249 -5.25079,1.2 -13.42857,1.2 -9.78355,0 -12.54277,-0.3142 -13.8,-1.57143 z M 19.666667,129.33333 C 19.3,128.96667 19,116.36667 19,101.33333 V 74 H 46.5 74 V 46.48418 18.96836 L 101.75,19.23418 129.5,19.5 129.76582,47.25 130.03164,75 H 102.51582 75 V 102.5 130 H 47.666667 c -15.033334,0 -27.633334,-0.3 -28,-0.66667 z M 0,27.5 V 0 H 27.5 55 V 27.5 55 H 27.5 0 Z"
     id="path814"
     inkscape:connector-curvature="0" />
</svg>
