<svg id="svg834" width="162.86mm" height="35.542mm" version="1.1" viewBox="0 0 162.86 35.542" xmlns="http://www.w3.org/2000/svg">
 <g id="layer1" transform="translate(42.119 8.789)">
  <path id="path817" d="m-37.615 26.629c-0.34757-0.06694-0.39688-0.18447-0.39688-0.94612 0-0.83068-0.02175-0.86976-0.48507-0.87162-0.26679-0.0011-0.77399-0.04972-1.1271-0.10812l-0.64204-0.10618 0.09171 0.81368 0.09171 0.81368h-0.80628c-0.91788 0-0.94735-0.02777-1.1102-1.0459l-0.11956-0.74768 0.86277 0.04555c0.47452 0.02506 0.84985-0.02779 0.83407-0.11744-0.01579-0.08964-0.05129-0.55986-0.07892-1.0449l-0.05022-0.88194 2.2312 0.0645-0.16828-2.6221h2.2918l-0.22059-2.6095 2.598-0.11553c1.4289-0.06354 2.8352-0.13124 3.1252-0.15044 0.52206-0.03457 0.5285-0.02381 0.65307 1.0885 0.0692 0.61789 0.16371 1.1613 0.21004 1.2077 0.04632 0.04633 0.58588 0.01603 1.199-0.06732l1.1148-0.15155-0.05247-1.2766c-0.02886-0.70213-0.0176-1.2766 0.02503-1.2766 0.48873 0 3.9932-0.83416 5.4598-1.2996 3.5021-1.1114 5.8541-3.1708 7.0877-6.2062l0.40996-1.0087 0.11931 1.3027c0.22032 2.4055-0.31926 6.7004-1.1548 9.1917-0.99349 2.9623-3.0217 5.3497-5.6387 6.6374-1.6814 0.82731-4.0569 1.4864-5.0591 1.4037l-0.66755-0.05511-0.10768-1.8821-1.5337 0.10892c-0.84352 0.05991-1.871 0.15091-2.2833 0.20222l-0.74965 0.0933v1.7423h-2.0982l-0.05331-0.92604-0.05331-0.92604-2.0285-0.1058v1.9579l-0.66146-0.02402c-0.3638-0.0132-0.84005-0.05842-1.0583-0.10046zm1.5434-2.9623v-1.1465h-1.0583c-1.1757 0-1.1837 0.01217-0.94654 1.4464 0.1155 0.69862 0.26883 0.79291 1.3434 0.82615l0.66146 0.02045zm10.493 0.67852 0.84067-0.11523-0.11091-1.0611c-0.061-0.58361-0.13057-1.0715-0.1546-1.0841-0.02402-0.01267-0.50009 0.0081-1.0579 0.04614l-1.0142 0.06917v1.1302c0 1.2652-0.0552 1.2277 1.497 1.015zm27.231-5.7959c-1.9496-0.62262-3.366-2.1984-3.616-4.023l-0.11317-0.82565h2.058c1.8009 0 2.0716 0.03856 2.1669 0.30868 0.20319 0.57573 0.81602 1.0966 1.4245 1.2107 1.1905 0.22333 2.5124-0.50036 2.5124-1.3754 0-0.55688-0.73587-1.007-2.7173-1.662-2.3737-0.78473-2.7498-0.96856-3.656-1.7872-1.3773-1.2443-1.8526-3.0206-1.3088-4.8912 0.23177-0.79726 0.50277-1.2278 1.2318-1.9568 0.77939-0.77939 1.1473-0.99926 2.2148-1.3235 1.5432-0.46872 3.5459-0.40853 4.7953 0.14412 1.7072 0.75519 2.9627 2.4721 2.9664 4.0565l0.0019 0.74965h-3.8759l-0.25842-0.61848c-0.26667-0.63814-0.81937-0.96902-1.6187-0.96902-0.68627 0-1.4258 0.46915-1.5557 0.98699-0.19362 0.77143 0.41474 1.22 2.6178 1.9302 3.9241 1.265 5.2078 2.5779 5.2161 5.3349 0.0064 2.1342-0.87844 3.4421-2.9947 4.4264-0.81418 0.37866-1.2679 0.45873-2.8222 0.49804-1.2651 0.032-2.1109-0.03581-2.6687-0.21396zm17.574 0.019c-2.8145-0.89386-4.9118-3.0071-5.7618-5.8056-0.30153-0.99271-0.35305-1.5146-0.27936-2.8295 0.10882-1.9417 0.55121-3.2129 1.6265-4.6736 2.8869-3.9215 8.6385-4.4997 12.335-1.2399 3.4871 3.0752 3.7801 8.7198 0.6257 12.055-1.83 1.9349-3.7139 2.7495-6.3128 2.7294-0.84023-0.0065-1.8452-0.11264-2.2332-0.23588zm4.2712-4.3128c2.1217-1.0824 2.9608-3.7424 1.8507-5.8672-1.8375-3.5174-6.7865-2.9844-7.9051 0.85129-0.64572 2.2143 0.50477 4.4562 2.7088 5.2785 0.87226 0.32544 2.433 0.20293 3.3456-0.2626zm70.386 4.3693c-1.729-0.40759-3.8377-1.8872-4.9093-3.4448-3.3142-4.817-0.69231-11.691 4.9679-13.026 1.4375-0.33884 2.6412-0.34167 3.9176-0.0092 3.1571 0.82232 5.5633 3.2749 6.2986 6.4201 0.30159 1.2899 0.13718 3.5446-0.35292 4.8397-0.86434 2.2841-3.0453 4.3239-5.401 5.0515-1.2355 0.3816-3.2912 0.45805-4.521 0.16813zm4.0392-4.3637c1.7476-0.89155 2.6775-2.9703 2.1918-4.8993-0.60524-2.4036-3.0404-3.852-5.3433-3.178-2.3901 0.69952-3.6596 3.1511-2.9229 5.6444 0.26349 0.8918 1.734 2.4205 2.6077 2.7109 0.89049 0.296 2.6122 0.15792 3.4667-0.27801zm-64.102-3.8676 0.04584-8.2462 5.5122-0.04661c3.0317-0.02564 5.5122-5.29e-4 5.5122 0.05568 0 0.05626-0.21145 0.89083-0.46989 1.8546l-0.46989 1.7523h-5.9394v2.9986h2.5576c1.4067 0 2.5576 0.06497 2.5576 0.14438 0 0.0794-0.11343 0.53581-0.25207 1.0142-0.13864 0.47842-0.34014 1.2072-0.44777 1.6195l-0.1957 0.74966h-4.2197v6.35h-4.2368zm17.773 1.808v-6.4382h-2.1167c-2.4619 0-2.327 0.16796-1.6991-2.1167l0.41209-1.4993 11.694-0.09294v3.7089h-4.2333v12.876h-4.0569zm11.465-1.8579v-8.2961l3.9688 0.09974 0.0459 8.2462 0.0458 8.2462h-4.0604zm8.8194-0.01048v-8.3065l8.3869 0.12072 1.1962 0.58915c0.88127 0.43403 1.3534 0.80556 1.7932 1.4111 2.1296 2.9323 1.1576 7.1431-1.968 8.5257l-0.75197 0.33263 1.9336 2.7328c1.0635 1.503 1.9336 2.7706 1.9336 2.8169 0 0.04627-1.0517 0.08192-2.3372 0.07923l-2.3372-0.0049-1.7352-2.7291c-0.95439-1.501-1.8077-2.7291-1.8962-2.7291-0.0901 0-0.16094 1.204-0.16094 2.734v2.734h-4.0569v-8.3065zm7.7326-1.1333c0.66663-0.56094 0.867-1.5422 0.49614-2.4298-0.36028-0.86228-0.72942-1.0067-2.5727-1.0067h-1.5991v3.8805h1.574c1.4244 0 1.6241-0.04218 2.1017-0.44404zm28.604 1.1496v-8.2903h3.6413l4.7371 8.5534 0.1764-8.4652 3.9688-0.09974v16.592h-3.5012l-4.8773-8.7091-0.0472 4.3545-0.0472 4.3545h-4.0508zm-140.2 3.4331-1.4088-1.5058-0.54628 0.66273c-0.61805 0.74981-0.75113 0.70036-1.3907-0.51672-0.28714-0.54642-0.32052-0.80577-0.193-1.4993 0.27772-1.5103 1.1674-3.0236 2.6706-4.5428l1.3963-1.4111 0.92058 1.8495-0.56292 0.58079-0.56292 0.58079 0.46811 0.69932c0.25746 0.38462 0.85183 1.1467 1.3208 1.6934 0.46899 0.54675 0.85271 1.0583 0.85271 1.1369 0 0.07853-0.20983 0.3618-0.46629 0.62949l-0.46629 0.4867 0.56859 0.64759 0.56859 0.64759-0.66727 0.68335c-0.367 0.37584-0.76306 0.68335-0.88015 0.68335-0.11708 0-0.84685-0.67761-1.6217-1.5058zm11.888-1.8142-0.43837-0.86508 0.51991-0.4981c0.28595-0.27396 0.51991-0.56817 0.51991-0.65381 0-0.24774-0.9445-1.5538-1.8601-2.5722l-0.84144-0.93588 0.54732-0.54733 0.54732-0.54732-1.0921-1.3789 1.4816-1.4695 3.047 3.1395 0.5485-0.65332c0.52128-0.62091 0.56235-0.63753 0.82785-0.33502 0.61636 0.70229 0.88687 1.4932 0.77222 2.2577-0.25346 1.6902-2.0457 4.4323-3.6379 5.5661l-0.50326 0.35835zm-16.505-4.4558c0.0036-2.6076 0.32044-5.2047 0.87663-7.1846 1.4305-5.0922 5.2705-8.3284 10.63-8.9579l1.0142-0.11914v2.0417l1.6146-0.11461c0.88803-0.063034 1.9158-0.11461 2.2838-0.11461h0.66924l0.05332-0.92604 0.05331-0.92604h2.1167l0.10664 1.8521h1.9218v-1.7639h2.067l0.1571 0.92604 0.1571 0.92604 2.079 0.10731-0.11011-0.80331-0.11011-0.80331h0.66847c0.87177 0 1.2147 0.29068 1.3006 1.1024l0.06999 0.66146h-1.7277l0.12283 1.0583 0.12283 1.0583h-2.3005l0.10006 1.323 0.10006 1.323-2.2431-0.08829 0.1046 2.6844-3.0572 0.091612c-1.6815 0.050385-3.089 0.062817-3.1279 0.027628-0.03887-0.03519-0.11825-0.56134-0.17639-1.1692l-0.1057-1.1052-0.61736 0.047133c-0.33955 0.025924-0.87191 0.08841-1.183 0.13886l-0.56567 0.091726-0.05169 1.2597-0.0517 1.2597-1.8521 0.38823c-4.0841 0.8561-6.1923 1.7536-7.957 3.3875-1.126 1.0425-2.1766 2.519-2.616 3.6765-0.15842 0.41736-0.34461 0.8154-0.41375 0.88453-0.06914 0.06913-0.12425-0.93925-0.12247-2.2409zm12.653-11.882c0.02445-0.021614-0.0075-0.53613-0.07097-1.1434l-0.1154-1.1041-0.52435 0.10487c-0.28839 0.057677-0.75255 0.10487-1.0315 0.10487h-0.50712v2.3277l1.1024-0.12535c0.60634-0.068942 1.1224-0.14303 1.1469-0.16464zm11.008-1.3318-0.05976-1.0587h-1.0427c-1.0309 0-1.0427 0.00575-1.0427 0.50712 0 0.27891 0.04961 0.75516 0.11024 1.0583 0.10778 0.53892 0.13238 0.55122 1.1024 0.55154l0.99219 3.439e-4 -0.05976-1.0587z" fill="#fff" stroke-width=".17639"/>
 </g>
</svg>
