<svg id="svg1400" width="96.604mm" height="73.067mm" version="1.1" viewBox="0 0 96.604 73.067" xmlns="http://www.w3.org/2000/svg">
 <g id="layer1" transform="translate(-49.785 -119.77)" fill="#fff">
  <path id="path817-6" d="m83.073 166.87c-0.46221-0.0889-0.52778-0.24532-0.52778-1.2582 0-1.1047-0.02886-1.1566-0.64506-1.1591-0.35479-1e-3 -1.0293-0.0661-1.4989-0.14378l-0.8538-0.1412 0.12195 1.082 0.12195 1.0821h-1.0722c-1.2206 0-1.2598-0.037-1.4763-1.3909l-0.159-0.99429 1.1473 0.0606c0.63104 0.0334 1.1302-0.037 1.1092-0.15617-0.02101-0.11915-0.06822-0.74453-0.10492-1.3896l-0.06676-1.1729 2.9671 0.086-0.11184-1.7435-0.11184-1.7435h3.0478l-0.14667-1.7351-0.14668-1.7351 3.4549-0.15363c1.9002-0.0844 3.7704-0.17453 4.156-0.20006 0.69424-0.046 0.70282-0.0317 0.86848 1.4476 0.09203 0.8217 0.21771 1.5444 0.27931 1.606 0.06157 0.0616 0.77914 0.0213 1.5945-0.0895l1.4825-0.20153-0.06981-1.6977c-0.03844-0.93372-0.02341-1.6977 0.03324-1.6977 0.64993 0 5.3104-1.1093 7.2606-1.7282 4.6572-1.478 7.785-4.2167 9.4255-8.2532l0.5452-1.3414 0.15866 1.7324c0.29299 3.1989-0.42456 8.9105-1.5357 12.224-1.3212 3.9394-4.0183 7.1143-7.4985 8.8267-2.236 1.1002-5.3951 1.9767-6.7278 1.8667l-0.88774-0.0733-0.07155-1.2515-0.07155-1.2515-2.0395 0.14485c-1.1217 0.0797-2.4881 0.20068-3.0365 0.26893l-0.99692 0.12407v2.3169h-2.7903l-0.14176-2.463-1.3488-0.0704-1.3488-0.0703v2.6037l-0.87962-0.032c-0.48381-0.0175-1.1171-0.0777-1.4074-0.13359zm2.0525-3.9394v-1.5247h-1.4074c-1.5635 0-1.5741 0.0162-1.2587 1.9235 0.15361 0.92906 0.3575 1.0544 1.7865 1.0986l0.87964 0.0272zm13.954 0.90232 1.118-0.15323-0.14749-1.4111c-0.08112-0.77611-0.17362-1.4249-0.20558-1.4417-0.03192-0.0169-0.66504 0.0106-1.4069 0.0613l-1.3488 0.092v1.503c0 1.6825-0.0734 1.6327 1.9908 1.3498zm-8.5133-14.047-1.8735-2.0024-0.72647 0.88132c-0.82191 0.99711-0.99887 0.93137-1.8494-0.68716-0.38185-0.72666-0.42624-1.0716-0.25664-1.9938 0.36932-2.0085 1.5524-4.0209 3.5515-6.0411l1.8569-1.8766 1.2242 2.4596-1.4972 1.5447 0.62251 0.92999c0.34239 0.51147 1.1328 1.5249 1.7565 2.252 0.62368 0.72707 1.134 1.4074 1.134 1.5119 0 0.10439-0.27904 0.48113-0.62009 0.83712l-0.62008 0.64723 0.75613 0.86119 0.75614 0.8612-0.88736 0.90874c-0.48804 0.49981-1.0147 0.90873-1.1704 0.90873-0.15571 0-1.1262-0.9011-2.1566-2.0025zm15.809-2.4126-0.58297-1.1504 0.6914-0.6624c0.38027-0.36432 0.6914-0.75557 0.6914-0.86946 0-0.32947-1.256-2.0663-2.4737-3.4207l-1.119-1.2446 0.72786-0.72787 0.72785-0.72784-1.4524-1.8337 0.98512-0.97713 0.98513-0.97712 4.0521 4.175 0.72939-0.86882c0.69324-0.8257 0.74785-0.84781 1.1009-0.44552 0.81967 0.93393 1.1794 1.9857 1.0269 3.0024-0.33704 2.2476-2.7204 5.8943-4.8378 7.402l-0.66926 0.47654zm-21.949-5.9256c0.0053-3.4677 0.42614-6.9214 1.1658-9.5544 1.9023-6.7718 7.009-11.075 14.136-11.913l1.3488-0.15846v2.7151l2.1472-0.15241c1.1809-0.0838 2.5476-0.15241 3.0372-0.15241h0.88998l0.0709-1.2315 0.0709-1.2315h2.8148l0.0709 1.2315 0.0709 1.2315h2.5557v-2.3457h2.7488l0.20893 1.2315 0.20891 1.2315 2.7648 0.1428-0.29284-2.1365h0.88896c1.1593 0 1.6154 0.38657 1.7296 1.4661l0.0931 0.87963h-2.2976l0.16335 1.4074 0.16335 1.4074h-3.0593l0.13306 1.7593 0.13306 1.7593-2.983-0.1176 0.0696 1.7849 0.0696 1.7849-4.0656 0.12181c-2.2361 0.0671-4.1079 0.0835-4.1596 0.0367-0.0517-0.0468-0.15726-0.74649-0.23458-1.5549l-0.14056-1.4698-0.82099 0.0626c-0.45155 0.0344-1.1595 0.11756-1.5732 0.18466l-0.75225 0.12196-0.0687 1.6752-0.0688 1.6752-2.463 0.5163c-5.4312 1.1385-8.2347 2.332-10.582 4.5048-1.4974 1.3864-2.8946 3.3499-3.4789 4.8891-0.21069 0.55502-0.45829 1.0844-0.55022 1.1763-0.09189 0.0919-0.16523-1.249-0.16287-2.98zm16.826-15.802c0.0326-0.0287-9e-3 -0.71297-0.0944-1.5205l-0.15346-1.4682-0.69731 0.13946c-0.3835 0.0768-1.0008 0.13947-1.3717 0.13947h-0.67438v3.0954l1.466-0.16668c0.80634-0.0916 1.4927-0.19023 1.5252-0.21896zm14.639-1.7711-0.0796-1.4078h-1.3866c-1.3709 0-1.3866 8e-3 -1.3866 0.67439 0 0.3709 0.066 1.0042 0.1466 1.4074 0.14334 0.71668 0.17605 0.73305 1.4661 0.73346l1.3194 4.5e-4 -0.0795-1.4078z" stroke-width=".23457"/>
  <path id="path817" d="m52.719 192.63c-1.5335-0.48974-2.6476-1.7292-2.8443-3.1644l-0.08902-0.64944h1.6188c1.4165 0 1.6295 0.0304 1.7045 0.2428 0.15982 0.45286 0.64187 0.86257 1.1205 0.95235 0.9364 0.17567 1.9762-0.39357 1.9762-1.0819 0-0.43803-0.57882-0.79205-2.1374-1.3073-1.8671-0.61726-2.1629-0.76185-2.8757-1.4058-1.0833-0.97873-1.4572-2.376-1.0295-3.8473 0.18231-0.6271 0.39547-0.96573 0.96891-1.5392 0.61306-0.61306 0.90246-0.786 1.7421-1.041 1.2138-0.36869 2.7891-0.32135 3.7719 0.11336 1.3429 0.59402 2.3304 1.9445 2.3333 3.1908l0.0016 0.58966h-3.0487l-0.20327-0.48648c-0.20976-0.50194-0.6445-0.76221-1.2732-0.76221-0.5398 0-1.1215 0.36902-1.2237 0.77634-0.1523 0.6068 0.32623 0.95962 2.0591 1.5183 3.0866 0.99502 4.0963 2.0278 4.1029 4.1963 0.0047 1.6787-0.69096 2.7075-2.3556 3.4817-0.64041 0.29785-0.99729 0.36083-2.2199 0.39175-0.9951 0.0252-1.6604-0.0282-2.0992-0.1683zm13.823 0.0149c-2.2138-0.70309-3.8635-2.3653-4.5321-4.5665-0.23717-0.78085-0.2777-1.1913-0.21973-2.2257 0.08559-1.5273 0.43357-2.5272 1.2794-3.6762 2.2708-3.0846 6.7949-3.5394 9.7025-0.97528 2.7429 2.4189 2.9733 6.8588 0.49216 9.4823-1.4394 1.522-2.9213 2.1627-4.9655 2.1469-0.66091-5e-3 -1.4514-0.0886-1.7566-0.18554zm3.3597-3.3924c1.6689-0.85141 2.3289-2.9437 1.4557-4.615-1.4453-2.7667-5.3381-2.3475-6.218 0.66961-0.50791 1.7417 0.39704 3.5052 2.1307 4.152 0.6861 0.25599 1.9138 0.15962 2.6316-0.20655zm55.364 3.4368c-1.36-0.3206-3.0186-1.4845-3.8615-2.7096-2.6069-3.789-0.54455-9.1962 3.9077-10.246 1.1307-0.26651 2.0775-0.26874 3.0815-7e-3 2.4833 0.64683 4.376 2.576 4.9544 5.0499 0.23723 1.0146 0.10791 2.7881-0.2776 3.8068-0.67987 1.7966-2.3954 3.4011-4.2483 3.9734-0.97181 0.30016-2.5888 0.3603-3.5561 0.13225zm3.1772-3.4324c1.3746-0.70127 2.1061-2.3363 1.724-3.8537-0.47607-1.8906-2.3916-3.0299-4.2029-2.4998-1.88 0.55022-2.8786 2.4786-2.2991 4.4398 0.20726 0.70148 1.3639 1.9039 2.0512 2.1323 0.70045 0.23283 2.0547 0.12422 2.7268-0.21868zm-50.421-3.0422 0.03603-6.4863 4.3358-0.0367c2.3847-0.0201 4.3358-4.2e-4 4.3358 0.0438 0 0.0443-0.16632 0.70071-0.36961 1.4588l-0.36961 1.3783h-4.6718v2.3586h2.0118c1.1065 0 2.0118 0.0511 2.0118 0.11356 0 0.0625-0.08922 0.42146-0.19827 0.79778-0.10905 0.37632-0.26754 0.94957-0.35221 1.2739l-0.15393 0.58967h-3.3192v4.9948h-3.3326zm13.98 1.4221v-5.0642h-1.6649c-1.9365 0-1.8304 0.1321-1.3365-1.6649l0.32413-1.1793 9.1982-0.0732v2.9174h-3.3299v10.128h-3.1911zm9.0184-1.4614v-6.5255l3.1217 0.0786 0.0361 6.4863 0.036 6.4863h-3.1939zm6.9372-8e-3v-6.5338l6.597 0.095 0.94093 0.46341c0.69319 0.3414 1.0646 0.63363 1.4105 1.11 1.6751 2.3065 0.91052 5.6186-1.548 6.7061l-0.59149 0.26164 1.521 2.1496c0.83653 1.1823 1.521 2.1793 1.521 2.2157 0 0.0364-0.82726 0.0644-1.8384 0.0623l-1.8384-4e-3 -1.3649-2.1467c-0.7507-1.1807-1.4219-2.1467-1.4915-2.1467-0.0709 0-0.12659 0.94702-0.12659 2.1505v2.1505h-3.1911v-6.5338zm6.0823-0.89146c0.52436-0.44122 0.68196-1.2131 0.39025-1.9112-0.28339-0.67826-0.57375-0.79188-2.0236-0.79188h-1.2578v3.0524h1.2381c1.1204 0 1.2775-0.0332 1.6531-0.34927zm22.499 0.90425v-6.521h2.8642l3.7261 6.7279 0.0694-3.3293 0.0694-3.3293 1.5609-0.0392 1.5609-0.0393v13.051h-2.754l-3.8364-6.8504-0.0742 6.8504h-3.1863z" stroke-width=".13874"/>
 </g>
</svg>
