<?xml version="1.0" encoding="UTF-8" standalone="no"?>
<!-- Generator: Adobe Illustrator 16.0.0, SVG Export Plug-In . SVG Version: 6.00 Build 0)  -->

<svg
   xmlns:dc="http://purl.org/dc/elements/1.1/"
   xmlns:cc="http://creativecommons.org/ns#"
   xmlns:rdf="http://www.w3.org/1999/02/22-rdf-syntax-ns#"
   xmlns:svg="http://www.w3.org/2000/svg"
   xmlns="http://www.w3.org/2000/svg"
   xmlns:sodipodi="http://sodipodi.sourceforge.net/DTD/sodipodi-0.dtd"
   xmlns:inkscape="http://www.inkscape.org/namespaces/inkscape"
   version="1.1"
   id="Layer_1"
   x="0px"
   y="0px"
   width="465.94141"
   height="237.44336"
   viewBox="0 0 465.94141 237.44336"
   enable-background="new 0 0 500 300"
   xml:space="preserve"
   sodipodi:docname="surf.svg"
   inkscape:version="0.92.3 (2405546, 2018-03-11)"><metadata
   id="metadata19"><rdf:RDF><cc:Work
       rdf:about=""><dc:format>image/svg+xml</dc:format><dc:type
         rdf:resource="http://purl.org/dc/dcmitype/StillImage" /><dc:title></dc:title></cc:Work></rdf:RDF></metadata><defs
   id="defs17">
	
	
	
	
	
</defs><sodipodi:namedview
   pagecolor="#ffffff"
   bordercolor="#666666"
   borderopacity="1"
   objecttolerance="10"
   gridtolerance="10"
   guidetolerance="10"
   inkscape:pageopacity="0"
   inkscape:pageshadow="2"
   inkscape:window-width="1808"
   inkscape:window-height="920"
   id="namedview15"
   showgrid="false"
   inkscape:pagecheckerboard="true"
   fit-margin-top="0"
   fit-margin-left="0"
   fit-margin-right="0"
   fit-margin-bottom="0"
   inkscape:zoom="0.756"
   inkscape:cx="225.00195"
   inkscape:cy="109.21289"
   inkscape:window-x="2861"
   inkscape:window-y="269"
   inkscape:window-maximized="0"
   inkscape:current-layer="Layer_1" />
<path
   d="M 44.322265,0 C 19.846266,0 0,19.847172 0,44.326172 V 99.134769 C 0,123.61677 19.846266,143.46094 44.322265,143.46094 H 297.21484 c 24.479,0 44.32227,19.84431 44.32227,44.32031 v 14.05078 c 0,19.671 15.94423,35.61133 35.61523,35.61133 h 53.16602 c 19.671,0 35.62304,-15.94033 35.62304,-35.61133 v -22.75195 c 0,-19.673 -15.95204,-35.61914 -35.62304,-35.61914 h -44.45118 c -24.486,0 -44.33007,-19.84417 -44.33007,-44.326171 V 44.326172 C 341.53711,19.847172 321.69384,0 297.21484,0 Z M 65.78125,38.636719 c 10.833003,0 23.625003,3.751109 23.625003,10.662109 0,4.264 -2.1356,6.908204 -6.0586,6.908203 -2.045,0 -3.83586,-0.682281 -5.88086,-1.363281 -2.986996,-1.109 -6.653543,-2.388672 -11.685543,-2.388672 -4.096,0 -9.212891,1.620328 -9.212891,4.861329 0,2.9 2.301985,4.263874 7.333985,5.796874 l 12.025389,3.669922 c 8.103,2.472 15.52344,7.332766 15.52344,18.509766 0,11.939 -11.17395,19.615231 -25.501954,19.615231 -12.025,0 -26.09961,-3.7521 -26.09961,-10.662111 0,-4.26399 2.473235,-6.9082 6.740235,-6.9082 2.215,0 4.263453,0.59619 6.564453,1.36719 3.241,1.106 7.077922,2.38476 12.794922,2.38477 4.865,-0.001 10.404294,-2.21361 10.404294,-6.22461 0,-3.325 -4.175826,-4.6905 -9.548826,-6.3125 L 56.058594,75.310547 c -7.763,-2.302 -14.585938,-7.7595 -14.585938,-17.3125 0,-11.515 10.321594,-19.361328 24.308594,-19.361328 z m 47.33398,0.34375 c 4.859,0 7.41992,2.473031 7.41992,7.332031 v 28.144531 c 0,9.980998 6.05707,15.953128 14.41407,15.953128 8.444,0 14.50195,-5.97213 14.50195,-15.953128 V 46.3125 c 0,-4.859 2.55898,-7.332031 7.33398,-7.332031 4.858,0 7.42188,2.473031 7.42188,7.332031 v 28.144531 c 0,18.507998 -12.36981,30.451169 -29.25781,30.451169 -16.804,0 -29.16993,-11.942171 -29.16993,-30.451169 V 46.3125 c 0,-4.859 2.56094,-7.332031 7.33594,-7.332031 z m 75.73828,0.591797 h 21.15235 c 14.161,0 23.96484,9.2975 23.96484,22.6875 0,8.186 -3.75645,14.419141 -10.06445,17.744143 l 6.82422,13.64648 c 0.682,1.363 0.93554,2.63888 0.93554,3.92188 0,4.264001 -4.85834,6.994141 -8.52734,6.994141 -2.727,0 -4.68469,-1.62246 -6.05469,-4.689461 l -7.33203,-15.69336 h -13.47852 v 13.04883 c 0,4.862001 -2.56092,7.333991 -7.41992,7.333991 -4.775,0 -7.33594,-2.47199 -7.33594,-7.333991 V 46.910157 c 0,-4.861 2.56094,-7.337891 7.33594,-7.337891 z m 68.48633,0 h 35.3125 c 4.691,0 6.99023,2.393047 6.99023,6.998047 0,4.688 -2.29923,7.076172 -6.99023,7.076172 h -27.98047 v 13.648437 h 17.48828 c 4.692,0 6.99024,2.389125 6.99024,7.078125 0,4.607002 -2.29824,6.998042 -6.99024,6.998042 h -17.48828 v 15.86133 c 0,4.862001 -2.46703,7.333991 -7.33203,7.333991 -4.777,0 -7.33008,-2.47199 -7.33008,-7.333991 V 46.910157 c 0,-4.861 2.55308,-7.337891 7.33008,-7.337891 z m -61.06641,14.074219 v 17.142578 h 12.45313 c 5.631,0 10.06055,-2.556344 10.06055,-8.527344 0,-6.055 -4.42955,-8.615234 -10.06055,-8.615234 z"
   id="path2"
   inkscape:connector-curvature="0"
   style="fill:#ffffff;fill-opacity:1" />
</svg>