<?xml version="1.0" encoding="UTF-8"?>
<!DOCTYPE svg PUBLIC "-//W3C//DTD SVG 1.1//EN" "http://www.w3.org/Graphics/SVG/1.1/DTD/svg11.dtd">
<!-- Creator: CorelDRAW X6 -->
<svg xmlns="http://www.w3.org/2000/svg" xml:space="preserve" width="2.52778in" height="1.40278in" version="1.1" style="shape-rendering:geometricPrecision; text-rendering:geometricPrecision; image-rendering:optimizeQuality; fill-rule:evenodd; clip-rule:evenodd"
viewBox="0 0 2528 1403"
 xmlns:xlink="http://www.w3.org/1999/xlink">
 <defs>
  <style type="text/css">
   <![CDATA[
    .fil0 {fill:#FEFEFE;fill-rule:nonzero}
   ]]>
  </style>
 </defs>
 <g id="Layer_x0020_1">
  <metadata id="CorelCorpID_0Corel-Layer"/>
  <polygon class="fil0" points="531,1265 542,1265 572,1359 604,1266 617,1266 577,1378 567,1378 536,1288 505,1378 495,1378 455,1266 469,1266 501,1359 "/>
  <path class="fil0" d="M686 1332c-1,-15 -10,-28 -26,-28 -14,0 -25,12 -27,28l53 0zm-24 37c11,0 19,-5 26,-12l8 7c-8,9 -18,15 -34,15 -23,0 -41,-17 -41,-43 0,-24 17,-43 40,-43 24,0 38,19 38,44 0,1 0,2 0,4l-65 0c2,18 14,28 29,28z"/>
  <path class="fil0" d="M769 1353c0,10 10,17 21,17 15,0 28,-9 28,-22l0 -8c-6,-2 -14,-4 -24,-4 -15,0 -24,7 -24,17zm-1 -42l-4 -10c9,-4 18,-7 30,-7 22,0 35,11 35,33l0 50 -12 0 0 -12c-6,7 -15,14 -30,14 -15,0 -31,-9 -31,-26 0,-17 14,-27 35,-27 10,0 18,1 25,4l0 -3c0,-15 -9,-22 -25,-22 -10,0 -17,3 -25,6z"/>
  <path class="fil0" d="M889 1304c-16,0 -29,12 -29,32 0,20 13,32 29,32 15,0 30,-13 30,-32 0,-19 -14,-32 -30,-32zm29 73l0 -17c-7,10 -16,18 -32,18 -20,0 -39,-16 -39,-43 0,-27 20,-43 39,-43 15,0 25,8 32,18l0 -50 12 0 0 116 -12 0z"/>
  <path class="fil0" d="M962 1353c0,10 10,17 21,17 15,0 28,-9 28,-22l0 -8c-6,-2 -14,-4 -24,-4 -15,0 -24,7 -24,17zm-1 -42l-4 -10c9,-4 18,-7 30,-7 22,0 35,11 35,33l0 50 -12 0 0 -12c-6,7 -15,14 -30,14 -15,0 -31,-9 -31,-26 0,-17 14,-27 35,-27 11,0 18,1 25,4l0 -3c0,-15 -9,-22 -25,-22 -10,0 -17,3 -25,6z"/>
  <path class="fil0" d="M1087 1304c-15,0 -30,13 -30,32 0,19 14,32 30,32 16,0 29,-12 29,-32 0,-20 -13,-32 -29,-32zm2 75c-15,0 -25,-8 -32,-18l0 41 -12 0 0 -108 12 0 0 17c7,-10 16,-18 32,-18 20,0 39,16 39,43 0,27 -19,43 -39,43z"/>
  <path class="fil0" d="M1166 1354c0,10 6,14 14,14 4,0 8,-1 12,-3l0 11c-4,2 -9,4 -15,4 -13,0 -23,-7 -23,-23l0 -50 -11 0 0 -11 11 0 0 -25 12 0 0 25 26 0 0 11 -26 0 0 48z"/>
  <polygon class="fil0" points="1210,1377 1224,1377 1224,1361 1210,1361 "/>
  <polygon class="fil0" points="1323,1377 1310,1377 1310,1333 1264,1266 1279,1266 1317,1322 1355,1266 1369,1266 1323,1333 "/>
  <path class="fil0" d="M1405 1304c-18,0 -30,14 -30,32 0,18 13,32 30,32 18,0 30,-14 30,-32 0,-18 -13,-32 -31,-32zm0 75c-25,0 -43,-19 -43,-43 0,-23 18,-43 43,-43 25,0 43,19 43,43 0,23 -18,43 -43,43z"/>
  <path class="fil0" d="M1526 1295l12 0 0 82 -12 0 0 -14c-6,9 -14,16 -28,16 -20,0 -32,-13 -32,-33l0 -51 12 0 0 48c0,15 8,25 23,25 14,0 25,-10 25,-26l0 -47z"/>
  <path class="fil0" d="M1636 1379c-12,0 -25,-5 -34,-12l6 -9c9,7 19,11 29,11 10,0 17,-5 17,-13l0 0c0,-8 -10,-11 -21,-14 -13,-4 -27,-8 -27,-23l0 0c0,-14 12,-24 28,-24 10,0 21,3 30,9l-6 9c-8,-5 -16,-8 -24,-8 -10,0 -16,5 -16,12l0 0c0,8 10,11 21,14 13,4 26,9 26,24l0 0c0,16 -13,25 -29,25z"/>
  <path class="fil0" d="M1744 1295l12 0 0 82 -12 0 0 -14c-6,9 -14,16 -28,16 -20,0 -32,-13 -32,-33l0 -51 12 0 0 48c0,15 8,25 23,25 14,0 25,-10 25,-26l0 -47z"/>
  <path class="fil0" d="M1819 1379c-24,0 -42,-20 -42,-43 0,-23 18,-43 42,-43 16,0 25,7 33,15l-8 9c-7,-7 -14,-12 -25,-12 -17,0 -29,14 -29,32 0,18 13,32 30,32 11,0 19,-5 25,-12l8 7c-8,9 -18,16 -34,16z"/>
  <path class="fil0" d="M1905 1379c-24,0 -42,-20 -42,-43 0,-23 18,-43 42,-43 16,0 25,7 33,15l-8 9c-7,-7 -14,-12 -25,-12 -17,0 -29,14 -29,32 0,18 13,32 30,32 11,0 19,-5 25,-12l8 7c-8,9 -18,16 -34,16z"/>
  <path class="fil0" d="M2014 1332c-1,-15 -10,-28 -26,-28 -14,0 -25,12 -27,28l53 0zm-24 37c11,0 19,-5 26,-12l8 7c-8,9 -18,15 -34,15 -23,0 -41,-17 -41,-43 0,-24 17,-43 40,-43 24,0 38,19 38,44 0,1 0,2 0,4l-65 0c2,18 15,28 29,28z"/>
  <path class="fil0" d="M2106 1332c-1,-15 -10,-28 -26,-28 -14,0 -25,12 -27,28l53 0zm-24 37c11,0 19,-5 26,-12l8 7c-8,9 -18,15 -34,15 -23,0 -41,-17 -41,-43 0,-24 17,-43 40,-43 24,0 38,19 38,44 0,1 0,2 0,4l-65 0c2,18 15,28 29,28z"/>
  <path class="fil0" d="M2175 1304c-16,0 -29,12 -29,32 0,20 13,32 29,32 15,0 30,-13 30,-32 0,-19 -14,-32 -30,-32zm29 73l0 -17c-7,10 -16,18 -32,18 -20,0 -39,-16 -39,-43 0,-27 20,-43 39,-43 15,0 25,8 32,18l0 -50 12 0 0 116 -12 0z"/>
  <polygon class="fil0" points="2240,1377 2254,1377 2254,1361 2240,1361 "/>
  <path class="fil0" d="M776 854c-2,0 -180,-26 -182,-26 -31,-5 -47,-20 -47,-46 0,-26 22,-40 40,-40l295 0 0 -110c0,0 -292,0 -295,0 -94,0 -158,71 -158,150 0,69 42,141 137,156 2,0 180,26 182,26 31,5 47,20 47,46 0,26 -22,40 -40,40l-216 0 0 0c-44,1 -90,35 -90,100 0,3 0,6 0,10 0,0 304,0 305,0 93,0 158,-71 158,-150 0,-69 -42,-141 -137,-156zm1567 -112c44,-1 90,-35 90,-101 0,-3 0,-6 0,-10l-319 0c-94,0 -158,71 -158,150l0 0c0,0 0,227 0,228 0,79 65,150 158,150 3,0 319,0 319,0 0,-4 0,-7 0,-10 0,-66 -46,-99 -90,-100l0 0 -230 0c-18,0 -40,-14 -40,-40 0,-26 17,-46 47,-46 31,0 98,0 100,0 88,-1 138,-54 154,-116l-240 0c-43,0 -61,34 -61,34l0 -101c0,-26 22,-40 40,-40l230 0zm160 376c0,3 -2,5 -6,5l-8 0 0 -10 8 0c4,0 6,2 6,5zm8 0c0,-7 -5,-11 -14,-11l-15 0 0 34 8 0 0 -11 6 0 7 11 9 0 -9 -12c4,-2 8,-5 8,-11zm13 7c0,16 -13,29 -29,29 -16,0 -29,-13 -29,-29 0,-16 12,-29 29,-29 16,0 29,13 29,29zm8 0c0,-20 -16,-36 -36,-36 -21,0 -37,16 -37,36 0,20 16,36 36,36 21,0 37,-16 37,-36zm-1238 -492l0 314c0,66 -53,119 -119,119 -66,0 -119,-53 -119,-119l0 -314 -114 0 0 308c0,129 104,233 233,233 129,0 233,-104 233,-233l0 -308 -114 0zm631 378c0,79 -65,150 -158,150 -3,0 -295,0 -295,0l0 -110 295 0c18,0 40,-14 40,-40 0,-26 -16,-41 -47,-46 -2,0 -180,-26 -182,-26 -95,-15 -137,-86 -137,-156 0,-79 65,-150 158,-150 3,0 295,0 295,0l0 110 -295 0c-18,0 -40,14 -40,40 0,25 16,41 47,46 2,0 180,26 182,26 95,15 137,86 137,156z"/>
  <path class="fil0" d="M1212 176c1,-23 11,-45 27,-60 17,-16 39,-24 62,-23 48,2 85,42 84,90 -1,23 -11,44 -27,60 -17,16 -39,24 -62,23 -48,-2 -85,-42 -83,-89zm-479 -182l-75 0c-106,4 -239,28 -410,133l-7 4c-108,68 -183,151 -222,248 -9,21 -19,62 -19,106 0,19 2,38 7,58 7,28 20,57 38,82 40,57 107,96 179,102 102,9 179,-37 207,-123 19,-59 0,-146 -72,-190 -59,-36 -122,-28 -159,-4 -32,21 -50,54 -50,90 1,64 56,98 95,98 12,0 23,-2 36,-6 5,-1 9,-3 14,-6l2 -1 1 -1 0 0c9,-6 15,-16 15,-27 0,-3 0,-6 -1,-9 -5,-16 -21,-26 -37,-23l-2 0 -3 1 -4 1c-9,2 -16,2 -17,2 -5,0 -28,-7 -28,-32l0 0c0,-9 4,-16 6,-19 7,-11 27,-22 53,-20 34,3 59,21 76,54 15,31 11,69 -10,97 -21,28 -60,39 -110,34 -51,-6 -94,-35 -119,-81 -24,-45 -25,-98 -3,-139 52,-98 150,-97 203,-87 76,13 192,82 235,240l105 0c-13,-40 -21,-157 98,-157 130,0 147,92 183,157l112 0c-29,-42 -50,-89 -44,-128 10,-58 56,-53 120,-46 21,2 45,5 69,6 69,0 131,-12 177,-32 30,-13 48,-21 60,-32 4,-4 6,-9 9,-15l2 -4c2,-5 4,-16 6,-21 3,-12 -7,-5 -7,-5 -20,12 -70,35 -117,36 -58,1 -175,-58 -187,-65l-1 -1c-3,-7 -21,-49 -24,-57 84,56 154,86 208,91 60,5 106,-27 126,-41 2,-1 10,-7 8,-13 -8,-27 -35,-118 -57,-141 -7,-7 -12,-13 -22,-19 -85,-50 -287,-80 -297,-81 0,0 -2,-1 -2,2 0,0 -1,42 -1,47 -21,-7 -171,-55 -311,-60 -9,0 -19,-1 -28,-1z"/>
  <path class="fil0" d="M1310 184c-15,0 -27,-8 -27,-18 0,-10 12,-18 27,-18 15,0 27,8 27,18 0,10 -12,18 -27,18zm-10 -66c-16,-1 -31,5 -43,16 -12,11 -19,26 -19,42 -1,33 25,61 58,63 16,0 31,-5 43,-16 12,-11 19,-26 19,-42 1,-33 -25,-61 -58,-62z"/>
 </g>
</svg>
