<?xml version="1.0" encoding="UTF-8" standalone="no"?>
<!-- Generator: Adobe Illustrator 16.0.4, SVG Export Plug-In . SVG Version: 6.00 Build 0)  -->

<svg
   xmlns:dc="http://purl.org/dc/elements/1.1/"
   xmlns:cc="http://creativecommons.org/ns#"
   xmlns:rdf="http://www.w3.org/1999/02/22-rdf-syntax-ns#"
   xmlns:svg="http://www.w3.org/2000/svg"
   xmlns="http://www.w3.org/2000/svg"
   xmlns:sodipodi="http://sodipodi.sourceforge.net/DTD/sodipodi-0.dtd"
   xmlns:inkscape="http://www.inkscape.org/namespaces/inkscape"
   version="1.1"
   id="Layer_1_xA0_Image_1_"
   x="0px"
   y="0px"
   width="274.80399"
   height="71.605003"
   viewBox="0 0 274.80398 71.605004"
   enable-background="new 0 0 283.44 84.667"
   xml:space="preserve"
   sodipodi:docname="tacc.svg"
   inkscape:version="0.92.3 (2405546, 2018-03-11)"><metadata
   id="metadata65"><rdf:RDF><cc:Work
       rdf:about=""><dc:format>image/svg+xml</dc:format><dc:type
         rdf:resource="http://purl.org/dc/dcmitype/StillImage" /><dc:title></dc:title></cc:Work></rdf:RDF></metadata><defs
   id="defs63">
	
	
	

	
	

		
		
	
	
	

		
		
	
		
		
	
		
		
	
	
	

		
		
	</defs><sodipodi:namedview
   pagecolor="#ffffff"
   bordercolor="#666666"
   borderopacity="1"
   objecttolerance="10"
   gridtolerance="10"
   guidetolerance="10"
   inkscape:pageopacity="0"
   inkscape:pageshadow="2"
   inkscape:window-width="1704"
   inkscape:window-height="1194"
   id="namedview61"
   showgrid="false"
   inkscape:pagecheckerboard="true"
   fit-margin-top="0"
   fit-margin-left="0"
   fit-margin-right="0"
   fit-margin-bottom="0"
   inkscape:zoom="2.6672311"
   inkscape:cx="173.92479"
   inkscape:cy="-26.5196"
   inkscape:window-x="2838"
   inkscape:window-y="54"
   inkscape:window-maximized="0"
   inkscape:current-layer="Layer_1_xA0_Image_1_" />
<path
   d="M 105.464,48.25 118.277,36.127 H 101.432 L 95.445,15.875 89.442,36.127 H 72.637 L 85.405,48.26 79.799,68.851 58.97,69.585 81.22,1.835 h 27.875 l 22.625,67.75 -20.672,-0.734 z"
   id="path10"
   inkscape:connector-curvature="0"
   style="fill:#ffffff;fill-opacity:1" /><path
   d="m 108.924,2.765 11.195,33.686 -1.841,-0.323 H 101.433 L 95.446,15.876 89.443,36.128 H 72.637 L 70.654,36.313 81.805,2.765 h 27.119 M 72.637,36.127 85.405,48.26 79.804,68.841 H 59.84 L 70.653,36.312 m 49.466,0.138 10.765,32.391 h -19.867 l -5.553,-20.591 12.813,-12.123 1.842,0.323 M 110.006,1.265 H 80.723 L 57.761,70.341 H 79.407 L 85.405,48.26 72.637,36.127 h 16.806 l 6.003,-20.252 5.987,20.252 h 16.845 l -12.814,12.123 5.964,22.091 h 21.535 z"
   id="path12"
   inkscape:connector-curvature="0"
   style="fill:#ffffff;fill-opacity:1" />
<path
   style="fill:#ffffff;fill-opacity:1"
   inkscape:connector-curvature="0"
   id="path18"
   d="M 0.845,1.96 64.22,1.835 63.845,17.71 42.72,17.835 42.345,69.71 H 22.72 L 22.345,17.835 0.47,17.46 Z" /><path
   style="fill:#ffffff;fill-opacity:1"
   inkscape:connector-curvature="0"
   id="path20"
   d="m 63.383,2.765 v 14.057 h -20.269 -1.5 v 1.5 50.519 H 23.27 v -50.519 -1.5 H 21.77 1.5 V 2.765 h 61.883 m 1.5,-1.5 H 0 V 18.322 H 21.77 V 70.341 H 43.115 V 18.322 H 64.884 V 1.265 Z" />
<g
   display="none"
   id="g26"
   style="display:none"
   transform="translate(-5,-6.54)">
	<path
   display="inline"
   d="m 187.451,48.488 16.886,5.104 c -1.257,5.246 -1.978,9.641 -4.679,13.158 -2.702,3.519 -5.526,6.35 -9.531,8.141 -4.005,1.791 -9.069,3.047 -15.257,3.047 -7.509,0 -13.642,-1.091 -18.4,-3.272 -4.758,-2.181 -8.866,-6.019 -12.321,-11.513 -3.456,-5.493 -5.184,-12.525 -5.184,-21.096 0,-11.427 3.039,-20.208 9.118,-26.346 6.078,-6.137 14.677,-9.206 25.798,-9.206 8.7,0 15.541,1.76 20.52,5.277 4.979,3.519 8.678,8.922 11.097,16.209 l -18.848,4.194 c -0.659,-2.104 -1.351,-3.644 -2.073,-4.618 -1.194,-1.633 -2.654,-2.89 -4.382,-3.77 -1.728,-0.879 -3.66,-1.319 -5.796,-1.319 -4.838,0 -8.545,1.946 -11.12,5.836 -1.948,2.887 -2.921,7.421 -2.921,13.601 0,7.656 1.161,12.904 3.486,15.743 2.324,2.84 5.591,4.259 9.801,4.259 4.083,0 7.17,-1.146 9.259,-3.439 2.089,-2.293 3.603,-5.624 4.547,-9.99 z"
   id="path24"
   inkscape:connector-curvature="0"
   style="display:inline" />
</g>
<path
   d="M 182.47,35.303"
   id="path28"
   inkscape:connector-curvature="0"
   style="fill:#ffffff;fill-opacity:1" />
<path
   d="m 168.429,1.5 c 12.939,0 22.112,4.398 27.264,13.071 2.774,4.672 3.598,9.416 3.842,11.76 l -16.637,-0.035 c -0.636,-3.106 -3.306,-10.044 -14.469,-10.044 -14.541,0 -14.541,11.76 -14.541,19.541 0,7.745 0,19.449 14.541,19.449 11.17,0 13.761,-6.844 14.36,-9.949 h 16.749 c -0.237,2.317 -1.044,6.989 -3.782,11.646 -5.138,8.737 -14.331,13.167 -27.327,13.167 -29.753,0 -32.965,-23.996 -32.965,-34.312 0,-10.312 3.212,-34.294 32.965,-34.294 m 0,-1.5 c -32.708,0 -34.465,27.835 -34.465,35.793 0,7.959 1.756,35.812 34.465,35.812 32.709,0 32.708,-27.812 32.708,-27.812 H 181.47 c 0,0 0,9.949 -13.041,9.949 -13.041,0 -13.041,-9.949 -13.041,-17.949 0,-8 0.041,-18.041 13.041,-18.041 13,0 13.166,10.042 13.166,10.042 l 19.542,0.042 c 0,-10e-4 0,-27.836 -32.708,-27.836 z"
   id="path32"
   inkscape:connector-curvature="0"
   style="fill:#ffffff;fill-opacity:1" /><path
   d="m 135.47,35.835 c 1.979,0 16.688,-0.021 18.521,-0.021 0,8 1.375,18.958 14.416,18.958 13.041,0 13.375,-10.25 13.375,-10.25 l 18.563,-0.062 c 0,0 -0.312,26.438 -31.625,26.5 -32.709,0.065 -33.25,-27.166 -33.25,-35.125 z"
   id="path36"
   inkscape:connector-curvature="0"
   style="fill:#ffffff;fill-opacity:1" /><path
   d="m 153.888,35.793 c -0.002,0.459 0.02,0.813 0.004,1.512 0.054,7.666 0.915,17.938 14.537,17.938 11.17,0 13.761,-6.844 14.36,-9.949 h 16.749 c -0.237,2.317 -1.044,6.989 -3.782,11.646 -5.138,8.737 -14.331,13.167 -27.327,13.167 -28.395,0 -32.616,-21.854 -32.942,-32.816 -0.017,-0.267 -0.017,-1.12 -0.022,-1.496 m 0.264,-0.006 c -0.872,0 -1.495,10e-4 -1.765,0.004 0,7.959 1.756,35.812 34.465,35.812 32.709,0 32.708,-27.812 32.708,-27.812 H 181.47 c 0,0 0,9.949 -13.041,9.949 -13.041,0 -13.041,-9.949 -13.041,-17.949 -0.455,0.011 -2.026,0.015 -4.13,0.015 -4.706,0 -12.072,-0.019 -15.529,-0.019 z"
   id="path38"
   inkscape:connector-curvature="0"
   style="fill:#ffffff;fill-opacity:1" />
<path
   d="m 242.096,1.5 c 12.939,0 22.112,4.398 27.264,13.071 2.774,4.672 3.598,9.416 3.842,11.76 l -16.637,-0.035 c -0.636,-3.106 -3.306,-10.044 -14.469,-10.044 -14.541,0 -14.541,11.76 -14.541,19.541 0,7.745 0,19.449 14.541,19.449 11.17,0 13.761,-6.844 14.36,-9.949 h 16.749 c -0.237,2.317 -1.044,6.989 -3.782,11.646 -5.138,8.737 -14.331,13.167 -27.327,13.167 -29.753,0 -32.965,-23.996 -32.965,-34.312 0,-10.312 3.212,-34.294 32.965,-34.294 m 0,-1.5 c -32.708,0 -34.465,27.835 -34.465,35.793 0,7.959 1.756,35.812 34.465,35.812 32.709,0 32.708,-27.812 32.708,-27.812 h -19.667 c 0,0 0,9.949 -13.041,9.949 -13.041,0 -13.041,-9.949 -13.041,-17.949 0,-8 0.041,-18.041 13.041,-18.041 13,0 13.166,10.042 13.166,10.042 l 19.542,0.042 c 0,-10e-4 0,-27.836 -32.708,-27.836 z"
   id="path46"
   inkscape:connector-curvature="0"
   style="fill:#ffffff;fill-opacity:1" /><path
   d="m 209.117,35.84 c 1.791,0.011 16.604,0.042 18.479,0 0,8 1.521,18.808 14.562,18.808 13.041,0 13.562,-10 13.562,-10 l 18.25,-0.188 c 0,0 1.146,26.312 -31.562,26.312 -32.708,0 -33.291,-26.973 -33.291,-34.932 z"
   id="path50"
   inkscape:connector-curvature="0"
   style="fill:#ffffff;fill-opacity:1" /><path
   d="m 227.555,35.793 c -0.002,0.459 0.02,0.813 0.004,1.512 0.054,7.666 0.915,17.938 14.537,17.938 11.17,0 13.761,-6.844 14.36,-9.949 h 16.749 c -0.237,2.317 -1.044,6.989 -3.782,11.646 -5.138,8.737 -14.331,13.167 -27.327,13.167 -28.395,0 -32.616,-21.854 -32.942,-32.816 -0.017,-0.267 -0.017,-1.12 -0.022,-1.496 m 0.264,-0.006 c -0.871,0 -1.495,10e-4 -1.765,0.004 0,7.959 1.756,35.812 34.465,35.812 32.709,0 32.708,-27.812 32.708,-27.812 h -19.667 c 0,0 0,9.949 -13.041,9.949 -13.041,0 -13.041,-9.949 -13.041,-17.949 -0.455,0.011 -2.026,0.015 -4.13,0.015 -4.706,0 -12.072,-0.019 -15.529,-0.019 z"
   id="path52"
   inkscape:connector-curvature="0"
   style="fill:#ffffff;fill-opacity:1" />

</svg>