<?xml version="1.0" encoding="UTF-8" standalone="no"?>
<svg
   xmlns:dc="http://purl.org/dc/elements/1.1/"
   xmlns:cc="http://creativecommons.org/ns#"
   xmlns:rdf="http://www.w3.org/1999/02/22-rdf-syntax-ns#"
   xmlns:svg="http://www.w3.org/2000/svg"
   xmlns="http://www.w3.org/2000/svg"
   xmlns:sodipodi="http://sodipodi.sourceforge.net/DTD/sodipodi-0.dtd"
   xmlns:inkscape="http://www.inkscape.org/namespaces/inkscape"
   width="300"
   height="88.1087646484375"
   version="1.1"
   id="svg16"
   sodipodi:docname="university-college-london.svg"
   inkscape:version="0.92.3 (2405546, 2018-03-11)">
  <metadata
     id="metadata22">
    <rdf:RDF>
      <cc:Work
         rdf:about="">
        <dc:format>image/svg+xml</dc:format>
        <dc:type
           rdf:resource="http://purl.org/dc/dcmitype/StillImage" />
        <dc:title></dc:title>
      </cc:Work>
    </rdf:RDF>
  </metadata>
  <defs
     id="defs20" />
  <sodipodi:namedview
     pagecolor="#ffffff"
     bordercolor="#666666"
     borderopacity="1"
     objecttolerance="10"
     gridtolerance="10"
     guidetolerance="10"
     inkscape:pageopacity="0"
     inkscape:pageshadow="2"
     inkscape:window-width="1411"
     inkscape:window-height="849"
     id="namedview18"
     showgrid="false"
     inkscape:pagecheckerboard="true"
     inkscape:zoom="2.52"
     inkscape:cx="136.75886"
     inkscape:cy="38.34141"
     inkscape:window-x="2860"
     inkscape:window-y="187"
     inkscape:window-maximized="0"
     inkscape:current-layer="svg16" />
  <desc
     id="desc2">Logo of University College London</desc>
  <path
     style="fill:#ffffff;fill-rule:nonzero;fill-opacity:1"
     d="M 0 0 L 0 88.119141 L 108.99609 88.119141 C 108.1557 87.524151 107.37415 86.892289 106.67578 86.224609 C 100.45068 80.205559 100.3631 73.215053 100.18555 66.664062 L 100.18555 29.488281 L 120.10156 29.488281 L 120.10156 68.523438 C 120.10156 71.179778 120.19073 73.923965 122.41211 76.046875 C 124.01105 77.730145 126.41254 78.347656 128.72266 78.347656 C 131.83469 78.347656 133.88301 77.195799 135.03906 76.136719 C 137.34819 73.923849 137.43555 71.179777 137.43555 68.523438 L 137.43555 29.488281 L 157.43945 29.488281 L 157.43945 62.769531 C 157.43945 69.936911 157.43874 79.232489 150.06055 86.224609 C 149.35529 86.885189 148.5777 87.517061 147.73828 88.119141 L 177.56055 88.119141 C 168.7817 81.820661 164.65625 71.294757 164.65625 61.085938 C 164.65625 44.268818 175.94759 27.185547 197.19336 27.185547 C 206.7061 27.185547 215.77335 30.550747 222.35352 37.279297 C 225.0217 40.022047 226.26604 42.146127 227.59766 44.623047 L 210.97461 52.857422 C 209.37175 49.137262 206.35182 42.5 197.99414 42.5 C 193.63826 42.5 190.88241 44.535411 189.54883 45.863281 C 184.83682 50.375611 184.83594 57.457503 184.83594 59.939453 C 184.83594 69.230543 188.30592 77.996094 198.08398 77.996094 C 207.33038 77.996094 210.08765 69.849463 210.79883 67.726562 L 227.6875 75.871094 C 226.08658 78.880184 224.57695 81.712323 221.55664 84.720703 C 220.25856 85.991283 218.85459 87.120051 217.37109 88.119141 L 235.63477 88.119141 L 235.63477 29.398438 L 255.45703 29.398438 L 255.45703 75.550781 L 281.18164 75.550781 L 281.18164 88.119141 L 300 88.109375 L 300 0 L 0 0 z M 79.378906 29.927734 L 79.386719 29.927734 C 79.386719 29.927734 79.490234 30.072702 79.490234 30.107422 L 79.490234 30.185547 C 79.490234 30.212117 79.486527 30.216797 79.466797 30.216797 C 79.438187 30.216797 79.430135 30.273438 79.484375 30.273438 C 79.540595 30.273436 79.566406 30.321043 79.566406 30.345703 L 79.566406 30.388672 C 79.566406 30.423302 79.772352 30.656569 79.976562 30.818359 C 80.003192 30.839559 80.022198 30.851669 80.048828 30.855469 L 80.111328 30.855469 C 80.126158 30.855469 80.140625 30.869666 80.140625 30.884766 L 80.140625 31 C 80.140625 31.01578 80.126148 31.029297 80.111328 31.029297 L 80.064453 31.029297 C 80.040763 31.033937 80.025391 31.059794 80.025391 31.115234 C 80.025391 31.168804 80.037861 31.194225 80.056641 31.203125 L 80.111328 31.203125 C 80.126158 31.203125 80.140625 31.213899 80.140625 31.230469 L 80.140625 31.345703 C 80.140625 31.361193 80.126148 31.375 80.111328 31.375 L 80.107422 31.375 C 80.103502 31.3766 80.09765 31.376953 80.09375 31.376953 C 80.0671 31.376953 80.037109 31.371669 80.037109 31.412109 L 80.037109 32.611328 C 80.071609 32.628288 80.115234 32.66135 80.115234 32.71875 L 80.115234 32.816406 C 80.115234 32.840786 80.135288 32.880859 80.179688 32.880859 L 80.363281 32.880859 C 80.403731 32.880859 80.429688 32.911733 80.429688 32.939453 L 80.429688 33.134766 C 80.429688 33.153216 80.408486 33.178934 80.378906 33.177734 C 80.287146 33.175064 80.224609 33.202161 80.224609 33.269531 C 80.224609 33.272991 80.226562 33.34025 80.226562 33.34375 C 80.226562 33.40698 80.287365 33.435114 80.359375 33.458984 C 80.493545 33.506044 80.8026 33.587767 80.8125 33.804688 C 81.32052 34.040858 82.241316 34.548838 82.910156 35.548828 C 83.759506 36.712878 83.6816 38.321048 83.6875 38.548828 C 83.68947 38.596568 83.725246 38.626953 83.759766 38.626953 L 83.859375 38.626953 C 83.901775 38.626953 83.902344 38.662109 83.902344 38.662109 L 83.902344 38.830078 C 83.902344 38.830078 83.899934 38.871094 83.945312 38.871094 L 84.109375 38.871094 C 84.109375 38.871094 84.154297 38.871699 84.154297 38.917969 L 84.154297 39.097656 C 84.154297 39.097656 84.152866 39.134766 84.197266 39.134766 L 84.365234 39.134766 C 84.365234 39.134766 84.414062 39.134581 84.414062 39.181641 L 84.414062 39.376953 C 84.414062 39.398463 84.399592 39.401497 84.382812 39.404297 C 84.334473 39.410807 84.232422 39.457379 84.232422 39.568359 C 84.232422 39.757959 84.116674 39.775391 84.070312 39.775391 L 84.070312 40.476562 C 84.070312 40.639533 84.195568 40.703343 84.267578 40.720703 C 84.282368 40.722963 84.304688 40.740126 84.304688 40.759766 L 84.304688 41.480469 L 79.386719 40.394531 L 79.378906 40.394531 L 74.460938 41.480469 L 74.460938 40.759766 C 74.460937 40.740126 74.481304 40.723003 74.496094 40.720703 C 74.568104 40.703343 74.695312 40.639533 74.695312 40.476562 L 74.695312 39.775391 C 74.648933 39.775391 74.533203 39.757959 74.533203 39.568359 C 74.533203 39.457379 74.431169 39.410797 74.380859 39.404297 C 74.366049 39.401537 74.351562 39.398453 74.351562 39.376953 L 74.351562 39.181641 C 74.351563 39.134581 74.398438 39.134766 74.398438 39.134766 L 74.566406 39.134766 C 74.614766 39.134766 74.613281 39.097656 74.613281 39.097656 L 74.613281 38.917969 C 74.613281 38.871699 74.654297 38.871094 74.654297 38.871094 L 74.822266 38.871094 C 74.866676 38.871094 74.865234 38.830078 74.865234 38.830078 L 74.865234 38.662109 C 74.865234 38.662109 74.86382 38.626953 74.90625 38.626953 L 75.005859 38.626953 C 75.042339 38.626953 75.076125 38.596568 75.078125 38.548828 C 75.086015 38.321048 75.006092 36.712878 75.857422 35.548828 C 76.522312 34.548838 77.445088 34.040858 77.955078 33.804688 C 77.962988 33.587767 78.27208 33.506044 78.40625 33.458984 C 78.47628 33.435114 78.539062 33.40698 78.539062 33.34375 C 78.539063 33.3403 78.541016 33.273031 78.541016 33.269531 C 78.541016 33.202161 78.477506 33.175034 78.384766 33.177734 C 78.357166 33.178924 78.333984 33.153206 78.333984 33.134766 L 78.333984 32.939453 C 78.333984 32.911733 78.361884 32.880859 78.402344 32.880859 L 78.585938 32.880859 C 78.630346 32.880859 78.650391 32.840776 78.650391 32.816406 L 78.650391 32.71875 C 78.650391 32.66135 78.695959 32.628288 78.730469 32.611328 L 78.730469 31.412109 C 78.730469 31.371689 78.698505 31.376953 78.671875 31.376953 C 78.667945 31.376953 78.664103 31.3766 78.658203 31.375 L 78.654297 31.375 C 78.639477 31.375 78.625 31.361193 78.625 31.345703 L 78.625 31.230469 C 78.625 31.213899 78.639477 31.203125 78.654297 31.203125 L 78.708984 31.203125 C 78.727744 31.194245 78.742188 31.168804 78.742188 31.115234 C 78.742187 31.059794 78.724815 31.033897 78.703125 31.029297 L 78.654297 31.029297 C 78.639477 31.029297 78.625 31.01578 78.625 31 L 78.625 30.884766 C 78.625 30.869666 78.639477 30.855469 78.654297 30.855469 L 78.716797 30.855469 C 78.743447 30.851629 78.762412 30.839569 78.789062 30.818359 C 78.993284 30.656569 79.199219 30.423302 79.199219 30.388672 C 79.199219 30.369732 79.201172 30.368883 79.201172 30.345703 C 79.201172 30.321043 79.226963 30.273438 79.283203 30.273438 C 79.335493 30.273438 79.327448 30.216797 79.298828 30.216797 C 79.281088 30.216797 79.273438 30.212087 79.273438 30.185547 L 79.273438 30.107422 C 79.273438 30.072702 79.378906 29.927734 79.378906 29.927734 z M 79.373047 41.208984 C 79.373047 41.208984 90.063082 43.505572 90.101562 43.513672 C 90.160753 43.525212 90.140625 43.576172 90.140625 43.576172 L 89.990234 44.123047 L 89.964844 44.123047 C 89.958228 44.122229 89.787277 44.102144 89.697266 44.271484 L 89.537109 45.154297 C 89.537109 45.154297 89.530833 45.199219 89.476562 45.199219 L 89.085938 45.199219 L 89.001953 45.199219 L 89.001953 45.458984 C 89.001953 45.473954 88.992299 45.482422 88.980469 45.482422 L 88.912109 45.484375 C 88.871629 45.484375 88.875 45.516134 88.875 45.552734 C 88.875 45.593974 88.858944 45.807567 88.708984 45.929688 C 88.689254 45.947837 88.693874 46 88.740234 46 L 88.789062 46 C 88.827573 46 88.832159 46.025292 88.818359 46.044922 C 88.806479 46.069582 88.800781 46.142341 88.800781 46.175781 L 88.800781 46.294922 C 88.800781 46.316532 88.796101 46.333984 88.775391 46.333984 L 88.753906 46.333984 C 88.753906 46.333984 88.736328 46.332223 88.736328 46.351562 L 88.736328 46.375 L 88.736328 52.367188 C 88.760998 52.393728 88.814319 52.448931 88.824219 52.457031 C 88.832119 52.464331 88.833984 52.468863 88.833984 52.476562 L 88.833984 52.580078 C 88.833984 52.587478 88.835944 52.597364 88.839844 52.601562 C 88.845744 52.606564 88.855334 52.607422 88.865234 52.607422 L 88.939453 52.607422 C 88.951283 52.607422 88.962891 52.620092 88.962891 52.632812 L 88.962891 52.785156 L 88.964844 52.785156 L 88.964844 53.414062 L 89.804688 53.414062 L 89.804688 54.849609 L 90.650391 54.849609 L 90.650391 56.300781 L 68.099609 56.300781 L 68.099609 54.847656 L 68.945312 54.847656 L 68.945312 53.412109 L 69.787109 53.412109 L 69.787109 52.806641 L 71.382812 52.806641 L 71.382812 52.785156 L 69.787109 52.785156 L 69.787109 52.632812 C 69.787109 52.620094 69.79967 52.607422 69.8125 52.607422 L 69.886719 52.607422 C 69.894609 52.607422 69.906209 52.606564 69.912109 52.601562 C 69.916009 52.597312 69.917969 52.587478 69.917969 52.580078 L 69.917969 52.476562 C 69.917969 52.467293 69.921834 52.460078 69.927734 52.455078 C 69.932684 52.450548 69.996922 52.385638 70.013672 52.367188 L 70.013672 46.375 L 70.013672 46.351562 C 70.013672 46.332203 69.996094 46.333984 69.996094 46.333984 L 69.972656 46.333984 C 69.949996 46.333984 69.947266 46.316532 69.947266 46.294922 L 69.947266 46.175781 C 69.947266 46.142341 69.945431 46.069582 69.931641 46.044922 C 69.920761 46.025292 69.922504 46 69.958984 46 L 70.011719 46 C 70.054149 46 70.061719 45.948228 70.042969 45.929688 C 69.894019 45.801746 69.875 45.589668 69.875 45.548828 C 69.875 45.516868 69.872404 45.484375 69.839844 45.484375 L 69.769531 45.482422 C 69.756741 45.482422 69.748047 45.473974 69.748047 45.458984 L 69.748047 45.199219 L 69.662109 45.199219 L 69.275391 45.199219 C 69.212221 45.199219 69.207031 45.138672 69.207031 45.138672 L 69.048828 44.255859 C 68.954101 44.10595 68.795529 44.122312 68.789062 44.123047 L 68.759766 44.123047 L 68.611328 43.576172 C 68.611328 43.576172 68.592181 43.525212 68.650391 43.513672 C 68.671101 43.508652 79.373047 41.208984 79.373047 41.208984 z M 69.748047 45.199219 L 71.425781 45.199219 L 71.425781 45.185547 C 71.425781 45.171737 71.413191 45.183594 71.400391 45.183594 L 69.769531 45.183594 C 69.756711 45.183594 69.748047 45.171707 69.748047 45.185547 L 69.748047 45.199219 z M 71.425781 45.199219 L 71.425781 45.458984 C 71.425781 45.473954 71.413191 45.482422 71.400391 45.482422 L 71.332031 45.484375 C 71.291551 45.484375 71.294922 45.516134 71.294922 45.552734 C 71.294922 45.593974 71.279819 45.807567 71.130859 45.929688 C 71.110139 45.947837 71.113779 46 71.162109 46 L 71.210938 46 C 71.247428 46 71.249134 46.025292 71.240234 46.044922 C 71.224494 46.069582 71.220703 46.142341 71.220703 46.175781 L 71.220703 46.294922 C 71.220703 46.316532 71.218002 46.333984 71.195312 46.333984 L 71.173828 46.333984 C 71.173828 46.333984 71.158203 46.332223 71.158203 46.351562 L 71.158203 46.375 L 71.158203 52.367188 C 71.182883 52.393728 71.237194 52.448931 71.246094 52.457031 C 71.251994 52.464331 71.253906 52.468863 71.253906 52.476562 L 71.253906 52.580078 C 71.253906 52.587478 71.255819 52.597364 71.261719 52.601562 C 71.265649 52.606564 71.275303 52.607422 71.283203 52.607422 L 71.359375 52.607422 C 71.372175 52.607422 71.382812 52.620092 71.382812 52.632812 L 71.382812 52.785156 L 73.302734 52.785156 L 73.302734 52.632812 C 73.302734 52.620094 73.316288 52.607422 73.330078 52.607422 L 73.402344 52.607422 C 73.412204 52.607422 73.422881 52.606564 73.425781 52.601562 C 73.431681 52.597312 73.433594 52.587478 73.433594 52.580078 L 73.433594 52.476562 C 73.433594 52.467293 73.437459 52.460078 73.443359 52.455078 C 73.447289 52.450548 73.511557 52.385638 73.529297 52.367188 L 73.529297 46.375 L 73.529297 46.351562 C 73.529297 46.332203 73.511719 46.333984 73.511719 46.333984 L 73.488281 46.333984 C 73.464631 46.333984 73.462891 46.316532 73.462891 46.294922 L 73.462891 46.175781 C 73.462891 46.142341 73.461066 46.069582 73.447266 46.044922 C 73.435416 46.025292 73.436139 46 73.474609 46 L 73.525391 46 C 73.569801 46 73.578334 45.948228 73.558594 45.929688 C 73.410634 45.801746 73.390625 45.589668 73.390625 45.548828 C 73.390625 45.516868 73.388046 45.484375 73.353516 45.484375 L 73.287109 45.482422 C 73.273329 45.482422 73.263672 45.473974 73.263672 45.458984 L 73.263672 45.199219 L 71.425781 45.199219 z M 73.263672 45.199219 L 74.939453 45.199219 L 74.939453 45.185547 C 74.939453 45.171737 74.929786 45.183594 74.916016 45.183594 L 73.287109 45.183594 C 73.273309 45.183594 73.263672 45.171707 73.263672 45.185547 L 73.263672 45.199219 z M 74.939453 45.199219 L 74.939453 45.458984 C 74.939453 45.473954 74.929816 45.482422 74.916016 45.482422 L 74.847656 45.484375 C 74.809146 45.484375 74.810547 45.516134 74.810547 45.552734 C 74.810547 45.593974 74.794491 45.807567 74.644531 45.929688 C 74.622841 45.947837 74.629421 46 74.675781 46 L 74.726562 46 C 74.764983 46 74.767706 46.025292 74.753906 46.044922 C 74.740056 46.069582 74.736328 46.142341 74.736328 46.175781 L 74.736328 46.294922 C 74.736328 46.316532 74.734606 46.333984 74.710938 46.333984 L 74.689453 46.333984 C 74.689453 46.333984 74.671875 46.332223 74.671875 46.351562 L 74.671875 46.375 L 74.671875 52.367188 C 74.698505 52.393728 74.751866 52.448931 74.759766 52.457031 C 74.767666 52.464331 74.771484 52.468863 74.771484 52.476562 L 74.771484 52.580078 C 74.771484 52.587478 74.773397 52.597364 74.779297 52.601562 C 74.784217 52.606564 74.790928 52.607422 74.798828 52.607422 L 74.876953 52.607422 C 74.888763 52.607422 74.898438 52.620092 74.898438 52.632812 L 74.898438 52.785156 L 76.820312 52.785156 L 76.820312 52.632812 C 76.820312 52.620094 76.83094 52.607422 76.84375 52.607422 L 76.917969 52.607422 C 76.925869 52.607422 76.935506 52.606564 76.941406 52.601562 C 76.947306 52.597312 76.949219 52.587478 76.949219 52.580078 L 76.949219 52.476562 C 76.949219 52.467293 76.953131 52.460078 76.957031 52.455078 C 76.961961 52.450548 77.028152 52.385638 77.044922 52.367188 L 77.044922 46.375 L 77.044922 46.351562 C 77.044922 46.332203 77.029297 46.333984 77.029297 46.333984 L 77.005859 46.333984 C 76.983189 46.333984 76.980469 46.316532 76.980469 46.294922 L 76.980469 46.175781 C 76.980469 46.142341 76.976691 46.069582 76.962891 46.044922 C 76.952031 46.025292 76.953727 46 76.992188 46 L 77.041016 46 C 77.083436 46 77.092976 45.948228 77.072266 45.929688 C 76.923326 45.801746 76.90625 45.589668 76.90625 45.548828 C 76.90625 45.516868 76.903644 45.484375 76.871094 45.484375 L 76.800781 45.482422 C 76.787971 45.482422 76.779297 45.473974 76.779297 45.458984 L 76.779297 45.199219 L 74.939453 45.199219 z M 76.779297 45.199219 L 78.457031 45.199219 L 78.457031 45.185547 C 78.457031 45.171737 78.446384 45.183594 78.433594 45.183594 L 76.800781 45.183594 C 76.787971 45.183594 76.779297 45.171707 76.779297 45.185547 L 76.779297 45.199219 z M 78.457031 45.199219 L 78.457031 45.458984 C 78.457031 45.473954 78.446424 45.482422 78.433594 45.482422 L 78.363281 45.484375 C 78.324771 45.484375 78.326172 45.516134 78.326172 45.552734 C 78.326172 45.593974 78.313029 45.807567 78.162109 45.929688 C 78.141389 45.947837 78.146009 46 78.193359 46 L 78.242188 46 C 78.278677 46 78.282314 46.025292 78.271484 46.044922 C 78.257644 46.069582 78.251953 46.142341 78.251953 46.175781 L 78.251953 46.294922 C 78.251953 46.316532 78.247266 46.333984 78.228516 46.333984 L 78.205078 46.333984 C 78.205078 46.333984 78.189453 46.332223 78.189453 46.351562 C 78.189453 46.367334 78.191406 46.375 78.191406 46.375 L 78.191406 52.367188 C 78.216076 52.393728 78.268444 52.448931 78.277344 52.457031 C 78.285244 52.464331 78.287109 52.468863 78.287109 52.476562 L 78.287109 52.580078 C 78.287109 52.587478 78.288969 52.597364 78.292969 52.601562 C 78.298859 52.606564 78.305553 52.607422 78.314453 52.607422 L 78.390625 52.607422 C 78.403395 52.607422 78.414062 52.620092 78.414062 52.632812 L 78.414062 52.785156 L 80.335938 52.785156 L 80.335938 52.632812 C 80.335937 52.620094 80.347545 52.607422 80.359375 52.607422 L 80.435547 52.607422 C 80.443437 52.607422 80.451131 52.606564 80.457031 52.601562 C 80.460931 52.597312 80.462891 52.587478 80.462891 52.580078 L 80.462891 52.476562 C 80.462891 52.467293 80.466756 52.460078 80.472656 52.455078 C 80.478586 52.450548 80.54475 52.385638 80.5625 52.367188 L 80.5625 46.375 L 80.5625 46.351562 C 80.5625 46.332203 80.544922 46.333984 80.544922 46.333984 L 80.517578 46.333984 C 80.497868 46.333984 80.496094 46.316532 80.496094 46.294922 L 80.496094 46.175781 C 80.496094 46.142341 80.491346 46.069582 80.478516 46.044922 C 80.466666 46.025292 80.469352 46 80.507812 46 L 80.558594 46 C 80.601024 46 80.607611 45.948228 80.587891 45.929688 C 80.439911 45.801746 80.421875 45.589668 80.421875 45.548828 C 80.421875 45.516868 80.419262 45.484375 80.388672 45.484375 L 80.318359 45.482422 C 80.304589 45.482422 80.292969 45.473974 80.292969 45.458984 L 80.292969 45.199219 L 78.457031 45.199219 z M 80.292969 45.199219 L 81.970703 45.199219 L 81.970703 45.185547 C 81.970703 45.171737 81.963029 45.183594 81.949219 45.183594 L 80.318359 45.183594 C 80.304569 45.183594 80.292969 45.171707 80.292969 45.185547 L 80.292969 45.199219 z M 81.970703 45.199219 L 81.970703 45.458984 C 81.970703 45.473954 81.963009 45.482422 81.949219 45.482422 L 81.880859 45.484375 C 81.842379 45.484375 81.841797 45.516134 81.841797 45.552734 C 81.841797 45.593974 81.827647 45.807567 81.679688 45.929688 C 81.656017 45.947837 81.662614 46 81.708984 46 L 81.759766 46 C 81.798276 46 81.797009 46.025292 81.787109 46.044922 C 81.773269 46.069582 81.767578 46.142341 81.767578 46.175781 L 81.767578 46.294922 C 81.767578 46.316532 81.765874 46.333984 81.740234 46.333984 L 81.722656 46.333984 C 81.722656 46.333984 81.705078 46.332223 81.705078 46.351562 L 81.705078 46.375 L 81.705078 52.367188 C 81.733698 52.393728 81.783169 52.448931 81.792969 52.457031 C 81.798869 52.464331 81.800781 52.468863 81.800781 52.476562 L 81.800781 52.580078 C 81.800781 52.587478 81.805594 52.597364 81.808594 52.601562 C 81.812524 52.606564 81.822131 52.607422 81.832031 52.607422 L 81.90625 52.607422 C 81.91806 52.607422 81.929688 52.620092 81.929688 52.632812 L 81.929688 52.785156 L 83.853516 52.785156 L 83.853516 52.632812 C 83.853516 52.620094 83.862187 52.607422 83.873047 52.607422 L 83.951172 52.607422 C 83.961052 52.607422 83.968756 52.606564 83.972656 52.601562 C 83.980556 52.597312 83.980469 52.587478 83.980469 52.580078 L 83.980469 52.476562 C 83.980469 52.467293 83.985334 52.460078 83.990234 52.455078 C 83.994184 52.450548 84.059385 52.385638 84.078125 52.367188 L 84.078125 46.375 C 84.078125 46.375 84.076172 46.367342 84.076172 46.351562 C 84.076172 46.332203 84.058594 46.333984 84.058594 46.333984 L 84.035156 46.333984 C 84.014396 46.333984 84.011719 46.316532 84.011719 46.294922 L 84.011719 46.175781 C 84.011719 46.142341 84.009911 46.069582 83.994141 46.044922 C 83.983281 46.025292 83.986911 46 84.025391 46 L 84.074219 46 C 84.116649 46 84.124226 45.948228 84.103516 45.929688 C 83.956536 45.801746 83.9375 45.589668 83.9375 45.548828 C 83.9375 45.516868 83.935867 45.484375 83.904297 45.484375 L 83.833984 45.482422 C 83.821204 45.482422 83.810547 45.473974 83.810547 45.458984 L 83.810547 45.199219 L 81.970703 45.199219 z M 83.810547 45.199219 L 85.488281 45.199219 L 85.488281 45.185547 C 85.488281 45.171737 85.477637 45.183594 85.466797 45.183594 L 83.833984 45.183594 C 83.821174 45.183594 83.810547 45.171707 83.810547 45.185547 L 83.810547 45.199219 z M 85.488281 45.199219 L 85.488281 45.458984 C 85.488281 45.473954 85.477657 45.482422 85.466797 45.482422 L 85.396484 45.484375 C 85.357974 45.484375 85.359375 45.516134 85.359375 45.552734 C 85.359375 45.593974 85.343299 45.807567 85.193359 45.929688 C 85.172649 45.947837 85.178249 46 85.224609 46 L 85.273438 46 C 85.309918 46 85.312634 46.025292 85.302734 46.044922 C 85.289894 46.069582 85.283203 46.142341 85.283203 46.175781 L 85.283203 46.294922 C 85.283203 46.316532 85.280506 46.333984 85.259766 46.333984 L 85.238281 46.333984 C 85.238281 46.333984 85.220703 46.332223 85.220703 46.351562 L 85.220703 46.375 L 85.220703 52.367188 C 85.248333 52.393728 85.299741 52.448931 85.306641 52.457031 C 85.314541 52.464331 85.316406 52.468863 85.316406 52.476562 L 85.316406 52.580078 C 85.316406 52.587478 85.318319 52.597364 85.324219 52.601562 C 85.328179 52.606564 85.338756 52.607422 85.347656 52.607422 L 85.423828 52.607422 C 85.434678 52.607422 85.445312 52.620092 85.445312 52.632812 L 85.445312 52.785156 L 87.365234 52.785156 L 87.365234 52.632812 C 87.365234 52.620094 87.376835 52.607422 87.390625 52.607422 L 87.464844 52.607422 C 87.474714 52.607422 87.484381 52.606564 87.488281 52.601562 C 87.494181 52.597312 87.496094 52.587478 87.496094 52.580078 L 87.496094 52.476562 C 87.496094 52.467293 87.501859 52.460078 87.505859 52.455078 C 87.511779 52.450548 87.576 52.385638 87.59375 52.367188 L 87.59375 46.375 L 87.59375 46.351562 C 87.59375 46.332203 87.576172 46.333984 87.576172 46.333984 L 87.552734 46.333984 C 87.531064 46.333984 87.529297 46.316532 87.529297 46.294922 L 87.529297 46.175781 C 87.529297 46.142341 87.524529 46.069582 87.511719 46.044922 C 87.499859 46.025292 87.502562 46 87.539062 46 L 87.589844 46 C 87.636234 46 87.640851 45.948228 87.619141 45.929688 C 87.471161 45.801746 87.453125 45.589668 87.453125 45.548828 C 87.453125 45.516868 87.452472 45.484375 87.419922 45.484375 L 87.349609 45.482422 C 87.337789 45.482422 87.324219 45.473974 87.324219 45.458984 L 87.324219 45.199219 L 85.488281 45.199219 z M 87.324219 45.199219 L 89.001953 45.199219 L 89.001953 45.185547 C 89.001953 45.171737 88.992309 45.183594 88.980469 45.183594 L 87.349609 45.183594 C 87.337789 45.183594 87.324219 45.171707 87.324219 45.185547 L 87.324219 45.199219 z M 87.365234 52.785156 L 87.365234 52.806641 L 88.962891 52.806641 L 88.962891 52.785156 L 87.365234 52.785156 z M 85.445312 52.785156 L 83.853516 52.785156 L 83.853516 52.806641 L 85.445312 52.806641 L 85.445312 52.785156 z M 81.929688 52.785156 L 80.335938 52.785156 L 80.335938 52.806641 L 81.929688 52.806641 L 81.929688 52.785156 z M 78.414062 52.785156 L 76.820312 52.785156 L 76.820312 52.806641 L 78.414062 52.806641 L 78.414062 52.785156 z M 74.898438 52.785156 L 73.302734 52.785156 L 73.302734 52.806641 L 74.898438 52.806641 L 74.898438 52.785156 z "
     id="path22" />
</svg>
