<?xml version="1.0" encoding="UTF-8" standalone="no"?>
<svg
   xmlns:dc="http://purl.org/dc/elements/1.1/"
   xmlns:cc="http://creativecommons.org/ns#"
   xmlns:rdf="http://www.w3.org/1999/02/22-rdf-syntax-ns#"
   xmlns:svg="http://www.w3.org/2000/svg"
   xmlns="http://www.w3.org/2000/svg"
   xmlns:sodipodi="http://sodipodi.sourceforge.net/DTD/sodipodi-0.dtd"
   xmlns:inkscape="http://www.inkscape.org/namespaces/inkscape"
   viewBox="0 0 286.96546 71.832396"
   height="71.832397"
   width="286.96545"
   xml:space="preserve"
   id="svg2"
   version="1.1"
   sodipodi:docname="utrecht-university.svg"
   inkscape:version="0.92.3 (2405546, 2018-03-11)"><sodipodi:namedview
     pagecolor="#ffffff"
     bordercolor="#666666"
     borderopacity="1"
     objecttolerance="10"
     gridtolerance="10"
     guidetolerance="10"
     inkscape:pageopacity="0"
     inkscape:pageshadow="2"
     inkscape:window-width="1529"
     inkscape:window-height="999"
     id="namedview84"
     showgrid="false"
     inkscape:pagecheckerboard="true"
     fit-margin-top="0"
     fit-margin-left="0"
     fit-margin-right="0"
     fit-margin-bottom="0"
     inkscape:zoom="2.4813913"
     inkscape:cx="133.91091"
     inkscape:cy="30.075887"
     inkscape:window-x="2792"
     inkscape:window-y="137"
     inkscape:window-maximized="0"
     inkscape:current-layer="svg2" /><metadata
     id="metadata8"><rdf:RDF><cc:Work
         rdf:about=""><dc:format>image/svg+xml</dc:format><dc:type
           rdf:resource="http://purl.org/dc/dcmitype/StillImage" /><dc:title></dc:title></cc:Work></rdf:RDF></metadata><defs
     id="defs6"><clipPath
       id="clipPath18"
       clipPathUnits="userSpaceOnUse"><path
         id="path16"
         d="M 0,127.559 H 323.149 V 0 H 0 Z"
         inkscape:connector-curvature="0" /></clipPath></defs><g
     id="g12"
     transform="matrix(1.3333333,0,0,-1.3333333,-59.439465,119.06306)"
     style="fill:#ffffff;fill-opacity:1"><g
       id="g14"
       clip-path="url(#clipPath18)"
       style="fill:#ffffff;fill-opacity:1"><g
         id="g20"
         transform="translate(165.5767,59.0039)"
         style="fill:#ffffff;fill-opacity:1"><path
           inkscape:connector-curvature="0"
           d="m 0,0 c 0,-0.696 0.319,-0.993 0.863,-0.993 0.452,0 0.882,0.28 1.431,0.938 l 0.264,-0.526 c -0.566,-1.015 -1.695,-1.711 -2.729,-1.711 -1.278,0 -2.125,0.717 -2.125,2.332 v 4.511 h -0.995 v 0.493 c 1.129,0.468 2.407,1.842 2.743,2.893 H 0 V 5.587 H 2.459 L 2.183,4.551 H 0 Z m -10.571,-0.187 c 0,-1.184 0.321,-1.297 0.978,-1.297 h 0.188 v -0.601 h -4.761 v 0.601 h 0.269 c 0.959,0 1.033,0.377 1.033,1.374 v 8.217 c 0,0.543 -0.096,0.676 -0.603,0.846 l -0.546,0.188 v 0.433 l 2.992,0.921 h 0.45 V 4.366 c 1.054,0.733 2.405,1.428 3.384,1.428 1.377,0 2.053,-1.107 2.053,-3.327 v -2.486 c 0,-1.11 0.129,-1.465 0.846,-1.465 h 0.184 v -0.601 h -4.437 v 0.601 h 0.151 c 0.789,0 0.96,0.303 0.96,1.374 v 2.839 c 0,1.013 -0.47,1.654 -1.221,1.654 -0.511,0 -1.261,-0.28 -1.92,-0.714 z M -14.65,-0.28 c -0.866,-1.316 -2.184,-2.012 -3.836,-2.012 -2.294,0 -3.951,1.563 -3.951,3.725 0,2.463 2.127,4.361 4.87,4.361 1.618,0 2.841,-0.677 2.841,-1.599 0,-0.562 -0.375,-0.941 -0.962,-0.941 -1.312,0 -1.592,1.675 -2.684,1.675 -0.941,0 -1.584,-1.147 -1.584,-2.838 0,-2.032 0.963,-3.404 2.352,-3.404 0.849,0 1.636,0.43 2.408,1.334 z m -11.508,2.856 c -0.019,1.449 -0.527,2.332 -1.338,2.332 -0.77,0 -1.463,-0.993 -1.334,-2.332 z m 2.423,-2.48 c -1.049,-1.483 -2.575,-2.388 -4.024,-2.388 -2.05,0 -3.44,1.579 -3.44,3.854 0,2.483 1.677,4.232 4.022,4.232 1,0 1.79,-0.32 2.371,-0.903 1.111,-1.109 0.585,-2.162 1.244,-2.501 V 1.845 h -5.21 c 0.15,-1.562 1.202,-2.745 2.313,-2.745 0.693,0 1.371,0.392 2.296,1.355 z M -33.7,-2.085 h -5.231 v 0.601 h 0.132 c 0.773,0 1.053,0.338 1.053,1.314 v 3.066 c 0,0.846 -0.111,1.037 -0.675,1.261 l -0.51,0.209 V 4.834 L -35.847,6 h 0.398 V 3.896 h 0.037 c 0.694,1.353 0.996,1.898 1.637,1.898 0.129,0 0.282,-0.02 0.374,-0.056 l 1.485,-0.547 c -0.225,-0.791 -0.525,-1.463 -0.897,-1.992 -0.588,0.227 -1.283,0.47 -1.53,0.47 -0.375,0 -0.691,-0.265 -1.106,-0.846 v -3.048 c 0,-0.904 0.282,-1.259 1.261,-1.259 H -33.7 Z M -42.351,0 c 0,-0.696 0.317,-0.993 0.864,-0.993 0.45,0 0.883,0.28 1.428,0.938 l 0.265,-0.526 c -0.564,-1.015 -1.693,-1.711 -2.728,-1.711 -1.277,0 -2.128,0.717 -2.128,2.332 v 4.511 h -0.995 v 0.493 c 1.128,0.468 2.412,1.842 2.748,2.893 h 0.546 v -2.35 h 2.46 l -0.28,-1.036 h -2.18 z m -7.862,9.61 h 4.875 V 8.878 h -0.134 c -1.503,0 -1.73,-0.657 -1.73,-1.562 v -4.68 c 0,-4.196 -3.045,-4.983 -5.282,-4.983 -3.387,0 -5.531,1.464 -5.531,4.342 v 5.604 c 0,0.942 -0.261,1.279 -1.316,1.279 h -0.32 V 9.61 h 5.886 V 8.878 h -0.316 c -0.795,0 -1.336,-0.357 -1.336,-1.279 V 1.995 c 0,-2.294 1.688,-3.084 3.399,-3.084 2.466,0 3.691,1.39 3.691,3.46 V 6.94 c 0,1.335 -0.378,1.938 -1.545,1.938 h -0.341 z M 86.399,3.273 C 85.735,4.642 85.412,5.002 84.595,5.002 V 5.61 h 4.844 V 5.002 c -0.988,0 -1.139,-0.38 -0.779,-1.14 l 1.577,-3.267 1.444,2.926 c 0.399,0.817 0.152,1.462 -0.988,1.481 V 5.61 h 3.534 V 5.002 c -0.855,-0.19 -1.102,-0.418 -1.634,-1.5 l -4.255,-8.663 c -0.476,-0.95 -1.065,-1.406 -1.73,-1.406 -0.683,0 -1.196,0.456 -1.196,1.083 0,0.304 0.114,0.627 0.285,0.797 0.874,0.874 1.881,-0.303 2.888,1.901 l 0.38,0.836 z M 80.87,-0.032 c 0,-0.702 0.323,-1.007 0.874,-1.007 0.456,0 0.893,0.285 1.444,0.95 l 0.266,-0.532 c -0.57,-1.025 -1.71,-1.729 -2.755,-1.729 -1.292,0 -2.146,0.722 -2.146,2.356 V 4.565 H 77.546 V 5.06 c 1.14,0.474 2.432,1.861 2.773,2.925 H 80.87 V 5.61 h 2.489 L 83.074,4.565 H 80.87 Z m -5.186,9.081 c 0,-0.76 -0.722,-1.292 -1.501,-1.292 -0.874,0 -1.52,0.551 -1.52,1.292 0,0.683 0.722,1.292 1.52,1.292 0.874,0 1.501,-0.57 1.501,-1.292 m 0.892,-11.19 h -4.749 v 0.608 h 0.209 c 0.778,0 1.064,0.343 1.064,1.33 v 3.647 c 0,0.494 -0.115,0.627 -0.646,0.818 l -0.627,0.227 v 0.456 l 3.248,1.083 h 0.342 v -6.364 c 0,-0.779 0.323,-1.197 1.159,-1.197 z M 65.215,0.101 h 0.608 c 0.323,-1.064 1.158,-1.634 1.976,-1.634 0.531,0 0.987,0.399 0.987,0.874 0,1.311 -3.571,1.766 -3.571,4.065 0,1.445 1.197,2.413 2.982,2.413 0.722,0 1.33,-0.114 2.128,-0.399 l 0.038,-2.032 h -0.608 c -0.342,1.045 -0.969,1.614 -1.785,1.614 -0.494,0 -0.874,-0.304 -0.874,-0.722 0,-1.557 3.742,-1.614 3.742,-4.217 0,-1.406 -1.007,-2.394 -2.47,-2.394 -1.31,0 -1.747,0.267 -2.014,0.267 -0.113,0 -0.227,-0.077 -0.379,-0.248 h -0.551 z m -3.003,-2.242 h -5.281 v 0.608 h 0.132 c 0.78,0 1.065,0.343 1.065,1.33 v 3.097 c 0,0.854 -0.114,1.044 -0.685,1.272 l -0.512,0.209 v 0.476 l 3.115,1.177 h 0.399 V 3.9 h 0.038 c 0.703,1.369 1.007,1.919 1.653,1.919 0.133,0 0.285,-0.019 0.38,-0.057 L 64.017,5.211 C 63.789,4.413 63.484,3.729 63.104,3.197 c -0.588,0.229 -1.291,0.476 -1.538,0.476 -0.38,0 -0.703,-0.267 -1.121,-0.856 V -0.26 c 0,-0.912 0.285,-1.273 1.273,-1.273 h 0.494 z M 53.301,2.57 C 53.282,4.033 52.77,4.927 51.952,4.927 51.174,4.927 50.471,3.92 50.604,2.57 Z m 2.451,-2.507 c -1.064,-1.5 -2.603,-2.413 -4.065,-2.413 -2.071,0 -3.477,1.596 -3.477,3.895 0,2.508 1.69,4.274 4.065,4.274 1.007,0 1.805,-0.323 2.394,-0.912 1.121,-1.121 0.589,-2.184 1.254,-2.526 V 1.83 H 50.66 c 0.153,-1.577 1.216,-2.773 2.337,-2.773 0.703,0 1.387,0.398 2.318,1.367 z M 38.349,5.61 h 4.825 V 5.002 h -0.665 c -0.399,0 -0.571,-0.36 -0.247,-1.064 l 1.69,-3.78 1.483,3.344 c 0.436,0.987 0.209,1.367 -1.122,1.5 V 5.61 h 3.781 V 5.002 C 47.106,4.907 46.859,4.66 46.498,3.862 l -2.717,-6.135 h -1.139 l -2.83,6.097 c -0.362,0.78 -0.627,1.083 -1.463,1.178 z m -1.103,3.439 c 0,-0.76 -0.722,-1.292 -1.501,-1.292 -0.874,0 -1.519,0.551 -1.519,1.292 0,0.683 0.721,1.292 1.519,1.292 0.874,0 1.501,-0.57 1.501,-1.292 m 0.893,-11.19 H 33.39 v 0.608 h 0.209 c 0.778,0 1.063,0.343 1.063,1.33 v 3.647 c 0,0.494 -0.114,0.627 -0.645,0.818 L 33.39,4.489 v 0.456 l 3.248,1.083 h 0.341 v -6.364 c 0,-0.779 0.324,-1.197 1.16,-1.197 z m -6.518,1.729 c 0,-0.931 0.342,-1.121 1.083,-1.121 v -0.608 h -4.483 v 0.608 c 0.779,0.057 1.083,0.59 1.083,2.147 v 1.653 c 0,1.519 -0.418,2.108 -1.178,2.108 -0.589,0 -1.216,-0.284 -2.014,-0.836 v -3.855 c 0,-0.856 0.362,-1.217 1.121,-1.217 h 0.171 v -0.608 h -4.806 v 0.608 h 0.114 c 0.798,0 1.083,0.343 1.083,1.33 v 3.705 c 0,0.418 -0.229,0.664 -0.894,0.854 l -0.398,0.115 v 0.456 l 3.248,1.101 h 0.361 v -1.69 c 1.387,0.911 2.603,1.481 3.515,1.481 1.387,0 1.994,-0.988 1.994,-3.267 z M 17.2,9.676 h 4.92 V 8.935 h -0.133 c -1.519,0 -1.748,-0.665 -1.748,-1.577 v -4.73 c 0,-4.236 -3.077,-5.034 -5.338,-5.034 -3.42,0 -5.585,1.481 -5.585,4.387 v 5.662 c 0,0.95 -0.266,1.292 -1.33,1.292 H 7.663 v 0.741 h 5.946 V 8.935 h -0.323 c -0.798,0 -1.348,-0.361 -1.348,-1.292 V 1.981 c 0,-2.317 1.709,-3.115 3.438,-3.115 2.489,0 3.724,1.406 3.724,3.495 v 4.618 c 0,1.348 -0.38,1.956 -1.558,1.956 H 17.2 Z"
           style="fill:#ffffff;fill-opacity:1;fill-rule:nonzero;stroke:none"
           id="path22" /></g><g
         id="g24"
         transform="translate(75.2515,66.1026)"
         style="fill:#ffffff;fill-opacity:1"><path
           inkscape:connector-curvature="0"
           d="m 0,0 v -6.247 c 0,-0.341 -0.139,-0.65 -0.363,-0.875 L -7.486,0 Z m -8.349,-6.247 c 0,-1.16 0.941,-2.101 2.103,-2.101 h 0.98 c 0.516,0 0.957,-0.314 1.145,-0.759 h 0.752 c 0.189,0.445 0.63,0.759 1.145,0.759 h 0.981 c 1.16,0 2.103,0.941 2.103,2.101 v 7.11 h -9.209 z"
           style="fill:#ffffff;fill-opacity:1;fill-rule:nonzero;stroke:none"
           id="path26" /></g><g
         id="g28"
         transform="translate(70.5332,87.3423)"
         style="fill:#ffffff;fill-opacity:1"><path
           inkscape:connector-curvature="0"
           d="M 0,0 C 0,0.537 0.435,0.972 0.974,0.972 1.511,0.972 1.947,0.537 1.947,0 1.947,-0.539 1.511,-0.974 0.974,-0.974 0.435,-0.974 0,-0.539 0,0 M 3.791,1.808 C 2.865,1.904 1.925,1.955 0.974,1.955 0.022,1.955 -0.918,1.904 -1.844,1.808 l 2.818,-16.016 z"
           style="fill:#ffffff;fill-opacity:1;fill-rule:nonzero;stroke:none"
           id="path30" /></g><g
         id="g32"
         transform="translate(80.6568,87.6997)"
         style="fill:#ffffff;fill-opacity:1"><path
           inkscape:connector-curvature="0"
           d="M 0,0 C -0.592,0.214 -1.196,0.403 -1.807,0.575 -1.661,0.5 -1.519,0.419 -1.382,0.325 L -1.827,-0.3 C -2.054,-0.147 -2.38,0.001 -2.579,0.051 -3.046,0.165 -3.26,0.039 -3.318,-0.2 c -0.036,-0.151 0.039,-0.308 0.451,-0.506 0.906,-0.452 1.071,-0.899 0.943,-1.426 -0.227,-0.924 -1.055,-1.096 -1.889,-0.891 -0.39,0.094 -0.775,0.282 -1.114,0.497 l 0.423,0.67 c 0.211,-0.127 0.561,-0.311 0.827,-0.374 0.303,-0.074 0.637,-0.093 0.724,0.26 0.085,0.346 -0.347,0.485 -0.753,0.723 -0.407,0.238 -0.795,0.574 -0.619,1.3 0.144,0.584 0.658,0.831 1.2,0.859 -0.77,0.176 -1.553,0.32 -2.347,0.429 L -6.57,-14.878 Z"
           style="fill:#ffffff;fill-opacity:1;fill-rule:nonzero;stroke:none"
           id="path34" /></g><g
         id="g36"
         transform="translate(91.3784,80.542)"
         style="fill:#ffffff;fill-opacity:1"><path
           inkscape:connector-curvature="0"
           d="m 0,0 c -0.672,0.733 -1.387,1.426 -2.135,2.081 l -1.938,-2.228 c 0.419,-0.37 0.826,-0.75 1.217,-1.145 l -0.606,-0.602 c -0.596,0.602 -1.223,1.166 -1.881,1.7 l 2.408,2.952 C -3.353,3.096 -3.782,3.42 -4.219,3.732 l -8.507,-13.849 z"
           style="fill:#ffffff;fill-opacity:1;fill-rule:nonzero;stroke:none"
           id="path38" /></g><g
         id="g40"
         transform="translate(92.8658,77.1045)"
         style="fill:#ffffff;fill-opacity:1"><path
           inkscape:connector-curvature="0"
           d="m 0,0 c 0.306,-0.442 0.195,-1.049 -0.246,-1.354 -0.443,-0.306 -1.049,-0.194 -1.355,0.249 -0.305,0.443 -0.195,1.047 0.248,1.353 C -0.911,0.554 -0.306,0.442 0,0 M 2.29,-1.843 C 1.384,-0.185 0.303,1.364 -0.919,2.787 L -12.492,-8.625 Z"
           style="fill:#ffffff;fill-opacity:1;fill-rule:nonzero;stroke:none"
           id="path42" /></g><g
         id="g44"
         transform="translate(97.5562,69.2266)"
         style="fill:#ffffff;fill-opacity:1"><path
           inkscape:connector-curvature="0"
           d="M 0,0 C -0.195,0.741 -0.422,1.47 -0.677,2.186 L -4.286,0.903 c -0.1,0.282 -0.214,0.578 -0.329,0.86 l 3.556,1.42 c -0.286,0.71 -0.6,1.404 -0.944,2.083 l -13.971,-8.31 z"
           style="fill:#ffffff;fill-opacity:1;fill-rule:nonzero;stroke:none"
           id="path46" /></g><g
         id="g48"
         transform="translate(97.7583,56.334)"
         style="fill:#ffffff;fill-opacity:1"><path
           inkscape:connector-curvature="0"
           d="M 0,0 C 0.14,0.612 0.265,1.23 0.362,1.857 0.305,1.701 0.24,1.547 0.162,1.396 l -0.676,0.367 c 0.125,0.243 0.235,0.585 0.258,0.792 0.057,0.474 -0.095,0.674 -0.336,0.701 -0.155,0.019 -0.302,-0.074 -0.45,-0.51 -0.34,-0.951 -0.764,-1.171 -1.3,-1.106 -0.946,0.114 -1.217,0.917 -1.115,1.768 0.048,0.399 0.186,0.803 0.359,1.162 L -2.379,4.234 C -2.48,4.01 -2.618,3.641 -2.65,3.369 -2.688,3.059 -2.668,2.725 -2.307,2.682 c 0.355,-0.043 0.442,0.402 0.627,0.836 0.189,0.429 0.474,0.857 1.218,0.767 0.6,-0.071 0.906,-0.556 0.997,-1.093 0.083,0.79 0.126,1.592 0.139,2.401 L -15.554,4.727 Z"
           style="fill:#ffffff;fill-opacity:1;fill-rule:nonzero;stroke:none"
           id="path50" /></g><g
         id="g52"
         transform="translate(95.5533,50.2256)"
         style="fill:#ffffff;fill-opacity:1"><path
           inkscape:connector-curvature="0"
           d="m 0,0 c 0.19,0.375 0.371,0.756 0.544,1.142 l -0.773,0.344 c 0.133,0.297 0.263,0.604 0.384,0.91 l -2.761,1.116 c 0.113,0.281 0.223,0.58 0.323,0.861 L 0.525,3.367 c 0.108,0.305 0.213,0.612 0.31,0.918 L 1.646,4.029 c 0.129,0.409 0.249,0.823 0.358,1.24 l -15.975,3.044 z"
           style="fill:#ffffff;fill-opacity:1;fill-rule:nonzero;stroke:none"
           id="path54" /></g><g
         id="g56"
         transform="translate(91.9468,44.8262)"
         style="fill:#ffffff;fill-opacity:1"><path
           inkscape:connector-curvature="0"
           d="m 0,0 c 0.494,0.576 0.965,1.173 1.41,1.789 l -3.099,2.242 c 0.174,0.244 0.355,0.51 0.52,0.76 L 2.022,2.669 C 2.443,3.305 2.841,3.958 3.208,4.63 l -14.781,6.781 z"
           style="fill:#ffffff;fill-opacity:1;fill-rule:nonzero;stroke:none"
           id="path58" /></g><g
         id="g60"
         transform="translate(87.1597,40.4444)"
         style="fill:#ffffff;fill-opacity:1"><path
           inkscape:connector-curvature="0"
           d="M 0,0 C 0.341,0.244 0.677,0.496 1.006,0.756 L 0.482,1.414 C 0.74,1.619 0.996,1.827 1.247,2.042 l -1.926,2.273 c 0.231,0.196 0.467,0.409 0.688,0.612 L 2.025,2.731 c 0.24,0.219 0.474,0.442 0.7,0.67 L 3.321,2.798 C 3.627,3.103 3.926,3.413 4.218,3.731 L -8.507,13.852 Z"
           style="fill:#ffffff;fill-opacity:1;fill-rule:nonzero;stroke:none"
           id="path62" /></g><g
         id="g64"
         transform="translate(81.4595,37.3291)"
         style="fill:#ffffff;fill-opacity:1"><path
           inkscape:connector-curvature="0"
           d="M 0,0 C 0.708,0.282 1.401,0.592 2.078,0.93 L 0.371,4.359 c 0.27,0.137 0.55,0.284 0.814,0.433 L 3.028,1.426 C 3.7,1.796 4.354,2.193 4.99,2.618 l -9.936,12.87 z"
           style="fill:#ffffff;fill-opacity:1;fill-rule:nonzero;stroke:none"
           id="path66" /></g><g
         id="g68"
         transform="translate(72.4805,37.377)"
         style="fill:#ffffff;fill-opacity:1"><path
           inkscape:connector-curvature="0"
           d="m 0,0 c 0,-0.537 -0.435,-0.973 -0.974,-0.973 -0.537,0 -0.974,0.436 -0.974,0.973 0,0.538 0.437,0.973 0.974,0.973 C -0.435,0.973 0,0.538 0,0 m -3.791,-1.808 c 0.926,-0.095 1.866,-0.146 2.817,-0.146 0.952,0 1.892,0.051 2.818,0.146 l -2.818,16.016 z"
           style="fill:#ffffff;fill-opacity:1;fill-rule:nonzero;stroke:none"
           id="path70" /></g><g
         id="g72"
         transform="translate(62.3565,37.0195)"
         style="fill:#ffffff;fill-opacity:1"><path
           inkscape:connector-curvature="0"
           d="M 0,0 C 0.72,-0.261 1.456,-0.489 2.203,-0.688 L 3.199,3.013 C 3.491,2.935 3.801,2.862 4.097,2.796 L 3.248,-0.94 C 3.979,-1.104 4.72,-1.238 5.472,-1.341 L 6.57,14.878 Z"
           style="fill:#ffffff;fill-opacity:1;fill-rule:nonzero;stroke:none"
           id="path74" /></g><g
         id="g76"
         transform="translate(56.5645,39.9463)"
         style="fill:#ffffff;fill-opacity:1"><path
           inkscape:connector-curvature="0"
           d="M 0,0 C 0.826,-0.552 1.687,-1.055 2.573,-1.514 L 3.935,1.123 C 3.439,1.379 2.954,1.65 2.479,1.939 L 2.922,2.671 C 3.645,2.23 4.391,1.832 5.157,1.473 L 3.524,-1.985 c 0.48,-0.226 0.97,-0.435 1.465,-0.632 l 4.947,15.488 z"
           style="fill:#ffffff;fill-opacity:1;fill-rule:nonzero;stroke:none"
           id="path78" /></g><g
         id="g80"
         transform="translate(51.6343,44.1768)"
         style="fill:#ffffff;fill-opacity:1"><path
           inkscape:connector-curvature="0"
           d="M 0,0 C 0.672,-0.734 1.387,-1.427 2.136,-2.082 L 4.087,0.147 C 3.668,0.515 3.262,0.894 2.869,1.29 L 3.475,1.894 C 4.071,1.292 4.7,0.726 5.357,0.194 L 2.949,-2.77 c 0.413,-0.334 0.837,-0.653 1.269,-0.962 l 8.509,13.851 z"
           style="fill:#ffffff;fill-opacity:1;fill-rule:nonzero;stroke:none"
           id="path82" /></g><g
         id="g84"
         transform="translate(45.4546,55.4942)"
         style="fill:#ffffff;fill-opacity:1"><path
           inkscape:connector-curvature="0"
           d="m 0,0 c 0.163,-0.618 0.351,-1.226 0.556,-1.825 -0.021,0.161 -0.035,0.324 -0.036,0.49 l 0.769,-0.014 c 0.003,-0.271 0.065,-0.623 0.139,-0.818 0.17,-0.447 0.396,-0.553 0.625,-0.463 0.146,0.055 0.231,0.205 0.16,0.658 -0.143,1.002 0.131,1.391 0.637,1.584 0.89,0.34 1.5,-0.242 1.807,-1.045 0.144,-0.375 0.21,-0.796 0.225,-1.197 L 4.089,-2.667 C 4.074,-2.421 4.025,-2.026 3.927,-1.772 3.816,-1.479 3.641,-1.194 3.303,-1.323 2.969,-1.45 3.1,-1.886 3.135,-2.354 3.171,-2.825 3.116,-3.335 2.418,-3.601 c -0.564,-0.215 -1.06,0.069 -1.391,0.498 0.295,-0.738 0.62,-1.46 0.977,-2.166 l 13.972,8.314 z"
           style="fill:#ffffff;fill-opacity:1;fill-rule:nonzero;stroke:none"
           id="path86" /></g><g
         id="g88"
         transform="translate(44.5796,61.9268)"
         style="fill:#ffffff;fill-opacity:1"><path
           inkscape:connector-curvature="0"
           d="m 0,0 c 0.007,-0.427 0.022,-0.853 0.049,-1.274 l 0.838,0.052 C 0.908,-1.548 0.936,-1.878 0.97,-2.208 l 2.964,0.299 C 3.966,-2.208 4.006,-2.526 4.049,-2.823 L 1.095,-3.239 C 1.141,-3.558 1.192,-3.878 1.249,-4.194 L 0.42,-4.345 C 0.495,-4.764 0.58,-5.18 0.674,-5.593 l 15.556,4.727 z"
           style="fill:#ffffff;fill-opacity:1;fill-rule:nonzero;stroke:none"
           id="path90" /></g><g
         id="g92"
         transform="translate(50.3946,75.75)"
         style="fill:#ffffff;fill-opacity:1"><path
           inkscape:connector-curvature="0"
           d="M 0,0 C -0.442,0.306 -0.553,0.912 -0.247,1.354 0.059,1.797 0.664,1.908 1.106,1.603 1.549,1.297 1.66,0.692 1.354,0.249 1.048,-0.193 0.443,-0.306 0,0 M 0.671,4.143 C -0.551,2.719 -1.631,1.17 -2.538,-0.488 l 14.783,-6.783 z"
           style="fill:#ffffff;fill-opacity:1;fill-rule:nonzero;stroke:none"
           id="path94" /></g><g
         id="g96"
         transform="translate(67.8286,89.0405)"
         style="fill:#ffffff;fill-opacity:1"><path
           inkscape:connector-curvature="0"
           d="m 0,0 c -0.633,-0.087 -1.26,-0.191 -1.878,-0.32 0.167,0.002 0.335,-0.005 0.504,-0.025 l -0.103,-0.761 c -0.273,0.029 -0.629,0.01 -0.829,-0.04 -0.466,-0.115 -0.598,-0.326 -0.539,-0.564 0.037,-0.152 0.179,-0.254 0.635,-0.24 1.011,0.022 1.366,-0.297 1.497,-0.823 0.23,-0.925 -0.424,-1.461 -1.257,-1.669 -0.39,-0.096 -0.818,-0.109 -1.217,-0.076 l 0.062,0.79 c 0.245,-0.013 0.641,-0.013 0.906,0.052 0.304,0.076 0.608,0.214 0.522,0.568 -0.087,0.345 -0.534,0.269 -1.004,0.289 -0.471,0.021 -0.971,0.139 -1.152,0.864 -0.147,0.593 0.207,1.055 0.685,1.33 -0.783,-0.205 -1.551,-0.443 -2.304,-0.715 l 6.57,-14.879 z"
           style="fill:#ffffff;fill-opacity:1;fill-rule:nonzero;stroke:none"
           id="path98" /></g><g
         id="g100"
         transform="translate(86.4497,84.771)"
         style="fill:#ffffff;fill-opacity:1"><path
           inkscape:connector-curvature="0"
           d="m 0,0 c -0.572,0.383 -1.162,0.741 -1.765,1.08 0.621,-0.642 0.699,-1.534 0.288,-2.317 -0.522,-0.994 -1.63,-1.449 -2.79,-0.842 -1.166,0.612 -1.42,1.784 -0.899,2.777 0.415,0.789 1.201,1.231 2.091,1.074 C -3.7,2.079 -4.339,2.359 -4.99,2.619 l -4.946,-15.491 z"
           style="fill:#ffffff;fill-opacity:1;fill-rule:nonzero;stroke:none"
           id="path102" /></g><g
         id="g104"
         transform="translate(82.2041,84.9878)"
         style="fill:#ffffff;fill-opacity:1"><path
           inkscape:connector-curvature="0"
           d="M 0,0 C -0.394,-0.75 -0.162,-1.315 0.347,-1.581 0.859,-1.85 1.457,-1.721 1.849,-0.973 2.243,-0.221 2.01,0.342 1.497,0.611 0.989,0.878 0.394,0.751 0,0"
           style="fill:#ffffff;fill-opacity:1;fill-rule:nonzero;stroke:none"
           id="path106" /></g><g
         id="g108"
         transform="translate(94.5122,64.5391)"
         style="fill:#ffffff;fill-opacity:1"><path
           inkscape:connector-curvature="0"
           d="M 0,0 C -0.035,0.361 -0.074,0.719 -0.128,1.081 L 3.438,2.94 C 3.381,3.244 3.314,3.544 3.246,3.844 L -12.308,-0.883 3.92,-1.747 c -0.004,0.277 -0.008,0.555 -0.021,0.83 z"
           style="fill:#ffffff;fill-opacity:1;fill-rule:nonzero;stroke:none"
           id="path110" /></g><g
         id="g112"
         transform="translate(95.4361,65.209)"
         style="fill:#ffffff;fill-opacity:1"><path
           inkscape:connector-curvature="0"
           d="M 0,0 3.011,-0.607 2.782,1.278 -0.002,0.01 Z"
           style="fill:#ffffff;fill-opacity:1;fill-rule:nonzero;stroke:none"
           id="path114" /></g><g
         id="g116"
         transform="translate(61.5533,87.3892)"
         style="fill:#ffffff;fill-opacity:1"><path
           inkscape:connector-curvature="0"
           d="m 0,0 c -0.65,-0.259 -1.289,-0.539 -1.913,-0.846 0.886,0.154 1.669,-0.288 2.083,-1.076 0.521,-0.994 0.269,-2.163 -0.892,-2.775 -1.165,-0.609 -2.274,-0.154 -2.794,0.84 -0.412,0.782 -0.335,1.673 0.286,2.315 -0.601,-0.338 -1.188,-0.695 -1.759,-1.076 L 4.947,-15.49 Z"
           style="fill:#ffffff;fill-opacity:1;fill-rule:nonzero;stroke:none"
           id="path118" /></g><g
         id="g120"
         transform="translate(60.4541,83.4014)"
         style="fill:#ffffff;fill-opacity:1"><path
           inkscape:connector-curvature="0"
           d="M 0,0 C 0.513,0.271 0.746,0.834 0.352,1.584 -0.043,2.334 -0.639,2.463 -1.151,2.192 -1.66,1.926 -1.894,1.362 -1.5,0.611 -1.106,-0.137 -0.51,-0.266 0,0"
           style="fill:#ffffff;fill-opacity:1;fill-rule:nonzero;stroke:none"
           id="path122" /></g><g
         id="g124"
         transform="translate(55.8526,84.2735)"
         style="fill:#ffffff;fill-opacity:1"><path
           inkscape:connector-curvature="0"
           d="m 0,0 c -0.245,-0.175 -0.487,-0.353 -0.726,-0.536 l 2.28,-3.068 C 1.283,-3.813 1.016,-4.027 0.755,-4.248 l -2.806,0.928 1.773,-1.854 c -0.202,-0.193 -0.4,-0.387 -0.595,-0.588 l -2.736,2.668 C -3.815,-3.305 -4.02,-3.516 -4.218,-3.732 L 8.509,-13.849 Z"
           style="fill:#ffffff;fill-opacity:1;fill-rule:nonzero;stroke:none"
           id="path126" /></g><g
         id="g128"
         transform="translate(54.2823,83.1904)"
         style="fill:#ffffff;fill-opacity:1"><path
           inkscape:connector-curvature="0"
           d="M 0,0 -1.198,-1.061 1.641,-2.01 Z"
           style="fill:#ffffff;fill-opacity:1;fill-rule:nonzero;stroke:none"
           id="path130" /></g><g
         id="g132"
         transform="translate(47.4585,74.4912)"
         style="fill:#ffffff;fill-opacity:1"><path
           inkscape:connector-curvature="0"
           d="M 0,0 C -0.329,-0.649 -0.632,-1.313 -0.908,-1.992 L 3.227,-2.105 C 3.073,-2.424 2.926,-2.75 2.786,-3.074 L 1.88,-3.033 C 1.708,-3.449 1.549,-3.871 1.401,-4.299 l 0.707,-0.57 C 2,-5.193 1.9,-5.521 1.807,-5.854 l -3.135,2.768 C -1.582,-3.8 -1.808,-4.525 -2.002,-5.265 l 15.974,-3.044 z"
           style="fill:#ffffff;fill-opacity:1;fill-rule:nonzero;stroke:none"
           id="path134" /></g><g
         id="g136"
         transform="translate(46.9991,71.6631)"
         style="fill:#ffffff;fill-opacity:1"><path
           inkscape:connector-curvature="0"
           d="m 0,0 -0.004,-0.012 1.248,-0.959 c 0.101,0.284 0.208,0.561 0.319,0.842 z"
           style="fill:#ffffff;fill-opacity:1;fill-rule:nonzero;stroke:none"
           id="path138" /></g><g
         id="g140"
         transform="translate(45.2539,68.3828)"
         style="fill:#ffffff;fill-opacity:1"><path
           inkscape:connector-curvature="0"
           d="m 0,0 c -0.188,-0.822 -0.338,-1.659 -0.449,-2.509 0.141,0.645 0.507,1.133 1.123,1.088 C 1.247,-1.46 1.609,-1.847 1.621,-2.46 L 1.64,-2.464 c 0.149,0.176 0.283,0.244 0.524,0.381 0.378,0.219 1.428,0.582 1.428,0.582 -0.086,-0.353 -0.139,-0.687 -0.189,-1.033 0,0 -0.612,-0.166 -0.897,-0.273 C 2.159,-2.932 1.835,-3.137 1.786,-3.402 1.775,-3.455 1.772,-3.518 1.769,-3.551 L 3.263,-3.697 C 3.232,-4.002 3.208,-4.307 3.189,-4.613 l -3.82,0.221 c -0.024,-0.397 -0.036,-0.797 -0.043,-1.199 l 16.23,0.864 z"
           style="fill:#ffffff;fill-opacity:1;fill-rule:nonzero;stroke:none"
           id="path142" /></g><g
         id="g144"
         transform="translate(45.9839,65.958)"
         style="fill:#ffffff;fill-opacity:1"><path
           inkscape:connector-curvature="0"
           d="m 0,0 c -0.316,0.037 -0.515,-0.134 -0.559,-0.533 -0.016,-0.146 -0.019,-0.29 -0.036,-0.448 L 0.36,-1.077 c 0.013,0.133 0.031,0.291 0.047,0.431 C 0.435,-0.408 0.387,-0.044 0,0"
           style="fill:#ffffff;fill-opacity:1;fill-rule:nonzero;stroke:none"
           id="path146" /></g><g
         id="g148"
         transform="translate(47.8575,49.4561)"
         style="fill:#ffffff;fill-opacity:1"><path
           inkscape:connector-curvature="0"
           d="M 0,0 C 0.137,-0.251 0.282,-0.496 0.426,-0.742 L 4.301,0.262 C 4.499,-0.042 4.704,-0.341 4.917,-0.634 L 2.628,-3.933 C 2.817,-4.169 3.011,-4.4 3.208,-4.63 L 14.782,6.781 Z"
           style="fill:#ffffff;fill-opacity:1;fill-rule:nonzero;stroke:none"
           id="path150" /></g><g
         id="g152"
         transform="translate(51.6534,48.6934)"
         style="fill:#ffffff;fill-opacity:1"><path
           inkscape:connector-curvature="0"
           d="m 0,0 -2.942,-0.864 1.074,-1.556 1.874,2.412 z"
           style="fill:#ffffff;fill-opacity:1;fill-rule:nonzero;stroke:none"
           id="path154" /></g><g
         id="g156"
         transform="translate(74.0869,51.8975)"
         style="fill:#ffffff;fill-opacity:1"><path
           inkscape:connector-curvature="0"
           d="m 0,0 1.098,-16.219 c 0.274,0.037 0.548,0.079 0.819,0.124 l -0.136,0.833 c 0.52,0.088 1.037,0.192 1.617,0.326 l -0.163,0.649 C 2.71,-14.406 2.259,-14.5 1.792,-14.58 l -0.126,0.758 c 0.443,0.078 0.884,0.168 1.384,0.283 l -0.168,0.664 C 2.351,-13 1.874,-13.094 1.396,-13.174 l -0.141,0.842 c 0.78,0.131 1.553,0.303 2.316,0.516 l 0.294,-1.008 c 0.415,0.115 0.826,0.244 1.235,0.383 l 0.146,0.562 z"
           style="fill:#ffffff;fill-opacity:1;fill-rule:nonzero;stroke:none"
           id="path158" /></g><g
         id="g160"
         transform="translate(78.5137,36.9756)"
         style="fill:#ffffff;fill-opacity:1"><path
           inkscape:connector-curvature="0"
           d="M 0,0 0.049,0.012 0.471,1.6 C 0.194,1.514 -0.103,1.426 -0.369,1.352 Z"
           style="fill:#ffffff;fill-opacity:1;fill-rule:nonzero;stroke:none"
           id="path162" /></g><g
         id="g164"
         transform="translate(79.2212,36.4385)"
         style="fill:#ffffff;fill-opacity:1"><path
           inkscape:connector-curvature="0"
           d="M 0,0 1.526,0.377 0.702,2.243 Z"
           style="fill:#ffffff;fill-opacity:1;fill-rule:nonzero;stroke:none"
           id="path166" /></g></g></g></svg>