<?xml version="1.0" encoding="UTF-8" standalone="no"?>
<!-- Generator: Adobe Illustrator 22.0.0, SVG Export Plug-In . SVG Version: 6.00 Build 0)  -->

<svg
   xmlns:dc="http://purl.org/dc/elements/1.1/"
   xmlns:cc="http://creativecommons.org/ns#"
   xmlns:rdf="http://www.w3.org/1999/02/22-rdf-syntax-ns#"
   xmlns:svg="http://www.w3.org/2000/svg"
   xmlns="http://www.w3.org/2000/svg"
   xmlns:sodipodi="http://sodipodi.sourceforge.net/DTD/sodipodi-0.dtd"
   xmlns:inkscape="http://www.inkscape.org/namespaces/inkscape"
   version="1.1"
   id="Layer_1"
   x="0px"
   y="0px"
   viewBox="0 0 899.898 309.554"
   style="enable-background:new 0 0 899.898 309.554;"
   xml:space="preserve"
   sodipodi:docname="wellcome-sanger-institute.svg"
   inkscape:version="0.92.3 (2405546, 2018-03-11)"><metadata
   id="metadata97"><rdf:RDF><cc:Work
       rdf:about=""><dc:format>image/svg+xml</dc:format><dc:type
         rdf:resource="http://purl.org/dc/dcmitype/StillImage" /><dc:title></dc:title></cc:Work></rdf:RDF></metadata><defs
   id="defs95">
	
	

		
		
		
		
		
		
		
		
		
		
		
		
		
		
		
		
		
		
		
		
		
		
		
	
		
		
		
		
		
		
		
		
		
		
		
		
		
		
		
		
	
			
			
			
		</defs><sodipodi:namedview
   pagecolor="#ffffff"
   bordercolor="#666666"
   borderopacity="1"
   objecttolerance="10"
   gridtolerance="10"
   guidetolerance="10"
   inkscape:pageopacity="0"
   inkscape:pageshadow="2"
   inkscape:window-width="1235"
   inkscape:window-height="915"
   id="namedview93"
   showgrid="false"
   inkscape:pagecheckerboard="true"
   inkscape:zoom="0.59403701"
   inkscape:cx="509.05718"
   inkscape:cy="156.52444"
   inkscape:window-x="2901"
   inkscape:window-y="288"
   inkscape:window-maximized="0"
   inkscape:current-layer="Layer_1" />
<path
   d="m 402.07,133.762 c -0.171,-2.906 -1.71,-5.129 -3.933,-6.669 -2.053,-1.708 -4.788,-2.564 -7.525,-2.564 -4.788,0 -10.26,1.028 -10.26,6.841 0,2.564 2.052,3.763 3.933,4.617 5.642,2.393 18.468,3.079 29.754,6.841 11.286,3.592 21.206,10.26 21.206,24.795 0,24.624 -23.599,31.294 -45.146,31.294 -20.862,0 -43.777,-8.379 -44.29,-31.294 h 32.32 c 0.171,3.078 1.539,5.642 4.105,7.867 1.709,1.537 4.958,2.564 9.063,2.564 4.446,0 11.456,-1.71 11.456,-6.841 0,-5.13 -2.907,-6.669 -18.639,-9.404 -25.821,-4.447 -36.251,-12.656 -36.251,-27.875 0,-22.402 24.11,-28.215 41.895,-28.215 19.153,0 42.238,5.3 43.093,28.044 H 402.07 Z"
   id="path2"
   inkscape:connector-curvature="0"
   style="fill:#ffffff;fill-opacity:1" /><path
   d="m 525.516,176.854 c 0,6.671 0.342,14.195 4.104,19.837 h -34.542 c -0.855,-2.393 -1.368,-5.984 -1.196,-8.38 h -0.343 c -7.181,8.209 -17.613,10.602 -28.557,10.602 -17.101,0 -31.294,-8.206 -31.294,-26.846 0,-28.045 32.833,-27.019 50.103,-30.269 4.617,-0.854 9.234,-2.221 9.234,-7.866 0,-5.984 -5.643,-8.209 -11.115,-8.209 -10.431,0 -12.482,5.301 -12.655,9.064 h -31.463 c 1.026,-24.966 24.624,-29.07 45.659,-29.07 42.408,0 42.066,17.613 42.066,34.713 z m -32.491,-20.006 c -4.104,2.051 -8.721,3.25 -13.338,4.276 -7.523,1.708 -11.457,3.591 -11.457,9.575 0,4.104 4.446,8.209 10.602,8.209 7.696,0 13.681,-4.618 14.193,-13.852 z"
   id="path4"
   inkscape:connector-curvature="0"
   style="fill:#ffffff;fill-opacity:1" /><path
   d="m 533.179,107.94 h 32.662 v 11.286 h 0.342 c 6.326,-8.891 15.389,-13.507 28.899,-13.507 15.903,0 30.438,9.746 30.438,30.096 v 60.877 h -33.858 v -46.513 c 0,-10.26 -1.197,-17.441 -11.115,-17.441 -5.814,0 -13.51,2.906 -13.51,17.101 v 46.854 h -33.858 z"
   id="path6"
   inkscape:connector-curvature="0"
   style="fill:#ffffff;fill-opacity:1" /><path
   d="m 724.327,185.235 c 0,17.613 -4.617,42.41 -46.171,42.41 -21.033,0 -43.264,-5.644 -46.342,-29.584 h 33.516 c 0.342,0.854 1.197,2.051 1.882,3.078 2.052,3.078 5.643,6.497 9.918,6.497 10.944,0 13.339,-12.994 13.339,-20.348 v -8.209 h -0.343 c -5.472,7.867 -13.679,12.311 -23.769,12.311 -26.163,0 -37.963,-19.494 -37.963,-43.264 0,-23.083 13.168,-42.408 38.476,-42.408 9.918,0 19.323,3.934 23.256,12.996 h 0.343 V 107.94 h 33.858 z m -46.855,-15.563 c 12.484,0 13.851,-11.968 13.851,-21.887 0,-9.747 -4.788,-17.443 -14.706,-17.443 -9.576,0 -14.364,8.209 -14.364,17.613 0,10.09 3.077,21.717 15.219,21.717"
   id="path8"
   inkscape:connector-curvature="0"
   style="fill:#ffffff;fill-opacity:1" /><path
   d="m 759.743,159.925 c 0.855,10.089 6.669,17.27 17.272,17.27 5.472,0 11.457,-2.05 14.193,-6.326 h 31.636 c -6.841,19.153 -25.479,28.045 -45.657,28.045 -28.388,0 -49.763,-16.759 -49.763,-46.342 0,-25.821 18.811,-46.855 46.855,-46.855 35.226,0 50.447,19.666 50.447,54.207 z m 32.489,-17.613 c 0,-8.208 -6.155,-14.877 -14.876,-14.877 -10.09,0 -15.905,5.302 -17.443,14.877 z"
   id="path10"
   inkscape:connector-curvature="0"
   style="fill:#ffffff;fill-opacity:1" /><path
   d="m 828.126,107.94 h 32.491 v 14.193 h 0.342 c 5.472,-10.601 12.655,-16.414 24.966,-16.414 3.42,0 6.669,0.513 9.918,1.367 v 29.925 c -3.42,-1.196 -6.498,-2.222 -13.338,-2.222 -13.339,0 -20.52,7.867 -20.52,26.848 v 35.055 h -33.859 z"
   id="path12"
   inkscape:connector-curvature="0"
   style="fill:#ffffff;fill-opacity:1" /><path
   d="m 365.704,224.744 h -12.296 v -8.633 h 12.296 z m -12.297,3.476 h 12.296 v 32.231 h -12.296 z"
   id="path14"
   inkscape:connector-curvature="0"
   style="fill:#ffffff;fill-opacity:1" /><path
   d="m 368.687,228.221 h 11.862 v 4.099 h 0.125 c 2.297,-3.23 5.59,-4.907 10.495,-4.907 5.776,0 11.054,3.539 11.054,10.929 v 22.11 h -12.296 v -16.891 c 0,-3.727 -0.435,-6.335 -4.036,-6.335 -2.112,0 -4.907,1.056 -4.907,6.211 v 17.014 h -12.296 z"
   id="path16"
   inkscape:connector-curvature="0"
   style="fill:#ffffff;fill-opacity:1" /><path
   d="m 423.792,237.598 c -0.061,-1.056 -0.621,-1.862 -1.428,-2.42 -0.744,-0.623 -1.739,-0.934 -2.732,-0.934 -1.74,0 -3.727,0.373 -3.727,2.484 0,0.933 0.745,1.366 1.428,1.677 2.05,0.87 6.707,1.117 10.806,2.485 4.1,1.305 7.701,3.727 7.701,9.005 0,8.942 -8.57,11.365 -16.395,11.365 -7.576,0 -15.898,-3.044 -16.083,-11.365 h 11.736 c 0.062,1.116 0.559,2.049 1.491,2.855 0.622,0.561 1.802,0.933 3.291,0.933 1.616,0 4.161,-0.622 4.161,-2.483 0,-1.864 -1.055,-2.425 -6.769,-3.417 -9.377,-1.614 -13.165,-4.596 -13.165,-10.122 0,-8.136 8.757,-10.249 15.215,-10.249 6.955,0 15.34,1.926 15.65,10.185 h -11.18 z"
   id="path18"
   inkscape:connector-curvature="0"
   style="fill:#ffffff;fill-opacity:1" /><path
   d="m 452.075,228.221 h 6.582 v 7.576 h -6.582 v 11.24 c 0,2.983 0.683,4.286 3.788,4.286 0.931,0 1.863,-0.062 2.794,-0.187 v 9.316 c -2.483,0 -5.279,0.372 -7.887,0.372 -5.216,0 -10.992,-0.807 -10.992,-9.625 v -15.403 h -5.465 v -7.576 h 5.465 v -9.811 h 12.297 z"
   id="path20"
   inkscape:connector-curvature="0"
   style="fill:#ffffff;fill-opacity:1" /><path
   d="m 472.938,224.744 h -12.296 v -8.633 h 12.296 z m -12.298,3.476 h 12.296 v 32.231 H 460.64 Z"
   id="path22"
   inkscape:connector-curvature="0"
   style="fill:#ffffff;fill-opacity:1" /><path
   d="m 492.559,228.221 h 6.582 v 7.576 h -6.582 v 11.24 c 0,2.983 0.682,4.286 3.788,4.286 0.931,0 1.863,-0.062 2.794,-0.187 v 9.316 c -2.483,0 -5.279,0.372 -7.887,0.372 -5.217,0 -10.992,-0.807 -10.992,-9.625 v -15.403 h -5.466 v -7.576 h 5.466 v -9.811 h 12.297 z"
   id="path24"
   inkscape:connector-curvature="0"
   style="fill:#ffffff;fill-opacity:1" /><path
   d="m 534.413,260.453 h -11.861 v -4.099 h -0.125 c -2.297,3.23 -5.59,4.907 -10.496,4.907 -5.774,0 -11.054,-3.539 -11.054,-10.929 v -22.11 h 12.296 v 16.891 c 0,3.727 0.435,6.335 4.038,6.335 2.111,0 4.905,-1.056 4.905,-6.211 v -17.014 h 12.297 z"
   id="path26"
   inkscape:connector-curvature="0"
   style="fill:#ffffff;fill-opacity:1" /><path
   d="m 552.25,228.221 h 6.582 v 7.576 h -6.582 v 11.24 c 0,2.983 0.682,4.286 3.788,4.286 0.931,0 1.863,-0.062 2.794,-0.187 v 9.316 c -2.483,0 -5.279,0.372 -7.887,0.372 -5.218,0 -10.992,-0.807 -10.992,-9.625 v -15.403 h -5.466 v -7.576 h 5.466 v -9.811 h 12.297 z"
   id="path28"
   inkscape:connector-curvature="0"
   style="fill:#ffffff;fill-opacity:1" /><path
   d="m 570.938,247.101 c 0.31,3.664 2.422,6.271 6.272,6.271 1.988,0 4.161,-0.744 5.154,-2.296 h 11.489 c -2.483,6.953 -9.253,10.185 -16.58,10.185 -10.309,0 -18.072,-6.088 -18.072,-16.831 0,-9.376 6.831,-17.018 17.016,-17.018 12.793,0 18.32,7.144 18.32,19.689 z m 11.8,-6.398 c 0,-2.981 -2.236,-5.402 -5.402,-5.402 -3.666,0 -5.777,1.925 -6.335,5.402 z"
   id="path30"
   inkscape:connector-curvature="0"
   style="fill:#ffffff;fill-opacity:1" /><path
   inkscape:connector-curvature="0"
   id="path32"
   d="m 432.066,59.57 c -2.206,-7.384 -7.654,-11.458 -16.953,-11.458 -7.174,0 -12.642,3.641 -15.41,9.008 l 2.538,-8.176 H 389.49 L 384.942,69.6 h -0.25 L 380.313,48.945 H 368.828 L 364.699,69.6 h -0.19 l -4.866,-20.655 h -12.737 l 10.111,33.209 h 12.554 l 4.866,-20.547 h 0.19 l 4.738,20.547 h 12.561 l 5.962,-19.193 c -0.122,0.88 -0.203,1.773 -0.203,2.687 0,11.065 7.634,17.339 17.989,17.339 7.126,0 13.563,-2.958 16.392,-9.299 v 8.466 h 12.175 V 36.465 h -12.175 z m -16.39,-3.529 c 3.567,0 5.875,2.565 5.875,5.895 h -12.182 c 0.622,-3.851 2.808,-5.895 6.307,-5.895 z m 16.392,16.632 h -10.964 c -1.062,1.611 -3.303,2.375 -5.306,2.375 -3.986,0 -6.166,-2.761 -6.484,-6.72 h 22.753 v 4.345 z"
   style="fill:#ffffff;fill-opacity:1" /><path
   inkscape:connector-curvature="0"
   id="path34"
   d="m 598.608,75.048 c -4.007,0 -6.179,-2.761 -6.491,-6.721 h 23.911 c -0.054,-12.859 -5.617,-20.215 -18.11,-20.215 -8.69,0 -14.869,5.333 -16.784,12.615 v -1.414 c 0,-5.38 -2.802,-11.201 -11.058,-11.201 -4.799,0 -7.749,1.719 -9.435,3.384 -0.176,0.197 -0.365,0.393 -0.487,0.575 -0.63,0.65 -0.948,1.096 -1.191,1.354 -1.556,-3.458 -5.312,-5.313 -8.744,-5.313 -4.494,0 -8.114,1.408 -10.673,5.313 h -0.197 v -4.48 h -11.803 v 16.568 16.642 h 12.182 v -17.99 c 0,-3.512 1.062,-6.132 4.311,-6.132 3.932,0 4.175,2.998 4.175,6.132 v 17.989 h 12.25 V 64.165 c 0,-3.512 1.056,-6.132 4.298,-6.132 3.878,0 4.189,2.998 4.189,6.132 v 17.989 h 12.182 v -11.37 c 2.01,7.837 8.717,12.202 17.346,12.202 7.499,0 14.246,-3.262 16.805,-10.314 H 603.9 c -1.049,1.611 -3.296,2.376 -5.292,2.376 z m -0.127,-19.007 c 3.56,0 5.854,2.565 5.854,5.895 h -12.162 c 0.629,-3.851 2.815,-5.895 6.308,-5.895 z"
   style="fill:#ffffff;fill-opacity:1" /><path
   inkscape:connector-curvature="0"
   id="path36"
   d="m 509.875,48.112 c -9.096,0 -14.463,4.575 -16.601,10.727 -1.787,-7.465 -8.608,-10.727 -15.796,-10.727 -9.042,0 -15.918,5.367 -17.468,13.752 V 36.465 H 447.828 V 82.154 H 460.01 V 69.627 c 1.53,8.812 8.189,13.36 17.095,13.36 7.614,0 13.888,-3.79 16.209,-10.68 2.166,6.118 7.519,10.68 16.561,10.68 12.175,0 17.671,-8.257 17.671,-17.474 0,-9.205 -5.495,-17.401 -17.671,-17.401 z m -27.458,20.911 c -0.325,2.694 -1.996,4.934 -5.184,4.934 -3.932,0 -5.374,-3.066 -5.374,-8.385 0,-4.034 0.995,-8.439 5.624,-8.439 2.876,0 4.609,1.922 4.609,5.251 h 10.335 c -0.149,1.022 -0.23,2.071 -0.23,3.127 0,1.191 0.095,2.369 0.284,3.512 z m 27.46,4.936 c -4.805,0 -5.502,-4.866 -5.502,-8.447 0,-3.58 0.697,-8.378 5.502,-8.378 4.798,0 5.489,4.798 5.489,8.378 0,3.581 -0.69,8.447 -5.489,8.447 z"
   style="fill:#ffffff;fill-opacity:1" /><path
   d="M 21.814,72.84 H 9.369 c -1.912,0 -3.462,-1.55 -3.462,-3.462 V 56.934 c 0,-1.912 1.55,-3.462 3.462,-3.462 h 12.444 c 1.912,0 3.462,1.55 3.462,3.462 v 12.444 c 0,1.912 -1.549,3.462 -3.461,3.462 z"
   id="path42"
   inkscape:connector-curvature="0"
   style="fill:#ffffff;fill-opacity:1" /><path
   d="m 164.38,80.372 h -22.123 c -3.399,0 -6.154,-2.755 -6.154,-6.154 V 52.094 c 0,-3.399 2.755,-6.154 6.154,-6.154 h 22.123 c 3.399,0 6.154,2.755 6.154,6.154 v 22.123 c 0,3.399 -2.755,6.155 -6.154,6.155 z"
   id="path44"
   inkscape:connector-curvature="0"
   style="fill:#ffffff;fill-opacity:1" /><path
   d="m 207.523,30.159 h -16.592 c -2.549,0 -4.616,-2.066 -4.616,-4.616 V 8.951 c 0,-2.549 2.066,-4.616 4.616,-4.616 h 16.592 c 2.549,0 4.616,2.066 4.616,4.616 v 16.592 c 0,2.549 -2.067,4.616 -4.616,4.616 z"
   id="path46"
   inkscape:connector-curvature="0"
   style="fill:#ffffff;fill-opacity:1" /><path
   d="m 210.289,80.372 h -22.123 c -3.399,0 -6.154,-2.755 -6.154,-6.154 V 52.094 c 0,-3.399 2.755,-6.154 6.154,-6.154 h 22.123 c 3.399,0 6.154,2.755 6.154,6.154 v 22.123 c 0,3.399 -2.756,6.155 -6.154,6.155 z"
   id="path48"
   inkscape:connector-curvature="0"
   style="fill:#ffffff;fill-opacity:1" /><path
   d="m 251.358,26.931 h -12.444 c -1.912,0 -3.462,-1.55 -3.462,-3.462 V 11.025 c 0,-1.912 1.55,-3.462 3.462,-3.462 h 12.444 c 1.912,0 3.462,1.55 3.462,3.462 v 12.444 c 0,1.912 -1.55,3.462 -3.462,3.462 z"
   id="path50"
   inkscape:connector-curvature="0"
   style="fill:#ffffff;fill-opacity:1" /><path
   d="m 299.341,76.068 h -16.592 c -2.549,0 -4.616,-2.066 -4.616,-4.616 V 54.86 c 0,-2.549 2.066,-4.616 4.616,-4.616 h 16.592 c 2.549,0 4.616,2.066 4.616,4.616 v 16.592 c 0,2.549 -2.067,4.616 -4.616,4.616 z"
   id="path52"
   inkscape:connector-curvature="0"
   style="fill:#ffffff;fill-opacity:1" /><path
   d="M 23.888,167.885 H 7.295 c -2.549,0 -4.616,-2.066 -4.616,-4.616 v -16.592 c 0,-2.549 2.066,-4.616 4.616,-4.616 h 16.592 c 2.549,0 4.616,2.066 4.616,4.616 v 16.592 c 0,2.55 -2.066,4.616 -4.615,4.616 z"
   id="path54"
   inkscape:connector-curvature="0"
   style="fill:#ffffff;fill-opacity:1" /><path
   d="M 72.562,126.28 H 50.439 c -3.399,0 -6.154,-2.755 -6.154,-6.154 V 98.003 c 0,-3.399 2.755,-6.154 6.154,-6.154 h 22.123 c 3.399,0 6.154,2.755 6.154,6.154 v 22.123 c 0,3.399 -2.755,6.154 -6.154,6.154 z"
   id="path56"
   inkscape:connector-curvature="0"
   style="fill:#ffffff;fill-opacity:1" /><path
   d="M 72.562,172.189 H 50.439 c -3.399,0 -6.154,-2.755 -6.154,-6.154 v -22.123 c 0,-3.399 2.755,-6.154 6.154,-6.154 h 22.123 c 3.399,0 6.154,2.755 6.154,6.154 v 22.123 c 0,3.399 -2.755,6.154 -6.154,6.154 z"
   id="path58"
   inkscape:connector-curvature="0"
   style="fill:#ffffff;fill-opacity:1" /><path
   d="M 120.683,175.632 H 94.135 c -4.079,0 -7.385,-3.306 -7.385,-7.385 v -26.548 c 0,-4.079 3.306,-7.385 7.385,-7.385 h 26.548 c 4.079,0 7.385,3.306 7.385,7.385 v 26.548 c 0,4.079 -3.306,7.385 -7.385,7.385 z"
   id="path60"
   inkscape:connector-curvature="0"
   style="fill:#ffffff;fill-opacity:1" /><path
   d="m 166.592,129.724 h -26.548 c -4.079,0 -7.385,-3.306 -7.385,-7.385 V 95.791 c 0,-4.079 3.306,-7.385 7.385,-7.385 h 26.548 c 4.079,0 7.385,3.306 7.385,7.385 v 26.548 c 0,4.078 -3.306,7.385 -7.385,7.385 z"
   id="path62"
   inkscape:connector-curvature="0"
   style="fill:#ffffff;fill-opacity:1" /><path
   d="m 166.592,175.632 h -26.548 c -4.079,0 -7.385,-3.306 -7.385,-7.385 v -26.548 c 0,-4.079 3.306,-7.385 7.385,-7.385 h 26.548 c 4.079,0 7.385,3.306 7.385,7.385 v 26.548 c 0,4.079 -3.306,7.385 -7.385,7.385 z"
   id="path64"
   inkscape:connector-curvature="0"
   style="fill:#ffffff;fill-opacity:1" /><path
   d="m 212.501,129.724 h -26.548 c -4.079,0 -7.385,-3.306 -7.385,-7.385 V 95.791 c 0,-4.079 3.306,-7.385 7.385,-7.385 h 26.548 c 4.079,0 7.385,3.306 7.385,7.385 v 26.548 c 0,4.078 -3.306,7.385 -7.385,7.385 z"
   id="path66"
   inkscape:connector-curvature="0"
   style="fill:#ffffff;fill-opacity:1" /><path
   d="m 256.197,172.189 h -22.123 c -3.399,0 -6.154,-2.755 -6.154,-6.154 v -22.123 c 0,-3.399 2.755,-6.154 6.154,-6.154 h 22.123 c 3.399,0 6.154,2.755 6.154,6.154 v 22.123 c 10e-4,3.399 -2.755,6.154 -6.154,6.154 z"
   id="path68"
   inkscape:connector-curvature="0"
   style="fill:#ffffff;fill-opacity:1" /><path
   d="M 72.562,264.007 H 50.439 c -3.399,0 -6.154,-2.755 -6.154,-6.154 V 235.73 c 0,-3.399 2.755,-6.154 6.154,-6.154 h 22.123 c 3.399,0 6.154,2.755 6.154,6.154 v 22.123 c 0,3.399 -2.755,6.154 -6.154,6.154 z"
   id="path70"
   inkscape:connector-curvature="0"
   style="fill:#ffffff;fill-opacity:1" /><path
   d="M 120.683,221.541 H 94.135 c -4.079,0 -7.385,-3.306 -7.385,-7.385 v -26.548 c 0,-4.079 3.306,-7.385 7.385,-7.385 h 26.548 c 4.079,0 7.385,3.306 7.385,7.385 v 26.548 c 0,4.079 -3.306,7.385 -7.385,7.385 z"
   id="path72"
   inkscape:connector-curvature="0"
   style="fill:#ffffff;fill-opacity:1" /><path
   d="m 164.38,264.007 h -22.123 c -3.399,0 -6.154,-2.755 -6.154,-6.154 V 235.73 c 0,-3.399 2.755,-6.154 6.154,-6.154 h 22.123 c 3.399,0 6.154,2.755 6.154,6.154 v 22.123 c 0,3.399 -2.755,6.154 -6.154,6.154 z"
   id="path74"
   inkscape:connector-curvature="0"
   style="fill:#ffffff;fill-opacity:1" /><path
   d="m 212.501,221.541 h -26.548 c -4.079,0 -7.385,-3.306 -7.385,-7.385 v -26.548 c 0,-4.079 3.306,-7.385 7.385,-7.385 h 26.548 c 4.079,0 7.385,3.306 7.385,7.385 v 26.548 c 0,4.079 -3.306,7.385 -7.385,7.385 z"
   id="path76"
   inkscape:connector-curvature="0"
   style="fill:#ffffff;fill-opacity:1" /><path
   d="m 210.289,264.007 h -22.123 c -3.399,0 -6.154,-2.755 -6.154,-6.154 V 235.73 c 0,-3.399 2.755,-6.154 6.154,-6.154 h 22.123 c 3.399,0 6.154,2.755 6.154,6.154 v 22.123 c 0,3.399 -2.756,6.154 -6.154,6.154 z"
   id="path78"
   inkscape:connector-curvature="0"
   style="fill:#ffffff;fill-opacity:1" /><path
   d="m 256.197,218.098 h -22.123 c -3.399,0 -6.154,-2.755 -6.154,-6.154 v -22.123 c 0,-3.399 2.755,-6.154 6.154,-6.154 h 22.123 c 3.399,0 6.154,2.755 6.154,6.154 v 22.123 c 10e-4,3.399 -2.755,6.154 -6.154,6.154 z"
   id="path80"
   inkscape:connector-curvature="0"
   style="fill:#ffffff;fill-opacity:1" /><path
   d="m 297.267,256.475 h -12.444 c -1.912,0 -3.462,-1.55 -3.462,-3.462 v -12.444 c 0,-1.912 1.55,-3.462 3.462,-3.462 h 12.444 c 1.912,0 3.462,1.55 3.462,3.462 v 12.444 c 0,1.912 -1.55,3.462 -3.462,3.462 z"
   id="path82"
   inkscape:connector-curvature="0"
   style="fill:#ffffff;fill-opacity:1" /><path
   d="M 21.814,302.384 H 9.369 c -1.912,0 -3.462,-1.55 -3.462,-3.462 v -12.444 c 0,-1.912 1.55,-3.462 3.462,-3.462 h 12.444 c 1.912,0 3.462,1.55 3.462,3.462 v 12.444 c 0,1.912 -1.549,3.462 -3.461,3.462 z"
   id="path84"
   inkscape:connector-curvature="0"
   style="fill:#ffffff;fill-opacity:1" /><path
   d="M 253.432,305.612 H 236.84 c -2.549,0 -4.616,-2.066 -4.616,-4.616 v -16.592 c 0,-2.549 2.066,-4.616 4.616,-4.616 h 16.592 c 2.549,0 4.616,2.066 4.616,4.616 v 16.592 c 0,2.549 -2.067,4.616 -4.616,4.616 z"
   id="path86"
   inkscape:connector-curvature="0"
   style="fill:#ffffff;fill-opacity:1" />
</svg>