<?xml version="1.0" encoding="UTF-8" standalone="no"?>
<svg
   xmlns:dc="http://purl.org/dc/elements/1.1/"
   xmlns:cc="http://creativecommons.org/ns#"
   xmlns:rdf="http://www.w3.org/1999/02/22-rdf-syntax-ns#"
   xmlns:svg="http://www.w3.org/2000/svg"
   xmlns="http://www.w3.org/2000/svg"
   xmlns:sodipodi="http://sodipodi.sourceforge.net/DTD/sodipodi-0.dtd"
   xmlns:inkscape="http://www.inkscape.org/namespaces/inkscape"
   version="1.0"
   width="2427.5813pt"
   height="331.18018pt"
   viewBox="0 0 2427.5813 331.18018"
   preserveAspectRatio="xMidYMid meet"
   id="svg40"
   sodipodi:docname="western-digital.svg"
   inkscape:version="0.92.3 (2405546, 2018-03-11)">
  <metadata
     id="metadata46">
    <rdf:RDF>
      <cc:Work
         rdf:about="">
        <dc:format>image/svg+xml</dc:format>
        <dc:type
           rdf:resource="http://purl.org/dc/dcmitype/StillImage" />
        <dc:title></dc:title>
      </cc:Work>
    </rdf:RDF>
  </metadata>
  <defs
     id="defs44" />
  <sodipodi:namedview
     pagecolor="#ffffff"
     bordercolor="#666666"
     borderopacity="1"
     objecttolerance="10"
     gridtolerance="10"
     guidetolerance="10"
     inkscape:pageopacity="0"
     inkscape:pageshadow="2"
     inkscape:window-width="1233"
     inkscape:window-height="818"
     id="namedview42"
     showgrid="false"
     fit-margin-top="0"
     fit-margin-left="0"
     fit-margin-right="0"
     fit-margin-bottom="0"
     inkscape:zoom="0.22252747"
     inkscape:cx="2199.282"
     inkscape:cy="261.61879"
     inkscape:window-x="3046"
     inkscape:window-y="310"
     inkscape:window-maximized="0"
     inkscape:current-layer="svg40" />
  <path
     style="fill:#ffffff;fill-opacity:1;stroke:none;stroke-width:0.1"
     inkscape:connector-curvature="0"
     id="path2"
     d="m 1651.0006,1.3950803 c -9.2,3.3 -15.6,9.6999997 -18.5,18.6999997 -2,6.2 -0.9,17.5 2.3,22.9 6,10.1 15.9,15.3 27.6,14.5 8.1,-0.6 13.3,-3.1 18.9,-9.1 5.7,-6.3 7.5,-10.8 7.5,-19.2 0.1,-8.2 -2.2,-14.1 -7.7,-20.2999997 -7,-7.7 -20.3,-11 -30.1,-7.5 z" />
  <path
     style="fill:#ffffff;fill-opacity:1;stroke:none;stroke-width:0.1"
     inkscape:connector-curvature="0"
     id="path4"
     d="m 1937.0006,1.3950803 c -6.7,2.4 -10.9,5.5 -14.3,10.5999997 -4,5.8 -5.2,9.9 -5.2,17.7 0,16.6 13.8,29 30.9,27.8 8.1,-0.6 13.3,-3.1 18.9,-9.1 5.7,-6.3 7.5,-10.8 7.5,-19.2 0.1,-8 -2.1,-13.9 -7.2,-19.7999997 -7.1,-8 -20.7,-11.5 -30.6,-8 z" />
  <path
     style="fill:#ffffff;fill-opacity:1;stroke:none;stroke-width:0.1"
     inkscape:connector-curvature="0"
     id="path6"
     d="M 5.8546144e-4,4.6950803 C -0.19941454,5.0950803 50.900585,204.19508 63.600585,252.39508 l 2.2,8.3 h 34.300005 34.3 l 1,-3.8 c 1.2,-4.5 13.4,-52.2 31.3,-122.5 7.2,-28.4 13.4,-51.7 13.7,-51.7 0.3,0 3.2,10.2 6.4,22.8 5.5,21.7 38.1,149.6 39.3,153.7 0.5,2 1.2,2 32.7,1.7 17.7,-0.2 32.3,-0.4 32.4,-0.6 0.2,-0.1 2.6,-9 5.3,-19.7 2.7,-10.7 6.3,-24.6 8,-30.9 14.7,-55.8 52.8,-204.5999997 52.5,-204.9999997 -0.2,-0.3 -11.5,-0.4 -25.3,-0.2 l -24.9,0.3 -3.7,14.1999997 c -1.9,7.8 -12.3,48.4 -22.9,90.2 -11.7,45.9 -19.7,75.2 -20,74 -0.6,-1.9 -9.5,-36.4 -26.7,-104 -8.6,-33.7 -16.4,-64.5 -18.1,-70.7999997 l -1,-3.7 h -32.4 -32.4 l -0.9,3.2 c -0.5,1.8 -11.2,43.7999997 -23.8,93.2999997 -12.6,49.5 -23,89.3 -23.2,88.5 -0.1,-0.8 -10.800005,-42.7 -23.600005,-93 l -23.3,-91.4999997 -27.3,-0.5 c -14.9,-0.3 -27.29999954,-0.3 -27.49999953856,0 z" />
  <path
     style="fill:#ffffff;fill-opacity:1;stroke:none;stroke-width:0.1"
     inkscape:connector-curvature="0"
     id="path8"
     d="m 1389.9006,5.1950803 c -0.2,0.5 -0.3,58.2999997 -0.2,128.2999997 l 0.3,127.3 52.2,-0.1 c 56.4,0 65,-0.6 83.6,-5.5 30.5,-7.9 54.2,-26.4 67.1,-52.3 9.5,-19 13.8,-40.6 13.8,-69.7 0,-27.3 -3.2,-45.9 -11.3,-64.9 -8.9,-21 -25.8,-39 -46.4,-49.3 -14.7,-7.4 -35.9,-12.9999997 -53.4,-13.8999997 -18.6,-1 -105.3,-0.9 -105.7,0.1 z m 110.7,45.2999997 c 24.2,6.6 39.2,22 45.4,46.8 5,19.5 5.2,50.6 0.5,69.6 -6.3,25.6 -21.1,41.1 -45.6,47.9 -6.8,1.8 -11.3,2.2 -31.6,2.6 l -23.8,0.5 v -85.2 -85.2 l 23.8,0.4 c 19.9,0.4 24.9,0.8 31.3,2.6 z" />
  <path
     style="fill:#ffffff;fill-opacity:1;stroke:none;stroke-width:0.1"
     inkscape:connector-curvature="0"
     id="path10"
     d="m 2302.5006,4.1950803 c 0,0 0,57.6999997 0,128.2999997 v 128.3 h 26.2 26.3 v -128.1 V 4.5950803 l -26.3,-0.2 c -14.4,-0.1 -26.2,-0.2 -26.2,-0.2 z" />
  <path
     style="fill:#ffffff;fill-opacity:1;stroke:none;stroke-width:0.1"
     inkscape:connector-curvature="0"
     id="path12"
     d="m 704.70059,130.89508 0.3,93.3 2.4,7 c 3.3,9.9 5.6,14.1 10.9,19.8 8.2,8.7 16.4,12.6 31.1,14.7 9.2,1.4 27.3,0.1 38.6,-2.7 6.1,-1.6 6.9,-2.1 6.8,-4.1 0,-1.2 -0.1,-8.2 -0.2,-15.6 l -0.1,-13.3 -8.9,0.5 c -14.4,0.8 -22.6,-3.3 -27.5,-13.8 -2,-4.3 -2.1,-6.2 -2.4,-51.2 l -0.3,-46.8 20.2,-0.2 20.1,-0.3 0.2,-17.7 0.1,-17.8 -17.5,-0.1 c -9.6,-0.1 -18.5,0 -19.7,0.1 -3.2,0.2 -3.4,-1.7 -3.1,-24.8 l 0.3,-20.2 h -25.8 -25.8 z" />
  <path
     style="fill:#ffffff;fill-opacity:1;stroke:none;stroke-width:0.1"
     inkscape:connector-curvature="0"
     id="path14"
     d="m 2005.7006,130.39508 c 0.3,85.2 0.5,93.3 2.1,98.8 5.6,18.9 16.7,30.3 34.4,35.1 11.4,3 31.1,2.4 46.8,-1.4 6.8,-1.7 7,-1.8 6.9,-4.7 -0.1,-1.7 -0.2,-8.7 -0.3,-15.6 l -0.1,-12.6 -8.9,0.5 c -11,0.6 -17.1,-1.2 -22.4,-6.6 -7.3,-7.5 -7.2,-6.2 -7.5,-58.4 l -0.3,-46.8 20.3,-0.2 20.3,-0.3 v -17.9 -17.8 l -20,-0.2 -20,-0.1 v -22.3 -22.2 h -25.8 -25.8 z" />
  <path
     style="fill:#ffffff;fill-opacity:1;stroke:none;stroke-width:0.1"
     inkscape:connector-curvature="0"
     id="path16"
     d="m 416.60059,77.69508 c -28.1,4 -51.9,21 -64,45.7 -8.2,16.7 -10.6,27.9 -10.5,49.3 0.1,14.4 0.4,17.7 2.7,26.4 3.4,12.7 10.1,26.4 17.2,35.4 18.3,22.9 48.6,34.5 81.7,31.2 20.1,-2 35.9,-8.6 48.3,-20.2 6.7,-6.3 14.5,-16.3 14.5,-18.6 0,-0.5 -7.7,-5.4 -17.2,-10.8 l -17.1,-9.8 -1.5,2.4 c -0.9,1.4 -4.3,5.2 -7.7,8.6 -8.6,8.6 -14.4,10.8 -29,10.8 -9.9,0.1 -11.6,-0.2 -16.7,-2.6 -11,-5.1 -18.8,-15.1 -22.3,-28.3 -2.7,-10.6 -10.2,-9.5 61.5,-9.5 h 63 v -10.8 c 0,-20.4 -3,-35.9 -10,-50.8 -11.6,-25 -30.7,-40.7 -57,-46.9 -8.1,-1.9 -27.4,-2.7 -35.9,-1.5 z m 20.4,37.1 c 16.4,3 26.8,14.5 30,33.1 l 0.6,3.8 h -37.1 c -42.1,0 -38.4,0.9 -35.4,-9.1 4.9,-16.3 14.7,-25.7 29.2,-27.8 3.1,-0.5 6,-0.9 6.3,-1 0.3,0 3.2,0.4 6.4,1 z" />
  <path
     style="fill:#ffffff;fill-opacity:1;stroke:none;stroke-width:0.1"
     inkscape:connector-curvature="0"
     id="path18"
     d="m 591.60059,77.69508 c -16.6,2.3 -31.2,9.1 -41.2,19 -11,10.8 -15.7,23.7 -14.5,39.1 1.2,14.3 5.9,24.2 16.5,34.1 9,8.6 19,13.4 44.7,21.4 11.5,3.6 23.1,7.8 25.8,9.2 5.7,3.1 8.6,7.2 8.6,12.2 0,9.2 -9,15 -24.5,15.8 -16.3,0.8 -27.1,-3.1 -37.2,-13.5 l -6.3,-6.5 -16.5,9.3 c -9.1,5 -16.8,9.6 -17.1,10.1 -0.9,1.5 4.5,9.7 10.1,15.2 17.6,17.3 46.5,25.7 78.1,22.7 41.8,-4.1 65.4,-24.4 65.4,-56.6 0,-15.6 -5.1,-27.5 -16,-37.8 -9,-8.5 -20.5,-14.1 -45.5,-21.8 -28.1,-8.7 -33.1,-11.6 -34.2,-19.6 -0.7,-5.4 1.7,-9.7 7,-12.5 3.7,-2 5.7,-2.3 16.2,-2.3 11.6,0 12.3,0.1 18.7,3.3 4.6,2.2 8.3,5.1 11.7,8.8 l 4.9,5.6 16.6,-11.2 16.6,-11.2 -3.3,-4.5 c -9.2,-13 -25.8,-22.6 -46.2,-26.9 -8.7,-1.8 -29.8,-2.6 -38.4,-1.4 z" />
  <path
     style="fill:#ffffff;fill-opacity:1;stroke:none;stroke-width:0.1"
     inkscape:connector-curvature="0"
     id="path20"
     d="m 873.70059,77.89508 c -9.2,1.3 -23.7,6.2 -31.2,10.5 -3.9,2.3 -10.5,7.7 -16.5,13.8 -8.2,8.2 -10.9,11.7 -14.7,19 -9.1,17.7 -12.4,33.2 -11.5,55.3 1.6,44.6 25.7,76.5 65.4,86.9 12.5,3.2 34.1,3.6 46.8,0.9 17.2,-3.8 31.6,-11.5 41.7,-22.5 5,-5.4 11.4,-14.8 10.6,-15.6 -0.9,-1 -33.9,-19.5 -34.6,-19.5 -0.5,0 -1.3,1 -1.9,2.2 -2.5,5.3 -9.6,11.8 -16.8,15.4 -6.3,3.1 -8.6,3.7 -16.2,4.1 -9.9,0.6 -17.8,-1.1 -24.2,-5.1 -4.7,-3 -11.4,-10.4 -13.9,-15.3 -2.6,-4.9 -5.2,-13.9 -5.2,-17.5 v -2.8 h 62.6 62.6 l -0.5,-18.3 c -0.4,-15.4 -0.9,-19.6 -3,-27.2 -8.6,-30.5 -27.1,-51.1 -54.2,-60.5 -12.4,-4.3 -31,-5.9 -45.3,-3.8 z m 28.8,39.1 c 3.8,1.3 7.1,3.6 10.6,7.1 5.9,6 9,12 10.8,20.8 l 1.3,6.3 -36.5,0.3 c -20.1,0.1 -36.8,0 -37.1,-0.3 -0.9,-1 1.7,-11.4 4.2,-17 7.9,-17.2 27.2,-24.3 46.7,-17.2 z" />
  <path
     style="fill:#ffffff;fill-opacity:1;stroke:none;stroke-width:0.1"
     inkscape:connector-curvature="0"
     id="path22"
     d="m 1093.0006,77.79508 c -20.3,3 -36.6,13.5 -44,28.2 l -2.5,5.1 v -14.2 -14.2 h -23.5 -23.50001 v 88.8 c 0,48.9 0.2,89.1 0.4,89.3 0.20001,0.2 12.10001,0.3 26.30001,0.1 l 25.8,-0.3 v -49.2 c 0,-38.7 0.3,-50.4 1.4,-54.7 3.3,-13.2 12.2,-25.1 23.1,-30.9 7,-3.7 19.4,-7.1 26.2,-7.1 h 4.8 v -20 c 0,-11 0.1,-20.3 0.3,-20.8 0.3,-1 -7.9,-1.1 -14.8,-0.1 z" />
  <path
     style="fill:#ffffff;fill-opacity:1;stroke:none;stroke-width:0.1"
     inkscape:connector-curvature="0"
     id="path24"
     d="m 1213.6006,78.19508 c -13.6,2.5 -27.1,11.1 -34.9,22 l -2.1,3 -0.1,-10.3 v -10.2 h -26 -26 v 89 89 h 24.4 c 13.4,0 25.1,0.3 26,0.6 1.4,0.6 1.6,-4.7 1.6,-54.8 0,-35.6 0.4,-57.5 1.1,-61.3 2.1,-11.3 7.9,-19.8 16.4,-24 6.1,-3 23.4,-2.9 29.1,0.2 9,4.8 14.7,13.7 16.5,25.6 0.5,3.4 0.9,30.3 0.9,59.7 -0.1,29.4 0.2,53.6 0.5,53.7 0.3,0.2 12,0.3 26.1,0.3 h 25.6 l -0.5,-66.3 c -0.4,-62.6 -0.5,-66.6 -2.4,-73.3 -6.3,-22.3 -20.4,-36.4 -41.8,-41.9 -8.7,-2.2 -25.5,-2.7 -34.4,-1 z" />
  <path
     style="fill:#ffffff;fill-opacity:1;stroke:none;stroke-width:0.1"
     inkscape:connector-curvature="0"
     id="path26"
     d="m 1771.5006,77.79508 c -15.8,2.4 -27.7,8.6 -38.5,20.1 -8.8,9.3 -15.2,21.4 -19.2,36.3 -2.6,9.5 -2.7,11.1 -2.7,33 0,21.8 0.1,23.5 2.7,32.9 1.5,5.5 4.7,14.2 7.3,19.4 3.8,7.9 6,10.9 13.2,18.1 14.6,14.6 26.8,19.3 50.2,19.4 12.3,0.1 14.2,-0.2 21.5,-2.7 10.2,-3.5 16.2,-7.4 22.8,-14.7 l 5.3,-5.8 0.2,8.7 c 0.8,27.8 -8.8,43.8 -29.3,48.9 -5.8,1.4 -8,1.5 -14.7,0.5 -11.3,-1.6 -19.4,-5.9 -27.1,-14.3 l -6.3,-6.7 -17.2,10.2 -17.2,10.2 3.8,6.3 c 4.9,8.3 15.9,18.7 24.7,23.3 24.3,12.7 63.1,13.8 88.8,2.4 18.7,-8.2 33.8,-25.6 40.5,-46.6 5.1,-15.6 5.2,-18.2 5.2,-109.4 v -85.1 l -25.6,0.2 -25.7,0.1 0.2,9.4 0.2,9.3 -5.5,-6.1 c -7,-7.7 -13.5,-11.9 -23.2,-15 -8.8,-2.8 -24.3,-3.8 -34.4,-2.3 z m 42.7,41.5 c 13,6.3 19.5,22.5 19.4,48.9 -0.1,24.9 -6.7,40.7 -19.8,47.1 -7.6,3.8 -19.2,4 -27,0.5 -14.4,-6.4 -20.7,-21.3 -20.7,-48.6 0.1,-21 3,-32 11.1,-41.4 8.4,-9.9 24.3,-12.7 37,-6.5 z" />
  <path
     style="fill:#ffffff;fill-opacity:1;stroke:none;stroke-width:0.1"
     inkscape:connector-curvature="0"
     id="path28"
     d="m 2167.8006,77.79508 c -14.2,1.8 -26.2,6 -36.5,12.8 -6.9,4.6 -18.8,15.9 -18.8,17.9 0,0.5 6.5,6 14.6,12.2 l 14.5,11.2 5.4,-5.2 c 12.5,-11.8 32.3,-15.6 49.3,-9.6 11.6,4.2 19,14.1 19.2,25.7 v 4.6 l -21.2,0.6 c -37.3,0.9 -56.8,6.8 -71.9,21.7 -10.5,10.4 -14.9,21.5 -14.9,38 0,27.7 13.8,47.6 38.5,55.7 6.8,2.2 9.8,2.6 20,2.6 19.8,0.1 34.2,-5.1 45.5,-16.5 5.3,-5.3 6.2,-5.8 6,-3.7 -0.1,1.3 -0.2,5.2 -0.1,8.6 l 0.1,6.3 h 25 25 v -60.4 c 0,-69.1 -0.1,-70.3 -7.4,-85.1 -4.6,-9.3 -11.8,-17.6 -20,-23.1 -17.3,-11.7 -47.1,-17.6 -72.3,-14.3 z m 47.7,110.6 c 0,9.2 -1.9,19.3 -4.6,24.4 -2.4,4.8 -8.4,10.9 -12.8,13.1 -8.9,4.6 -23.1,3.3 -31,-2.7 -8.6,-6.5 -10.6,-21.9 -4.1,-31.7 5.6,-8.4 15.7,-11.6 37.3,-11.7 l 15.2,-0.1 z" />
  <path
     style="fill:#ffffff;fill-opacity:1;stroke:none;stroke-width:0.1"
     inkscape:connector-curvature="0"
     id="path30"
     d="m 1658.8006,82.49508 -25.3,0.2 v 89 88.9 l 26.5,0.3 26.5,0.3 v -89.6 c 0,-71 -0.3,-89.5 -1.2,-89.5 -0.7,0.1 -12.7,0.2 -26.5,0.4 z" />
  <path
     style="fill:#ffffff;fill-opacity:1;stroke:none;stroke-width:0.1"
     inkscape:connector-curvature="0"
     id="path32"
     d="m 1919.5006,171.69508 v 88.9 l 26.5,0.3 26.5,0.3 v -89.3 -89.2 h -26.5 -26.5 z" />
  <path
     style="fill:#ffffff;fill-opacity:1;stroke:none;stroke-width:0.1"
     inkscape:connector-curvature="0"
     id="path34"
     d="m 2397.7006,222.99508 c -11.4,4.2 -17.4,18 -12.7,29.5 7.2,17.1 31.7,18.5 40.2,2.3 3,-5.7 3.2,-15.5 0.4,-20.9 -5.2,-10.1 -17.1,-14.8 -27.9,-10.9 z m 16.9,5.8 c 6.8,3.4 10.4,12.8 8,20.2 -6,18 -31.3,16.1 -34.7,-2.6 -1.3,-7.4 5.3,-17.7 12.4,-19.3 1.5,-0.3 3.2,-0.7 3.7,-0.9 1.7,-0.6 6.8,0.7 10.6,2.6 z" />
  <path
     style="fill:#ffffff;fill-opacity:1;stroke:none;stroke-width:0.1"
     inkscape:connector-curvature="0"
     id="path36"
     d="m 2397.6006,230.49508 c -0.7,0.2 -1.1,5.1 -1.1,13.3 v 12.9 h 2.5 c 2.4,0 2.5,-0.3 2.5,-5.5 0,-4.6 0.3,-5.5 1.8,-5.5 3.1,0 5.4,2.5 6.1,6.6 0.5,3.3 1,3.9 3.3,4.2 2.5,0.3 2.6,0.2 2.1,-4 -0.3,-2.4 -1.1,-5.3 -1.9,-6.5 -1.1,-1.8 -1.1,-2.3 0.1,-3.3 2,-1.7 1.9,-8.4 -0.1,-10.1 -1.6,-1.3 -13.1,-2.8 -15.3,-2.1 z m 10.3,4.8 c 0.9,0.3 1.6,1.6 1.6,2.9 0,2.4 -1.7,3.5 -5.5,3.5 -1.9,0 -2.3,-0.5 -2.2,-3.5 0.1,-2.9 0.5,-3.5 2.3,-3.5 1.2,0 2.9,0.3 3.8,0.6 z" />
</svg>
