<svg id="Layer_3" data-name="Layer 3" xmlns="http://www.w3.org/2000/svg" viewBox="0 0 615.74 189.52"><title>iRODS-Logo-RTM_teal_white</title><rect width="615.74" height="189.52" fill="none"/><path d="M301,95.57q0,23.81-17.09,40.8t-40.72,17q-23.62,0-40.72-17T185.37,95.91q0-24.12,16.68-40.55t41.13-16.45q23.13,0,40.47,16.85T301,95.57Zm-21,0A33.4,33.4,0,0,0,269.2,70.63a37.94,37.94,0,0,0-52-.16,33.22,33.22,0,0,0-10.81,25.1,35,35,0,0,0,10.81,25.77,36.89,36.89,0,0,0,52,0A35,35,0,0,0,280,95.57Z" transform="translate(0 0.96)" fill="#fff"/><path d="M427.36,95.91a53.47,53.47,0,0,1-16.27,39.23,53.5,53.5,0,0,1-39.23,16.26H323.29V40.73h48.57a53.63,53.63,0,0,1,39.23,16.19A53,53,0,0,1,427.36,95.91Zm-21.31,0a33.06,33.06,0,0,0-10-24.12,32.82,32.82,0,0,0-24.2-10.08H344.27v68.72h27.59a32.82,32.82,0,0,0,24.2-10.08A33.42,33.42,0,0,0,406.05,95.91Z" transform="translate(0 0.96)" fill="#fff"/><path d="M554.22,118.37Q554,134.56,541.41,144t-35.76,9.41q-31.87,0-55-16.68l12.06-17.19Q481,132.09,505,132.25q14.7-.51,21.72-4.13t7.19-9.91q.5-6.12-6.94-10t-23.29-5.53q-27.92-3-37.33-11.32T457.09,69.8q.33-14.2,13.54-22.38T503,38.91q22.46,0,44.27,13.06L535.72,68.82q-14.72-8.59-34.2-8.6a53.85,53.85,0,0,0-15.93,2q-7.53,2.15-7.19,7.59-.34,5,6.44,7.85T508,82.2q25.75,2.31,36,13T554.22,118.37Z" transform="translate(0 0.96)" fill="#fff"/><path d="M137.8,108A35.09,35.09,0,0,0,155,95.24a34.25,34.25,0,0,0-3.72-44.34,33.58,33.58,0,0,0-24.69-10.17H80v21h46.59a13.37,13.37,0,0,1,9.82,4.05,13,13,0,0,1,4.05,9.5,13.19,13.19,0,0,1-4.05,9.66,13.37,13.37,0,0,1-9.82,4H80v21h34.2l24.44,41.46h24.45Z" transform="translate(0 0.96)" fill="#fff"/><rect x="39.17" y="90.34" width="20.98" height="62.03" fill="#00bdac"/><rect x="39.17" y="41.7" width="20.98" height="20.98" fill="#00bdac"/><path d="M576.49,139.88a4.42,4.42,0,0,0,2.18-1.61,4.37,4.37,0,0,0-3.6-6.9h-5.89v14h2.65v-5.25h1.67l3.1,5.25h3.09Zm-1.42-2.4h-3.24V134h3.24a1.68,1.68,0,0,1,1.24.51,1.61,1.61,0,0,1,.52,1.2,1.66,1.66,0,0,1-.52,1.23A1.68,1.68,0,0,1,575.07,137.48Z" transform="translate(0 0.96)" fill="#fff"/><path d="M585.74,133.49a12.58,12.58,0,0,0-16.45-6.68,12.72,12.72,0,0,0-5.52,4.55,12.56,12.56,0,0,0,10.41,19.57,12.54,12.54,0,0,0,10.41-5.54,12.56,12.56,0,0,0,1.15-11.9Zm-2.45,8.74a9.89,9.89,0,1,1,.78-3.85A9.88,9.88,0,0,1,583.29,142.23Z" transform="translate(0 0.96)" fill="#fff"/></svg>