<svg id="Layer_4" data-name="Layer 4" xmlns="http://www.w3.org/2000/svg" viewBox="0 0 615.74 189.52"><title>iRODS-Logo-RTM_white</title><rect width="615.74" height="189.52" fill="none"/><path d="M299.43,97.77q0,23.79-17.1,40.8t-40.71,17q-23.62,0-40.72-17T183.81,98.1q0-24.12,16.68-40.55t41.13-16.44q23.13,0,40.47,16.85T299.43,97.77Zm-21,0a33.42,33.42,0,0,0-10.82-25,38,38,0,0,0-52-.16,33.23,33.23,0,0,0-10.81,25.11,35,35,0,0,0,10.81,25.77,36.91,36.91,0,0,0,52,0A35,35,0,0,0,278.46,97.77Z" transform="translate(1.56 -1.23)" fill="#fff"/><path d="M425.79,98.1a53.47,53.47,0,0,1-16.27,39.23,53.47,53.47,0,0,1-39.23,16.26H321.73V42.93h48.56a53.56,53.56,0,0,1,39.23,16.19A53,53,0,0,1,425.79,98.1Zm-21.3,0a34.26,34.26,0,0,0-34.2-34.2H342.71v68.72h27.58a32.84,32.84,0,0,0,24.21-10.08A33.42,33.42,0,0,0,404.49,98.1Z" transform="translate(1.56 -1.23)" fill="#fff"/><path d="M552.66,120.56q-.18,16.2-12.81,25.61t-35.76,9.41q-31.87,0-55-16.68l12.07-17.19q18.33,12.57,42.28,12.73,14.7-.51,21.72-4.13t7.19-9.91q.48-6.12-6.94-10t-23.29-5.53q-27.92-3-37.33-11.32T455.53,72q.32-14.2,13.54-22.38t32.38-8.51q22.45,0,44.27,13L534.16,71q-14.71-8.6-34.2-8.59a54,54,0,0,0-15.94,2q-7.51,2.14-7.18,7.6-.34,4.95,6.43,7.85t23.13,4.54q25.77,2.31,36,13T552.66,120.56Z" transform="translate(1.56 -1.23)" fill="#fff"/><path d="M136.24,110.16a35,35,0,0,0,17.18-12.73,34.25,34.25,0,0,0-3.72-44.34A33.65,33.65,0,0,0,125,42.93H78.42v21H125A13.37,13.37,0,0,1,134.83,68a13,13,0,0,1,4,9.5,13.19,13.19,0,0,1-4,9.67,13.4,13.4,0,0,1-9.83,4H78.42v21h34.19l24.45,41.46h24.45Z" transform="translate(1.56 -1.23)" fill="#fff"/><rect x="39.17" y="90.34" width="20.98" height="62.03" fill="#fff"/><rect x="39.17" y="41.7" width="20.98" height="20.98" fill="#fff"/><path d="M574.93,142.07a4.35,4.35,0,0,0,2.17-1.61,4.15,4.15,0,0,0,.82-2.52,4.22,4.22,0,0,0-1.29-3.09,4.26,4.26,0,0,0-3.12-1.28h-5.9v14h2.66v-5.25h1.67l3.09,5.25h3.1Zm-1.42-2.4h-3.24v-3.45h3.24a1.68,1.68,0,0,1,1.24.51,1.7,1.7,0,0,1,0,2.43A1.68,1.68,0,0,1,573.51,139.67Z" transform="translate(1.56 -1.23)" fill="#fff"/><path d="M584.18,135.68A12.53,12.53,0,0,0,572.62,128a12.45,12.45,0,0,0-4.89,1,12.53,12.53,0,0,0-7.66,11.56,12.55,12.55,0,1,0,24.11-4.89Zm-2.45,8.74a10,10,0,0,1-3.58,4.35,9.89,9.89,0,0,1-9.38.91,9.88,9.88,0,0,1-1.68-17.31,9.94,9.94,0,0,1,9.38-.92,10,10,0,0,1,4.35,3.59,9.89,9.89,0,0,1,.91,9.38Z" transform="translate(1.56 -1.23)" fill="#fff"/></svg>