<svg id="iRODS_Logo" data-name="iRODS Logo" xmlns="http://www.w3.org/2000/svg" viewBox="0 0 547.56 114.47"><title>iRODS-Logo-RTM_teal</title><path d="M301,96.54q0,23.79-17.09,40.8t-40.72,17q-23.62,0-40.72-17T185.37,96.87q0-24.12,16.68-40.55t41.13-16.44q23.13,0,40.47,16.85T301,96.54Zm-21,0A33.4,33.4,0,0,0,269.2,71.6a36.19,36.19,0,0,0-26-10.41,36.55,36.55,0,0,0-26,10.24,33.24,33.24,0,0,0-10.81,25.11,35,35,0,0,0,10.81,25.77,36.91,36.91,0,0,0,52,0A35,35,0,0,0,280,96.54Z" transform="translate(-39.17 -39.88)" fill="#00bdac"/><path d="M427.36,96.87a53.45,53.45,0,0,1-16.27,39.23,53.47,53.47,0,0,1-39.23,16.27H323.29V41.7h48.57a53.59,53.59,0,0,1,39.23,16.19A53,53,0,0,1,427.36,96.87Zm-21.31,0a34.24,34.24,0,0,0-34.19-34.19H344.27v68.71h27.59a32.78,32.78,0,0,0,24.2-10.08A33.41,33.41,0,0,0,406.05,96.87Z" transform="translate(-39.17 -39.88)" fill="#00bdac"/><path d="M554.22,119.34q-.18,16.18-12.81,25.6t-35.76,9.41q-31.87,0-55-16.68l12.06-17.18Q481,133,505,133.21q14.7-.5,21.72-4.13t7.19-9.91c.33-4.08-2-7.4-6.94-10s-12.72-4.43-23.29-5.52q-27.92-3-37.33-11.33t-9.25-21.55q.33-14.2,13.54-22.38T503,39.88q22.46,0,44.27,13L535.72,69.78q-14.72-8.6-34.2-8.59a53.85,53.85,0,0,0-15.93,2q-7.53,2.16-7.19,7.6-.34,5,6.44,7.85T508,83.16q25.75,2.31,36,13T554.22,119.34Z" transform="translate(-39.17 -39.88)" fill="#00bdac"/><path d="M137.8,108.93A35,35,0,0,0,155,96.21a34.27,34.27,0,0,0-3.72-44.35A33.61,33.61,0,0,0,126.57,41.7H80v21h46.59a13.37,13.37,0,0,1,9.82,4.05,13,13,0,0,1,4.05,9.5,13.19,13.19,0,0,1-4.05,9.66,13.4,13.4,0,0,1-9.82,4H80v21h34.2l24.44,41.46h24.45Z" transform="translate(-39.17 -39.88)" fill="#00bdac"/><rect y="50.46" width="20.98" height="62.03" fill="#00bdac"/><rect y="1.82" width="20.98" height="20.98" fill="#00bdac"/><path d="M576.49,140.85a4.48,4.48,0,0,0,2.18-1.61,4.36,4.36,0,0,0-.47-5.62,4.29,4.29,0,0,0-3.13-1.28h-5.89v14h2.65V141.1h1.67l3.1,5.24h3.09Zm-1.42-2.41h-3.24V135h3.24a1.65,1.65,0,0,1,1.24.52,1.61,1.61,0,0,1,.52,1.2,1.64,1.64,0,0,1-.52,1.22A1.68,1.68,0,0,1,575.07,138.44Z" transform="translate(-39.17 -39.88)" fill="#00bdac"/><path d="M585.74,134.46a12.56,12.56,0,1,0,1,4.88A12.52,12.52,0,0,0,585.74,134.46Zm-2.45,8.73a9.92,9.92,0,0,1-13,5.27,9.9,9.9,0,1,1,13-5.27Z" transform="translate(-39.17 -39.88)" fill="#00bdac"/></svg>